solid Created by Gmsh
facet normal -0.126258 -0.251439 -0.959603
  outer loop
    vertex 6.123233995736766e-17 -1.499759782661858e-32 -1
    vertex 0.1532595193732089 -0.2004481683519606 -0.9676425225907742
    vertex -0.2434776048326429 0.007304833245208976 -0.9698790106792801
  endloop
endfacet
facet normal 0.0490678 -0.502685 0.863076
  outer loop
    vertex -0.05151768388190495 -0.6465004194464135 0.7611722117254778
    vertex 0.2490512659209186 -0.501424833200068 0.8285810784669608
    vertex -0.1316622104253976 -0.4176555253485275 0.8990155307288878
  endloop
endfacet
facet normal 0.911298 0.411617 -0.0103322
  outer loop
    vertex 0.81268295660895 0.5825630518529841 -0.01291133815966015
    vertex 0.94670754722786 0.2896975088286888 0.1407841376017233
    vertex 0.9461608841921922 0.2834500571065208 -0.1563190530644261
  endloop
endfacet
facet normal -0.0257358 0.683086 -0.729884
  outer loop
    vertex -0.2019000441447117 0.7435501230508319 -0.6374712438106179
    vertex 0.1434027428692449 0.7586701012199484 -0.6354961296911968
    vertex -0.105769050730852 0.5278649612155421 -0.842716732139815
  endloop
endfacet
facet normal -0.853434 -0.426511 0.299566
  outer loop
    vertex -0.7655255095975376 -0.4514496092890075 0.4584364126334565
    vertex -0.9187442133780306 -0.2552754474507649 0.3012366450370798
    vertex -0.8270008789567693 -0.5396040942966248 0.1577877296339931
  endloop
endfacet
facet normal -0.0190691 0.959553 -0.28088
  outer loop
    vertex 0.1239027812527623 0.9763550398805285 -0.1771410085150291
    vertex -0.04930285389151199 0.8949838177562863 -0.4433657570815939
    vertex -0.1502721127990946 0.9752068720582461 -0.1624495269468877
  endloop
endfacet
facet normal -0.915903 -0.371825 0.151221
  outer loop
    vertex -0.8270008789567693 -0.5396040942966248 0.1577877296339931
    vertex -0.9187442133780306 -0.2552754474507649 0.3012366450370798
    vertex -0.944996645452809 -0.3256306981704384 -0.03075692591874094
  endloop
endfacet
facet normal -0.752564 -0.574275 0.322267
  outer loop
    vertex -0.8270008789567693 -0.5396040942966248 0.1577877296339931
    vertex -0.6341711290617529 -0.7129945014747381 0.299108374893334
    vertex -0.7655255095975376 -0.4514496092890075 0.4584364126334565
  endloop
endfacet
facet normal -0.708458 0.11101 0.696968
  outer loop
    vertex -0.6123373096965558 -0.05572126462398221 0.7886305597821381
    vertex -0.5932503476282949 0.2809141467291165 0.754414519482731
    vertex -0.8275626354359725 0.1767029800310582 0.5328378189265576
  endloop
endfacet
facet normal 0.0676736 -0.443773 0.89358
  outer loop
    vertex -0.1316622104253976 -0.4176555253485275 0.8990155307288878
    vertex 0.2490512659209186 -0.501424833200068 0.8285810784669608
    vertex 0.1506325540503648 -0.2698172279019946 0.9510565162951922
  endloop
endfacet
facet normal -0.758076 0.0155519 0.65198
  outer loop
    vertex -0.8275626354359725 0.1767029800310582 0.5328378189265576
    vertex -0.8218054525067866 -0.157702838139354 0.5475085506847437
    vertex -0.6123373096965558 -0.05572126462398221 0.7886305597821381
  endloop
endfacet
facet normal -0.149315 0.935313 -0.320771
  outer loop
    vertex -0.1502721127990946 0.9752068720582461 -0.1624495269468877
    vertex -0.04930285389151199 0.8949838177562863 -0.4433657570815939
    vertex -0.2991029687862953 0.8836398764484549 -0.360163827741465
  endloop
endfacet
facet normal 0.880728 0.460704 0.109861
  outer loop
    vertex 0.81268295660895 0.5825630518529841 -0.01291133815966015
    vertex 0.8122811979898329 0.5149228209324234 0.2739593836231886
    vertex 0.94670754722786 0.2896975088286888 0.1407841376017233
  endloop
endfacet
facet normal 0.570539 -0.373579 -0.731385
  outer loop
    vertex 0.6946730536688458 -0.4357611644628021 -0.5723124636528752
    vertex 0.4816649737484846 -0.5570733165097084 -0.6765117686313711
    vertex 0.4371526982924658 -0.2698172279354422 -0.8579604780436275
  endloop
endfacet
facet normal 0.569727 -0.374829 -0.731379
  outer loop
    vertex 0.4371526982924658 -0.2698172279354422 -0.8579604780436275
    vertex 0.6917884885668124 -0.2070202264825962 -0.6917884885668016
    vertex 0.6946730536688458 -0.4357611644628021 -0.5723124636528752
  endloop
endfacet
facet normal 0.78092 0.178713 -0.59852
  outer loop
    vertex 0.6773164991001339 0.3107900810235737 -0.6668222293715911
    vertex 0.8530311313051616 0.2591113631170988 -0.4529891726386353
    vertex 0.8090169943749473 -1.981520145234183e-16 -0.5877852522924732
  endloop
endfacet
facet normal -0.0772618 -0.158141 -0.984389
  outer loop
    vertex -0.2434776048326429 0.007304833245208976 -0.9698790106792801
    vertex 0.1532595193732089 -0.2004481683519606 -0.9676425225907742
    vertex -0.2776188421293826 -0.264723229399222 -0.9234984517102277
  endloop
endfacet
facet normal -0.0316 0.799943 -0.599243
  outer loop
    vertex -0.2019000441447117 0.7435501230508319 -0.6374712438106179
    vertex -0.04930285389151199 0.8949838177562863 -0.4433657570815939
    vertex 0.1434027428692449 0.7586701012199484 -0.6354961296911968
  endloop
endfacet
facet normal -0.964945 -0.230671 0.125186
  outer loop
    vertex -0.944996645452809 -0.3256306981704384 -0.03075692591874094
    vertex -0.9187442133780306 -0.2552754474507649 0.3012366450370798
    vertex -0.9934508449536024 -0.05066447859025476 0.102413520934256
  endloop
endfacet
facet normal 0.325862 0.618861 0.71472
  outer loop
    vertex 0.1393305959919812 0.6032867757347148 0.7852592255071769
    vertex 0.4715958390755145 0.4837154305235901 0.7373037005468229
    vertex 0.3085053947675671 0.7591370120730651 0.5731800923794255
  endloop
endfacet
facet normal 0.0792111 0.93775 -0.338157
  outer loop
    vertex 0.2235967880760492 0.8829690200954559 -0.4127592348012879
    vertex -0.04930285389151199 0.8949838177562863 -0.4433657570815939
    vertex 0.1239027812527623 0.9763550398805285 -0.1771410085150291
  endloop
endfacet
facet normal 0.566515 -0.783194 -0.256258
  outer loop
    vertex 0.4412340705950559 -0.8797188451742977 -0.1772209028058408
    vertex 0.6160292435750548 -0.6826743353074685 -0.3930187310712454
    vertex 0.6807327840420017 -0.7195601499698048 -0.1372445529187141
  endloop
endfacet
facet normal 0.755873 0.388011 -0.527355
  outer loop
    vertex 0.6662471851407944 0.5408452145025476 -0.513421018503977
    vertex 0.8530311313051616 0.2591113631170988 -0.4529891726386353
    vertex 0.6773164991001339 0.3107900810235737 -0.6668222293715911
  endloop
endfacet
facet normal -0.0812686 0.352972 -0.932098
  outer loop
    vertex -0.105769050730852 0.5278649612155421 -0.842716732139815
    vertex 0.0608843992130394 0.221533797533852 -0.9732501561688534
    vertex -0.2715168360327507 0.3014423959080207 -0.9140082547220219
  endloop
endfacet
facet normal 0.702085 0.118969 -0.702085
  outer loop
    vertex 0.5877852522924729 -1.439658655611993e-16 -0.8090169943749476
    vertex 0.6773164991001339 0.3107900810235737 -0.6668222293715911
    vertex 0.8090169943749473 -1.981520145234183e-16 -0.5877852522924732
  endloop
endfacet
facet normal 0.884481 0.45136 -0.118187
  outer loop
    vertex 0.9461608841921922 0.2834500571065208 -0.1563190530644261
    vertex 0.8194343412572401 0.4987615668670403 -0.2824256712564346
    vertex 0.81268295660895 0.5825630518529841 -0.01291133815966015
  endloop
endfacet
facet normal 0.0396189 0.643521 -0.764402
  outer loop
    vertex -0.105769050730852 0.5278649612155421 -0.842716732139815
    vertex 0.1434027428692449 0.7586701012199484 -0.6354961296911968
    vertex 0.1673046779247925 0.5093951656255877 -0.8441123799481687
  endloop
endfacet
facet normal -0.0610199 -0.253911 -0.965301
  outer loop
    vertex -0.2776188421293826 -0.264723229399222 -0.9234984517102277
    vertex 0.1532595193732089 -0.2004481683519606 -0.9676425225907742
    vertex 0.03205807963512212 -0.4419931963501241 -0.8964453658256641
  endloop
endfacet
facet normal 0.129192 -0.625271 0.76964
  outer loop
    vertex 0.2703002414245385 -0.6882724060491154 0.6732153255513407
    vertex 0.2490512659209186 -0.501424833200068 0.8285810784669608
    vertex -0.05151768388190495 -0.6465004194464135 0.7611722117254778
  endloop
endfacet
facet normal 0.546566 0.213077 -0.809854
  outer loop
    vertex 0.3569270192488652 0.280553875011349 -0.8910065241883678
    vertex 0.6773164991001339 0.3107900810235737 -0.6668222293715911
    vertex 0.5877852522924729 -1.439658655611993e-16 -0.8090169943749476
  endloop
endfacet
facet normal -0.532105 0.115424 0.838774
  outer loop
    vertex -0.3637626917038727 0.07270030925185432 0.9286502943299152
    vertex -0.5932503476282949 0.2809141467291165 0.754414519482731
    vertex -0.6123373096965558 -0.05572126462398221 0.7886305597821381
  endloop
endfacet
facet normal 0.502309 -0.80135 -0.324843
  outer loop
    vertex 0.4412340705950559 -0.8797188451742977 -0.1772209028058408
    vertex 0.3765030141354506 -0.8095472506605752 -0.450420613754327
    vertex 0.6160292435750548 -0.6826743353074685 -0.3930187310712454
  endloop
endfacet
facet normal -0.67246 -0.600931 0.432063
  outer loop
    vertex -0.7655255095975376 -0.4514496092890075 0.4584364126334565
    vertex -0.6341711290617529 -0.7129945014747381 0.299108374893334
    vertex -0.5475408391943916 -0.6247447742758364 0.5566803359463453
  endloop
endfacet
facet normal 0.557946 0.191015 0.807595
  outer loop
    vertex 0.5877852522924734 -1.439658655611994e-16 0.8090169943749472
    vertex 0.6808812905078324 0.2698172279020885 0.6808812905078396
    vertex 0.3889462625001999 0.2341541772868659 0.8910065241883678
  endloop
endfacet
facet normal -0.1183 -0.908173 -0.401532
  outer loop
    vertex -0.0783768217068586 -0.9705355339040457 -0.2278548907720007
    vertex -0.3028137859412151 -0.8726976988846472 -0.3830176724452667
    vertex 0.0378504391686877 -0.8658555238516784 -0.4988602570562954
  endloop
endfacet
facet normal 0.211907 -0.828353 -0.518581
  outer loop
    vertex 0.267053300521331 -0.7151225503348193 -0.6459738947382374
    vertex 0.3765030141354506 -0.8095472506605752 -0.450420613754327
    vertex 0.0378504391686877 -0.8658555238516784 -0.4988602570562954
  endloop
endfacet
facet normal 0.208976 -0.865942 -0.454394
  outer loop
    vertex 0.0378504391686877 -0.8658555238516784 -0.4988602570562954
    vertex 0.3765030141354506 -0.8095472506605752 -0.450420613754327
    vertex 0.1951023885276563 -0.936091357894737 -0.2926910105650514
  endloop
endfacet
facet normal 0.45111 0.112466 -0.885354
  outer loop
    vertex 0.3090169943749472 -7.568733460868295e-17 -0.9510565162951536
    vertex 0.3569270192488652 0.280553875011349 -0.8910065241883678
    vertex 0.5877852522924729 -1.439658655611993e-16 -0.8090169943749476
  endloop
endfacet
facet normal 0.299993 0.510401 0.805912
  outer loop
    vertex 0.1393305959919812 0.6032867757347148 0.7852592255071769
    vertex 0.1877735031658349 0.394242994378503 0.8996185707800288
    vertex 0.4715958390755145 0.4837154305235901 0.7373037005468229
  endloop
endfacet
facet normal -0.132417 0.17277 -0.976021
  outer loop
    vertex 0.0608843992130394 0.221533797533852 -0.9732501561688534
    vertex -0.2434776048326429 0.007304833245208976 -0.9698790106792801
    vertex -0.2715168360327507 0.3014423959080207 -0.9140082547220219
  endloop
endfacet
facet normal 0.157185 -0.492855 -0.855796
  outer loop
    vertex 0.03205807963512212 -0.4419931963501241 -0.8964453658256641
    vertex 0.219427873679698 -0.3745713840717463 -0.9008594154955494
    vertex 0.2709269258050469 -0.5468325035737978 -0.7921949342864034
  endloop
endfacet
facet normal -0.446005 0.231836 0.864484
  outer loop
    vertex -0.3637626917038727 0.07270030925185432 0.9286502943299152
    vertex -0.3205021079773501 0.3747492464384727 0.8699663218055466
    vertex -0.5932503476282949 0.2809141467291165 0.754414519482731
  endloop
endfacet
facet normal 0.530039 0.31046 0.789096
  outer loop
    vertex 0.6808812905078324 0.2698172279020885 0.6808812905078396
    vertex 0.4715958390755145 0.4837154305235901 0.7373037005468229
    vertex 0.3889462625001999 0.2341541772868659 0.8910065241883678
  endloop
endfacet
facet normal 0.473053 0.64057 0.604889
  outer loop
    vertex 0.3085053947675671 0.7591370120730651 0.5731800923794255
    vertex 0.4715958390755145 0.4837154305235901 0.7373037005468229
    vertex 0.6043330483682225 0.658758634950746 0.448127914247485
  endloop
endfacet
facet normal 0.0225299 0.402261 -0.915248
  outer loop
    vertex 0.1673046779247925 0.5093951656255877 -0.8441123799481687
    vertex 0.0608843992130394 0.221533797533852 -0.9732501561688534
    vertex -0.105769050730852 0.5278649612155421 -0.842716732139815
  endloop
endfacet
facet normal -0.0512327 -0.243144 0.968636
  outer loop
    vertex 0.1506325540503648 -0.2698172279019946 0.9510565162951922
    vertex -0.2126818658293453 -0.1178350488252355 0.9699903737747622
    vertex -0.1316622104253976 -0.4176555253485275 0.8990155307288878
  endloop
endfacet
facet normal 0.0358642 -0.937303 -0.346666
  outer loop
    vertex 0.0378504391686877 -0.8658555238516784 -0.4988602570562954
    vertex 0.1951023885276563 -0.936091357894737 -0.2926910105650514
    vertex -0.0783768217068586 -0.9705355339040457 -0.2278548907720007
  endloop
endfacet
facet normal 0.355866 0.401803 0.84375
  outer loop
    vertex 0.4715958390755145 0.4837154305235901 0.7373037005468229
    vertex 0.1877735031658349 0.394242994378503 0.8996185707800288
    vertex 0.3889462625001999 0.2341541772868659 0.8910065241883678
  endloop
endfacet
facet normal -0.158172 -0.842527 -0.514907
  outer loop
    vertex 0.0378504391686877 -0.8658555238516784 -0.4988602570562954
    vertex -0.3028137859412151 -0.8726976988846472 -0.3830176724452667
    vertex -0.258586359645222 -0.7248268436712048 -0.6385602096114906
  endloop
endfacet
facet normal 0.711657 0.612732 0.343662
  outer loop
    vertex 0.8122811979898329 0.5149228209324234 0.2739593836231886
    vertex 0.6664618034876204 0.709494292581566 0.2290120374264453
    vertex 0.6043330483682225 0.658758634950746 0.448127914247485
  endloop
endfacet
facet normal 0.726401 0.548102 0.41464
  outer loop
    vertex 0.6043330483682225 0.658758634950746 0.448127914247485
    vertex 0.7075428608398615 0.4468037973895952 0.547493805182106
    vertex 0.8122811979898329 0.5149228209324234 0.2739593836231886
  endloop
endfacet
facet normal 0.702825 -0.60527 0.373745
  outer loop
    vertex 0.815958384364371 -0.5151357131582024 0.2623873320388693
    vertex 0.6951101331150221 -0.4963630715932134 0.5200438481506794
    vertex 0.5970890712367355 -0.7397972880177024 0.3101364436039485
  endloop
endfacet
facet normal -0.657189 0.713609 -0.242621
  outer loop
    vertex -0.7286992721604668 0.6777039759912975 -0.09856313549391987
    vertex -0.5258673171171366 0.8128471990513342 -0.2504855201053055
    vertex -0.708145073442967 0.6082204801833233 -0.3586061940960064
  endloop
endfacet
facet normal -0.696234 -0.643762 -0.317536
  outer loop
    vertex -0.79317085026353 -0.5820507804667312 -0.1791560527872227
    vertex -0.6930950873771879 -0.5471923995269187 -0.4692543849060776
    vertex -0.5727651661938253 -0.7696636629994051 -0.2820601181544424
  endloop
endfacet
facet normal 0.233266 0.165273 -0.958265
  outer loop
    vertex 0.3090169943749472 -7.568733460868295e-17 -0.9510565162951536
    vertex 0.0608843992130394 0.221533797533852 -0.9732501561688534
    vertex 0.3569270192488652 0.280553875011349 -0.8910065241883678
  endloop
endfacet
facet normal 0.932373 -0.178878 0.314139
  outer loop
    vertex 0.9510565162951536 -2.329416636978185e-16 0.3090169943749472
    vertex 0.8527104539815935 -0.2459350607989936 0.4608696426759957
    vertex 0.9504384306020704 -0.2674397097649991 0.158564785735946
  endloop
endfacet
facet normal -0.18373 0.492231 0.850854
  outer loop
    vertex -0.1546553739338959 0.6411810921054247 0.7516438800654613
    vertex -0.3205021079773501 0.3747492464384727 0.8699663218055466
    vertex -0.02107717205266508 0.4307550661158937 0.9022227140976636
  endloop
endfacet
facet normal 0.982656 0.100816 -0.155637
  outer loop
    vertex 0.9510565162951535 -2.329416636978185e-16 -0.3090169943749476
    vertex 0.9461608841921922 0.2834500571065208 -0.1563190530644261
    vertex 1 -2.449293598294706e-16 -2.449293598294706e-16
  endloop
endfacet
facet normal 0.508089 0.372858 -0.776416
  outer loop
    vertex 0.3569270192488652 0.280553875011349 -0.8910065241883678
    vertex 0.4459508471687354 0.5590059319429501 -0.6990280466205064
    vertex 0.6773164991001339 0.3107900810235737 -0.6668222293715911
  endloop
endfacet
facet normal 0.592063 0.466617 -0.657061
  outer loop
    vertex 0.4459508471687354 0.5590059319429501 -0.6990280466205064
    vertex 0.6662471851407944 0.5408452145025476 -0.513421018503977
    vertex 0.6773164991001339 0.3107900810235737 -0.6668222293715911
  endloop
endfacet
facet normal 0.346185 0.454983 -0.820455
  outer loop
    vertex 0.3569270192488652 0.280553875011349 -0.8910065241883678
    vertex 0.1673046779247925 0.5093951656255877 -0.8441123799481687
    vertex 0.4459508471687354 0.5590059319429501 -0.6990280466205064
  endloop
endfacet
facet normal 0.187146 0.343652 -0.92026
  outer loop
    vertex 0.3569270192488652 0.280553875011349 -0.8910065241883678
    vertex 0.0608843992130394 0.221533797533852 -0.9732501561688534
    vertex 0.1673046779247925 0.5093951656255877 -0.8441123799481687
  endloop
endfacet
facet normal 0.529003 0.632292 -0.566006
  outer loop
    vertex 0.4459508471687354 0.5590059319429501 -0.6990280466205064
    vertex 0.4357164394547406 0.75589191032341 -0.4886497767281893
    vertex 0.6662471851407944 0.5408452145025476 -0.513421018503977
  endloop
endfacet
facet normal 0.588597 0.681136 -0.43544
  outer loop
    vertex 0.4357164394547406 0.75589191032341 -0.4886497767281893
    vertex 0.6426850968899139 0.7171989474591999 -0.2694096063599397
    vertex 0.6662471851407944 0.5408452145025476 -0.513421018503977
  endloop
endfacet
facet normal 0.498296 0.802233 -0.328821
  outer loop
    vertex 0.4357164394547406 0.75589191032341 -0.4886497767281893
    vertex 0.3887262940118538 0.8939508195678372 -0.2230331825935373
    vertex 0.6426850968899139 0.7171989474591999 -0.2694096063599397
  endloop
endfacet
facet normal 0.543426 0.823518 -0.162808
  outer loop
    vertex 0.3887262940118538 0.8939508195678372 -0.2230331825935373
    vertex 0.5675516478253764 0.8231842013154866 0.0159027593607024
    vertex 0.6426850968899139 0.7171989474591999 -0.2694096063599397
  endloop
endfacet
facet normal 0.374131 0.848295 -0.374729
  outer loop
    vertex 0.4357164394547406 0.75589191032341 -0.4886497767281893
    vertex 0.2235967880760492 0.8829690200954559 -0.4127592348012879
    vertex 0.3887262940118538 0.8939508195678372 -0.2230331825935373
  endloop
endfacet
facet normal 0.693051 0.716038 -0.0834811
  outer loop
    vertex 0.5675516478253764 0.8231842013154866 0.0159027593607024
    vertex 0.81268295660895 0.5825630518529841 -0.01291133815966015
    vertex 0.6426850968899139 0.7171989474591999 -0.2694096063599397
  endloop
endfacet
facet normal 0.421855 0.905415 -0.047566
  outer loop
    vertex 0.3887262940118538 0.8939508195678372 -0.2230331825935373
    vertex 0.295294849367543 0.9528610568294072 0.0696904463678126
    vertex 0.5675516478253764 0.8231842013154866 0.0159027593607024
  endloop
endfacet
facet normal 0.447797 0.883727 0.136033
  outer loop
    vertex 0.295294849367543 0.9528610568294072 0.0696904463678126
    vertex 0.4581658318190351 0.8335417278974878 0.3086944418146236
    vertex 0.5675516478253764 0.8231842013154866 0.0159027593607024
  endloop
endfacet
facet normal 0.311053 0.917925 0.246292
  outer loop
    vertex 0.295294849367543 0.9528610568294072 0.0696904463678126
    vertex 0.161169428023051 0.9238869327677429 0.3470696629377664
    vertex 0.4581658318190351 0.8335417278974878 0.3086944418146236
  endloop
endfacet
facet normal 0.313404 0.853013 0.41731
  outer loop
    vertex 0.161169428023051 0.9238869327677429 0.3470696629377664
    vertex 0.3085053947675671 0.7591370120730651 0.5731800923794255
    vertex 0.4581658318190351 0.8335417278974878 0.3086944418146236
  endloop
endfacet
facet normal 0.455321 0.755968 0.470313
  outer loop
    vertex 0.3085053947675671 0.7591370120730651 0.5731800923794255
    vertex 0.6043330483682225 0.658758634950746 0.448127914247485
    vertex 0.4581658318190351 0.8335417278974878 0.3086944418146236
  endloop
endfacet
facet normal 0.159152 0.844392 0.51154
  outer loop
    vertex 0.161169428023051 0.9238869327677429 0.3470696629377664
    vertex -0.0002716957032428062 0.8059181132994427 0.5920269595527821
    vertex 0.3085053947675671 0.7591370120730651 0.5731800923794255
  endloop
endfacet
facet normal -0.341412 -0.591613 -0.730364
  outer loop
    vertex -0.2497605312960239 -0.4801594329868126 -0.8408725206120786
    vertex -0.258586359645222 -0.7248268436712048 -0.6385602096114906
    vertex -0.5058825365017264 -0.5410588567648874 -0.6718170679424962
  endloop
endfacet
facet normal 0.452088 -0.0914433 -0.887273
  outer loop
    vertex 0.5877852522924729 -1.439658655611993e-16 -0.8090169943749476
    vertex 0.4371526982924658 -0.2698172279354422 -0.8579604780436275
    vertex 0.3090169943749472 -7.568733460868295e-17 -0.9510565162951536
  endloop
endfacet
facet normal 0.151683 0.734869 0.661029
  outer loop
    vertex -0.0002716957032428062 0.8059181132994427 0.5920269595527821
    vertex 0.1393305959919812 0.6032867757347148 0.7852592255071769
    vertex 0.3085053947675671 0.7591370120730651 0.5731800923794255
  endloop
endfacet
facet normal 0.00426887 0.899853 0.436173
  outer loop
    vertex 0.161169428023051 0.9238869327677429 0.3470696629377664
    vertex -0.15164248152017 0.925930397119866 0.3459153906490028
    vertex -0.0002716957032428062 0.8059181132994427 0.5920269595527821
  endloop
endfacet
facet normal -0.420103 -0.438583 -0.794455
  outer loop
    vertex -0.4839327680915765 -0.2728868646920156 -0.8314696837803445
    vertex -0.2497605312960239 -0.4801594329868126 -0.8408725206120786
    vertex -0.5058825365017264 -0.5410588567648874 -0.6718170679424962
  endloop
endfacet
facet normal -0.165491 -0.624909 -0.762956
  outer loop
    vertex -0.2497605312960239 -0.4801594329868126 -0.8408725206120786
    vertex 0.01824848251769749 -0.6439070748355257 -0.7648860515544509
    vertex -0.258586359645222 -0.7248268436712048 -0.6385602096114906
  endloop
endfacet
facet normal -0.369209 0.673556 -0.640318
  outer loop
    vertex -0.4842281000431138 0.7138065025978475 -0.5059678092306518
    vertex -0.2019000441447117 0.7435501230508319 -0.6374712438106179
    vertex -0.4032783894667303 0.5300709284059864 -0.745916450715451
  endloop
endfacet
facet normal 0.273939 -0.918934 0.283757
  outer loop
    vertex 0.3780760851435532 -0.9143591352081165 0.1449339356534212
    vertex 0.3257021827026299 -0.8418163378205104 0.430422282835365
    vertex 0.1048638874205187 -0.956545194764695 0.272075091633961
  endloop
endfacet
facet normal -0.156301 0.846506 0.508918
  outer loop
    vertex -0.15164248152017 0.925930397119866 0.3459153906490028
    vertex -0.3092741803661941 0.7658960434348148 0.563695602262174
    vertex -0.0002716957032428062 0.8059181132994427 0.5920269595527821
  endloop
endfacet
facet normal -0.0657398 -0.768568 -0.636381
  outer loop
    vertex 0.01824848251769749 -0.6439070748355257 -0.7648860515544509
    vertex 0.0378504391686877 -0.8658555238516784 -0.4988602570562954
    vertex -0.258586359645222 -0.7248268436712048 -0.6385602096114906
  endloop
endfacet
facet normal -0.589932 0.742734 0.316743
  outer loop
    vertex -0.4490825809102169 0.8434677935530168 0.2947658677015099
    vertex -0.7019579646975891 0.6846829942890245 0.1961229541105115
    vertex -0.5932097587342535 0.6552251164106568 0.4677416262928603
  endloop
endfacet
facet normal 0.448405 -0.843213 0.296522
  outer loop
    vertex 0.3780760851435532 -0.9143591352081165 0.1449339356534212
    vertex 0.5970890712367355 -0.7397972880177024 0.3101364436039485
    vertex 0.3257021827026299 -0.8418163378205104 0.430422282835365
  endloop
endfacet
facet normal -0.57154 0.801804 0.174509
  outer loop
    vertex -0.4490825809102169 0.8434677935530168 0.2947658677015099
    vertex -0.5279259083086891 0.8492307891322733 0.01006489573825429
    vertex -0.7019579646975891 0.6846829942890245 0.1961229541105115
  endloop
endfacet
facet normal -0.451613 -0.380405 0.807055
  outer loop
    vertex -0.3477549846288113 -0.5258781904745717 0.7762207156788624
    vertex -0.3805647466740787 -0.2377525286384076 0.8936689592432633
    vertex -0.6042317901249767 -0.3588121272467576 0.7114476798352938
  endloop
endfacet
facet normal 0.157042 -0.890798 0.4264
  outer loop
    vertex 0.3257021827026299 -0.8418163378205104 0.430422282835365
    vertex 0.03185466251029609 -0.8414799952763563 0.5393484013381874
    vertex 0.1048638874205187 -0.956545194764695 0.272075091633961
  endloop
endfacet
facet normal -0.523504 0.582003 -0.622267
  outer loop
    vertex -0.6615049377457317 0.4737287243708584 -0.5813710631291988
    vertex -0.4842281000431138 0.7138065025978475 -0.5059678092306518
    vertex -0.4032783894667303 0.5300709284059864 -0.745916450715451
  endloop
endfacet
facet normal -0.323328 0.794175 -0.514534
  outer loop
    vertex -0.4842281000431138 0.7138065025978475 -0.5059678092306518
    vertex -0.2991029687862953 0.8836398764484549 -0.360163827741465
    vertex -0.2019000441447117 0.7435501230508319 -0.6374712438106179
  endloop
endfacet
facet normal -0.240946 0.610539 -0.754445
  outer loop
    vertex -0.2019000441447117 0.7435501230508319 -0.6374712438106179
    vertex -0.105769050730852 0.5278649612155421 -0.842716732139815
    vertex -0.4032783894667303 0.5300709284059864 -0.745916450715451
  endloop
endfacet
facet normal -0.308406 0.859232 0.408173
  outer loop
    vertex -0.15164248152017 0.925930397119866 0.3459153906490028
    vertex -0.4490825809102169 0.8434677935530168 0.2947658677015099
    vertex -0.3092741803661941 0.7658960434348148 0.563695602262174
  endloop
endfacet
facet normal 0.205233 -0.80535 0.55614
  outer loop
    vertex 0.3257021827026299 -0.8418163378205104 0.430422282835365
    vertex 0.2703002414245385 -0.6882724060491154 0.6732153255513407
    vertex 0.03185466251029609 -0.8414799952763563 0.5393484013381874
  endloop
endfacet
facet normal -0.541282 -0.221065 0.811261
  outer loop
    vertex -0.3805647466740787 -0.2377525286384076 0.8936689592432633
    vertex -0.6123373096965558 -0.05572126462398221 0.7886305597821381
    vertex -0.6042317901249767 -0.3588121272467576 0.7114476798352938
  endloop
endfacet
facet normal -0.508202 -0.51156 0.692847
  outer loop
    vertex -0.3477549846288113 -0.5258781904745717 0.7762207156788624
    vertex -0.6042317901249767 -0.3588121272467576 0.7114476798352938
    vertex -0.5475408391943916 -0.6247447742758364 0.5566803359463453
  endloop
endfacet
facet normal 0.574955 -0.180593 0.798006
  outer loop
    vertex 0.5877852522924734 -1.439658655611994e-16 0.8090169943749472
    vertex 0.4278242477509449 -0.2630486925030741 0.8647379940818845
    vertex 0.6808812905081738 -0.2698172279030535 0.6808812905071159
  endloop
endfacet
facet normal -0.315547 0.650262 0.691078
  outer loop
    vertex -0.4591754801477771 0.5553800495897732 0.6933331659085115
    vertex -0.1546553739338959 0.6411810921054247 0.7516438800654613
    vertex -0.3092741803661941 0.7658960434348148 0.563695602262174
  endloop
endfacet
facet normal 0.704144 -0.0914433 0.704144
  outer loop
    vertex 0.5877852522924734 -1.439658655611994e-16 0.8090169943749472
    vertex 0.6808812905081738 -0.2698172279030535 0.6808812905071159
    vertex 0.8090169943749476 -1.981520145234184e-16 0.5877852522924729
  endloop
endfacet
facet normal -0.394456 -0.648525 0.651015
  outer loop
    vertex -0.3477549846288113 -0.5258781904745717 0.7762207156788624
    vertex -0.5475408391943916 -0.6247447742758364 0.5566803359463453
    vertex -0.2686049730871925 -0.76294673446422 0.5880167079286197
  endloop
endfacet
facet normal -0.459785 -0.074822 0.884873
  outer loop
    vertex -0.3805647466740787 -0.2377525286384076 0.8936689592432633
    vertex -0.3637626917038727 0.07270030925185432 0.9286502943299152
    vertex -0.6123373096965558 -0.05572126462398221 0.7886305597821381
  endloop
endfacet
facet normal 0.120938 -0.547694 -0.827892
  outer loop
    vertex 0.03205807963512212 -0.4419931963501241 -0.8964453658256641
    vertex 0.2709269258050469 -0.5468325035737978 -0.7921949342864034
    vertex 0.01824848251769749 -0.6439070748355257 -0.7648860515544509
  endloop
endfacet
facet normal -0.417003 0.370032 -0.830171
  outer loop
    vertex -0.5556362094074301 0.2603228519601043 -0.7896204249781664
    vertex -0.4032783894667303 0.5300709284059864 -0.745916450715451
    vertex -0.2715168360327507 0.3014423959080207 -0.9140082547220219
  endloop
endfacet
facet normal -0.416951 0.196352 -0.887467
  outer loop
    vertex -0.5556362094074301 0.2603228519601043 -0.7896204249781664
    vertex -0.2715168360327507 0.3014423959080207 -0.9140082547220219
    vertex -0.4031249999471969 0.01760208378093656 -0.9149756286722294
  endloop
endfacet
facet normal 0.887273 0.0914433 0.452088
  outer loop
    vertex 0.9510565162951536 -2.329416636978185e-16 0.3090169943749472
    vertex 0.8579604780797957 0.2698172279020972 0.4371526982420629
    vertex 0.8090169943749476 -1.981520145234184e-16 0.5877852522924729
  endloop
endfacet
facet normal 0.336755 -0.940936 -0.0351556
  outer loop
    vertex 0.1558876262495841 -0.9871089797887399 -0.03626168780825384
    vertex 0.4412340705950559 -0.8797188451742977 -0.1772209028058408
    vertex 0.3780760851435532 -0.9143591352081165 0.1449339356534212
  endloop
endfacet
facet normal -0.549694 0.083858 -0.831147
  outer loop
    vertex -0.6631932434673637 -0.03048938253314823 -0.7478269314299835
    vertex -0.5556362094074301 0.2603228519601043 -0.7896204249781664
    vertex -0.4031249999471969 0.01760208378093656 -0.9149756286722294
  endloop
endfacet
facet normal 0.704144 0.0914433 0.704144
  outer loop
    vertex 0.8090169943749476 -1.981520145234184e-16 0.5877852522924729
    vertex 0.6808812905078324 0.2698172279020885 0.6808812905078396
    vertex 0.5877852522924734 -1.439658655611994e-16 0.8090169943749472
  endloop
endfacet
facet normal 0.210488 -0.968798 0.130863
  outer loop
    vertex 0.1558876262495841 -0.9871089797887399 -0.03626168780825384
    vertex 0.3780760851435532 -0.9143591352081165 0.1449339356534212
    vertex 0.1048638874205187 -0.956545194764695 0.272075091633961
  endloop
endfacet
facet normal -0.184192 -0.553674 0.812107
  outer loop
    vertex -0.05151768388190495 -0.6465004194464135 0.7611722117254778
    vertex -0.1316622104253976 -0.4176555253485275 0.8990155307288878
    vertex -0.3477549846288113 -0.5258781904745717 0.7762207156788624
  endloop
endfacet
facet normal 0.0393612 -0.993692 0.105013
  outer loop
    vertex 0.1558876262495841 -0.9871089797887399 -0.03626168780825384
    vertex 0.1048638874205187 -0.956545194764695 0.272075091633961
    vertex -0.1415153755825367 -0.9869837646240088 0.07639664156461846
  endloop
endfacet
facet normal -0.525393 -0.0968512 -0.84533
  outer loop
    vertex -0.6631932434673637 -0.03048938253314823 -0.7478269314299835
    vertex -0.4031249999471969 0.01760208378093656 -0.9149756286722294
    vertex -0.4839327680915765 -0.2728868646920156 -0.8314696837803445
  endloop
endfacet
facet normal 0.983672 -0.0900941 -0.155798
  outer loop
    vertex 1 -2.449293598294706e-16 -2.449293598294706e-16
    vertex 0.9518018415973254 -0.267858735404946 -0.1494153680154853
    vertex 0.9510565162951535 -2.329416636978185e-16 -0.3090169943749476
  endloop
endfacet
facet normal -0.0226381 -0.998022 -0.0586522
  outer loop
    vertex -0.0783768217068586 -0.9705355339040457 -0.2278548907720007
    vertex 0.1558876262495841 -0.9871089797887399 -0.03626168780825384
    vertex -0.1415153755825367 -0.9869837646240088 0.07639664156461846
  endloop
endfacet
facet normal 0.155779 -0.0914433 0.98355
  outer loop
    vertex 6.123233995736766e-17 -1.499759782661858e-32 1
    vertex 0.1506325540503648 -0.2698172279019946 0.9510565162951922
    vertex 0.3090169943749477 -7.568733460868307e-17 0.9510565162951534
  endloop
endfacet
facet normal -0.131305 -0.369751 -0.919806
  outer loop
    vertex -0.2497605312960239 -0.4801594329868126 -0.8408725206120786
    vertex -0.2776188421293826 -0.264723229399222 -0.9234984517102277
    vertex 0.03205807963512212 -0.4419931963501241 -0.8964453658256641
  endloop
endfacet
facet normal -0.866285 -0.498967 -0.0241197
  outer loop
    vertex -0.79317085026353 -0.5820507804667312 -0.1791560527872227
    vertex -0.8270008789567693 -0.5396040942966248 0.1577877296339931
    vertex -0.944996645452809 -0.3256306981704384 -0.03075692591874094
  endloop
endfacet
facet normal -0.228283 -0.650963 0.723971
  outer loop
    vertex -0.05151768388190495 -0.6465004194464135 0.7611722117254778
    vertex -0.3477549846288113 -0.5258781904745717 0.7762207156788624
    vertex -0.2686049730871925 -0.76294673446422 0.5880167079286197
  endloop
endfacet
facet normal -0.631166 -0.20902 -0.746954
  outer loop
    vertex -0.6631932434673637 -0.03048938253314823 -0.7478269314299835
    vertex -0.4839327680915765 -0.2728868646920156 -0.8314696837803445
    vertex -0.7152246318476699 -0.3133679464329603 -0.6247033345090727
  endloop
endfacet
facet normal -0.203798 -0.974396 -0.0949695
  outer loop
    vertex -0.37714829643472 -0.9192686861674826 -0.1127131098333243
    vertex -0.0783768217068586 -0.9705355339040457 -0.2278548907720007
    vertex -0.1415153755825367 -0.9869837646240088 0.07639664156461846
  endloop
endfacet
facet normal -0.577852 -0.382056 -0.721194
  outer loop
    vertex -0.4839327680915765 -0.2728868646920156 -0.8314696837803445
    vertex -0.5058825365017264 -0.5410588567648874 -0.6718170679424962
    vertex -0.7152246318476699 -0.3133679464329603 -0.6247033345090727
  endloop
endfacet
facet normal -0.888876 -0.418806 -0.185743
  outer loop
    vertex -0.8724248521177131 -0.3357981641892039 -0.3551259921979053
    vertex -0.79317085026353 -0.5820507804667312 -0.1791560527872227
    vertex -0.944996645452809 -0.3256306981704384 -0.03075692591874094
  endloop
endfacet
facet normal -0.874447 0.287401 0.390823
  outer loop
    vertex -0.9481588903605664 0.2100167266727788 0.2385114109384931
    vertex -0.8275626354359725 0.1767029800310582 0.5328378189265576
    vertex -0.8140613980413711 0.4596981073298126 0.3549389952320208
  endloop
endfacet
facet normal -0.314381 -0.947854 0.052321
  outer loop
    vertex -0.37714829643472 -0.9192686861674826 -0.1127131098333243
    vertex -0.1415153755825367 -0.9869837646240088 0.07639664156461846
    vertex -0.415389033354826 -0.8899793975284024 0.1881186406062013
  endloop
endfacet
facet normal -0.944639 -0.25756 -0.203273
  outer loop
    vertex -0.9736502172938765 -0.07478714187202243 -0.2154347645441685
    vertex -0.8724248521177131 -0.3357981641892039 -0.3551259921979053
    vertex -0.944996645452809 -0.3256306981704384 -0.03075692591874094
  endloop
endfacet
facet normal -0.0920639 -0.539162 -0.837155
  outer loop
    vertex -0.2497605312960239 -0.4801594329868126 -0.8408725206120786
    vertex 0.03205807963512212 -0.4419931963501241 -0.8964453658256641
    vertex 0.01824848251769749 -0.6439070748355257 -0.7648860515544509
  endloop
endfacet
facet normal -0.762695 -0.135014 -0.632509
  outer loop
    vertex -0.8659870998453056 -0.06626589462859855 -0.4956563064368174
    vertex -0.6631932434673637 -0.03048938253314823 -0.7478269314299835
    vertex -0.7152246318476699 -0.3133679464329603 -0.6247033345090727
  endloop
endfacet
facet normal -0.898344 0.378529 0.22292
  outer loop
    vertex -0.8833728233128487 0.4635524026637864 0.06907694996825969
    vertex -0.9481588903605664 0.2100167266727788 0.2385114109384931
    vertex -0.8140613980413711 0.4596981073298126 0.3549389952320208
  endloop
endfacet
facet normal -0.811087 0.54818 0.204051
  outer loop
    vertex -0.7019579646975891 0.6846829942890245 0.1961229541105115
    vertex -0.8833728233128487 0.4635524026637864 0.06907694996825969
    vertex -0.8140613980413711 0.4596981073298126 0.3549389952320208
  endloop
endfacet
facet normal -0.485585 -0.873877 0.0233556
  outer loop
    vertex -0.37714829643472 -0.9192686861674826 -0.1127131098333243
    vertex -0.415389033354826 -0.8899793975284024 0.1881186406062013
    vertex -0.6339975403461861 -0.7732742352403243 0.009699275667681554
  endloop
endfacet
facet normal -0.987456 -0.149719 -0.0501517
  outer loop
    vertex -0.9736502172938765 -0.07478714187202243 -0.2154347645441685
    vertex -0.944996645452809 -0.3256306981704384 -0.03075692591874094
    vertex -0.9934508449536024 -0.05066447859025476 0.102413520934256
  endloop
endfacet
facet normal 0.0888181 -0.761588 -0.641946
  outer loop
    vertex 0.01824848251769749 -0.6439070748355257 -0.7648860515544509
    vertex 0.267053300521331 -0.7151225503348193 -0.6459738947382374
    vertex 0.0378504391686877 -0.8658555238516784 -0.4988602570562954
  endloop
endfacet
facet normal -0.926317 0.369244 -0.0747963
  outer loop
    vertex -0.8833728233128487 0.4635524026637864 0.06907694996825969
    vertex -0.8696465221203068 0.4377707977242318 -0.2281921454037023
    vertex -0.9774579030055239 0.1995756645309241 -0.06888832977423465
  endloop
endfacet
facet normal 0.0899761 -0.731033 0.676384
  outer loop
    vertex 0.2703002414245385 -0.6882724060491154 0.6732153255513407
    vertex -0.05151768388190495 -0.6465004194464135 0.7611722117254778
    vertex 0.03185466251029609 -0.8414799952763563 0.5393484013381874
  endloop
endfacet
facet normal -0.533891 -0.836647 -0.122403
  outer loop
    vertex -0.5727651661938253 -0.7696636629994051 -0.2820601181544424
    vertex -0.37714829643472 -0.9192686861674826 -0.1127131098333243
    vertex -0.6339975403461861 -0.7732742352403243 0.009699275667681554
  endloop
endfacet
facet normal -0.0969797 -0.765343 0.636274
  outer loop
    vertex -0.05151768388190495 -0.6465004194464135 0.7611722117254778
    vertex -0.2686049730871925 -0.76294673446422 0.5880167079286197
    vertex 0.03185466251029609 -0.8414799952763563 0.5393484013381874
  endloop
endfacet
facet normal -0.951472 0.296993 0.0805995
  outer loop
    vertex -0.8833728233128487 0.4635524026637864 0.06907694996825969
    vertex -0.9774579030055239 0.1995756645309241 -0.06888832977423465
    vertex -0.9481588903605664 0.2100167266727788 0.2385114109384931
  endloop
endfacet
facet normal -0.680807 -0.716571 -0.151751
  outer loop
    vertex -0.79317085026353 -0.5820507804667312 -0.1791560527872227
    vertex -0.5727651661938253 -0.7696636629994051 -0.2820601181544424
    vertex -0.6339975403461861 -0.7732742352403243 0.009699275667681554
  endloop
endfacet
facet normal -0.997766 0.0201703 -0.0636875
  outer loop
    vertex -0.9774579030055239 0.1995756645309241 -0.06888832977423465
    vertex -0.9736502172938765 -0.07478714187202243 -0.2154347645441685
    vertex -0.9934508449536024 -0.05066447859025476 0.102413520934256
  endloop
endfacet
facet normal -0.71479 0.604448 0.351735
  outer loop
    vertex -0.7019579646975891 0.6846829942890245 0.1961229541105115
    vertex -0.8140613980413711 0.4596981073298126 0.3549389952320208
    vertex -0.5932097587342535 0.6552251164106568 0.4677416262928603
  endloop
endfacet
facet normal -0.829076 -0.242802 -0.503666
  outer loop
    vertex -0.8659870998453056 -0.06626589462859855 -0.4956563064368174
    vertex -0.7152246318476699 -0.3133679464329603 -0.6247033345090727
    vertex -0.8724248521177131 -0.3357981641892039 -0.3551259921979053
  endloop
endfacet
facet normal -0.988107 0.12472 0.0899426
  outer loop
    vertex -0.9774579030055239 0.1995756645309241 -0.06888832977423465
    vertex -0.9934508449536024 -0.05066447859025476 0.102413520934256
    vertex -0.9481588903605664 0.2100167266727788 0.2385114109384931
  endloop
endfacet
facet normal -0.770053 -0.637972 0.00305357
  outer loop
    vertex -0.79317085026353 -0.5820507804667312 -0.1791560527872227
    vertex -0.6339975403461861 -0.7732742352403243 0.009699275667681554
    vertex -0.8270008789567693 -0.5396040942966248 0.1577877296339931
  endloop
endfacet
facet normal -0.452781 0.765995 0.456335
  outer loop
    vertex -0.4490825809102169 0.8434677935530168 0.2947658677015099
    vertex -0.5932097587342535 0.6552251164106568 0.4677416262928603
    vertex -0.3092741803661941 0.7658960434348148 0.563695602262174
  endloop
endfacet
facet normal -0.458433 0.679315 0.573036
  outer loop
    vertex -0.5932097587342535 0.6552251164106568 0.4677416262928603
    vertex -0.4591754801477771 0.5553800495897732 0.6933331659085115
    vertex -0.3092741803661941 0.7658960434348148 0.563695602262174
  endloop
endfacet
facet normal -0.550347 0.427082 -0.71744
  outer loop
    vertex -0.5556362094074301 0.2603228519601043 -0.7896204249781664
    vertex -0.6615049377457317 0.4737287243708584 -0.5813710631291988
    vertex -0.4032783894667303 0.5300709284059864 -0.745916450715451
  endloop
endfacet
facet normal -0.919028 -0.164761 -0.358107
  outer loop
    vertex -0.9736502172938765 -0.07478714187202243 -0.2154347645441685
    vertex -0.8659870998453056 -0.06626589462859855 -0.4956563064368174
    vertex -0.8724248521177131 -0.3357981641892039 -0.3551259921979053
  endloop
endfacet
facet normal -0.0304002 -0.194806 0.980371
  outer loop
    vertex 6.123233995736766e-17 -1.499759782661858e-32 1
    vertex -0.2126818658293453 -0.1178350488252355 0.9699903737747622
    vertex 0.1506325540503648 -0.2698172279019946 0.9510565162951922
  endloop
endfacet
facet normal 0.712495 -0.546505 -0.440093
  outer loop
    vertex 0.6160292435750548 -0.6826743353074685 -0.3930187310712454
    vertex 0.6946730536688458 -0.4357611644628021 -0.5723124636528752
    vertex 0.8096310360241828 -0.5024444901818068 -0.3033926824963855
  endloop
endfacet
facet normal 0.933777 0.182087 -0.308067
  outer loop
    vertex 0.9510565162951535 -2.329416636978185e-16 -0.3090169943749476
    vertex 0.8530311313051616 0.2591113631170988 -0.4529891726386353
    vertex 0.9461608841921922 0.2834500571065208 -0.1563190530644261
  endloop
endfacet
facet normal 0.893565 -0.426866 0.139021
  outer loop
    vertex 0.9504384306020704 -0.2674397097649991 0.158564785735946
    vertex 0.815958384364371 -0.5151357131582024 0.2623873320388693
    vertex 0.8575435793990323 -0.5144044551547482 -0.002658185178352055
  endloop
endfacet
facet normal 0.887077 -0.433532 -0.158569
  outer loop
    vertex 0.8575435793990323 -0.5144044551547482 -0.002658185178352055
    vertex 0.8096310360241828 -0.5024444901818068 -0.3033926824963855
    vertex 0.9518018415973254 -0.267858735404946 -0.1494153680154853
  endloop
endfacet
facet normal 0.78756 0.426786 -0.444526
  outer loop
    vertex 0.6662471851407944 0.5408452145025476 -0.513421018503977
    vertex 0.8194343412572401 0.4987615668670403 -0.2824256712564346
    vertex 0.8530311313051616 0.2591113631170988 -0.4529891726386353
  endloop
endfacet
facet normal -0.799951 -0.497362 -0.335724
  outer loop
    vertex -0.8724248521177131 -0.3357981641892039 -0.3551259921979053
    vertex -0.6930950873771879 -0.5471923995269187 -0.4692543849060776
    vertex -0.79317085026353 -0.5820507804667312 -0.1791560527872227
  endloop
endfacet
facet normal 0.883878 -0.349685 0.310612
  outer loop
    vertex 0.9504384306020704 -0.2674397097649991 0.158564785735946
    vertex 0.8527104539815935 -0.2459350607989936 0.4608696426759957
    vertex 0.815958384364371 -0.5151357131582024 0.2623873320388693
  endloop
endfacet
facet normal -0.855644 0.00797247 0.517503
  outer loop
    vertex -0.8275626354359725 0.1767029800310582 0.5328378189265576
    vertex -0.9312593828814543 -0.009009351356203033 0.3642455125096167
    vertex -0.8218054525067866 -0.157702838139354 0.5475085506847437
  endloop
endfacet
facet normal -0.608775 0.785047 -0.114435
  outer loop
    vertex -0.5279259083086891 0.8492307891322733 0.01006489573825429
    vertex -0.5258673171171366 0.8128471990513342 -0.2504855201053055
    vertex -0.7286992721604668 0.6777039759912975 -0.09856313549391987
  endloop
endfacet
facet normal -0.429117 -0.86298 -0.266692
  outer loop
    vertex -0.5727651661938253 -0.7696636629994051 -0.2820601181544424
    vertex -0.3028137859412151 -0.8726976988846472 -0.3830176724452667
    vertex -0.37714829643472 -0.9192686861674826 -0.1127131098333243
  endloop
endfacet
facet normal 0.0949187 0.854354 -0.510949
  outer loop
    vertex 0.1434027428692449 0.7586701012199484 -0.6354961296911968
    vertex -0.04930285389151199 0.8949838177562863 -0.4433657570815939
    vertex 0.2235967880760492 0.8829690200954559 -0.4127592348012879
  endloop
endfacet
facet normal 0.983687 -0.0899214 0.155801
  outer loop
    vertex 0.9510565162951536 -2.329416636978185e-16 0.3090169943749472
    vertex 0.9504384306020704 -0.2674397097649991 0.158564785735946
    vertex 1 -2.449293598294706e-16 -2.449293598294706e-16
  endloop
endfacet
facet normal 0.720198 -0.637326 -0.2741
  outer loop
    vertex 0.6807327840420017 -0.7195601499698048 -0.1372445529187141
    vertex 0.6160292435750548 -0.6826743353074685 -0.3930187310712454
    vertex 0.8096310360241828 -0.5024444901818068 -0.3033926824963855
  endloop
endfacet
facet normal 0.982988 0.183584 -0.00566907
  outer loop
    vertex 0.9461608841921922 0.2834500571065208 -0.1563190530644261
    vertex 0.94670754722786 0.2896975088286888 0.1407841376017233
    vertex 1 -2.449293598294706e-16 -2.449293598294706e-16
  endloop
endfacet
facet normal 0.626957 -0.637981 0.447109
  outer loop
    vertex 0.6951101331150221 -0.4963630715932134 0.5200438481506794
    vertex 0.4925576749239559 -0.6742303034409161 0.5502730547605222
    vertex 0.5970890712367355 -0.7397972880177024 0.3101364436039485
  endloop
endfacet
facet normal 0.452269 -0.0870025 0.887628
  outer loop
    vertex 0.3090169943749477 -7.568733460868307e-17 0.9510565162951534
    vertex 0.4278242477509449 -0.2630486925030741 0.8647379940818845
    vertex 0.5877852522924734 -1.439658655611994e-16 0.8090169943749472
  endloop
endfacet
facet normal 0.796027 0.178482 0.578347
  outer loop
    vertex 0.8579604780797957 0.2698172279020972 0.4371526982420629
    vertex 0.6808812905078324 0.2698172279020885 0.6808812905078396
    vertex 0.8090169943749476 -1.981520145234184e-16 0.5877852522924729
  endloop
endfacet
facet normal 0.98222 0.105087 0.155568
  outer loop
    vertex 1 -2.449293598294706e-16 -2.449293598294706e-16
    vertex 0.94670754722786 0.2896975088286888 0.1407841376017233
    vertex 0.9510565162951536 -2.329416636978185e-16 0.3090169943749472
  endloop
endfacet
facet normal -0.0719449 -0.967821 0.241135
  outer loop
    vertex 0.1048638874205187 -0.956545194764695 0.272075091633961
    vertex -0.1811738238480643 -0.9103938964962667 0.3719663946845406
    vertex -0.1415153755825367 -0.9869837646240088 0.07639664156461846
  endloop
endfacet
facet normal -0.935577 0.276898 -0.219141
  outer loop
    vertex -0.8696465221203068 0.4377707977242318 -0.2281921454037023
    vertex -0.9173656703469344 0.1736854829859419 -0.358153011810399
    vertex -0.9774579030055239 0.1995756645309241 -0.06888832977423465
  endloop
endfacet
facet normal 0.795472 -0.587111 -0.150082
  outer loop
    vertex 0.8575435793990323 -0.5144044551547482 -0.002658185178352055
    vertex 0.6807327840420017 -0.7195601499698048 -0.1372445529187141
    vertex 0.8096310360241828 -0.5024444901818068 -0.3033926824963855
  endloop
endfacet
facet normal 0.938077 0.184393 0.293275
  outer loop
    vertex 0.9510565162951536 -2.329416636978185e-16 0.3090169943749472
    vertex 0.94670754722786 0.2896975088286888 0.1407841376017233
    vertex 0.8579604780797957 0.2698172279020972 0.4371526982420629
  endloop
endfacet
facet normal 0.983733 -0.179577 0.00459926
  outer loop
    vertex 1 -2.449293598294706e-16 -2.449293598294706e-16
    vertex 0.9504384306020704 -0.2674397097649991 0.158564785735946
    vertex 0.9518018415973254 -0.267858735404946 -0.1494153680154853
  endloop
endfacet
facet normal 0.934968 -0.354702 0.00462164
  outer loop
    vertex 0.9504384306020704 -0.2674397097649991 0.158564785735946
    vertex 0.8575435793990323 -0.5144044551547482 -0.002658185178352055
    vertex 0.9518018415973254 -0.267858735404946 -0.1494153680154853
  endloop
endfacet
facet normal 0.887818 0.084522 -0.452366
  outer loop
    vertex 0.8090169943749473 -1.981520145234183e-16 -0.5877852522924732
    vertex 0.8530311313051616 0.2591113631170988 -0.4529891726386353
    vertex 0.9510565162951535 -2.329416636978185e-16 -0.3090169943749476
  endloop
endfacet
facet normal 0.0801009 -0.979899 -0.182705
  outer loop
    vertex -0.0783768217068586 -0.9705355339040457 -0.2278548907720007
    vertex 0.1951023885276563 -0.936091357894737 -0.2926910105650514
    vertex 0.1558876262495841 -0.9871089797887399 -0.03626168780825384
  endloop
endfacet
facet normal -0.567245 -0.806314 0.167603
  outer loop
    vertex -0.415389033354826 -0.8899793975284024 0.1881186406062013
    vertex -0.6341711290617529 -0.7129945014747381 0.299108374893334
    vertex -0.6339975403461861 -0.7732742352403243 0.009699275667681554
  endloop
endfacet
facet normal -0.27098 0.463923 -0.843413
  outer loop
    vertex -0.4032783894667303 0.5300709284059864 -0.745916450715451
    vertex -0.105769050730852 0.5278649612155421 -0.842716732139815
    vertex -0.2715168360327507 0.3014423959080207 -0.9140082547220219
  endloop
endfacet
facet normal -0.300003 -0.389182 0.870939
  outer loop
    vertex -0.3477549846288113 -0.5258781904745717 0.7762207156788624
    vertex -0.1316622104253976 -0.4176555253485275 0.8990155307288878
    vertex -0.3805647466740787 -0.2377525286384076 0.8936689592432633
  endloop
endfacet
facet normal -0.365395 -0.37415 -0.852349
  outer loop
    vertex -0.4839327680915765 -0.2728868646920156 -0.8314696837803445
    vertex -0.2776188421293826 -0.264723229399222 -0.9234984517102277
    vertex -0.2497605312960239 -0.4801594329868126 -0.8408725206120786
  endloop
endfacet
facet normal 0.169 -0.648657 -0.742081
  outer loop
    vertex 0.01824848251769749 -0.6439070748355257 -0.7648860515544509
    vertex 0.2709269258050469 -0.5468325035737978 -0.7921949342864034
    vertex 0.267053300521331 -0.7151225503348193 -0.6459738947382374
  endloop
endfacet
facet normal -0.156256 0.758932 0.632144
  outer loop
    vertex -0.3092741803661941 0.7658960434348148 0.563695602262174
    vertex -0.1546553739338959 0.6411810921054247 0.7516438800654613
    vertex -0.0002716957032428062 0.8059181132994427 0.5920269595527821
  endloop
endfacet
facet normal 0.887476 0.35834 0.289791
  outer loop
    vertex 0.94670754722786 0.2896975088286888 0.1407841376017233
    vertex 0.8122811979898329 0.5149228209324234 0.2739593836231886
    vertex 0.8579604780797957 0.2698172279020972 0.4371526982420629
  endloop
endfacet
facet normal 0.491774 -0.685556 -0.536815
  outer loop
    vertex 0.6160292435750548 -0.6826743353074685 -0.3930187310712454
    vertex 0.3765030141354506 -0.8095472506605752 -0.450420613754327
    vertex 0.4816649737484846 -0.5570733165097084 -0.6765117686313711
  endloop
endfacet
facet normal 0.280174 0.791795 -0.542737
  outer loop
    vertex 0.4357164394547406 0.75589191032341 -0.4886497767281893
    vertex 0.1434027428692449 0.7586701012199484 -0.6354961296911968
    vertex 0.2235967880760492 0.8829690200954559 -0.4127592348012879
  endloop
endfacet
facet normal -0.250297 -0.94025 -0.230829
  outer loop
    vertex -0.37714829643472 -0.9192686861674826 -0.1127131098333243
    vertex -0.3028137859412151 -0.8726976988846472 -0.3830176724452667
    vertex -0.0783768217068586 -0.9705355339040457 -0.2278548907720007
  endloop
endfacet
facet normal -0.248482 -0.945243 0.211597
  outer loop
    vertex -0.1415153755825367 -0.9869837646240088 0.07639664156461846
    vertex -0.1811738238480643 -0.9103938964962667 0.3719663946845406
    vertex -0.415389033354826 -0.8899793975284024 0.1881186406062013
  endloop
endfacet
facet normal -0.0111823 -0.919546 0.392824
  outer loop
    vertex 0.03185466251029609 -0.8414799952763563 0.5393484013381874
    vertex -0.1811738238480643 -0.9103938964962667 0.3719663946845406
    vertex 0.1048638874205187 -0.956545194764695 0.272075091633961
  endloop
endfacet
facet normal -0.972467 0.0991504 -0.210896
  outer loop
    vertex -0.9774579030055239 0.1995756645309241 -0.06888832977423465
    vertex -0.9173656703469344 0.1736854829859419 -0.358153011810399
    vertex -0.9736502172938765 -0.07478714187202243 -0.2154347645441685
  endloop
endfacet
facet normal 0.285002 -0.947507 -0.144926
  outer loop
    vertex 0.1558876262495841 -0.9871089797887399 -0.03626168780825384
    vertex 0.1951023885276563 -0.936091357894737 -0.2926910105650514
    vertex 0.4412340705950559 -0.8797188451742977 -0.1772209028058408
  endloop
endfacet
facet normal -0.71728 -0.682231 0.141669
  outer loop
    vertex -0.6339975403461861 -0.7732742352403243 0.009699275667681554
    vertex -0.6341711290617529 -0.7129945014747381 0.299108374893334
    vertex -0.8270008789567693 -0.5396040942966248 0.1577877296339931
  endloop
endfacet
facet normal 0.296652 -0.174137 0.938975
  outer loop
    vertex 0.1506325540503648 -0.2698172279019946 0.9510565162951922
    vertex 0.4278242477509449 -0.2630486925030741 0.8647379940818845
    vertex 0.3090169943749477 -7.568733460868307e-17 0.9510565162951534
  endloop
endfacet
facet normal 0.760186 0.625562 -0.175467
  outer loop
    vertex 0.81268295660895 0.5825630518529841 -0.01291133815966015
    vertex 0.8194343412572401 0.4987615668670403 -0.2824256712564346
    vertex 0.6426850968899139 0.7171989474591999 -0.2694096063599397
  endloop
endfacet
facet normal 0.326772 0.697929 -0.637272
  outer loop
    vertex 0.4459508471687354 0.5590059319429501 -0.6990280466205064
    vertex 0.1434027428692449 0.7586701012199484 -0.6354961296911968
    vertex 0.4357164394547406 0.75589191032341 -0.4886497767281893
  endloop
endfacet
facet normal -0.223355 -0.281284 0.933269
  outer loop
    vertex -0.1316622104253976 -0.4176555253485275 0.8990155307288878
    vertex -0.2126818658293453 -0.1178350488252355 0.9699903737747622
    vertex -0.3805647466740787 -0.2377525286384076 0.8936689592432633
  endloop
endfacet
facet normal 0.429895 -0.695084 -0.576237
  outer loop
    vertex 0.4816649737484846 -0.5570733165097084 -0.6765117686313711
    vertex 0.3765030141354506 -0.8095472506605752 -0.450420613754327
    vertex 0.267053300521331 -0.7151225503348193 -0.6459738947382374
  endloop
endfacet
facet normal -0.722339 0.275307 0.634375
  outer loop
    vertex -0.5932503476282949 0.2809141467291165 0.754414519482731
    vertex -0.6867724289616226 0.4390351185011959 0.5793028530404404
    vertex -0.8275626354359725 0.1767029800310582 0.5328378189265576
  endloop
endfacet
facet normal 0.799756 -0.40571 -0.442483
  outer loop
    vertex 0.6946730536688458 -0.4357611644628021 -0.5723124636528752
    vertex 0.8623525258870005 -0.2479701585602083 -0.4414282745361191
    vertex 0.8096310360241828 -0.5024444901818068 -0.3033926824963855
  endloop
endfacet
facet normal 0.163623 0.969883 0.18043
  outer loop
    vertex 0.295294849367543 0.9528610568294072 0.0696904463678126
    vertex 0.006772833007015344 0.9937162577573732 0.1117234433847302
    vertex 0.161169428023051 0.9238869327677429 0.3470696629377664
  endloop
endfacet
facet normal -0.838242 0.538567 -0.0854145
  outer loop
    vertex -0.8833728233128487 0.4635524026637864 0.06907694996825969
    vertex -0.7286992721604668 0.6777039759912975 -0.09856313549391987
    vertex -0.8696465221203068 0.4377707977242318 -0.2281921454037023
  endloop
endfacet
facet normal 0.155981 0.0760478 -0.984828
  outer loop
    vertex 6.123233995736766e-17 -1.499759782661858e-32 -1
    vertex 0.0608843992130394 0.221533797533852 -0.9732501561688534
    vertex 0.3090169943749472 -7.568733460868295e-17 -0.9510565162951536
  endloop
endfacet
facet normal 0.713347 0.598894 -0.363955
  outer loop
    vertex 0.6426850968899139 0.7171989474591999 -0.2694096063599397
    vertex 0.8194343412572401 0.4987615668670403 -0.2824256712564346
    vertex 0.6662471851407944 0.5408452145025476 -0.513421018503977
  endloop
endfacet
facet normal 0.890523 -0.345219 -0.296297
  outer loop
    vertex 0.8096310360241828 -0.5024444901818068 -0.3033926824963855
    vertex 0.8623525258870005 -0.2479701585602083 -0.4414282745361191
    vertex 0.9518018415973254 -0.267858735404946 -0.1494153680154853
  endloop
endfacet
facet normal -0.698442 -0.194094 0.688844
  outer loop
    vertex -0.6123373096965558 -0.05572126462398221 0.7886305597821381
    vertex -0.8218054525067866 -0.157702838139354 0.5475085506847437
    vertex -0.6042317901249767 -0.3588121272467576 0.7114476798352938
  endloop
endfacet
facet normal 0.279216 0.954687 -0.103009
  outer loop
    vertex 0.3887262940118538 0.8939508195678372 -0.2230331825935373
    vertex 0.1239027812527623 0.9763550398805285 -0.1771410085150291
    vertex 0.295294849367543 0.9528610568294072 0.0696904463678126
  endloop
endfacet
facet normal 0.888445 -0.0757664 0.452686
  outer loop
    vertex 0.8090169943749476 -1.981520145234184e-16 0.5877852522924729
    vertex 0.8527104539815935 -0.2459350607989936 0.4608696426759957
    vertex 0.9510565162951536 -2.329416636978185e-16 0.3090169943749472
  endloop
endfacet
facet normal -0.668641 0.322237 -0.670136
  outer loop
    vertex -0.5556362094074301 0.2603228519601043 -0.7896204249781664
    vertex -0.7723640930355711 0.1967859960623552 -0.6039279589016279
    vertex -0.6615049377457317 0.4737287243708584 -0.5813710631291988
  endloop
endfacet
facet normal -0.787658 0.613475 0.0569473
  outer loop
    vertex -0.7019579646975891 0.6846829942890245 0.1961229541105115
    vertex -0.7286992721604668 0.6777039759912975 -0.09856313549391987
    vertex -0.8833728233128487 0.4635524026637864 0.06907694996825969
  endloop
endfacet
facet normal 0.244002 0.932483 -0.266343
  outer loop
    vertex 0.2235967880760492 0.8829690200954559 -0.4127592348012879
    vertex 0.1239027812527623 0.9763550398805285 -0.1771410085150291
    vertex 0.3887262940118538 0.8939508195678372 -0.2230331825935373
  endloop
endfacet
facet normal 0.00523073 0.959608 0.281293
  outer loop
    vertex 0.161169428023051 0.9238869327677429 0.3470696629377664
    vertex 0.006772833007015344 0.9937162577573732 0.1117234433847302
    vertex -0.15164248152017 0.925930397119866 0.3459153906490028
  endloop
endfacet
facet normal 0.719537 -0.647801 0.25024
  outer loop
    vertex 0.5970890712367355 -0.7397972880177024 0.3101364436039485
    vertex 0.7225559295447667 -0.6854061364112696 0.09017403644882663
    vertex 0.815958384364371 -0.5151357131582024 0.2623873320388693
  endloop
endfacet
facet normal -0.667721 0.141938 -0.730754
  outer loop
    vertex -0.6631932434673637 -0.03048938253314823 -0.7478269314299835
    vertex -0.7723640930355711 0.1967859960623552 -0.6039279589016279
    vertex -0.5556362094074301 0.2603228519601043 -0.7896204249781664
  endloop
endfacet
facet normal 0.415951 -0.438707 -0.796568
  outer loop
    vertex 0.4371526982924658 -0.2698172279354422 -0.8579604780436275
    vertex 0.4816649737484846 -0.5570733165097084 -0.6765117686313711
    vertex 0.2709269258050469 -0.5468325035737978 -0.7921949342864034
  endloop
endfacet
facet normal -0.662126 0.748194 0.0423653
  outer loop
    vertex -0.5279259083086891 0.8492307891322733 0.01006489573825429
    vertex -0.7286992721604668 0.6777039759912975 -0.09856313549391987
    vertex -0.7019579646975891 0.6846829942890245 0.1961229541105115
  endloop
endfacet
facet normal 0.452768 0.0733339 0.888607
  outer loop
    vertex 0.5877852522924734 -1.439658655611994e-16 0.8090169943749472
    vertex 0.3889462625001999 0.2341541772868659 0.8910065241883678
    vertex 0.3090169943749477 -7.568733460868307e-17 0.9510565162951534
  endloop
endfacet
facet normal -0.780535 0.020646 -0.624771
  outer loop
    vertex -0.8659870998453056 -0.06626589462859855 -0.4956563064368174
    vertex -0.7723640930355711 0.1967859960623552 -0.6039279589016279
    vertex -0.6631932434673637 -0.03048938253314823 -0.7478269314299835
  endloop
endfacet
facet normal 0.888424 -0.0760879 -0.452674
  outer loop
    vertex 0.9510565162951535 -2.329416636978185e-16 -0.3090169943749476
    vertex 0.8623525258870005 -0.2479701585602083 -0.4414282745361191
    vertex 0.8090169943749473 -1.981520145234183e-16 -0.5877852522924732
  endloop
endfacet
facet normal -0.428966 0.892891 0.136869
  outer loop
    vertex -0.4490825809102169 0.8434677935530168 0.2947658677015099
    vertex -0.2808058201254603 0.9552622737401032 0.09285515469027977
    vertex -0.5279259083086891 0.8492307891322733 0.01006489573825429
  endloop
endfacet
facet normal 0.937859 -0.175697 -0.299251
  outer loop
    vertex 0.9518018415973254 -0.267858735404946 -0.1494153680154853
    vertex 0.8623525258870005 -0.2479701585602083 -0.4414282745361191
    vertex 0.9510565162951535 -2.329416636978185e-16 -0.3090169943749476
  endloop
endfacet
facet normal -0.361359 -0.085069 0.928538
  outer loop
    vertex -0.3805647466740787 -0.2377525286384076 0.8936689592432633
    vertex -0.2126818658293453 -0.1178350488252355 0.9699903737747622
    vertex -0.3637626917038727 0.07270030925185432 0.9286502943299152
  endloop
endfacet
facet normal -0.302218 0.537684 0.787122
  outer loop
    vertex -0.4591754801477771 0.5553800495897732 0.6933331659085115
    vertex -0.3205021079773501 0.3747492464384727 0.8699663218055466
    vertex -0.1546553739338959 0.6411810921054247 0.7516438800654613
  endloop
endfacet
facet normal 0.567679 -0.170839 -0.805329
  outer loop
    vertex 0.5877852522924729 -1.439658655611993e-16 -0.8090169943749476
    vertex 0.6917884885668124 -0.2070202264825962 -0.6917884885668016
    vertex 0.4371526982924658 -0.2698172279354422 -0.8579604780436275
  endloop
endfacet
facet normal -0.313042 0.148345 -0.938082
  outer loop
    vertex -0.2715168360327507 0.3014423959080207 -0.9140082547220219
    vertex -0.2434776048326429 0.007304833245208976 -0.9698790106792801
    vertex -0.4031249999471969 0.01760208378093656 -0.9149756286722294
  endloop
endfacet
facet normal 0.265548 0.633599 -0.726661
  outer loop
    vertex 0.1673046779247925 0.5093951656255877 -0.8441123799481687
    vertex 0.1434027428692449 0.7586701012199484 -0.6354961296911968
    vertex 0.4459508471687354 0.5590059319429501 -0.6990280466205064
  endloop
endfacet
facet normal 0.804587 0.425647 0.414082
  outer loop
    vertex 0.8122811979898329 0.5149228209324234 0.2739593836231886
    vertex 0.7075428608398615 0.4468037973895952 0.547493805182106
    vertex 0.8579604780797957 0.2698172279020972 0.4371526982420629
  endloop
endfacet
facet normal 0.318607 -0.170418 -0.932442
  outer loop
    vertex 0.4371526982924658 -0.2698172279354422 -0.8579604780436275
    vertex 0.1532595193732089 -0.2004481683519606 -0.9676425225907742
    vertex 0.3090169943749472 -7.568733460868295e-17 -0.9510565162951536
  endloop
endfacet
facet normal -0.278842 0.221487 0.934447
  outer loop
    vertex -0.3637626917038727 0.07270030925185432 0.9286502943299152
    vertex -0.1107870088024519 0.2333483799975367 0.9660614743550903
    vertex -0.3205021079773501 0.3747492464384727 0.8699663218055466
  endloop
endfacet
facet normal -0.299164 0.91834 0.259139
  outer loop
    vertex -0.15164248152017 0.925930397119866 0.3459153906490028
    vertex -0.2808058201254603 0.9552622737401032 0.09285515469027977
    vertex -0.4490825809102169 0.8434677935530168 0.2947658677015099
  endloop
endfacet
facet normal -0.778012 -0.397221 -0.486737
  outer loop
    vertex -0.7152246318476699 -0.3133679464329603 -0.6247033345090727
    vertex -0.6930950873771879 -0.5471923995269187 -0.4692543849060776
    vertex -0.8724248521177131 -0.3357981641892039 -0.3551259921979053
  endloop
endfacet
facet normal -0.933515 0.00554902 -0.358495
  outer loop
    vertex -0.9736502172938765 -0.07478714187202243 -0.2154347645441685
    vertex -0.9173656703469344 0.1736854829859419 -0.358153011810399
    vertex -0.8659870998453056 -0.06626589462859855 -0.4956563064368174
  endloop
endfacet
facet normal -0.136082 -0.843072 0.520299
  outer loop
    vertex -0.2686049730871925 -0.76294673446422 0.5880167079286197
    vertex -0.1811738238480643 -0.9103938964962667 0.3719663946845406
    vertex 0.03185466251029609 -0.8414799952763563 0.5393484013381874
  endloop
endfacet
facet normal 0.139799 0.990176 -0.00282488
  outer loop
    vertex 0.295294849367543 0.9528610568294072 0.0696904463678126
    vertex 0.1239027812527623 0.9763550398805285 -0.1771410085150291
    vertex 0.006772833007015344 0.9937162577573732 0.1117234433847302
  endloop
endfacet
facet normal 0.802118 -0.166036 -0.57362
  outer loop
    vertex 0.8623525258870005 -0.2479701585602083 -0.4414282745361191
    vertex 0.6917884885668124 -0.2070202264825962 -0.6917884885668016
    vertex 0.8090169943749473 -1.981520145234183e-16 -0.5877852522924732
  endloop
endfacet
facet normal -0.64848 -0.481417 0.58967
  outer loop
    vertex -0.6042317901249767 -0.3588121272467576 0.7114476798352938
    vertex -0.7655255095975376 -0.4514496092890075 0.4584364126334565
    vertex -0.5475408391943916 -0.6247447742758364 0.5566803359463453
  endloop
endfacet
facet normal 0.810728 -0.571786 0.125624
  outer loop
    vertex 0.815958384364371 -0.5151357131582024 0.2623873320388693
    vertex 0.7225559295447667 -0.6854061364112696 0.09017403644882663
    vertex 0.8575435793990323 -0.5144044551547482 -0.002658185178352055
  endloop
endfacet
facet normal 0.573455 0.747325 0.33564
  outer loop
    vertex 0.6043330483682225 0.658758634950746 0.448127914247485
    vertex 0.6664618034876204 0.709494292581566 0.2290120374264453
    vertex 0.4581658318190351 0.8335417278974878 0.3086944418146236
  endloop
endfacet
facet normal 0.702679 0.709574 0.0524111
  outer loop
    vertex 0.5675516478253764 0.8231842013154866 0.0159027593607024
    vertex 0.6664618034876204 0.709494292581566 0.2290120374264453
    vertex 0.81268295660895 0.5825630518529841 -0.01291133815966015
  endloop
endfacet
facet normal 0.887861 0.342856 -0.306842
  outer loop
    vertex 0.8530311313051616 0.2591113631170988 -0.4529891726386353
    vertex 0.8194343412572401 0.4987615668670403 -0.2824256712564346
    vertex 0.9461608841921922 0.2834500571065208 -0.1563190530644261
  endloop
endfacet
facet normal 0.785708 -0.167686 0.595436
  outer loop
    vertex 0.6808812905081738 -0.2698172279030535 0.6808812905071159
    vertex 0.8527104539815935 -0.2459350607989936 0.4608696426759957
    vertex 0.8090169943749476 -1.981520145234184e-16 0.5877852522924729
  endloop
endfacet
facet normal -0.581725 0.557428 0.592343
  outer loop
    vertex -0.5932097587342535 0.6552251164106568 0.4677416262928603
    vertex -0.6867724289616226 0.4390351185011959 0.5793028530404404
    vertex -0.4591754801477771 0.5553800495897732 0.6933331659085115
  endloop
endfacet
facet normal -0.802575 0.344464 0.487051
  outer loop
    vertex -0.8275626354359725 0.1767029800310582 0.5328378189265576
    vertex -0.6867724289616226 0.4390351185011959 0.5793028530404404
    vertex -0.8140613980413711 0.4596981073298126 0.3549389952320208
  endloop
endfacet
facet normal -0.0197162 0.57352 0.818954
  outer loop
    vertex -0.1546553739338959 0.6411810921054247 0.7516438800654613
    vertex -0.02107717205266508 0.4307550661158937 0.9022227140976636
    vertex 0.1393305959919812 0.6032867757347148 0.7852592255071769
  endloop
endfacet
facet normal -0.97343 0.0528007 0.222813
  outer loop
    vertex -0.9934508449536024 -0.05066447859025476 0.102413520934256
    vertex -0.9312593828814543 -0.009009351356203033 0.3642455125096167
    vertex -0.9481588903605664 0.2100167266727788 0.2385114109384931
  endloop
endfacet
facet normal 0.600107 -0.586291 -0.544182
  outer loop
    vertex 0.6160292435750548 -0.6826743353074685 -0.3930187310712454
    vertex 0.4816649737484846 -0.5570733165097084 -0.6765117686313711
    vertex 0.6946730536688458 -0.4357611644628021 -0.5723124636528752
  endloop
endfacet
facet normal -0.39785 -0.149536 -0.905182
  outer loop
    vertex -0.4031249999471969 0.01760208378093656 -0.9149756286722294
    vertex -0.2776188421293826 -0.264723229399222 -0.9234984517102277
    vertex -0.4839327680915765 -0.2728868646920156 -0.8314696837803445
  endloop
endfacet
facet normal 0.00678911 0.692553 0.721335
  outer loop
    vertex -0.0002716957032428062 0.8059181132994427 0.5920269595527821
    vertex -0.1546553739338959 0.6411810921054247 0.7516438800654613
    vertex 0.1393305959919812 0.6032867757347148 0.7852592255071769
  endloop
endfacet
facet normal -0.186262 0.0650112 0.980347
  outer loop
    vertex -0.2126818658293453 -0.1178350488252355 0.9699903737747622
    vertex -0.1107870088024519 0.2333483799975367 0.9660614743550903
    vertex -0.3637626917038727 0.07270030925185432 0.9286502943299152
  endloop
endfacet
facet normal 0.518049 -0.83316 0.193571
  outer loop
    vertex 0.3780760851435532 -0.9143591352081165 0.1449339356534212
    vertex 0.5679139631263863 -0.822446788620104 0.03248092324056602
    vertex 0.5970890712367355 -0.7397972880177024 0.3101364436039485
  endloop
endfacet
facet normal 0.549408 -0.328459 0.768287
  outer loop
    vertex 0.4278242477509449 -0.2630486925030741 0.8647379940818845
    vertex 0.5064353504578387 -0.4822658552749282 0.714802686510472
    vertex 0.6808812905081738 -0.2698172279030535 0.6808812905071159
  endloop
endfacet
facet normal 0.768688 -0.288485 -0.570873
  outer loop
    vertex 0.6946730536688458 -0.4357611644628021 -0.5723124636528752
    vertex 0.6917884885668124 -0.2070202264825962 -0.6917884885668016
    vertex 0.8623525258870005 -0.2479701585602083 -0.4414282745361191
  endloop
endfacet
facet normal -0.142175 0.972348 0.18527
  outer loop
    vertex -0.15164248152017 0.925930397119866 0.3459153906490028
    vertex 0.006772833007015344 0.9937162577573732 0.1117234433847302
    vertex -0.2808058201254603 0.9552622737401032 0.09285515469027977
  endloop
endfacet
facet normal -0.962659 -0.111983 0.24647
  outer loop
    vertex -0.9187442133780306 -0.2552754474507649 0.3012366450370798
    vertex -0.9312593828814543 -0.009009351356203033 0.3642455125096167
    vertex -0.9934508449536024 -0.05066447859025476 0.102413520934256
  endloop
endfacet
facet normal 0.156175 0.0575205 0.986053
  outer loop
    vertex 0.3090169943749477 -7.568733460868307e-17 0.9510565162951534
    vertex 0.101254061089363 0.2145687866369192 0.9714462676412277
    vertex 6.123233995736766e-17 -1.499759782661858e-32 1
  endloop
endfacet
facet normal 0.367418 -0.569579 0.735244
  outer loop
    vertex 0.5064353504578387 -0.4822658552749282 0.714802686510472
    vertex 0.2490512659209186 -0.501424833200068 0.8285810784669608
    vertex 0.2703002414245385 -0.6882724060491154 0.6732153255513407
  endloop
endfacet
facet normal 0.347969 -0.884866 -0.309725
  outer loop
    vertex 0.1951023885276563 -0.936091357894737 -0.2926910105650514
    vertex 0.3765030141354506 -0.8095472506605752 -0.450420613754327
    vertex 0.4412340705950559 -0.8797188451742977 -0.1772209028058408
  endloop
endfacet
facet normal -0.615645 0.610931 -0.49774
  outer loop
    vertex -0.6615049377457317 0.4737287243708584 -0.5813710631291988
    vertex -0.708145073442967 0.6082204801833233 -0.3586061940960064
    vertex -0.4842281000431138 0.7138065025978475 -0.5059678092306518
  endloop
endfacet
facet normal -0.786048 0.578896 -0.216812
  outer loop
    vertex -0.7286992721604668 0.6777039759912975 -0.09856313549391987
    vertex -0.708145073442967 0.6082204801833233 -0.3586061940960064
    vertex -0.8696465221203068 0.4377707977242318 -0.2281921454037023
  endloop
endfacet
facet normal -0.116921 0.150666 -0.981646
  outer loop
    vertex 6.123233995736766e-17 -1.499759782661858e-32 -1
    vertex -0.2434776048326429 0.007304833245208976 -0.9698790106792801
    vertex 0.0608843992130394 0.221533797533852 -0.9732501561688534
  endloop
endfacet
facet normal -0.471233 0.40461 0.783729
  outer loop
    vertex -0.5932503476282949 0.2809141467291165 0.754414519482731
    vertex -0.3205021079773501 0.3747492464384727 0.8699663218055466
    vertex -0.4591754801477771 0.5553800495897732 0.6933331659085115
  endloop
endfacet
facet normal 0.255985 0.157228 0.953809
  outer loop
    vertex 0.3889462625001999 0.2341541772868659 0.8910065241883678
    vertex 0.101254061089363 0.2145687866369192 0.9714462676412277
    vertex 0.3090169943749477 -7.568733460868307e-17 0.9510565162951534
  endloop
endfacet
facet normal -0.642981 -0.465287 -0.608345
  outer loop
    vertex -0.5058825365017264 -0.5410588567648874 -0.6718170679424962
    vertex -0.6930950873771879 -0.5471923995269187 -0.4692543849060776
    vertex -0.7152246318476699 -0.3133679464329603 -0.6247033345090727
  endloop
endfacet
facet normal 0.4762 -0.773387 0.418456
  outer loop
    vertex 0.5970890712367355 -0.7397972880177024 0.3101364436039485
    vertex 0.4925576749239559 -0.6742303034409161 0.5502730547605222
    vertex 0.3257021827026299 -0.8418163378205104 0.430422282835365
  endloop
endfacet
facet normal 0.775157 0.614663 0.146015
  outer loop
    vertex 0.81268295660895 0.5825630518529841 -0.01291133815966015
    vertex 0.6664618034876204 0.709494292581566 0.2290120374264453
    vertex 0.8122811979898329 0.5149228209324234 0.2739593836231886
  endloop
endfacet
facet normal -0.570995 0.434009 0.69685
  outer loop
    vertex -0.4591754801477771 0.5553800495897732 0.6933331659085115
    vertex -0.6867724289616226 0.4390351185011959 0.5793028530404404
    vertex -0.5932503476282949 0.2809141467291165 0.754414519482731
  endloop
endfacet
facet normal 0.608391 0.41718 0.675145
  outer loop
    vertex 0.6808812905078324 0.2698172279020885 0.6808812905078396
    vertex 0.7075428608398615 0.4468037973895952 0.547493805182106
    vertex 0.4715958390755145 0.4837154305235901 0.7373037005468229
  endloop
endfacet
facet normal 0.355131 -0.751351 0.556195
  outer loop
    vertex 0.3257021827026299 -0.8418163378205104 0.430422282835365
    vertex 0.4925576749239559 -0.6742303034409161 0.5502730547605222
    vertex 0.2703002414245385 -0.6882724060491154 0.6732153255513407
  endloop
endfacet
facet normal 0.412793 -0.609754 0.676611
  outer loop
    vertex 0.2703002414245385 -0.6882724060491154 0.6732153255513407
    vertex 0.4925576749239559 -0.6742303034409161 0.5502730547605222
    vertex 0.5064353504578387 -0.4822658552749282 0.714802686510472
  endloop
endfacet
facet normal -0.607122 -0.677604 -0.415036
  outer loop
    vertex -0.6930950873771879 -0.5471923995269187 -0.4692543849060776
    vertex -0.4764928118884179 -0.7173655784231833 -0.5082727880894672
    vertex -0.5727651661938253 -0.7696636629994051 -0.2820601181544424
  endloop
endfacet
facet normal -0.860986 0.101276 -0.498443
  outer loop
    vertex -0.8659870998453056 -0.06626589462859855 -0.4956563064368174
    vertex -0.9173656703469344 0.1736854829859419 -0.358153011810399
    vertex -0.7723640930355711 0.1967859960623552 -0.6039279589016279
  endloop
endfacet
facet normal -0.842249 -0.297659 0.449462
  outer loop
    vertex -0.8218054525067866 -0.157702838139354 0.5475085506847437
    vertex -0.9187442133780306 -0.2552754474507649 0.3012366450370798
    vertex -0.7655255095975376 -0.4514496092890075 0.4584364126334565
  endloop
endfacet
facet normal -0.439853 0.81087 -0.386031
  outer loop
    vertex -0.4842281000431138 0.7138065025978475 -0.5059678092306518
    vertex -0.5258673171171366 0.8128471990513342 -0.2504855201053055
    vertex -0.2991029687862953 0.8836398764484549 -0.360163827741465
  endloop
endfacet
facet normal 0.706386 -0.0451268 -0.706386
  outer loop
    vertex 0.8090169943749473 -1.981520145234183e-16 -0.5877852522924732
    vertex 0.6917884885668124 -0.2070202264825962 -0.6917884885668016
    vertex 0.5877852522924729 -1.439658655611993e-16 -0.8090169943749476
  endloop
endfacet
facet normal 0.757359 -0.345725 0.553969
  outer loop
    vertex 0.6808812905081738 -0.2698172279030535 0.6808812905071159
    vertex 0.6951101331150221 -0.4963630715932134 0.5200438481506794
    vertex 0.8527104539815935 -0.2459350607989936 0.4608696426759957
  endloop
endfacet
facet normal 0.570856 0.559626 0.600785
  outer loop
    vertex 0.4715958390755145 0.4837154305235901 0.7373037005468229
    vertex 0.7075428608398615 0.4468037973895952 0.547493805182106
    vertex 0.6043330483682225 0.658758634950746 0.448127914247485
  endloop
endfacet
facet normal 0.552828 0.81412 0.177735
  outer loop
    vertex 0.4581658318190351 0.8335417278974878 0.3086944418146236
    vertex 0.6664618034876204 0.709494292581566 0.2290120374264453
    vertex 0.5675516478253764 0.8231842013154866 0.0159027593607024
  endloop
endfacet
facet normal 0.812171 -0.41398 0.411094
  outer loop
    vertex 0.8527104539815935 -0.2459350607989936 0.4608696426759957
    vertex 0.6951101331150221 -0.4963630715932134 0.5200438481506794
    vertex 0.815958384364371 -0.5151357131582024 0.2623873320388693
  endloop
endfacet
facet normal -0.89787 -0.151403 0.41341
  outer loop
    vertex -0.8218054525067866 -0.157702838139354 0.5475085506847437
    vertex -0.9312593828814543 -0.009009351356203033 0.3642455125096167
    vertex -0.9187442133780306 -0.2552754474507649 0.3012366450370798
  endloop
endfacet
facet normal 0.156311 -0.0397993 -0.986906
  outer loop
    vertex 0.3090169943749472 -7.568733460868295e-17 -0.9510565162951536
    vertex 0.1532595193732089 -0.2004481683519606 -0.9676425225907742
    vertex 6.123233995736766e-17 -1.499759782661858e-32 -1
  endloop
endfacet
facet normal -0.265788 0.935415 -0.233143
  outer loop
    vertex -0.2991029687862953 0.8836398764484549 -0.360163827741465
    vertex -0.3664099222632508 0.9205687579194299 -0.1352661480552935
    vertex -0.1502721127990946 0.9752068720582461 -0.1624495269468877
  endloop
endfacet
facet normal -0.79895 0.486505 -0.353543
  outer loop
    vertex -0.708145073442967 0.6082204801833233 -0.3586061940960064
    vertex -0.8146410901413577 0.3684458485000192 -0.4478923430651626
    vertex -0.8696465221203068 0.4377707977242318 -0.2281921454037023
  endloop
endfacet
facet normal -0.70948 0.540442 0.452284
  outer loop
    vertex -0.8140613980413711 0.4596981073298126 0.3549389952320208
    vertex -0.6867724289616226 0.4390351185011959 0.5793028530404404
    vertex -0.5932097587342535 0.6552251164106568 0.4677416262928603
  endloop
endfacet
facet normal -0.908152 0.153513 0.389479
  outer loop
    vertex -0.9481588903605664 0.2100167266727788 0.2385114109384931
    vertex -0.9312593828814543 -0.009009351356203033 0.3642455125096167
    vertex -0.8275626354359725 0.1767029800310582 0.5328378189265576
  endloop
endfacet
facet normal -0.585411 0.719204 -0.37422
  outer loop
    vertex -0.708145073442967 0.6082204801833233 -0.3586061940960064
    vertex -0.5258673171171366 0.8128471990513342 -0.2504855201053055
    vertex -0.4842281000431138 0.7138065025978475 -0.5059678092306518
  endloop
endfacet
facet normal -0.330433 -0.887036 0.322462
  outer loop
    vertex -0.1811738238480643 -0.9103938964962667 0.3719663946845406
    vertex -0.430275727983798 -0.8026932698934495 0.412972532229172
    vertex -0.415389033354826 -0.8899793975284024 0.1881186406062013
  endloop
endfacet
facet normal -0.40307 -0.657595 -0.636478
  outer loop
    vertex -0.258586359645222 -0.7248268436712048 -0.6385602096114906
    vertex -0.4764928118884179 -0.7173655784231833 -0.5082727880894672
    vertex -0.5058825365017264 -0.5410588567648874 -0.6718170679424962
  endloop
endfacet
facet normal 0.619448 -0.767829 0.163469
  outer loop
    vertex 0.5970890712367355 -0.7397972880177024 0.3101364436039485
    vertex 0.5679139631263863 -0.822446788620104 0.03248092324056602
    vertex 0.7225559295447667 -0.6854061364112696 0.09017403644882663
  endloop
endfacet
facet normal -0.450236 -0.808684 -0.378573
  outer loop
    vertex -0.5727651661938253 -0.7696636629994051 -0.2820601181544424
    vertex -0.4764928118884179 -0.7173655784231833 -0.5082727880894672
    vertex -0.3028137859412151 -0.8726976988846472 -0.3830176724452667
  endloop
endfacet
facet normal -0.741022 -0.32084 0.589871
  outer loop
    vertex -0.8218054525067866 -0.157702838139354 0.5475085506847437
    vertex -0.7655255095975376 -0.4514496092890075 0.4584364126334565
    vertex -0.6042317901249767 -0.3588121272467576 0.7114476798352938
  endloop
endfacet
facet normal -0.419343 -0.721407 0.551111
  outer loop
    vertex -0.5475408391943916 -0.6247447742758364 0.5566803359463453
    vertex -0.430275727983798 -0.8026932698934495 0.412972532229172
    vertex -0.2686049730871925 -0.76294673446422 0.5880167079286197
  endloop
endfacet
facet normal -0.203978 0.84317 -0.497451
  outer loop
    vertex -0.2991029687862953 0.8836398764484549 -0.360163827741465
    vertex -0.04930285389151199 0.8949838177562863 -0.4433657570815939
    vertex -0.2019000441447117 0.7435501230508319 -0.6374712438106179
  endloop
endfacet
facet normal 0.771595 -0.634403 -0.0466238
  outer loop
    vertex 0.8575435793990323 -0.5144044551547482 -0.002658185178352055
    vertex 0.7225559295447667 -0.6854061364112696 0.09017403644882663
    vertex 0.6807327840420017 -0.7195601499698048 -0.1372445529187141
  endloop
endfacet
facet normal -0.738592 0.497469 -0.45498
  outer loop
    vertex -0.6615049377457317 0.4737287243708584 -0.5813710631291988
    vertex -0.8146410901413577 0.3684458485000192 -0.4478923430651626
    vertex -0.708145073442967 0.6082204801833233 -0.3586061940960064
  endloop
endfacet
facet normal -0.513507 -0.810851 0.280767
  outer loop
    vertex -0.415389033354826 -0.8899793975284024 0.1881186406062013
    vertex -0.430275727983798 -0.8026932698934495 0.412972532229172
    vertex -0.6341711290617529 -0.7129945014747381 0.299108374893334
  endloop
endfacet
facet normal 0.429546 -0.902953 -0.0128797
  outer loop
    vertex 0.4412340705950559 -0.8797188451742977 -0.1772209028058408
    vertex 0.5679139631263863 -0.822446788620104 0.03248092324056602
    vertex 0.3780760851435532 -0.9143591352081165 0.1449339356534212
  endloop
endfacet
facet normal 0.297956 -0.24103 -0.923649
  outer loop
    vertex 0.4371526982924658 -0.2698172279354422 -0.8579604780436275
    vertex 0.219427873679698 -0.3745713840717463 -0.9008594154955494
    vertex 0.1532595193732089 -0.2004481683519606 -0.9676425225907742
  endloop
endfacet
facet normal -0.167867 0.371571 0.913102
  outer loop
    vertex -0.3205021079773501 0.3747492464384727 0.8699663218055466
    vertex -0.1107870088024519 0.2333483799975367 0.9660614743550903
    vertex -0.02107717205266508 0.4307550661158937 0.9022227140976636
  endloop
endfacet
facet normal -0.890217 0.320275 -0.323941
  outer loop
    vertex -0.8696465221203068 0.4377707977242318 -0.2281921454037023
    vertex -0.8146410901413577 0.3684458485000192 -0.4478923430651626
    vertex -0.9173656703469344 0.1736854829859419 -0.358153011810399
  endloop
endfacet
facet normal 0.636643 -0.419437 0.647115
  outer loop
    vertex 0.5064353504578387 -0.4822658552749282 0.714802686510472
    vertex 0.6951101331150221 -0.4963630715932134 0.5200438481506794
    vertex 0.6808812905081738 -0.2698172279030535 0.6808812905071159
  endloop
endfacet
facet normal -0.00755748 0.997982 -0.0630448
  outer loop
    vertex 0.1239027812527623 0.9763550398805285 -0.1771410085150291
    vertex -0.1502721127990946 0.9752068720582461 -0.1624495269468877
    vertex 0.006772833007015344 0.9937162577573732 0.1117234433847302
  endloop
endfacet
facet normal 0.770277 0.305741 0.559639
  outer loop
    vertex 0.8579604780797957 0.2698172279020972 0.4371526982420629
    vertex 0.7075428608398615 0.4468037973895952 0.547493805182106
    vertex 0.6808812905078324 0.2698172279020885 0.6808812905078396
  endloop
endfacet
facet normal -0.288407 -0.841204 0.457381
  outer loop
    vertex -0.2686049730871925 -0.76294673446422 0.5880167079286197
    vertex -0.430275727983798 -0.8026932698934495 0.412972532229172
    vertex -0.1811738238480643 -0.9103938964962667 0.3719663946845406
  endloop
endfacet
facet normal 0.35512 -0.617772 -0.701604
  outer loop
    vertex 0.2709269258050469 -0.5468325035737978 -0.7921949342864034
    vertex 0.4816649737484846 -0.5570733165097084 -0.6765117686313711
    vertex 0.267053300521331 -0.7151225503348193 -0.6459738947382374
  endloop
endfacet
facet normal -0.133134 0.991054 0.00935245
  outer loop
    vertex 0.006772833007015344 0.9937162577573732 0.1117234433847302
    vertex -0.1502721127990946 0.9752068720582461 -0.1624495269468877
    vertex -0.2808058201254603 0.9552622737401032 0.09285515469027977
  endloop
endfacet
facet normal -0.57503 -0.605856 -0.549799
  outer loop
    vertex -0.5058825365017264 -0.5410588567648874 -0.6718170679424962
    vertex -0.4764928118884179 -0.7173655784231833 -0.5082727880894672
    vertex -0.6930950873771879 -0.5471923995269187 -0.4692543849060776
  endloop
endfacet
facet normal 0.565572 -0.816101 -0.118773
  outer loop
    vertex 0.6807327840420017 -0.7195601499698048 -0.1372445529187141
    vertex 0.5679139631263863 -0.822446788620104 0.03248092324056602
    vertex 0.4412340705950559 -0.8797188451742977 -0.1772209028058408
  endloop
endfacet
facet normal -0.33476 -0.789326 -0.514685
  outer loop
    vertex -0.3028137859412151 -0.8726976988846472 -0.3830176724452667
    vertex -0.4764928118884179 -0.7173655784231833 -0.5082727880894672
    vertex -0.258586359645222 -0.7248268436712048 -0.6385602096114906
  endloop
endfacet
facet normal 0.0972901 0.494918 0.863476
  outer loop
    vertex -0.02107717205266508 0.4307550661158937 0.9022227140976636
    vertex 0.1877735031658349 0.394242994378503 0.8996185707800288
    vertex 0.1393305959919812 0.6032867757347148 0.7852592255071769
  endloop
endfacet
facet normal 0.576934 -0.555185 0.599097
  outer loop
    vertex 0.5064353504578387 -0.4822658552749282 0.714802686510472
    vertex 0.4925576749239559 -0.6742303034409161 0.5502730547605222
    vertex 0.6951101331150221 -0.4963630715932134 0.5200438481506794
  endloop
endfacet
facet normal 0.393032 -0.418917 0.818556
  outer loop
    vertex 0.4278242477509449 -0.2630486925030741 0.8647379940818845
    vertex 0.2490512659209186 -0.501424833200068 0.8285810784669608
    vertex 0.5064353504578387 -0.4822658552749282 0.714802686510472
  endloop
endfacet
facet normal 0.24405 0.256368 0.935262
  outer loop
    vertex 0.3889462625001999 0.2341541772868659 0.8910065241883678
    vertex 0.1877735031658349 0.394242994378503 0.8996185707800288
    vertex 0.101254061089363 0.2145687866369192 0.9714462676412277
  endloop
endfacet
facet normal -0.172549 0.0610632 0.983106
  outer loop
    vertex 6.123233995736766e-17 -1.499759782661858e-32 1
    vertex -0.1107870088024519 0.2333483799975367 0.9660614743550903
    vertex -0.2126818658293453 -0.1178350488252355 0.9699903737747622
  endloop
endfacet
facet normal -0.553909 -0.712657 0.43047
  outer loop
    vertex -0.6341711290617529 -0.7129945014747381 0.299108374893334
    vertex -0.430275727983798 -0.8026932698934495 0.412972532229172
    vertex -0.5475408391943916 -0.6247447742758364 0.5566803359463453
  endloop
endfacet
facet normal -0.396938 0.917798 0.00937171
  outer loop
    vertex -0.2808058201254603 0.9552622737401032 0.09285515469027977
    vertex -0.3664099222632508 0.9205687579194299 -0.1352661480552935
    vertex -0.5279259083086891 0.8492307891322733 0.01006489573825429
  endloop
endfacet
facet normal 0.286296 -0.349999 0.891928
  outer loop
    vertex 0.1506325540503648 -0.2698172279019946 0.9510565162951922
    vertex 0.2490512659209186 -0.501424833200068 0.8285810784669608
    vertex 0.4278242477509449 -0.2630486925030741 0.8647379940818845
  endloop
endfacet
facet normal -0.740087 0.343353 -0.578256
  outer loop
    vertex -0.7723640930355711 0.1967859960623552 -0.6039279589016279
    vertex -0.8146410901413577 0.3684458485000192 -0.4478923430651626
    vertex -0.6615049377457317 0.4737287243708584 -0.5813710631291988
  endloop
endfacet
facet normal -0.848051 0.226573 -0.479035
  outer loop
    vertex -0.9173656703469344 0.1736854829859419 -0.358153011810399
    vertex -0.8146410901413577 0.3684458485000192 -0.4478923430651626
    vertex -0.7723640930355711 0.1967859960623552 -0.6039279589016279
  endloop
endfacet
facet normal -0.401529 0.876922 -0.264162
  outer loop
    vertex -0.5258673171171366 0.8128471990513342 -0.2504855201053055
    vertex -0.3664099222632508 0.9205687579194299 -0.1352661480552935
    vertex -0.2991029687862953 0.8836398764484549 -0.360163827741465
  endloop
endfacet
facet normal -0.492271 0.861536 -0.124195
  outer loop
    vertex -0.5279259083086891 0.8492307891322733 0.01006489573825429
    vertex -0.3664099222632508 0.9205687579194299 -0.1352661480552935
    vertex -0.5258673171171366 0.8128471990513342 -0.2504855201053055
  endloop
endfacet
facet normal -0.329741 -0.11831 -0.936629
  outer loop
    vertex -0.4031249999471969 0.01760208378093656 -0.9149756286722294
    vertex -0.2434776048326429 0.007304833245208976 -0.9698790106792801
    vertex -0.2776188421293826 -0.264723229399222 -0.9234984517102277
  endloop
endfacet
facet normal -0.0129373 0.137897 0.990362
  outer loop
    vertex 0.101254061089363 0.2145687866369192 0.9714462676412277
    vertex -0.1107870088024519 0.2333483799975367 0.9660614743550903
    vertex 6.123233995736766e-17 -1.499759782661858e-32 1
  endloop
endfacet
facet normal -0.25098 0.96655 -0.0528147
  outer loop
    vertex -0.1502721127990946 0.9752068720582461 -0.1624495269468877
    vertex -0.3664099222632508 0.9205687579194299 -0.1352661480552935
    vertex -0.2808058201254603 0.9552622737401032 0.09285515469027977
  endloop
endfacet
facet normal 0.364474 -0.416445 -0.832906
  outer loop
    vertex 0.2709269258050469 -0.5468325035737978 -0.7921949342864034
    vertex 0.219427873679698 -0.3745713840717463 -0.9008594154955494
    vertex 0.4371526982924658 -0.2698172279354422 -0.8579604780436275
  endloop
endfacet
facet normal 0.665335 -0.746474 -0.0102512
  outer loop
    vertex 0.7225559295447667 -0.6854061364112696 0.09017403644882663
    vertex 0.5679139631263863 -0.822446788620104 0.03248092324056602
    vertex 0.6807327840420017 -0.7195601499698048 -0.1372445529187141
  endloop
endfacet
facet normal 0.00297023 0.306474 0.951874
  outer loop
    vertex -0.02107717205266508 0.4307550661158937 0.9022227140976636
    vertex -0.1107870088024519 0.2333483799975367 0.9660614743550903
    vertex 0.101254061089363 0.2145687866369192 0.9714462676412277
  endloop
endfacet
facet normal 0.0712183 0.340504 0.937542
  outer loop
    vertex 0.101254061089363 0.2145687866369192 0.9714462676412277
    vertex 0.1877735031658349 0.394242994378503 0.8996185707800288
    vertex -0.02107717205266508 0.4307550661158937 0.9022227140976636
  endloop
endfacet
facet normal 0.0947431 -0.324903 -0.94099
  outer loop
    vertex 0.1532595193732089 -0.2004481683519606 -0.9676425225907742
    vertex 0.219427873679698 -0.3745713840717463 -0.9008594154955494
    vertex 0.03205807963512212 -0.4419931963501241 -0.8964453658256641
  endloop
endfacet
endsolid Created by Gmsh
