solid Created by Gmsh
facet normal -1 0 0
  outer loop
    vertex 1.15 1.15 0.25
    vertex 1.15 1.15 0.5750000000000002
    vertex 1.15 1.479687962379289 0.575
  endloop
endfacet
facet normal -1 0 0
  outer loop
    vertex 1.15 1.15 0.5750000000000002
    vertex 1.15 1.15 0.9
    vertex 1.15 1.479687962379289 0.575
  endloop
endfacet
facet normal -1 0 -0
  outer loop
    vertex 1.15 3.616666666666667 0.5750000000000002
    vertex 1.15 3.616666666666667 0.25
    vertex 1.15 3.286978704287378 0.575
  endloop
endfacet
facet normal -1 0 -0
  outer loop
    vertex 1.15 3.616666666666667 0.9
    vertex 1.15 3.616666666666667 0.5750000000000002
    vertex 1.15 3.286978704287378 0.575
  endloop
endfacet
facet normal -1 0 0
  outer loop
    vertex 1.15 1.15 0.9
    vertex 1.15 1.643333333333333 0.9
    vertex 1.15 1.479687962379289 0.575
  endloop
endfacet
facet normal -1 0 0
  outer loop
    vertex 1.15 3.123333333333334 0.9
    vertex 1.15 3.616666666666667 0.9
    vertex 1.15 3.286978704287378 0.575
  endloop
endfacet
facet normal -1 0 0
  outer loop
    vertex 1.15 1.643333333333333 0.25
    vertex 1.15 1.15 0.25
    vertex 1.15 1.479687962379289 0.575
  endloop
endfacet
facet normal -1 0 0
  outer loop
    vertex 1.15 3.616666666666667 0.25
    vertex 1.15 3.123333333333334 0.25
    vertex 1.15 3.286978704287378 0.575
  endloop
endfacet
facet normal -1 0 0
  outer loop
    vertex 1.15 1.89 0.575
    vertex 1.15 2.136666666666667 0.9
    vertex 1.15 2.383333333333333 0.575
  endloop
endfacet
facet normal -1 0 0
  outer loop
    vertex 1.15 2.63 0.9
    vertex 1.15 3.123333333333334 0.9
    vertex 1.15 2.876666666666666 0.5750000000000002
  endloop
endfacet
facet normal -1 0 0
  outer loop
    vertex 1.15 1.643333333333333 0.9
    vertex 1.15 2.136666666666667 0.9
    vertex 1.15 1.89 0.575
  endloop
endfacet
facet normal -1 0 0
  outer loop
    vertex 1.15 2.136666666666667 0.25
    vertex 1.15 1.643333333333333 0.25
    vertex 1.15 1.89 0.575
  endloop
endfacet
facet normal -1 0 0
  outer loop
    vertex 1.15 2.136666666666667 0.25
    vertex 1.15 1.89 0.575
    vertex 1.15 2.383333333333333 0.575
  endloop
endfacet
facet normal -1 0 0
  outer loop
    vertex 1.15 2.136666666666667 0.9
    vertex 1.15 2.63 0.9
    vertex 1.15 2.383333333333333 0.575
  endloop
endfacet
facet normal -1 0 0
  outer loop
    vertex 1.15 2.63 0.25
    vertex 1.15 2.136666666666667 0.25
    vertex 1.15 2.383333333333333 0.575
  endloop
endfacet
facet normal -1 0 0
  outer loop
    vertex 1.15 3.123333333333334 0.25
    vertex 1.15 2.63 0.25
    vertex 1.15 2.876666666666666 0.5750000000000002
  endloop
endfacet
facet normal -1 0 -0
  outer loop
    vertex 1.15 2.63 0.9
    vertex 1.15 2.876666666666666 0.5750000000000002
    vertex 1.15 2.383333333333333 0.575
  endloop
endfacet
facet normal -1 0 0
  outer loop
    vertex 1.15 2.876666666666666 0.5750000000000002
    vertex 1.15 2.63 0.25
    vertex 1.15 2.383333333333333 0.575
  endloop
endfacet
facet normal -1 0 0
  outer loop
    vertex 1.15 3.123333333333334 0.25
    vertex 1.15 2.876666666666666 0.5750000000000002
    vertex 1.15 3.286978704287378 0.575
  endloop
endfacet
facet normal -1 0 -0
  outer loop
    vertex 1.15 1.643333333333333 0.9
    vertex 1.15 1.89 0.575
    vertex 1.15 1.479687962379289 0.575
  endloop
endfacet
facet normal -1 0 0
  outer loop
    vertex 1.15 2.876666666666666 0.5750000000000002
    vertex 1.15 3.123333333333334 0.9
    vertex 1.15 3.286978704287378 0.575
  endloop
endfacet
facet normal -1 -0 0
  outer loop
    vertex 1.15 1.89 0.575
    vertex 1.15 1.643333333333333 0.25
    vertex 1.15 1.479687962379289 0.575
  endloop
endfacet
facet normal 1 0 0
  outer loop
    vertex 3.616666666666667 1.15 0.25
    vertex 3.616666666666667 1.479687962379289 0.575
    vertex 3.616666666666667 1.15 0.5750000000000002
  endloop
endfacet
facet normal 1 -0 0
  outer loop
    vertex 3.616666666666667 1.15 0.5750000000000002
    vertex 3.616666666666667 1.479687962379289 0.575
    vertex 3.616666666666667 1.15 0.9
  endloop
endfacet
facet normal 1 0 0
  outer loop
    vertex 3.616666666666667 3.616666666666667 0.5750000000000002
    vertex 3.616666666666667 3.286978704287378 0.575
    vertex 3.616666666666667 3.616666666666667 0.25
  endloop
endfacet
facet normal 1 0 0
  outer loop
    vertex 3.616666666666667 3.616666666666667 0.9
    vertex 3.616666666666667 3.286978704287378 0.575
    vertex 3.616666666666667 3.616666666666667 0.5750000000000002
  endloop
endfacet
facet normal 1 -0 0
  outer loop
    vertex 3.616666666666667 1.15 0.9
    vertex 3.616666666666667 1.479687962379289 0.575
    vertex 3.616666666666667 1.643333333333333 0.9
  endloop
endfacet
facet normal 1 -0 0
  outer loop
    vertex 3.616666666666667 3.123333333333334 0.9
    vertex 3.616666666666667 3.286978704287378 0.575
    vertex 3.616666666666667 3.616666666666667 0.9
  endloop
endfacet
facet normal 1 0 0
  outer loop
    vertex 3.616666666666667 1.643333333333333 0.25
    vertex 3.616666666666667 1.479687962379289 0.575
    vertex 3.616666666666667 1.15 0.25
  endloop
endfacet
facet normal 1 0 0
  outer loop
    vertex 3.616666666666667 3.616666666666667 0.25
    vertex 3.616666666666667 3.286978704287378 0.575
    vertex 3.616666666666667 3.123333333333334 0.25
  endloop
endfacet
facet normal 1 -0 0
  outer loop
    vertex 3.616666666666667 1.643333333333333 0.9
    vertex 3.616666666666667 1.89 0.575
    vertex 3.616666666666667 2.136666666666667 0.9
  endloop
endfacet
facet normal 1 0 0
  outer loop
    vertex 3.616666666666667 1.89 0.575
    vertex 3.616666666666667 2.383333333333333 0.575
    vertex 3.616666666666667 2.136666666666667 0.9
  endloop
endfacet
facet normal 1 0 0
  outer loop
    vertex 3.616666666666667 2.136666666666667 0.25
    vertex 3.616666666666667 1.89 0.575
    vertex 3.616666666666667 1.643333333333333 0.25
  endloop
endfacet
facet normal 1 0 -0
  outer loop
    vertex 3.616666666666667 2.136666666666667 0.25
    vertex 3.616666666666667 2.383333333333333 0.575
    vertex 3.616666666666667 1.89 0.575
  endloop
endfacet
facet normal 1 -0 0
  outer loop
    vertex 3.616666666666667 2.136666666666667 0.9
    vertex 3.616666666666667 2.383333333333333 0.575
    vertex 3.616666666666667 2.63 0.9
  endloop
endfacet
facet normal 1 0 0
  outer loop
    vertex 3.616666666666667 2.63 0.25
    vertex 3.616666666666667 2.383333333333333 0.575
    vertex 3.616666666666667 2.136666666666667 0.25
  endloop
endfacet
facet normal 1 -0 0
  outer loop
    vertex 3.616666666666667 2.63 0.9
    vertex 3.616666666666667 2.876666666666666 0.575
    vertex 3.616666666666667 3.123333333333334 0.9
  endloop
endfacet
facet normal 1 0 0
  outer loop
    vertex 3.616666666666667 3.123333333333334 0.25
    vertex 3.616666666666667 2.876666666666666 0.575
    vertex 3.616666666666667 2.63 0.25
  endloop
endfacet
facet normal 1 0 0
  outer loop
    vertex 3.616666666666667 2.383333333333333 0.575
    vertex 3.616666666666667 2.876666666666666 0.575
    vertex 3.616666666666667 2.63 0.9
  endloop
endfacet
facet normal 1 0 -0
  outer loop
    vertex 3.616666666666667 2.63 0.25
    vertex 3.616666666666667 2.876666666666666 0.575
    vertex 3.616666666666667 2.383333333333333 0.575
  endloop
endfacet
facet normal 1 0 -0
  outer loop
    vertex 3.616666666666667 3.123333333333334 0.25
    vertex 3.616666666666667 3.286978704287378 0.575
    vertex 3.616666666666667 2.876666666666666 0.575
  endloop
endfacet
facet normal 1 0 0
  outer loop
    vertex 3.616666666666667 2.876666666666666 0.575
    vertex 3.616666666666667 3.286978704287378 0.575
    vertex 3.616666666666667 3.123333333333334 0.9
  endloop
endfacet
facet normal 1 0 0
  outer loop
    vertex 3.616666666666667 1.89 0.575
    vertex 3.616666666666667 1.479687962379289 0.575
    vertex 3.616666666666667 1.643333333333333 0.25
  endloop
endfacet
facet normal 1 0 0
  outer loop
    vertex 3.616666666666667 1.643333333333333 0.9
    vertex 3.616666666666667 1.479687962379289 0.575
    vertex 3.616666666666667 1.89 0.575
  endloop
endfacet
facet normal 0 -1 0
  outer loop
    vertex 1.15 1.15 0.9
    vertex 1.15 1.15 0.5750000000000002
    vertex 1.479687962379289 1.15 0.575
  endloop
endfacet
facet normal 0 -1 0
  outer loop
    vertex 1.15 1.15 0.5750000000000002
    vertex 1.15 1.15 0.25
    vertex 1.479687962379289 1.15 0.575
  endloop
endfacet
facet normal 0 -1 0
  outer loop
    vertex 3.616666666666667 1.15 0.25
    vertex 3.616666666666667 1.15 0.5750000000000002
    vertex 3.286978704287378 1.15 0.575
  endloop
endfacet
facet normal -0 -1 0
  outer loop
    vertex 3.616666666666667 1.15 0.5750000000000002
    vertex 3.616666666666667 1.15 0.9
    vertex 3.286978704287378 1.15 0.575
  endloop
endfacet
facet normal -0 -1 0
  outer loop
    vertex 1.643333333333333 1.15 0.9
    vertex 1.15 1.15 0.9
    vertex 1.479687962379289 1.15 0.575
  endloop
endfacet
facet normal 0 -1 0
  outer loop
    vertex 1.15 1.15 0.25
    vertex 1.643333333333333 1.15 0.25
    vertex 1.479687962379289 1.15 0.575
  endloop
endfacet
facet normal -0 -1 0
  outer loop
    vertex 3.616666666666667 1.15 0.9
    vertex 3.123333333333334 1.15 0.9
    vertex 3.286978704287378 1.15 0.575
  endloop
endfacet
facet normal 0 -1 0
  outer loop
    vertex 3.123333333333334 1.15 0.25
    vertex 3.616666666666667 1.15 0.25
    vertex 3.286978704287378 1.15 0.575
  endloop
endfacet
facet normal 0 -1 0
  outer loop
    vertex 1.89 1.15 0.575
    vertex 2.136666666666667 1.15 0.25
    vertex 2.383333333333333 1.15 0.575
  endloop
endfacet
facet normal 0 -1 -0
  outer loop
    vertex 2.136666666666667 1.15 0.9
    vertex 1.89 1.15 0.575
    vertex 2.383333333333333 1.15 0.575
  endloop
endfacet
facet normal 0 -1 0
  outer loop
    vertex 1.643333333333333 1.15 0.25
    vertex 2.136666666666667 1.15 0.25
    vertex 1.89 1.15 0.575
  endloop
endfacet
facet normal -0 -1 0
  outer loop
    vertex 2.136666666666667 1.15 0.9
    vertex 1.643333333333333 1.15 0.9
    vertex 1.89 1.15 0.575
  endloop
endfacet
facet normal 0 -1 0
  outer loop
    vertex 2.876666666666666 1.15 0.575
    vertex 2.63 1.15 0.9
    vertex 2.383333333333333 1.15 0.575
  endloop
endfacet
facet normal 0 -1 0
  outer loop
    vertex 2.136666666666667 1.15 0.25
    vertex 2.63 1.15 0.25
    vertex 2.383333333333333 1.15 0.575
  endloop
endfacet
facet normal -0 -1 0
  outer loop
    vertex 2.63 1.15 0.9
    vertex 2.136666666666667 1.15 0.9
    vertex 2.383333333333333 1.15 0.575
  endloop
endfacet
facet normal 0 -1 0
  outer loop
    vertex 2.63 1.15 0.25
    vertex 3.123333333333334 1.15 0.25
    vertex 2.876666666666666 1.15 0.575
  endloop
endfacet
facet normal -0 -1 0
  outer loop
    vertex 3.123333333333334 1.15 0.9
    vertex 2.63 1.15 0.9
    vertex 2.876666666666666 1.15 0.575
  endloop
endfacet
facet normal 0 -1 0
  outer loop
    vertex 2.63 1.15 0.25
    vertex 2.876666666666666 1.15 0.575
    vertex 2.383333333333333 1.15 0.575
  endloop
endfacet
facet normal 0 -1 0
  outer loop
    vertex 2.876666666666666 1.15 0.575
    vertex 3.123333333333334 1.15 0.25
    vertex 3.286978704287378 1.15 0.575
  endloop
endfacet
facet normal 0 -1 -0
  outer loop
    vertex 3.123333333333334 1.15 0.9
    vertex 2.876666666666666 1.15 0.575
    vertex 3.286978704287378 1.15 0.575
  endloop
endfacet
facet normal 0 -1 0
  outer loop
    vertex 1.643333333333333 1.15 0.25
    vertex 1.89 1.15 0.575
    vertex 1.479687962379289 1.15 0.575
  endloop
endfacet
facet normal 0 -1 0
  outer loop
    vertex 1.89 1.15 0.575
    vertex 1.643333333333333 1.15 0.9
    vertex 1.479687962379289 1.15 0.575
  endloop
endfacet
facet normal 0 1 0
  outer loop
    vertex 1.15 3.616666666666667 0.9
    vertex 1.479687962379289 3.616666666666667 0.575
    vertex 1.15 3.616666666666667 0.5750000000000002
  endloop
endfacet
facet normal 0 1 0
  outer loop
    vertex 1.15 3.616666666666667 0.5750000000000002
    vertex 1.479687962379289 3.616666666666667 0.575
    vertex 1.15 3.616666666666667 0.25
  endloop
endfacet
facet normal 0 1 -0
  outer loop
    vertex 3.616666666666667 3.616666666666667 0.25
    vertex 3.286978704287378 3.616666666666667 0.575
    vertex 3.616666666666667 3.616666666666667 0.5750000000000002
  endloop
endfacet
facet normal 0 1 -0
  outer loop
    vertex 3.616666666666667 3.616666666666667 0.5750000000000002
    vertex 3.286978704287378 3.616666666666667 0.575
    vertex 3.616666666666667 3.616666666666667 0.9
  endloop
endfacet
facet normal 0 1 0
  outer loop
    vertex 1.643333333333333 3.616666666666667 0.9
    vertex 1.479687962379289 3.616666666666667 0.575
    vertex 1.15 3.616666666666667 0.9
  endloop
endfacet
facet normal 0 1 0
  outer loop
    vertex 1.15 3.616666666666667 0.25
    vertex 1.479687962379289 3.616666666666667 0.575
    vertex 1.643333333333333 3.616666666666667 0.25
  endloop
endfacet
facet normal 0 1 0
  outer loop
    vertex 3.616666666666667 3.616666666666667 0.9
    vertex 3.286978704287378 3.616666666666667 0.575
    vertex 3.123333333333334 3.616666666666667 0.9
  endloop
endfacet
facet normal 0 1 0
  outer loop
    vertex 3.123333333333334 3.616666666666667 0.25
    vertex 3.286978704287378 3.616666666666667 0.575
    vertex 3.616666666666667 3.616666666666667 0.25
  endloop
endfacet
facet normal -0 1 0
  outer loop
    vertex 1.89 3.616666666666667 0.575
    vertex 2.383333333333333 3.616666666666667 0.5750000000000001
    vertex 2.136666666666667 3.616666666666667 0.25
  endloop
endfacet
facet normal 0 1 0
  outer loop
    vertex 2.136666666666667 3.616666666666667 0.9
    vertex 2.383333333333333 3.616666666666667 0.5750000000000001
    vertex 1.89 3.616666666666667 0.575
  endloop
endfacet
facet normal 0 1 0
  outer loop
    vertex 1.643333333333333 3.616666666666667 0.25
    vertex 1.89 3.616666666666667 0.575
    vertex 2.136666666666667 3.616666666666667 0.25
  endloop
endfacet
facet normal 0 1 0
  outer loop
    vertex 2.136666666666667 3.616666666666667 0.9
    vertex 1.89 3.616666666666667 0.575
    vertex 1.643333333333333 3.616666666666667 0.9
  endloop
endfacet
facet normal 0 1 0
  outer loop
    vertex 2.136666666666667 3.616666666666667 0.25
    vertex 2.383333333333333 3.616666666666667 0.5750000000000001
    vertex 2.63 3.616666666666667 0.25
  endloop
endfacet
facet normal 0 1 0
  outer loop
    vertex 2.63 3.616666666666667 0.25
    vertex 2.876666666666666 3.616666666666667 0.5750000000000002
    vertex 3.123333333333334 3.616666666666667 0.25
  endloop
endfacet
facet normal 0 1 0
  outer loop
    vertex 2.63 3.616666666666667 0.9
    vertex 2.383333333333333 3.616666666666667 0.5750000000000001
    vertex 2.136666666666667 3.616666666666667 0.9
  endloop
endfacet
facet normal 0 1 0
  outer loop
    vertex 3.123333333333334 3.616666666666667 0.9
    vertex 2.876666666666666 3.616666666666667 0.5750000000000002
    vertex 2.63 3.616666666666667 0.9
  endloop
endfacet
facet normal 0 1 0
  outer loop
    vertex 2.63 3.616666666666667 0.9
    vertex 2.876666666666666 3.616666666666667 0.5750000000000002
    vertex 2.383333333333333 3.616666666666667 0.5750000000000001
  endloop
endfacet
facet normal -0 1 0
  outer loop
    vertex 2.383333333333333 3.616666666666667 0.5750000000000001
    vertex 2.876666666666666 3.616666666666667 0.5750000000000002
    vertex 2.63 3.616666666666667 0.25
  endloop
endfacet
facet normal 0 1 0
  outer loop
    vertex 2.876666666666666 3.616666666666667 0.5750000000000002
    vertex 3.286978704287378 3.616666666666667 0.575
    vertex 3.123333333333334 3.616666666666667 0.25
  endloop
endfacet
facet normal 0 1 0
  outer loop
    vertex 3.123333333333334 3.616666666666667 0.9
    vertex 3.286978704287378 3.616666666666667 0.575
    vertex 2.876666666666666 3.616666666666667 0.5750000000000002
  endloop
endfacet
facet normal 0 1 -0
  outer loop
    vertex 1.643333333333333 3.616666666666667 0.25
    vertex 1.479687962379289 3.616666666666667 0.575
    vertex 1.89 3.616666666666667 0.575
  endloop
endfacet
facet normal 0 1 0
  outer loop
    vertex 1.89 3.616666666666667 0.575
    vertex 1.479687962379289 3.616666666666667 0.575
    vertex 1.643333333333333 3.616666666666667 0.9
  endloop
endfacet
facet normal 0 0 -1
  outer loop
    vertex 2.66606395161735 2.798664837187955 0.25
    vertex 3.186183014460934 2.837471099167243 0.25
    vertex 2.833014256231194 2.325603769662229 0.25
  endloop
endfacet
facet normal 0 -0 -1
  outer loop
    vertex 3.186183014460934 2.837471099167243 0.25
    vertex 3.287345626959882 2.363471771948966 0.25
    vertex 2.833014256231194 2.325603769662229 0.25
  endloop
endfacet
facet normal 0 0 -1
  outer loop
    vertex 1.962188364463975 2.639472302719474 0.25
    vertex 1.567599482885953 2.874821130451554 0.25
    vertex 1.930350995212031 3.152465417251656 0.25
  endloop
endfacet
facet normal 0 0 -1
  outer loop
    vertex 3.152708856745086 1.927579451650496 0.25
    vertex 2.656688902356476 1.939528364784344 0.25
    vertex 2.833014256231194 2.325603769662229 0.25
  endloop
endfacet
facet normal 0 0 -1
  outer loop
    vertex 1.950354406199989 2.136147517168823 0.25
    vertex 1.916322188544246 1.606819169385541 0.25
    vertex 1.542122161668652 1.903579517829552 0.25
  endloop
endfacet
facet normal 0 -0 -1
  outer loop
    vertex 2.876386511041564 3.198857379423959 0.25
    vertex 3.186183014460934 2.837471099167243 0.25
    vertex 2.66606395161735 2.798664837187955 0.25
  endloop
endfacet
facet normal -0 0 -1
  outer loop
    vertex 3.152708856745086 1.927579451650496 0.25
    vertex 2.861948315993431 1.548966357329478 0.25
    vertex 2.656688902356476 1.939528364784344 0.25
  endloop
endfacet
facet normal 0 0 -1
  outer loop
    vertex 1.962188364463975 2.639472302719474 0.25
    vertex 1.930350995212031 3.152465417251656 0.25
    vertex 2.280231265562102 2.85125252904358 0.25
  endloop
endfacet
facet normal 0 0 -1
  outer loop
    vertex 1.916322188544246 1.606819169385541 0.25
    vertex 1.950354406199989 2.136147517168823 0.25
    vertex 2.280037299734033 1.915282780270354 0.25
  endloop
endfacet
facet normal 0 0 -1
  outer loop
    vertex 3.287345626959882 2.363471771948966 0.25
    vertex 3.152708856745086 1.927579451650496 0.25
    vertex 2.833014256231194 2.325603769662229 0.25
  endloop
endfacet
facet normal 0 0 -1
  outer loop
    vertex 1.15 2.63 0.25
    vertex 1.15 3.123333333333334 0.25
    vertex 1.567599482885953 2.874821130451554 0.25
  endloop
endfacet
facet normal 0 0 -1
  outer loop
    vertex 2.63 3.616666666666667 0.25
    vertex 3.123333333333334 3.616666666666667 0.25
    vertex 2.876386511041564 3.198857379423959 0.25
  endloop
endfacet
facet normal -0 0 -1
  outer loop
    vertex 2.40314881153168 1.553790607577093 0.25
    vertex 2.136666666666667 1.15 0.25
    vertex 1.916322188544246 1.606819169385541 0.25
  endloop
endfacet
facet normal 0 0 -1
  outer loop
    vertex 2.411292788504875 3.212857023614299 0.25
    vertex 2.63 3.616666666666667 0.25
    vertex 2.876386511041564 3.198857379423959 0.25
  endloop
endfacet
facet normal 0 0 -1
  outer loop
    vertex 1.950354406199989 2.136147517168823 0.25
    vertex 1.962188364463975 2.639472302719474 0.25
    vertex 2.431717597600968 2.383333333333332 0.25
  endloop
endfacet
facet normal 0 -0 -1
  outer loop
    vertex 3.616666666666667 2.136666666666667 0.25
    vertex 3.616666666666667 1.643333333333333 0.25
    vertex 3.152708856745086 1.927579451650496 0.25
  endloop
endfacet
facet normal 0 0 -1
  outer loop
    vertex 2.136666666666667 1.15 0.25
    vertex 1.643333333333333 1.15 0.25
    vertex 1.916322188544246 1.606819169385541 0.25
  endloop
endfacet
facet normal 0 0 -1
  outer loop
    vertex 1.574911310200368 2.387365355355636 0.25
    vertex 1.15 2.63 0.25
    vertex 1.567599482885953 2.874821130451554 0.25
  endloop
endfacet
facet normal 0 0 -1
  outer loop
    vertex 1.574911310200368 2.387365355355636 0.25
    vertex 1.962188364463975 2.639472302719474 0.25
    vertex 1.950354406199989 2.136147517168823 0.25
  endloop
endfacet
facet normal 0 0 -1
  outer loop
    vertex 1.15 2.136666666666667 0.25
    vertex 1.15 2.63 0.25
    vertex 1.574911310200368 2.387365355355636 0.25
  endloop
endfacet
facet normal 0 -0 -1
  outer loop
    vertex 3.616666666666667 2.63 0.25
    vertex 3.616666666666667 2.136666666666667 0.25
    vertex 3.287345626959882 2.363471771948966 0.25
  endloop
endfacet
facet normal 0 -0 -1
  outer loop
    vertex 3.287345626959882 2.363471771948966 0.25
    vertex 3.616666666666667 2.136666666666667 0.25
    vertex 3.152708856745086 1.927579451650496 0.25
  endloop
endfacet
facet normal 0 0 -1
  outer loop
    vertex 2.63 1.15 0.25
    vertex 2.136666666666667 1.15 0.25
    vertex 2.40314881153168 1.553790607577093 0.25
  endloop
endfacet
facet normal 0 0 -1
  outer loop
    vertex 2.136666666666667 3.616666666666667 0.25
    vertex 2.63 3.616666666666667 0.25
    vertex 2.411292788504875 3.212857023614299 0.25
  endloop
endfacet
facet normal 0 0 -1
  outer loop
    vertex 1.574911310200368 2.387365355355636 0.25
    vertex 1.567599482885953 2.874821130451554 0.25
    vertex 1.962188364463975 2.639472302719474 0.25
  endloop
endfacet
facet normal 0 0 -1
  outer loop
    vertex 1.15 1.643333333333333 0.25
    vertex 1.15 2.136666666666667 0.25
    vertex 1.542122161668652 1.903579517829552 0.25
  endloop
endfacet
facet normal 0 0 -1
  outer loop
    vertex 1.643333333333333 3.616666666666667 0.25
    vertex 2.136666666666667 3.616666666666667 0.25
    vertex 1.930350995212031 3.152465417251656 0.25
  endloop
endfacet
facet normal 0 0 -1
  outer loop
    vertex 3.123333333333334 1.15 0.25
    vertex 2.63 1.15 0.25
    vertex 2.861948315993431 1.548966357329478 0.25
  endloop
endfacet
facet normal 0 -0 -1
  outer loop
    vertex 1.574911310200368 2.387365355355636 0.25
    vertex 1.950354406199989 2.136147517168823 0.25
    vertex 1.542122161668652 1.903579517829552 0.25
  endloop
endfacet
facet normal 0 -0 -1
  outer loop
    vertex 3.616666666666667 3.123333333333334 0.25
    vertex 3.616666666666667 2.63 0.25
    vertex 3.186183014460934 2.837471099167243 0.25
  endloop
endfacet
facet normal 0 0 -1
  outer loop
    vertex 2.63 1.15 0.25
    vertex 2.40314881153168 1.553790607577093 0.25
    vertex 2.861948315993431 1.548966357329478 0.25
  endloop
endfacet
facet normal 0 0 -1
  outer loop
    vertex 1.15 2.136666666666667 0.25
    vertex 1.574911310200368 2.387365355355636 0.25
    vertex 1.542122161668652 1.903579517829552 0.25
  endloop
endfacet
facet normal -0 0 -1
  outer loop
    vertex 3.616666666666667 2.63 0.25
    vertex 3.287345626959882 2.363471771948966 0.25
    vertex 3.186183014460934 2.837471099167243 0.25
  endloop
endfacet
facet normal 0 -0 -1
  outer loop
    vertex 2.136666666666667 3.616666666666667 0.25
    vertex 2.411292788504875 3.212857023614299 0.25
    vertex 1.930350995212031 3.152465417251656 0.25
  endloop
endfacet
facet normal 0 0 -1
  outer loop
    vertex 2.411292788504875 3.212857023614299 0.25
    vertex 2.876386511041564 3.198857379423959 0.25
    vertex 2.66606395161735 2.798664837187955 0.25
  endloop
endfacet
facet normal 0 0 -1
  outer loop
    vertex 1.15 1.15 0.25
    vertex 1.15 1.643333333333333 0.25
    vertex 1.511145065067313 1.511145065067313 0.25
  endloop
endfacet
facet normal 0 0 -1
  outer loop
    vertex 1.643333333333333 1.15 0.25
    vertex 1.15 1.15 0.25
    vertex 1.511145065067313 1.511145065067313 0.25
  endloop
endfacet
facet normal 0 0 -1
  outer loop
    vertex 1.15 3.123333333333334 0.25
    vertex 1.15 3.616666666666667 0.25
    vertex 1.511145065067313 3.255521601599354 0.25
  endloop
endfacet
facet normal 0 0 -1
  outer loop
    vertex 1.15 3.616666666666667 0.25
    vertex 1.643333333333333 3.616666666666667 0.25
    vertex 1.511145065067313 3.255521601599354 0.25
  endloop
endfacet
facet normal 0 -0 -1
  outer loop
    vertex 3.616666666666667 1.643333333333333 0.25
    vertex 3.616666666666667 1.15 0.25
    vertex 3.255521601599354 1.511145065067313 0.25
  endloop
endfacet
facet normal 0 0 -1
  outer loop
    vertex 3.616666666666667 1.15 0.25
    vertex 3.123333333333334 1.15 0.25
    vertex 3.255521601599354 1.511145065067313 0.25
  endloop
endfacet
facet normal 0 -0 -1
  outer loop
    vertex 3.616666666666667 3.616666666666667 0.25
    vertex 3.616666666666667 3.123333333333334 0.25
    vertex 3.255521601599354 3.255521601599354 0.25
  endloop
endfacet
facet normal 0 0 -1
  outer loop
    vertex 3.123333333333334 3.616666666666667 0.25
    vertex 3.616666666666667 3.616666666666667 0.25
    vertex 3.255521601599354 3.255521601599354 0.25
  endloop
endfacet
facet normal 0 0 -1
  outer loop
    vertex 2.431717597600968 2.383333333333332 0.25
    vertex 2.66606395161735 2.798664837187955 0.25
    vertex 2.833014256231194 2.325603769662229 0.25
  endloop
endfacet
facet normal 0 0 -1
  outer loop
    vertex 2.40314881153168 1.553790607577093 0.25
    vertex 1.916322188544246 1.606819169385541 0.25
    vertex 2.280037299734033 1.915282780270354 0.25
  endloop
endfacet
facet normal 0 0 -1
  outer loop
    vertex 2.861948315993431 1.548966357329478 0.25
    vertex 2.40314881153168 1.553790607577093 0.25
    vertex 2.656688902356476 1.939528364784344 0.25
  endloop
endfacet
facet normal 0 0 -1
  outer loop
    vertex 1.950354406199989 2.136147517168823 0.25
    vertex 2.431717597600968 2.383333333333332 0.25
    vertex 2.280037299734033 1.915282780270354 0.25
  endloop
endfacet
facet normal 0 0 -1
  outer loop
    vertex 2.431717597600968 2.383333333333332 0.25
    vertex 1.962188364463975 2.639472302719474 0.25
    vertex 2.280231265562102 2.85125252904358 0.25
  endloop
endfacet
facet normal 0 0 -1
  outer loop
    vertex 1.930350995212031 3.152465417251656 0.25
    vertex 2.411292788504875 3.212857023614299 0.25
    vertex 2.280231265562102 2.85125252904358 0.25
  endloop
endfacet
facet normal 0 -0 -1
  outer loop
    vertex 2.431717597600968 2.383333333333332 0.25
    vertex 2.656688902356476 1.939528364784344 0.25
    vertex 2.280037299734033 1.915282780270354 0.25
  endloop
endfacet
facet normal -0 0 -1
  outer loop
    vertex 2.66606395161735 2.798664837187955 0.25
    vertex 2.431717597600968 2.383333333333332 0.25
    vertex 2.280231265562102 2.85125252904358 0.25
  endloop
endfacet
facet normal 0 -0 -1
  outer loop
    vertex 1.643333333333333 3.616666666666667 0.25
    vertex 1.930350995212031 3.152465417251656 0.25
    vertex 1.511145065067313 3.255521601599354 0.25
  endloop
endfacet
facet normal 0 0 -1
  outer loop
    vertex 1.15 1.643333333333333 0.25
    vertex 1.542122161668652 1.903579517829552 0.25
    vertex 1.511145065067313 1.511145065067313 0.25
  endloop
endfacet
facet normal 0 0 -1
  outer loop
    vertex 3.123333333333334 1.15 0.25
    vertex 2.861948315993431 1.548966357329478 0.25
    vertex 3.255521601599354 1.511145065067313 0.25
  endloop
endfacet
facet normal -0 0 -1
  outer loop
    vertex 3.616666666666667 3.123333333333334 0.25
    vertex 3.186183014460934 2.837471099167243 0.25
    vertex 3.255521601599354 3.255521601599354 0.25
  endloop
endfacet
facet normal 0 0 -1
  outer loop
    vertex 1.567599482885953 2.874821130451554 0.25
    vertex 1.15 3.123333333333334 0.25
    vertex 1.511145065067313 3.255521601599354 0.25
  endloop
endfacet
facet normal 0 0 -1
  outer loop
    vertex 2.876386511041564 3.198857379423959 0.25
    vertex 3.123333333333334 3.616666666666667 0.25
    vertex 3.255521601599354 3.255521601599354 0.25
  endloop
endfacet
facet normal 0 0 -1
  outer loop
    vertex 3.152708856745086 1.927579451650496 0.25
    vertex 3.616666666666667 1.643333333333333 0.25
    vertex 3.255521601599354 1.511145065067313 0.25
  endloop
endfacet
facet normal 0 0 -1
  outer loop
    vertex 1.916322188544246 1.606819169385541 0.25
    vertex 1.643333333333333 1.15 0.25
    vertex 1.511145065067313 1.511145065067313 0.25
  endloop
endfacet
facet normal -0 0 -1
  outer loop
    vertex 1.930350995212031 3.152465417251656 0.25
    vertex 1.567599482885953 2.874821130451554 0.25
    vertex 1.511145065067313 3.255521601599354 0.25
  endloop
endfacet
facet normal 0 0 -1
  outer loop
    vertex 3.186183014460934 2.837471099167243 0.25
    vertex 2.876386511041564 3.198857379423959 0.25
    vertex 3.255521601599354 3.255521601599354 0.25
  endloop
endfacet
facet normal 0 -0 -1
  outer loop
    vertex 1.542122161668652 1.903579517829552 0.25
    vertex 1.916322188544246 1.606819169385541 0.25
    vertex 1.511145065067313 1.511145065067313 0.25
  endloop
endfacet
facet normal 0 0 -1
  outer loop
    vertex 2.861948315993431 1.548966357329478 0.25
    vertex 3.152708856745086 1.927579451650496 0.25
    vertex 3.255521601599354 1.511145065067313 0.25
  endloop
endfacet
facet normal 0 0 -1
  outer loop
    vertex 2.656688902356476 1.939528364784344 0.25
    vertex 2.431717597600968 2.383333333333332 0.25
    vertex 2.833014256231194 2.325603769662229 0.25
  endloop
endfacet
facet normal 0 -0 -1
  outer loop
    vertex 2.411292788504875 3.212857023614299 0.25
    vertex 2.66606395161735 2.798664837187955 0.25
    vertex 2.280231265562102 2.85125252904358 0.25
  endloop
endfacet
facet normal 0 0 -1
  outer loop
    vertex 2.656688902356476 1.939528364784344 0.25
    vertex 2.40314881153168 1.553790607577093 0.25
    vertex 2.280037299734033 1.915282780270354 0.25
  endloop
endfacet
facet normal -0 0 1
  outer loop
    vertex 2.66606395161735 2.798664837187955 0.9
    vertex 2.833014256231194 2.325603769662228 0.9
    vertex 3.186183014460934 2.837471099167243 0.9
  endloop
endfacet
facet normal 0 0 1
  outer loop
    vertex 3.186183014460934 2.837471099167243 0.9
    vertex 2.833014256231194 2.325603769662228 0.9
    vertex 3.287345626959882 2.363471771948966 0.9
  endloop
endfacet
facet normal 0 0 1
  outer loop
    vertex 1.962188364463975 2.639472302719474 0.9
    vertex 1.930350995212031 3.152465417251656 0.9
    vertex 1.567599482885953 2.874821130451554 0.9
  endloop
endfacet
facet normal 0 0 1
  outer loop
    vertex 3.152708856745086 1.927579451650496 0.9
    vertex 2.833014256231194 2.325603769662228 0.9
    vertex 2.656688902356476 1.939528364784344 0.9
  endloop
endfacet
facet normal 0 0 1
  outer loop
    vertex 1.950354406199989 2.136147517168823 0.9
    vertex 1.542122161668652 1.903579517829552 0.9
    vertex 1.916322188544246 1.606819169385541 0.9
  endloop
endfacet
facet normal 0 0 1
  outer loop
    vertex 2.876386511041564 3.198857379423959 0.9
    vertex 2.66606395161735 2.798664837187955 0.9
    vertex 3.186183014460934 2.837471099167243 0.9
  endloop
endfacet
facet normal 0 0 1
  outer loop
    vertex 3.152708856745086 1.927579451650496 0.9
    vertex 2.656688902356476 1.939528364784344 0.9
    vertex 2.861948315993431 1.548966357329478 0.9
  endloop
endfacet
facet normal 0 -0 1
  outer loop
    vertex 1.962188364463975 2.639472302719474 0.9
    vertex 2.280231265562101 2.85125252904358 0.9
    vertex 1.930350995212031 3.152465417251656 0.9
  endloop
endfacet
facet normal 0 0 1
  outer loop
    vertex 1.916322188544246 1.606819169385541 0.9
    vertex 2.280037299734033 1.915282780270354 0.9
    vertex 1.950354406199989 2.136147517168823 0.9
  endloop
endfacet
facet normal 0 0 1
  outer loop
    vertex 3.287345626959882 2.363471771948966 0.9
    vertex 2.833014256231194 2.325603769662228 0.9
    vertex 3.152708856745086 1.927579451650496 0.9
  endloop
endfacet
facet normal 0 0 1
  outer loop
    vertex 1.950354406199989 2.136147517168823 0.9
    vertex 2.431717597600969 2.383333333333332 0.9
    vertex 1.962188364463975 2.639472302719474 0.9
  endloop
endfacet
facet normal 0 0 1
  outer loop
    vertex 1.15 2.63 0.9
    vertex 1.567599482885953 2.874821130451554 0.9
    vertex 1.15 3.123333333333334 0.9
  endloop
endfacet
facet normal -0 0 1
  outer loop
    vertex 2.63 3.616666666666667 0.9
    vertex 2.876386511041564 3.198857379423959 0.9
    vertex 3.123333333333334 3.616666666666667 0.9
  endloop
endfacet
facet normal 0 0 1
  outer loop
    vertex 2.40314881153168 1.553790607577093 0.9
    vertex 1.916322188544246 1.606819169385541 0.9
    vertex 2.136666666666667 1.15 0.9
  endloop
endfacet
facet normal -0 0 1
  outer loop
    vertex 2.411292788504875 3.212857023614299 0.9
    vertex 2.876386511041564 3.198857379423959 0.9
    vertex 2.63 3.616666666666667 0.9
  endloop
endfacet
facet normal 0 0 1
  outer loop
    vertex 3.616666666666667 2.136666666666667 0.9
    vertex 3.152708856745086 1.927579451650496 0.9
    vertex 3.616666666666667 1.643333333333333 0.9
  endloop
endfacet
facet normal 0 0 1
  outer loop
    vertex 2.136666666666667 1.15 0.9
    vertex 1.916322188544246 1.606819169385541 0.9
    vertex 1.643333333333333 1.15 0.9
  endloop
endfacet
facet normal 0 0 1
  outer loop
    vertex 1.574911310200368 2.387365355355636 0.9
    vertex 1.567599482885953 2.874821130451554 0.9
    vertex 1.15 2.63 0.9
  endloop
endfacet
facet normal -0 0 1
  outer loop
    vertex 1.574911310200368 2.387365355355636 0.9
    vertex 1.950354406199989 2.136147517168823 0.9
    vertex 1.962188364463975 2.639472302719474 0.9
  endloop
endfacet
facet normal 0 0 1
  outer loop
    vertex 1.15 2.136666666666667 0.9
    vertex 1.574911310200368 2.387365355355636 0.9
    vertex 1.15 2.63 0.9
  endloop
endfacet
facet normal 0 0 1
  outer loop
    vertex 3.616666666666667 2.63 0.9
    vertex 3.287345626959882 2.363471771948966 0.9
    vertex 3.616666666666667 2.136666666666667 0.9
  endloop
endfacet
facet normal 0 0 1
  outer loop
    vertex 3.287345626959882 2.363471771948966 0.9
    vertex 3.152708856745086 1.927579451650496 0.9
    vertex 3.616666666666667 2.136666666666667 0.9
  endloop
endfacet
facet normal 0 0 1
  outer loop
    vertex 2.63 1.15 0.9
    vertex 2.40314881153168 1.553790607577093 0.9
    vertex 2.136666666666667 1.15 0.9
  endloop
endfacet
facet normal -0 0 1
  outer loop
    vertex 2.136666666666667 3.616666666666667 0.9
    vertex 2.411292788504875 3.212857023614299 0.9
    vertex 2.63 3.616666666666667 0.9
  endloop
endfacet
facet normal 0 -0 1
  outer loop
    vertex 1.574911310200368 2.387365355355636 0.9
    vertex 1.962188364463975 2.639472302719474 0.9
    vertex 1.567599482885953 2.874821130451554 0.9
  endloop
endfacet
facet normal 0 0 1
  outer loop
    vertex 1.15 1.643333333333333 0.9
    vertex 1.542122161668652 1.903579517829552 0.9
    vertex 1.15 2.136666666666667 0.9
  endloop
endfacet
facet normal -0 0 1
  outer loop
    vertex 1.643333333333333 3.616666666666667 0.9
    vertex 1.930350995212031 3.152465417251656 0.9
    vertex 2.136666666666667 3.616666666666667 0.9
  endloop
endfacet
facet normal 0 0 1
  outer loop
    vertex 3.123333333333334 1.15 0.9
    vertex 2.861948315993431 1.548966357329478 0.9
    vertex 2.63 1.15 0.9
  endloop
endfacet
facet normal 0 0 1
  outer loop
    vertex 1.574911310200368 2.387365355355636 0.9
    vertex 1.542122161668652 1.903579517829552 0.9
    vertex 1.950354406199989 2.136147517168823 0.9
  endloop
endfacet
facet normal 0 0 1
  outer loop
    vertex 3.616666666666667 3.123333333333334 0.9
    vertex 3.186183014460934 2.837471099167243 0.9
    vertex 3.616666666666667 2.63 0.9
  endloop
endfacet
facet normal 0 -0 1
  outer loop
    vertex 2.63 1.15 0.9
    vertex 2.861948315993431 1.548966357329478 0.9
    vertex 2.40314881153168 1.553790607577093 0.9
  endloop
endfacet
facet normal -0 0 1
  outer loop
    vertex 1.15 2.136666666666667 0.9
    vertex 1.542122161668652 1.903579517829552 0.9
    vertex 1.574911310200368 2.387365355355636 0.9
  endloop
endfacet
facet normal 0 0 1
  outer loop
    vertex 3.616666666666667 2.63 0.9
    vertex 3.186183014460934 2.837471099167243 0.9
    vertex 3.287345626959882 2.363471771948966 0.9
  endloop
endfacet
facet normal 0 0 1
  outer loop
    vertex 2.136666666666667 3.616666666666667 0.9
    vertex 1.930350995212031 3.152465417251656 0.9
    vertex 2.411292788504875 3.212857023614299 0.9
  endloop
endfacet
facet normal 0 0 1
  outer loop
    vertex 2.411292788504875 3.212857023614299 0.9
    vertex 2.66606395161735 2.798664837187955 0.9
    vertex 2.876386511041564 3.198857379423959 0.9
  endloop
endfacet
facet normal 0 0 1
  outer loop
    vertex 1.15 1.15 0.9
    vertex 1.511145065067313 1.511145065067313 0.9
    vertex 1.15 1.643333333333333 0.9
  endloop
endfacet
facet normal 0 0 1
  outer loop
    vertex 1.643333333333333 1.15 0.9
    vertex 1.511145065067313 1.511145065067313 0.9
    vertex 1.15 1.15 0.9
  endloop
endfacet
facet normal 0 0 1
  outer loop
    vertex 1.15 3.123333333333334 0.9
    vertex 1.511145065067313 3.255521601599354 0.9
    vertex 1.15 3.616666666666667 0.9
  endloop
endfacet
facet normal -0 0 1
  outer loop
    vertex 1.15 3.616666666666667 0.9
    vertex 1.511145065067313 3.255521601599354 0.9
    vertex 1.643333333333333 3.616666666666667 0.9
  endloop
endfacet
facet normal 0 0 1
  outer loop
    vertex 3.616666666666667 1.643333333333333 0.9
    vertex 3.255521601599354 1.511145065067313 0.9
    vertex 3.616666666666667 1.15 0.9
  endloop
endfacet
facet normal 0 0 1
  outer loop
    vertex 3.616666666666667 1.15 0.9
    vertex 3.255521601599354 1.511145065067313 0.9
    vertex 3.123333333333334 1.15 0.9
  endloop
endfacet
facet normal 0 0 1
  outer loop
    vertex 3.616666666666667 3.616666666666667 0.9
    vertex 3.255521601599354 3.255521601599354 0.9
    vertex 3.616666666666667 3.123333333333334 0.9
  endloop
endfacet
facet normal -0 0 1
  outer loop
    vertex 3.123333333333334 3.616666666666667 0.9
    vertex 3.255521601599354 3.255521601599354 0.9
    vertex 3.616666666666667 3.616666666666667 0.9
  endloop
endfacet
facet normal -0 0 1
  outer loop
    vertex 2.431717597600969 2.383333333333332 0.9
    vertex 2.833014256231194 2.325603769662228 0.9
    vertex 2.66606395161735 2.798664837187955 0.9
  endloop
endfacet
facet normal 0 0 1
  outer loop
    vertex 2.40314881153168 1.553790607577093 0.9
    vertex 2.280037299734033 1.915282780270354 0.9
    vertex 1.916322188544246 1.606819169385541 0.9
  endloop
endfacet
facet normal 0 0 1
  outer loop
    vertex 2.861948315993431 1.548966357329478 0.9
    vertex 2.656688902356476 1.939528364784344 0.9
    vertex 2.40314881153168 1.553790607577093 0.9
  endloop
endfacet
facet normal -0 0 1
  outer loop
    vertex 1.950354406199989 2.136147517168823 0.9
    vertex 2.280037299734033 1.915282780270354 0.9
    vertex 2.431717597600969 2.383333333333332 0.9
  endloop
endfacet
facet normal 0 0 1
  outer loop
    vertex 2.431717597600969 2.383333333333332 0.9
    vertex 2.280231265562101 2.85125252904358 0.9
    vertex 1.962188364463975 2.639472302719474 0.9
  endloop
endfacet
facet normal -0 0 1
  outer loop
    vertex 1.930350995212031 3.152465417251656 0.9
    vertex 2.280231265562101 2.85125252904358 0.9
    vertex 2.411292788504875 3.212857023614299 0.9
  endloop
endfacet
facet normal 0 0 1
  outer loop
    vertex 2.431717597600969 2.383333333333332 0.9
    vertex 2.280037299734033 1.915282780270354 0.9
    vertex 2.656688902356476 1.939528364784344 0.9
  endloop
endfacet
facet normal 0 0 1
  outer loop
    vertex 2.66606395161735 2.798664837187955 0.9
    vertex 2.280231265562101 2.85125252904358 0.9
    vertex 2.431717597600969 2.383333333333332 0.9
  endloop
endfacet
facet normal 0 0 1
  outer loop
    vertex 1.643333333333333 3.616666666666667 0.9
    vertex 1.511145065067313 3.255521601599354 0.9
    vertex 1.930350995212031 3.152465417251656 0.9
  endloop
endfacet
facet normal -0 0 1
  outer loop
    vertex 1.15 1.643333333333333 0.9
    vertex 1.511145065067313 1.511145065067313 0.9
    vertex 1.542122161668652 1.903579517829552 0.9
  endloop
endfacet
facet normal 0 -0 1
  outer loop
    vertex 3.123333333333334 1.15 0.9
    vertex 3.255521601599354 1.511145065067313 0.9
    vertex 2.861948315993431 1.548966357329478 0.9
  endloop
endfacet
facet normal 0 0 1
  outer loop
    vertex 3.616666666666667 3.123333333333334 0.9
    vertex 3.255521601599354 3.255521601599354 0.9
    vertex 3.186183014460934 2.837471099167243 0.9
  endloop
endfacet
facet normal 0 0 1
  outer loop
    vertex 1.567599482885953 2.874821130451554 0.9
    vertex 1.511145065067313 3.255521601599354 0.9
    vertex 1.15 3.123333333333334 0.9
  endloop
endfacet
facet normal 0 0 1
  outer loop
    vertex 2.876386511041564 3.198857379423959 0.9
    vertex 3.255521601599354 3.255521601599354 0.9
    vertex 3.123333333333334 3.616666666666667 0.9
  endloop
endfacet
facet normal 0 0 1
  outer loop
    vertex 3.152708856745086 1.927579451650496 0.9
    vertex 3.255521601599354 1.511145065067313 0.9
    vertex 3.616666666666667 1.643333333333333 0.9
  endloop
endfacet
facet normal 0 0 1
  outer loop
    vertex 1.916322188544246 1.606819169385541 0.9
    vertex 1.511145065067313 1.511145065067313 0.9
    vertex 1.643333333333333 1.15 0.9
  endloop
endfacet
facet normal 0 0 1
  outer loop
    vertex 1.930350995212031 3.152465417251656 0.9
    vertex 1.511145065067313 3.255521601599354 0.9
    vertex 1.567599482885953 2.874821130451554 0.9
  endloop
endfacet
facet normal 0 -0 1
  outer loop
    vertex 3.186183014460934 2.837471099167243 0.9
    vertex 3.255521601599354 3.255521601599354 0.9
    vertex 2.876386511041564 3.198857379423959 0.9
  endloop
endfacet
facet normal 0 0 1
  outer loop
    vertex 1.542122161668652 1.903579517829552 0.9
    vertex 1.511145065067313 1.511145065067313 0.9
    vertex 1.916322188544246 1.606819169385541 0.9
  endloop
endfacet
facet normal -0 0 1
  outer loop
    vertex 2.861948315993431 1.548966357329478 0.9
    vertex 3.255521601599354 1.511145065067313 0.9
    vertex 3.152708856745086 1.927579451650496 0.9
  endloop
endfacet
facet normal 0 -0 1
  outer loop
    vertex 2.656688902356476 1.939528364784344 0.9
    vertex 2.833014256231194 2.325603769662228 0.9
    vertex 2.431717597600969 2.383333333333332 0.9
  endloop
endfacet
facet normal 0 0 1
  outer loop
    vertex 2.411292788504875 3.212857023614299 0.9
    vertex 2.280231265562101 2.85125252904358 0.9
    vertex 2.66606395161735 2.798664837187955 0.9
  endloop
endfacet
facet normal 0 0 1
  outer loop
    vertex 2.656688902356476 1.939528364784344 0.9
    vertex 2.280037299734033 1.915282780270354 0.9
    vertex 2.40314881153168 1.553790607577093 0.9
  endloop
endfacet
endsolid Created by Gmsh
