solid Created by Gmsh
facet normal -1 0 0
  outer loop
    vertex 3.766666666666667 3.766666666666667 0.25
    vertex 3.766666666666667 3.766666666666667 0.5750000000000002
    vertex 3.766666666666667 4.096354629045956 0.575
  endloop
endfacet
facet normal -1 0 0
  outer loop
    vertex 3.766666666666667 3.766666666666667 0.5750000000000002
    vertex 3.766666666666667 3.766666666666667 0.9
    vertex 3.766666666666667 4.096354629045956 0.575
  endloop
endfacet
facet normal -1 0 -0
  outer loop
    vertex 3.766666666666667 6.233333333333333 0.5750000000000002
    vertex 3.766666666666667 6.233333333333333 0.25
    vertex 3.766666666666667 5.903645370954045 0.575
  endloop
endfacet
facet normal -1 0 -0
  outer loop
    vertex 3.766666666666667 6.233333333333333 0.9
    vertex 3.766666666666667 6.233333333333333 0.5750000000000002
    vertex 3.766666666666667 5.903645370954045 0.575
  endloop
endfacet
facet normal -1 0 0
  outer loop
    vertex 3.766666666666667 3.766666666666667 0.9
    vertex 3.766666666666667 4.26 0.9
    vertex 3.766666666666667 4.096354629045956 0.575
  endloop
endfacet
facet normal -1 0 0
  outer loop
    vertex 3.766666666666667 6.233333333333333 0.25
    vertex 3.766666666666667 5.74 0.25
    vertex 3.766666666666667 5.903645370954045 0.575
  endloop
endfacet
facet normal -1 0 0
  outer loop
    vertex 3.766666666666667 5.74 0.9
    vertex 3.766666666666667 6.233333333333333 0.9
    vertex 3.766666666666667 5.903645370954045 0.575
  endloop
endfacet
facet normal -1 0 0
  outer loop
    vertex 3.766666666666667 4.26 0.25
    vertex 3.766666666666667 3.766666666666667 0.25
    vertex 3.766666666666667 4.096354629045956 0.575
  endloop
endfacet
facet normal -1 0 0
  outer loop
    vertex 3.766666666666667 5.246666666666667 0.9
    vertex 3.766666666666667 5.74 0.9
    vertex 3.766666666666667 5.493333333333333 0.575
  endloop
endfacet
facet normal -1 0 0
  outer loop
    vertex 3.766666666666667 5 0.575
    vertex 3.766666666666667 5.246666666666667 0.9
    vertex 3.766666666666667 5.493333333333333 0.575
  endloop
endfacet
facet normal -1 0 0
  outer loop
    vertex 3.766666666666667 4.753333333333333 0.25
    vertex 3.766666666666667 4.26 0.25
    vertex 3.766666666666667 4.506666666666667 0.575
  endloop
endfacet
facet normal -1 0 0
  outer loop
    vertex 3.766666666666667 5.246666666666667 0.25
    vertex 3.766666666666667 4.753333333333333 0.25
    vertex 3.766666666666667 5 0.575
  endloop
endfacet
facet normal -1 0 0
  outer loop
    vertex 3.766666666666667 4.753333333333333 0.9
    vertex 3.766666666666667 5.246666666666667 0.9
    vertex 3.766666666666667 5 0.575
  endloop
endfacet
facet normal -1 0 -0
  outer loop
    vertex 3.766666666666667 4.753333333333333 0.9
    vertex 3.766666666666667 5 0.575
    vertex 3.766666666666667 4.506666666666667 0.575
  endloop
endfacet
facet normal -1 0 0
  outer loop
    vertex 3.766666666666667 5.246666666666667 0.25
    vertex 3.766666666666667 5 0.575
    vertex 3.766666666666667 5.493333333333333 0.575
  endloop
endfacet
facet normal -1 0 0
  outer loop
    vertex 3.766666666666667 4.26 0.9
    vertex 3.766666666666667 4.753333333333333 0.9
    vertex 3.766666666666667 4.506666666666667 0.575
  endloop
endfacet
facet normal -1 -0 0
  outer loop
    vertex 3.766666666666667 5 0.575
    vertex 3.766666666666667 4.753333333333333 0.25
    vertex 3.766666666666667 4.506666666666667 0.575
  endloop
endfacet
facet normal -1 0 0
  outer loop
    vertex 3.766666666666667 5.74 0.25
    vertex 3.766666666666667 5.246666666666667 0.25
    vertex 3.766666666666667 5.493333333333333 0.575
  endloop
endfacet
facet normal -1 -0 0
  outer loop
    vertex 3.766666666666667 4.506666666666667 0.575
    vertex 3.766666666666667 4.26 0.25
    vertex 3.766666666666667 4.096354629045956 0.575
  endloop
endfacet
facet normal -1 0 0
  outer loop
    vertex 3.766666666666667 5.493333333333333 0.575
    vertex 3.766666666666667 5.74 0.9
    vertex 3.766666666666667 5.903645370954045 0.575
  endloop
endfacet
facet normal -1 0 0
  outer loop
    vertex 3.766666666666667 5.74 0.25
    vertex 3.766666666666667 5.493333333333333 0.575
    vertex 3.766666666666667 5.903645370954045 0.575
  endloop
endfacet
facet normal -1 0 -0
  outer loop
    vertex 3.766666666666667 4.26 0.9
    vertex 3.766666666666667 4.506666666666667 0.575
    vertex 3.766666666666667 4.096354629045956 0.575
  endloop
endfacet
facet normal 1 0 0
  outer loop
    vertex 6.233333333333333 3.766666666666667 0.25
    vertex 6.233333333333333 4.096354629045956 0.575
    vertex 6.233333333333333 3.766666666666667 0.5750000000000002
  endloop
endfacet
facet normal 1 -0 0
  outer loop
    vertex 6.233333333333333 3.766666666666667 0.5750000000000002
    vertex 6.233333333333333 4.096354629045956 0.575
    vertex 6.233333333333333 3.766666666666667 0.9
  endloop
endfacet
facet normal 1 0 0
  outer loop
    vertex 6.233333333333333 6.233333333333333 0.5750000000000002
    vertex 6.233333333333333 5.903645370954045 0.575
    vertex 6.233333333333333 6.233333333333333 0.25
  endloop
endfacet
facet normal 1 0 0
  outer loop
    vertex 6.233333333333333 6.233333333333333 0.9
    vertex 6.233333333333333 5.903645370954045 0.575
    vertex 6.233333333333333 6.233333333333333 0.5750000000000002
  endloop
endfacet
facet normal 1 -0 0
  outer loop
    vertex 6.233333333333333 3.766666666666667 0.9
    vertex 6.233333333333333 4.096354629045956 0.575
    vertex 6.233333333333333 4.26 0.9
  endloop
endfacet
facet normal 1 0 0
  outer loop
    vertex 6.233333333333333 6.233333333333333 0.25
    vertex 6.233333333333333 5.903645370954045 0.575
    vertex 6.233333333333333 5.74 0.25
  endloop
endfacet
facet normal 1 -0 0
  outer loop
    vertex 6.233333333333333 5.74 0.9
    vertex 6.233333333333333 5.903645370954045 0.575
    vertex 6.233333333333333 6.233333333333333 0.9
  endloop
endfacet
facet normal 1 0 0
  outer loop
    vertex 6.233333333333333 4.26 0.25
    vertex 6.233333333333333 4.096354629045956 0.575
    vertex 6.233333333333333 3.766666666666667 0.25
  endloop
endfacet
facet normal 1 -0 0
  outer loop
    vertex 6.233333333333333 5.246666666666667 0.9
    vertex 6.233333333333333 5.493333333333333 0.575
    vertex 6.233333333333333 5.74 0.9
  endloop
endfacet
facet normal 1 0 0
  outer loop
    vertex 6.233333333333333 5 0.575
    vertex 6.233333333333333 5.493333333333333 0.575
    vertex 6.233333333333333 5.246666666666667 0.9
  endloop
endfacet
facet normal 1 0 0
  outer loop
    vertex 6.233333333333333 4.753333333333333 0.25
    vertex 6.233333333333333 4.506666666666667 0.575
    vertex 6.233333333333333 4.26 0.25
  endloop
endfacet
facet normal 1 0 0
  outer loop
    vertex 6.233333333333333 5.246666666666667 0.25
    vertex 6.233333333333333 5 0.575
    vertex 6.233333333333333 4.753333333333333 0.25
  endloop
endfacet
facet normal 1 -0 0
  outer loop
    vertex 6.233333333333333 4.753333333333333 0.9
    vertex 6.233333333333333 5 0.575
    vertex 6.233333333333333 5.246666666666667 0.9
  endloop
endfacet
facet normal 1 0 0
  outer loop
    vertex 6.233333333333333 4.753333333333333 0.9
    vertex 6.233333333333333 4.506666666666667 0.575
    vertex 6.233333333333333 5 0.575
  endloop
endfacet
facet normal 1 0 -0
  outer loop
    vertex 6.233333333333333 5.246666666666667 0.25
    vertex 6.233333333333333 5.493333333333333 0.575
    vertex 6.233333333333333 5 0.575
  endloop
endfacet
facet normal 1 -0 0
  outer loop
    vertex 6.233333333333333 4.26 0.9
    vertex 6.233333333333333 4.506666666666667 0.575
    vertex 6.233333333333333 4.753333333333333 0.9
  endloop
endfacet
facet normal 1 0 0
  outer loop
    vertex 6.233333333333333 5 0.575
    vertex 6.233333333333333 4.506666666666667 0.575
    vertex 6.233333333333333 4.753333333333333 0.25
  endloop
endfacet
facet normal 1 0 0
  outer loop
    vertex 6.233333333333333 5.74 0.25
    vertex 6.233333333333333 5.493333333333333 0.575
    vertex 6.233333333333333 5.246666666666667 0.25
  endloop
endfacet
facet normal 1 0 0
  outer loop
    vertex 6.233333333333333 4.506666666666667 0.575
    vertex 6.233333333333333 4.096354629045956 0.575
    vertex 6.233333333333333 4.26 0.25
  endloop
endfacet
facet normal 1 0 0
  outer loop
    vertex 6.233333333333333 5.493333333333333 0.575
    vertex 6.233333333333333 5.903645370954045 0.575
    vertex 6.233333333333333 5.74 0.9
  endloop
endfacet
facet normal 1 0 -0
  outer loop
    vertex 6.233333333333333 5.74 0.25
    vertex 6.233333333333333 5.903645370954045 0.575
    vertex 6.233333333333333 5.493333333333333 0.575
  endloop
endfacet
facet normal 1 0 0
  outer loop
    vertex 6.233333333333333 4.26 0.9
    vertex 6.233333333333333 4.096354629045956 0.575
    vertex 6.233333333333333 4.506666666666667 0.575
  endloop
endfacet
facet normal 0 -1 0
  outer loop
    vertex 3.766666666666667 3.766666666666667 0.9
    vertex 3.766666666666667 3.766666666666667 0.5750000000000002
    vertex 4.096354629045956 3.766666666666667 0.575
  endloop
endfacet
facet normal 0 -1 0
  outer loop
    vertex 3.766666666666667 3.766666666666667 0.5750000000000002
    vertex 3.766666666666667 3.766666666666667 0.25
    vertex 4.096354629045956 3.766666666666667 0.575
  endloop
endfacet
facet normal 0 -1 0
  outer loop
    vertex 6.233333333333333 3.766666666666667 0.25
    vertex 6.233333333333333 3.766666666666667 0.5750000000000002
    vertex 5.903645370954045 3.766666666666667 0.575
  endloop
endfacet
facet normal -0 -1 0
  outer loop
    vertex 6.233333333333333 3.766666666666667 0.5750000000000002
    vertex 6.233333333333333 3.766666666666667 0.9
    vertex 5.903645370954045 3.766666666666667 0.575
  endloop
endfacet
facet normal 0 -1 0
  outer loop
    vertex 3.766666666666667 3.766666666666667 0.25
    vertex 4.26 3.766666666666667 0.25
    vertex 4.096354629045956 3.766666666666667 0.575
  endloop
endfacet
facet normal -0 -1 0
  outer loop
    vertex 6.233333333333333 3.766666666666667 0.9
    vertex 5.74 3.766666666666667 0.9
    vertex 5.903645370954045 3.766666666666667 0.575
  endloop
endfacet
facet normal -0 -1 0
  outer loop
    vertex 4.26 3.766666666666667 0.9
    vertex 3.766666666666667 3.766666666666667 0.9
    vertex 4.096354629045956 3.766666666666667 0.575
  endloop
endfacet
facet normal 0 -1 0
  outer loop
    vertex 5.74 3.766666666666667 0.25
    vertex 6.233333333333333 3.766666666666667 0.25
    vertex 5.903645370954045 3.766666666666667 0.575
  endloop
endfacet
facet normal 0 -1 0
  outer loop
    vertex 5.246666666666667 3.766666666666667 0.25
    vertex 5.74 3.766666666666667 0.25
    vertex 5.493333333333333 3.766666666666667 0.575
  endloop
endfacet
facet normal -0 -1 0
  outer loop
    vertex 4.753333333333333 3.766666666666667 0.9
    vertex 4.26 3.766666666666667 0.9
    vertex 4.506666666666667 3.766666666666667 0.575
  endloop
endfacet
facet normal 0 -1 0
  outer loop
    vertex 5 3.766666666666667 0.575
    vertex 4.753333333333333 3.766666666666667 0.9
    vertex 4.506666666666667 3.766666666666667 0.575
  endloop
endfacet
facet normal 0 -1 0
  outer loop
    vertex 4.753333333333333 3.766666666666667 0.25
    vertex 5.246666666666667 3.766666666666667 0.25
    vertex 5 3.766666666666667 0.575
  endloop
endfacet
facet normal -0 -1 0
  outer loop
    vertex 5.246666666666667 3.766666666666667 0.9
    vertex 4.753333333333333 3.766666666666667 0.9
    vertex 5 3.766666666666667 0.575
  endloop
endfacet
facet normal 0 -1 -0
  outer loop
    vertex 5.246666666666667 3.766666666666667 0.9
    vertex 5 3.766666666666667 0.575
    vertex 5.493333333333333 3.766666666666667 0.575
  endloop
endfacet
facet normal 0 -1 0
  outer loop
    vertex 4.753333333333333 3.766666666666667 0.25
    vertex 5 3.766666666666667 0.575
    vertex 4.506666666666667 3.766666666666667 0.575
  endloop
endfacet
facet normal -0 -1 0
  outer loop
    vertex 5.74 3.766666666666667 0.9
    vertex 5.246666666666667 3.766666666666667 0.9
    vertex 5.493333333333333 3.766666666666667 0.575
  endloop
endfacet
facet normal 0 -1 0
  outer loop
    vertex 4.26 3.766666666666667 0.25
    vertex 4.753333333333333 3.766666666666667 0.25
    vertex 4.506666666666667 3.766666666666667 0.575
  endloop
endfacet
facet normal 0 -1 0
  outer loop
    vertex 5 3.766666666666667 0.575
    vertex 5.246666666666667 3.766666666666667 0.25
    vertex 5.493333333333333 3.766666666666667 0.575
  endloop
endfacet
facet normal 0 -1 0
  outer loop
    vertex 5.493333333333333 3.766666666666667 0.575
    vertex 5.74 3.766666666666667 0.25
    vertex 5.903645370954045 3.766666666666667 0.575
  endloop
endfacet
facet normal 0 -1 0
  outer loop
    vertex 4.506666666666667 3.766666666666667 0.575
    vertex 4.26 3.766666666666667 0.9
    vertex 4.096354629045956 3.766666666666667 0.575
  endloop
endfacet
facet normal 0 -1 -0
  outer loop
    vertex 5.74 3.766666666666667 0.9
    vertex 5.493333333333333 3.766666666666667 0.575
    vertex 5.903645370954045 3.766666666666667 0.575
  endloop
endfacet
facet normal 0 -1 0
  outer loop
    vertex 4.26 3.766666666666667 0.25
    vertex 4.506666666666667 3.766666666666667 0.575
    vertex 4.096354629045956 3.766666666666667 0.575
  endloop
endfacet
facet normal 0 1 0
  outer loop
    vertex 3.766666666666667 6.233333333333333 0.9
    vertex 4.096354629045956 6.233333333333333 0.575
    vertex 3.766666666666667 6.233333333333333 0.5750000000000002
  endloop
endfacet
facet normal 0 1 0
  outer loop
    vertex 3.766666666666667 6.233333333333333 0.5750000000000002
    vertex 4.096354629045956 6.233333333333333 0.575
    vertex 3.766666666666667 6.233333333333333 0.25
  endloop
endfacet
facet normal 0 1 -0
  outer loop
    vertex 6.233333333333333 6.233333333333333 0.25
    vertex 5.903645370954045 6.233333333333333 0.575
    vertex 6.233333333333333 6.233333333333333 0.5750000000000002
  endloop
endfacet
facet normal 0 1 -0
  outer loop
    vertex 6.233333333333333 6.233333333333333 0.5750000000000002
    vertex 5.903645370954045 6.233333333333333 0.575
    vertex 6.233333333333333 6.233333333333333 0.9
  endloop
endfacet
facet normal 0 1 0
  outer loop
    vertex 3.766666666666667 6.233333333333333 0.25
    vertex 4.096354629045956 6.233333333333333 0.575
    vertex 4.26 6.233333333333333 0.25
  endloop
endfacet
facet normal 0 1 0
  outer loop
    vertex 6.233333333333333 6.233333333333333 0.9
    vertex 5.903645370954045 6.233333333333333 0.575
    vertex 5.74 6.233333333333333 0.9
  endloop
endfacet
facet normal 0 1 0
  outer loop
    vertex 4.26 6.233333333333333 0.9
    vertex 4.096354629045956 6.233333333333333 0.575
    vertex 3.766666666666667 6.233333333333333 0.9
  endloop
endfacet
facet normal 0 1 0
  outer loop
    vertex 5.74 6.233333333333333 0.25
    vertex 5.903645370954045 6.233333333333333 0.575
    vertex 6.233333333333333 6.233333333333333 0.25
  endloop
endfacet
facet normal 0 1 0
  outer loop
    vertex 5.246666666666667 6.233333333333333 0.25
    vertex 5.493333333333333 6.233333333333333 0.5750000000000002
    vertex 5.74 6.233333333333333 0.25
  endloop
endfacet
facet normal 0 1 0
  outer loop
    vertex 4.753333333333333 6.233333333333333 0.9
    vertex 4.506666666666667 6.233333333333333 0.575
    vertex 4.26 6.233333333333333 0.9
  endloop
endfacet
facet normal 0 1 0
  outer loop
    vertex 5 6.233333333333333 0.5750000000000001
    vertex 4.506666666666667 6.233333333333333 0.575
    vertex 4.753333333333333 6.233333333333333 0.9
  endloop
endfacet
facet normal 0 1 0
  outer loop
    vertex 4.753333333333333 6.233333333333333 0.25
    vertex 5 6.233333333333333 0.5750000000000001
    vertex 5.246666666666667 6.233333333333333 0.25
  endloop
endfacet
facet normal 0 1 0
  outer loop
    vertex 5.246666666666667 6.233333333333333 0.9
    vertex 5 6.233333333333333 0.5750000000000001
    vertex 4.753333333333333 6.233333333333333 0.9
  endloop
endfacet
facet normal 0 1 -0
  outer loop
    vertex 4.753333333333333 6.233333333333333 0.25
    vertex 4.506666666666667 6.233333333333333 0.575
    vertex 5 6.233333333333333 0.5750000000000001
  endloop
endfacet
facet normal 0 1 0
  outer loop
    vertex 5.246666666666667 6.233333333333333 0.9
    vertex 5.493333333333333 6.233333333333333 0.5750000000000002
    vertex 5 6.233333333333333 0.5750000000000001
  endloop
endfacet
facet normal 0 1 0
  outer loop
    vertex 4.26 6.233333333333333 0.25
    vertex 4.506666666666667 6.233333333333333 0.575
    vertex 4.753333333333333 6.233333333333333 0.25
  endloop
endfacet
facet normal -0 1 0
  outer loop
    vertex 5 6.233333333333333 0.5750000000000001
    vertex 5.493333333333333 6.233333333333333 0.5750000000000002
    vertex 5.246666666666667 6.233333333333333 0.25
  endloop
endfacet
facet normal 0 1 0
  outer loop
    vertex 5.74 6.233333333333333 0.9
    vertex 5.493333333333333 6.233333333333333 0.5750000000000002
    vertex 5.246666666666667 6.233333333333333 0.9
  endloop
endfacet
facet normal 0 1 0
  outer loop
    vertex 4.506666666666667 6.233333333333333 0.575
    vertex 4.096354629045956 6.233333333333333 0.575
    vertex 4.26 6.233333333333333 0.9
  endloop
endfacet
facet normal 0 1 0
  outer loop
    vertex 5.493333333333333 6.233333333333333 0.5750000000000002
    vertex 5.903645370954045 6.233333333333333 0.575
    vertex 5.74 6.233333333333333 0.25
  endloop
endfacet
facet normal 0 1 0
  outer loop
    vertex 5.74 6.233333333333333 0.9
    vertex 5.903645370954045 6.233333333333333 0.575
    vertex 5.493333333333333 6.233333333333333 0.5750000000000002
  endloop
endfacet
facet normal 0 1 -0
  outer loop
    vertex 4.26 6.233333333333333 0.25
    vertex 4.096354629045956 6.233333333333333 0.575
    vertex 4.506666666666667 6.233333333333333 0.575
  endloop
endfacet
facet normal 0 0 -1
  outer loop
    vertex 4.184407542227543 4.508757102178565 0.25
    vertex 4.579234250438445 4.744551957941585 0.25
    vertex 4.546476903479236 4.230647565338327 0.25
  endloop
endfacet
facet normal 0 0 -1
  outer loop
    vertex 4.573832168606874 5.254332885411772 0.25
    vertex 4.185068693123849 5.492172761717218 0.25
    vertex 4.541530819393953 5.783821822515564 0.25
  endloop
endfacet
facet normal 0 0 -1
  outer loop
    vertex 5.760716719626629 4.551263297779978 0.25
    vertex 5.272492637503886 4.557069621338925 0.25
    vertex 5.427239199200323 4.92488432521198 0.25
  endloop
endfacet
facet normal -0 0 -1
  outer loop
    vertex 5.760716719626629 4.551263297779978 0.25
    vertex 5.478064175307381 4.166191272860771 0.25
    vertex 5.272492637503886 4.557069621338925 0.25
  endloop
endfacet
facet normal 0 0 -1
  outer loop
    vertex 4.546476903479236 4.230647565338327 0.25
    vertex 4.579234250438445 4.744551957941585 0.25
    vertex 4.8967039664007 4.531949446937022 0.25
  endloop
endfacet
facet normal 0 0 -1
  outer loop
    vertex 4.573832168606874 5.254332885411772 0.25
    vertex 4.541530819393953 5.783821822515564 0.25
    vertex 4.8967039664007 5.468050553062978 0.25
  endloop
endfacet
facet normal 0 0 -1
  outer loop
    vertex 5.507287302482847 5.761559630922538 0.25
    vertex 5.867617778652326 5.493140490306802 0.25
    vertex 5.560530539240522 5.269438794063742 0.25
  endloop
endfacet
facet normal 0 0 -1
  outer loop
    vertex 5.24549103647134 5.405048488663688 0.25
    vertex 5.507287302482847 5.761559630922538 0.25
    vertex 5.560530539240522 5.269438794063742 0.25
  endloop
endfacet
facet normal 0 0 -1
  outer loop
    vertex 5.84340066713068 5.029258694855337 0.25
    vertex 5.760716719626629 4.551263297779978 0.25
    vertex 5.427239199200323 4.92488432521198 0.25
  endloop
endfacet
facet normal -0 0 -1
  outer loop
    vertex 4.573832168606874 5.254332885411772 0.25
    vertex 4.19390586586699 5 0.25
    vertex 4.185068693123849 5.492172761717218 0.25
  endloop
endfacet
facet normal 0 -0 -1
  outer loop
    vertex 6.233333333333333 4.753333333333333 0.25
    vertex 6.233333333333333 4.26 0.25
    vertex 5.760716719626629 4.551263297779978 0.25
  endloop
endfacet
facet normal 0 0 -1
  outer loop
    vertex 4.184407542227543 4.508757102178565 0.25
    vertex 4.19390586586699 5 0.25
    vertex 4.579234250438445 4.744551957941585 0.25
  endloop
endfacet
facet normal 0 0 -1
  outer loop
    vertex 3.766666666666667 4.26 0.25
    vertex 3.766666666666667 4.753333333333333 0.25
    vertex 4.184407542227543 4.508757102178565 0.25
  endloop
endfacet
facet normal 0 0 -1
  outer loop
    vertex 3.766666666666667 4.753333333333333 0.25
    vertex 3.766666666666667 5.246666666666667 0.25
    vertex 4.19390586586699 5 0.25
  endloop
endfacet
facet normal 0 0 -1
  outer loop
    vertex 3.766666666666667 5.246666666666667 0.25
    vertex 3.766666666666667 5.74 0.25
    vertex 4.185068693123849 5.492172761717218 0.25
  endloop
endfacet
facet normal 0 0 -1
  outer loop
    vertex 5.246666666666667 3.766666666666667 0.25
    vertex 4.753333333333333 3.766666666666667 0.25
    vertex 5.02384750022065 4.168129385243805 0.25
  endloop
endfacet
facet normal 0 -0 -1
  outer loop
    vertex 6.233333333333333 5.246666666666667 0.25
    vertex 6.233333333333333 4.753333333333333 0.25
    vertex 5.84340066713068 5.029258694855337 0.25
  endloop
endfacet
facet normal 0 -0 -1
  outer loop
    vertex 6.233333333333333 5.74 0.25
    vertex 6.233333333333333 5.246666666666667 0.25
    vertex 5.867617778652326 5.493140490306802 0.25
  endloop
endfacet
facet normal 0 0 -1
  outer loop
    vertex 4.753333333333333 6.233333333333333 0.25
    vertex 5.246666666666667 6.233333333333333 0.25
    vertex 5.02384750022065 5.831870614756195 0.25
  endloop
endfacet
facet normal 0 0 -1
  outer loop
    vertex 3.766666666666667 4.753333333333333 0.25
    vertex 4.19390586586699 5 0.25
    vertex 4.184407542227543 4.508757102178565 0.25
  endloop
endfacet
facet normal 0 0 -1
  outer loop
    vertex 4.19390586586699 5 0.25
    vertex 3.766666666666667 5.246666666666667 0.25
    vertex 4.185068693123849 5.492172761717218 0.25
  endloop
endfacet
facet normal -0 0 -1
  outer loop
    vertex 6.233333333333333 5.246666666666667 0.25
    vertex 5.84340066713068 5.029258694855337 0.25
    vertex 5.867617778652326 5.493140490306802 0.25
  endloop
endfacet
facet normal 0 0 -1
  outer loop
    vertex 4.579234250438445 4.744551957941585 0.25
    vertex 4.19390586586699 5 0.25
    vertex 4.573832168606874 5.254332885411772 0.25
  endloop
endfacet
facet normal 0 0 -1
  outer loop
    vertex 4.579234250438445 4.744551957941585 0.25
    vertex 4.573832168606874 5.254332885411772 0.25
    vertex 5.048384264267636 5 0.25
  endloop
endfacet
facet normal 0 -0 -1
  outer loop
    vertex 5.84340066713068 5.029258694855337 0.25
    vertex 6.233333333333333 4.753333333333333 0.25
    vertex 5.760716719626629 4.551263297779978 0.25
  endloop
endfacet
facet normal 0 0 -1
  outer loop
    vertex 4.753333333333333 3.766666666666667 0.25
    vertex 4.26 3.766666666666667 0.25
    vertex 4.546476903479236 4.230647565338327 0.25
  endloop
endfacet
facet normal 0 0 -1
  outer loop
    vertex 5.246666666666667 6.233333333333333 0.25
    vertex 5.74 6.233333333333333 0.25
    vertex 5.507287302482847 5.761559630922538 0.25
  endloop
endfacet
facet normal 0 0 -1
  outer loop
    vertex 4.26 6.233333333333333 0.25
    vertex 4.753333333333333 6.233333333333333 0.25
    vertex 4.541530819393953 5.783821822515564 0.25
  endloop
endfacet
facet normal 0 0 -1
  outer loop
    vertex 5.74 3.766666666666667 0.25
    vertex 5.246666666666667 3.766666666666667 0.25
    vertex 5.478064175307381 4.166191272860771 0.25
  endloop
endfacet
facet normal 0 0 -1
  outer loop
    vertex 5.246666666666667 3.766666666666667 0.25
    vertex 5.02384750022065 4.168129385243805 0.25
    vertex 5.478064175307381 4.166191272860771 0.25
  endloop
endfacet
facet normal -0 0 -1
  outer loop
    vertex 5.02384750022065 4.168129385243805 0.25
    vertex 4.753333333333333 3.766666666666667 0.25
    vertex 4.546476903479236 4.230647565338327 0.25
  endloop
endfacet
facet normal 0 -0 -1
  outer loop
    vertex 4.753333333333333 6.233333333333333 0.25
    vertex 5.02384750022065 5.831870614756195 0.25
    vertex 4.541530819393953 5.783821822515564 0.25
  endloop
endfacet
facet normal 0 0 -1
  outer loop
    vertex 5.02384750022065 5.831870614756195 0.25
    vertex 5.246666666666667 6.233333333333333 0.25
    vertex 5.507287302482847 5.761559630922538 0.25
  endloop
endfacet
facet normal 0 0 -1
  outer loop
    vertex 3.766666666666667 6.233333333333333 0.25
    vertex 4.26 6.233333333333333 0.25
    vertex 4.12781173173398 5.87218826826602 0.25
  endloop
endfacet
facet normal 0 0 -1
  outer loop
    vertex 3.766666666666667 3.766666666666667 0.25
    vertex 3.766666666666667 4.26 0.25
    vertex 4.12781173173398 4.12781173173398 0.25
  endloop
endfacet
facet normal 0 0 -1
  outer loop
    vertex 4.26 3.766666666666667 0.25
    vertex 3.766666666666667 3.766666666666667 0.25
    vertex 4.12781173173398 4.12781173173398 0.25
  endloop
endfacet
facet normal 0 0 -1
  outer loop
    vertex 6.233333333333333 3.766666666666667 0.25
    vertex 5.74 3.766666666666667 0.25
    vertex 5.87218826826602 4.12781173173398 0.25
  endloop
endfacet
facet normal 0 -0 -1
  outer loop
    vertex 6.233333333333333 4.26 0.25
    vertex 6.233333333333333 3.766666666666667 0.25
    vertex 5.87218826826602 4.12781173173398 0.25
  endloop
endfacet
facet normal 0 -0 -1
  outer loop
    vertex 6.233333333333333 6.233333333333333 0.25
    vertex 6.233333333333333 5.74 0.25
    vertex 5.87218826826602 5.87218826826602 0.25
  endloop
endfacet
facet normal 0 0 -1
  outer loop
    vertex 5.74 6.233333333333333 0.25
    vertex 6.233333333333333 6.233333333333333 0.25
    vertex 5.87218826826602 5.87218826826602 0.25
  endloop
endfacet
facet normal 0 0 -1
  outer loop
    vertex 3.766666666666667 5.74 0.25
    vertex 3.766666666666667 6.233333333333333 0.25
    vertex 4.12781173173398 5.87218826826602 0.25
  endloop
endfacet
facet normal 0 0 -1
  outer loop
    vertex 5.048384264267636 5 0.25
    vertex 5.24549103647134 5.405048488663688 0.25
    vertex 5.427239199200323 4.92488432521198 0.25
  endloop
endfacet
facet normal 0 0 -1
  outer loop
    vertex 5.478064175307381 4.166191272860771 0.25
    vertex 5.02384750022065 4.168129385243805 0.25
    vertex 5.272492637503886 4.557069621338925 0.25
  endloop
endfacet
facet normal 0 0 -1
  outer loop
    vertex 5.02384750022065 5.831870614756195 0.25
    vertex 5.507287302482847 5.761559630922538 0.25
    vertex 5.24549103647134 5.405048488663688 0.25
  endloop
endfacet
facet normal 0 0 -1
  outer loop
    vertex 4.579234250438445 4.744551957941585 0.25
    vertex 5.048384264267636 5 0.25
    vertex 4.8967039664007 4.531949446937022 0.25
  endloop
endfacet
facet normal 0 0 -1
  outer loop
    vertex 5.048384264267636 5 0.25
    vertex 4.573832168606874 5.254332885411772 0.25
    vertex 4.8967039664007 5.468050553062978 0.25
  endloop
endfacet
facet normal 0 0 -1
  outer loop
    vertex 5.427239199200323 4.92488432521198 0.25
    vertex 5.24549103647134 5.405048488663688 0.25
    vertex 5.560530539240522 5.269438794063742 0.25
  endloop
endfacet
facet normal 0 0 -1
  outer loop
    vertex 4.541530819393953 5.783821822515564 0.25
    vertex 5.02384750022065 5.831870614756195 0.25
    vertex 4.8967039664007 5.468050553062978 0.25
  endloop
endfacet
facet normal 0 0 -1
  outer loop
    vertex 5.02384750022065 4.168129385243805 0.25
    vertex 4.546476903479236 4.230647565338327 0.25
    vertex 4.8967039664007 4.531949446937022 0.25
  endloop
endfacet
facet normal -0 0 -1
  outer loop
    vertex 5.24549103647134 5.405048488663688 0.25
    vertex 5.048384264267636 5 0.25
    vertex 4.8967039664007 5.468050553062978 0.25
  endloop
endfacet
facet normal 0 -0 -1
  outer loop
    vertex 5.048384264267636 5 0.25
    vertex 5.272492637503886 4.557069621338925 0.25
    vertex 4.8967039664007 4.531949446937022 0.25
  endloop
endfacet
facet normal 0 -0 -1
  outer loop
    vertex 4.26 6.233333333333333 0.25
    vertex 4.541530819393953 5.783821822515564 0.25
    vertex 4.12781173173398 5.87218826826602 0.25
  endloop
endfacet
facet normal 0 0 -1
  outer loop
    vertex 4.546476903479236 4.230647565338327 0.25
    vertex 4.26 3.766666666666667 0.25
    vertex 4.12781173173398 4.12781173173398 0.25
  endloop
endfacet
facet normal 0 0 -1
  outer loop
    vertex 5.507287302482847 5.761559630922538 0.25
    vertex 5.74 6.233333333333333 0.25
    vertex 5.87218826826602 5.87218826826602 0.25
  endloop
endfacet
facet normal 0 0 -1
  outer loop
    vertex 5.74 3.766666666666667 0.25
    vertex 5.478064175307381 4.166191272860771 0.25
    vertex 5.87218826826602 4.12781173173398 0.25
  endloop
endfacet
facet normal 0 0 -1
  outer loop
    vertex 4.185068693123849 5.492172761717218 0.25
    vertex 3.766666666666667 5.74 0.25
    vertex 4.12781173173398 5.87218826826602 0.25
  endloop
endfacet
facet normal 0 0 -1
  outer loop
    vertex 3.766666666666667 4.26 0.25
    vertex 4.184407542227543 4.508757102178565 0.25
    vertex 4.12781173173398 4.12781173173398 0.25
  endloop
endfacet
facet normal -0 0 -1
  outer loop
    vertex 6.233333333333333 5.74 0.25
    vertex 5.867617778652326 5.493140490306802 0.25
    vertex 5.87218826826602 5.87218826826602 0.25
  endloop
endfacet
facet normal 0 0 -1
  outer loop
    vertex 5.760716719626629 4.551263297779978 0.25
    vertex 6.233333333333333 4.26 0.25
    vertex 5.87218826826602 4.12781173173398 0.25
  endloop
endfacet
facet normal 0 0 -1
  outer loop
    vertex 5.867617778652326 5.493140490306802 0.25
    vertex 5.84340066713068 5.029258694855337 0.25
    vertex 5.560530539240522 5.269438794063742 0.25
  endloop
endfacet
facet normal 0 -0 -1
  outer loop
    vertex 4.184407542227543 4.508757102178565 0.25
    vertex 4.546476903479236 4.230647565338327 0.25
    vertex 4.12781173173398 4.12781173173398 0.25
  endloop
endfacet
facet normal 0 0 -1
  outer loop
    vertex 5.867617778652326 5.493140490306802 0.25
    vertex 5.507287302482847 5.761559630922538 0.25
    vertex 5.87218826826602 5.87218826826602 0.25
  endloop
endfacet
facet normal 0 0 -1
  outer loop
    vertex 5.478064175307381 4.166191272860771 0.25
    vertex 5.760716719626629 4.551263297779978 0.25
    vertex 5.87218826826602 4.12781173173398 0.25
  endloop
endfacet
facet normal -0 0 -1
  outer loop
    vertex 4.541530819393953 5.783821822515564 0.25
    vertex 4.185068693123849 5.492172761717218 0.25
    vertex 4.12781173173398 5.87218826826602 0.25
  endloop
endfacet
facet normal 0 0 -1
  outer loop
    vertex 5.272492637503886 4.557069621338925 0.25
    vertex 5.048384264267636 5 0.25
    vertex 5.427239199200323 4.92488432521198 0.25
  endloop
endfacet
facet normal 0 -0 -1
  outer loop
    vertex 5.02384750022065 5.831870614756195 0.25
    vertex 5.24549103647134 5.405048488663688 0.25
    vertex 4.8967039664007 5.468050553062978 0.25
  endloop
endfacet
facet normal 0 0 -1
  outer loop
    vertex 5.272492637503886 4.557069621338925 0.25
    vertex 5.02384750022065 4.168129385243805 0.25
    vertex 4.8967039664007 4.531949446937022 0.25
  endloop
endfacet
facet normal -0 0 -1
  outer loop
    vertex 5.84340066713068 5.029258694855337 0.25
    vertex 5.427239199200323 4.92488432521198 0.25
    vertex 5.560530539240522 5.269438794063742 0.25
  endloop
endfacet
facet normal -0 0 1
  outer loop
    vertex 4.184407542227543 4.508757102178565 0.9
    vertex 4.546476903479236 4.230647565338327 0.9
    vertex 4.579234250438445 4.744551957941585 0.9
  endloop
endfacet
facet normal 0 0 1
  outer loop
    vertex 4.573832168606874 5.254332885411772 0.9
    vertex 4.541530819393953 5.783821822515564 0.9
    vertex 4.185068693123849 5.492172761717218 0.9
  endloop
endfacet
facet normal 0 0 1
  outer loop
    vertex 5.760716719626629 4.551263297779978 0.9
    vertex 5.427239199200323 4.92488432521198 0.9
    vertex 5.272492637503886 4.557069621338925 0.9
  endloop
endfacet
facet normal 0 0 1
  outer loop
    vertex 5.760716719626629 4.551263297779978 0.9
    vertex 5.272492637503886 4.557069621338925 0.9
    vertex 5.478064175307381 4.166191272860771 0.9
  endloop
endfacet
facet normal 0 0 1
  outer loop
    vertex 4.546476903479236 4.230647565338327 0.9
    vertex 4.8967039664007 4.531949446937022 0.9
    vertex 4.579234250438445 4.744551957941585 0.9
  endloop
endfacet
facet normal 0 -0 1
  outer loop
    vertex 4.573832168606874 5.254332885411772 0.9
    vertex 4.8967039664007 5.468050553062978 0.9
    vertex 4.541530819393953 5.783821822515564 0.9
  endloop
endfacet
facet normal 0 0 1
  outer loop
    vertex 5.507287302482847 5.761559630922538 0.9
    vertex 5.560530539240522 5.269438794063742 0.9
    vertex 5.867617778652326 5.493140490306802 0.9
  endloop
endfacet
facet normal -0 0 1
  outer loop
    vertex 5.24549103647134 5.405048488663688 0.9
    vertex 5.560530539240522 5.269438794063742 0.9
    vertex 5.507287302482847 5.761559630922538 0.9
  endloop
endfacet
facet normal 0 0 1
  outer loop
    vertex 5.84340066713068 5.029258694855337 0.9
    vertex 5.427239199200323 4.92488432521198 0.9
    vertex 5.760716719626629 4.551263297779978 0.9
  endloop
endfacet
facet normal 0 0 1
  outer loop
    vertex 4.573832168606874 5.254332885411772 0.9
    vertex 4.185068693123849 5.492172761717218 0.9
    vertex 4.19390586586699 5 0.9
  endloop
endfacet
facet normal 0 0 1
  outer loop
    vertex 6.233333333333333 4.753333333333333 0.9
    vertex 5.760716719626629 4.551263297779978 0.9
    vertex 6.233333333333333 4.26 0.9
  endloop
endfacet
facet normal 0 0 1
  outer loop
    vertex 4.184407542227543 4.508757102178565 0.9
    vertex 4.579234250438445 4.744551957941585 0.9
    vertex 4.19390586586699 5 0.9
  endloop
endfacet
facet normal 0 0 1
  outer loop
    vertex 3.766666666666667 4.26 0.9
    vertex 4.184407542227543 4.508757102178565 0.9
    vertex 3.766666666666667 4.753333333333333 0.9
  endloop
endfacet
facet normal 0 0 1
  outer loop
    vertex 3.766666666666667 4.753333333333333 0.9
    vertex 4.19390586586699 5 0.9
    vertex 3.766666666666667 5.246666666666667 0.9
  endloop
endfacet
facet normal 0 0 1
  outer loop
    vertex 3.766666666666667 5.246666666666667 0.9
    vertex 4.185068693123849 5.492172761717218 0.9
    vertex 3.766666666666667 5.74 0.9
  endloop
endfacet
facet normal 0 0 1
  outer loop
    vertex 5.246666666666667 3.766666666666667 0.9
    vertex 5.02384750022065 4.168129385243805 0.9
    vertex 4.753333333333333 3.766666666666667 0.9
  endloop
endfacet
facet normal 0 0 1
  outer loop
    vertex 6.233333333333333 5.246666666666667 0.9
    vertex 5.84340066713068 5.029258694855337 0.9
    vertex 6.233333333333333 4.753333333333333 0.9
  endloop
endfacet
facet normal 0 0 1
  outer loop
    vertex 6.233333333333333 5.74 0.9
    vertex 5.867617778652326 5.493140490306802 0.9
    vertex 6.233333333333333 5.246666666666667 0.9
  endloop
endfacet
facet normal -0 0 1
  outer loop
    vertex 4.753333333333333 6.233333333333333 0.9
    vertex 5.02384750022065 5.831870614756195 0.9
    vertex 5.246666666666667 6.233333333333333 0.9
  endloop
endfacet
facet normal -0 0 1
  outer loop
    vertex 3.766666666666667 4.753333333333333 0.9
    vertex 4.184407542227543 4.508757102178565 0.9
    vertex 4.19390586586699 5 0.9
  endloop
endfacet
facet normal 0 0 1
  outer loop
    vertex 4.19390586586699 5 0.9
    vertex 4.185068693123849 5.492172761717218 0.9
    vertex 3.766666666666667 5.246666666666667 0.9
  endloop
endfacet
facet normal 0 0 1
  outer loop
    vertex 6.233333333333333 5.246666666666667 0.9
    vertex 5.867617778652326 5.493140490306802 0.9
    vertex 5.84340066713068 5.029258694855337 0.9
  endloop
endfacet
facet normal 0 0 1
  outer loop
    vertex 4.579234250438445 4.744551957941585 0.9
    vertex 4.573832168606874 5.254332885411772 0.9
    vertex 4.19390586586699 5 0.9
  endloop
endfacet
facet normal 0 -0 1
  outer loop
    vertex 4.579234250438445 4.744551957941585 0.9
    vertex 5.048384264267636 5 0.9
    vertex 4.573832168606874 5.254332885411772 0.9
  endloop
endfacet
facet normal 0 0 1
  outer loop
    vertex 5.84340066713068 5.029258694855337 0.9
    vertex 5.760716719626629 4.551263297779978 0.9
    vertex 6.233333333333333 4.753333333333333 0.9
  endloop
endfacet
facet normal 0 0 1
  outer loop
    vertex 4.753333333333333 3.766666666666667 0.9
    vertex 4.546476903479236 4.230647565338327 0.9
    vertex 4.26 3.766666666666667 0.9
  endloop
endfacet
facet normal -0 0 1
  outer loop
    vertex 5.246666666666667 6.233333333333333 0.9
    vertex 5.507287302482847 5.761559630922538 0.9
    vertex 5.74 6.233333333333333 0.9
  endloop
endfacet
facet normal -0 0 1
  outer loop
    vertex 4.26 6.233333333333333 0.9
    vertex 4.541530819393953 5.783821822515564 0.9
    vertex 4.753333333333333 6.233333333333333 0.9
  endloop
endfacet
facet normal 0 0 1
  outer loop
    vertex 5.74 3.766666666666667 0.9
    vertex 5.478064175307381 4.166191272860771 0.9
    vertex 5.246666666666667 3.766666666666667 0.9
  endloop
endfacet
facet normal 0 -0 1
  outer loop
    vertex 5.246666666666667 3.766666666666667 0.9
    vertex 5.478064175307381 4.166191272860771 0.9
    vertex 5.02384750022065 4.168129385243805 0.9
  endloop
endfacet
facet normal 0 0 1
  outer loop
    vertex 5.02384750022065 4.168129385243805 0.9
    vertex 4.546476903479236 4.230647565338327 0.9
    vertex 4.753333333333333 3.766666666666667 0.9
  endloop
endfacet
facet normal 0 0 1
  outer loop
    vertex 4.753333333333333 6.233333333333333 0.9
    vertex 4.541530819393953 5.783821822515564 0.9
    vertex 5.02384750022065 5.831870614756195 0.9
  endloop
endfacet
facet normal -0 0 1
  outer loop
    vertex 5.02384750022065 5.831870614756195 0.9
    vertex 5.507287302482847 5.761559630922538 0.9
    vertex 5.246666666666667 6.233333333333333 0.9
  endloop
endfacet
facet normal -0 0 1
  outer loop
    vertex 3.766666666666667 6.233333333333333 0.9
    vertex 4.12781173173398 5.87218826826602 0.9
    vertex 4.26 6.233333333333333 0.9
  endloop
endfacet
facet normal 0 0 1
  outer loop
    vertex 3.766666666666667 3.766666666666667 0.9
    vertex 4.12781173173398 4.12781173173398 0.9
    vertex 3.766666666666667 4.26 0.9
  endloop
endfacet
facet normal 0 0 1
  outer loop
    vertex 4.26 3.766666666666667 0.9
    vertex 4.12781173173398 4.12781173173398 0.9
    vertex 3.766666666666667 3.766666666666667 0.9
  endloop
endfacet
facet normal 0 0 1
  outer loop
    vertex 6.233333333333333 3.766666666666667 0.9
    vertex 5.87218826826602 4.12781173173398 0.9
    vertex 5.74 3.766666666666667 0.9
  endloop
endfacet
facet normal 0 0 1
  outer loop
    vertex 6.233333333333333 4.26 0.9
    vertex 5.87218826826602 4.12781173173398 0.9
    vertex 6.233333333333333 3.766666666666667 0.9
  endloop
endfacet
facet normal 0 0 1
  outer loop
    vertex 6.233333333333333 6.233333333333333 0.9
    vertex 5.87218826826602 5.87218826826602 0.9
    vertex 6.233333333333333 5.74 0.9
  endloop
endfacet
facet normal -0 0 1
  outer loop
    vertex 5.74 6.233333333333333 0.9
    vertex 5.87218826826602 5.87218826826602 0.9
    vertex 6.233333333333333 6.233333333333333 0.9
  endloop
endfacet
facet normal 0 0 1
  outer loop
    vertex 3.766666666666667 5.74 0.9
    vertex 4.12781173173398 5.87218826826602 0.9
    vertex 3.766666666666667 6.233333333333333 0.9
  endloop
endfacet
facet normal -0 0 1
  outer loop
    vertex 5.048384264267636 5 0.9
    vertex 5.427239199200323 4.92488432521198 0.9
    vertex 5.24549103647134 5.405048488663688 0.9
  endloop
endfacet
facet normal 0 0 1
  outer loop
    vertex 5.478064175307381 4.166191272860771 0.9
    vertex 5.272492637503886 4.557069621338925 0.9
    vertex 5.02384750022065 4.168129385243805 0.9
  endloop
endfacet
facet normal 0 0 1
  outer loop
    vertex 5.02384750022065 5.831870614756195 0.9
    vertex 5.24549103647134 5.405048488663688 0.9
    vertex 5.507287302482847 5.761559630922538 0.9
  endloop
endfacet
facet normal -0 0 1
  outer loop
    vertex 4.579234250438445 4.744551957941585 0.9
    vertex 4.8967039664007 4.531949446937022 0.9
    vertex 5.048384264267636 5 0.9
  endloop
endfacet
facet normal 0 0 1
  outer loop
    vertex 5.048384264267636 5 0.9
    vertex 4.8967039664007 5.468050553062978 0.9
    vertex 4.573832168606874 5.254332885411772 0.9
  endloop
endfacet
facet normal 0 -0 1
  outer loop
    vertex 5.427239199200323 4.92488432521198 0.9
    vertex 5.560530539240522 5.269438794063742 0.9
    vertex 5.24549103647134 5.405048488663688 0.9
  endloop
endfacet
facet normal -0 0 1
  outer loop
    vertex 4.541530819393953 5.783821822515564 0.9
    vertex 4.8967039664007 5.468050553062978 0.9
    vertex 5.02384750022065 5.831870614756195 0.9
  endloop
endfacet
facet normal 0 0 1
  outer loop
    vertex 5.02384750022065 4.168129385243805 0.9
    vertex 4.8967039664007 4.531949446937022 0.9
    vertex 4.546476903479236 4.230647565338327 0.9
  endloop
endfacet
facet normal 0 0 1
  outer loop
    vertex 5.24549103647134 5.405048488663688 0.9
    vertex 4.8967039664007 5.468050553062978 0.9
    vertex 5.048384264267636 5 0.9
  endloop
endfacet
facet normal 0 0 1
  outer loop
    vertex 5.048384264267636 5 0.9
    vertex 4.8967039664007 4.531949446937022 0.9
    vertex 5.272492637503886 4.557069621338925 0.9
  endloop
endfacet
facet normal 0 0 1
  outer loop
    vertex 4.26 6.233333333333333 0.9
    vertex 4.12781173173398 5.87218826826602 0.9
    vertex 4.541530819393953 5.783821822515564 0.9
  endloop
endfacet
facet normal 0 0 1
  outer loop
    vertex 4.546476903479236 4.230647565338327 0.9
    vertex 4.12781173173398 4.12781173173398 0.9
    vertex 4.26 3.766666666666667 0.9
  endloop
endfacet
facet normal 0 0 1
  outer loop
    vertex 5.507287302482847 5.761559630922538 0.9
    vertex 5.87218826826602 5.87218826826602 0.9
    vertex 5.74 6.233333333333333 0.9
  endloop
endfacet
facet normal 0 -0 1
  outer loop
    vertex 5.74 3.766666666666667 0.9
    vertex 5.87218826826602 4.12781173173398 0.9
    vertex 5.478064175307381 4.166191272860771 0.9
  endloop
endfacet
facet normal 0 0 1
  outer loop
    vertex 4.185068693123849 5.492172761717218 0.9
    vertex 4.12781173173398 5.87218826826602 0.9
    vertex 3.766666666666667 5.74 0.9
  endloop
endfacet
facet normal -0 0 1
  outer loop
    vertex 3.766666666666667 4.26 0.9
    vertex 4.12781173173398 4.12781173173398 0.9
    vertex 4.184407542227543 4.508757102178565 0.9
  endloop
endfacet
facet normal 0 0 1
  outer loop
    vertex 6.233333333333333 5.74 0.9
    vertex 5.87218826826602 5.87218826826602 0.9
    vertex 5.867617778652326 5.493140490306802 0.9
  endloop
endfacet
facet normal 0 0 1
  outer loop
    vertex 5.760716719626629 4.551263297779978 0.9
    vertex 5.87218826826602 4.12781173173398 0.9
    vertex 6.233333333333333 4.26 0.9
  endloop
endfacet
facet normal 0 0 1
  outer loop
    vertex 5.867617778652326 5.493140490306802 0.9
    vertex 5.560530539240522 5.269438794063742 0.9
    vertex 5.84340066713068 5.029258694855337 0.9
  endloop
endfacet
facet normal 0 0 1
  outer loop
    vertex 4.184407542227543 4.508757102178565 0.9
    vertex 4.12781173173398 4.12781173173398 0.9
    vertex 4.546476903479236 4.230647565338327 0.9
  endloop
endfacet
facet normal 0 -0 1
  outer loop
    vertex 5.867617778652326 5.493140490306802 0.9
    vertex 5.87218826826602 5.87218826826602 0.9
    vertex 5.507287302482847 5.761559630922538 0.9
  endloop
endfacet
facet normal -0 0 1
  outer loop
    vertex 5.478064175307381 4.166191272860771 0.9
    vertex 5.87218826826602 4.12781173173398 0.9
    vertex 5.760716719626629 4.551263297779978 0.9
  endloop
endfacet
facet normal 0 0 1
  outer loop
    vertex 4.541530819393953 5.783821822515564 0.9
    vertex 4.12781173173398 5.87218826826602 0.9
    vertex 4.185068693123849 5.492172761717218 0.9
  endloop
endfacet
facet normal 0 -0 1
  outer loop
    vertex 5.272492637503886 4.557069621338925 0.9
    vertex 5.427239199200323 4.92488432521198 0.9
    vertex 5.048384264267636 5 0.9
  endloop
endfacet
facet normal 0 0 1
  outer loop
    vertex 5.02384750022065 5.831870614756195 0.9
    vertex 4.8967039664007 5.468050553062978 0.9
    vertex 5.24549103647134 5.405048488663688 0.9
  endloop
endfacet
facet normal 0 0 1
  outer loop
    vertex 5.272492637503886 4.557069621338925 0.9
    vertex 4.8967039664007 4.531949446937022 0.9
    vertex 5.02384750022065 4.168129385243805 0.9
  endloop
endfacet
facet normal 0 0 1
  outer loop
    vertex 5.84340066713068 5.029258694855337 0.9
    vertex 5.560530539240522 5.269438794063742 0.9
    vertex 5.427239199200323 4.92488432521198 0.9
  endloop
endfacet
endsolid Created by Gmsh
