solid Created by Gmsh
facet normal -1 0 -0
  outer loop
    vertex 1.15 8.850000000000001 0.9
    vertex 1.15 8.850000000000001 0.5750000000000002
    vertex 1.15 8.520312037620712 0.575
  endloop
endfacet
facet normal -1 0 0
  outer loop
    vertex 1.15 6.383333333333334 0.5750000000000002
    vertex 1.15 6.383333333333334 0.9
    vertex 1.15 6.713021295712623 0.5750000000000001
  endloop
endfacet
facet normal -1 0 0
  outer loop
    vertex 1.15 6.383333333333334 0.25
    vertex 1.15 6.383333333333334 0.5750000000000002
    vertex 1.15 6.713021295712623 0.5750000000000001
  endloop
endfacet
facet normal -1 0 -0
  outer loop
    vertex 1.15 8.850000000000001 0.5750000000000002
    vertex 1.15 8.850000000000001 0.25
    vertex 1.15 8.520312037620712 0.575
  endloop
endfacet
facet normal -1 0 0
  outer loop
    vertex 1.15 8.356666666666667 0.9
    vertex 1.15 8.850000000000001 0.9
    vertex 1.15 8.520312037620712 0.575
  endloop
endfacet
facet normal -1 0 0
  outer loop
    vertex 1.15 6.383333333333334 0.9
    vertex 1.15 6.876666666666667 0.9
    vertex 1.15 6.713021295712623 0.5750000000000001
  endloop
endfacet
facet normal -1 0 0
  outer loop
    vertex 1.15 6.876666666666667 0.25
    vertex 1.15 6.383333333333334 0.25
    vertex 1.15 6.713021295712623 0.5750000000000001
  endloop
endfacet
facet normal -1 0 0
  outer loop
    vertex 1.15 8.850000000000001 0.25
    vertex 1.15 8.356666666666667 0.25
    vertex 1.15 8.520312037620712 0.575
  endloop
endfacet
facet normal -1 0 0
  outer loop
    vertex 1.15 7.863333333333334 0.9
    vertex 1.15 8.356666666666667 0.9
    vertex 1.15 8.110000000000001 0.575
  endloop
endfacet
facet normal -1 0 0
  outer loop
    vertex 1.15 7.863333333333334 0.25
    vertex 1.15 7.370000000000001 0.25
    vertex 1.15 7.616666666666667 0.575
  endloop
endfacet
facet normal -1 0 0
  outer loop
    vertex 1.15 7.123333333333334 0.575
    vertex 1.15 7.370000000000001 0.9
    vertex 1.15 7.616666666666667 0.575
  endloop
endfacet
facet normal -1 0 0
  outer loop
    vertex 1.15 7.370000000000001 0.25
    vertex 1.15 7.123333333333334 0.575
    vertex 1.15 7.616666666666667 0.575
  endloop
endfacet
facet normal -1 0 0
  outer loop
    vertex 1.15 6.876666666666667 0.9
    vertex 1.15 7.370000000000001 0.9
    vertex 1.15 7.123333333333334 0.575
  endloop
endfacet
facet normal -1 0 0
  outer loop
    vertex 1.15 7.370000000000001 0.25
    vertex 1.15 6.876666666666667 0.25
    vertex 1.15 7.123333333333334 0.575
  endloop
endfacet
facet normal -1 0 0
  outer loop
    vertex 1.15 7.863333333333334 0.25
    vertex 1.15 7.616666666666667 0.575
    vertex 1.15 8.110000000000001 0.575
  endloop
endfacet
facet normal -1 0 0
  outer loop
    vertex 1.15 7.370000000000001 0.9
    vertex 1.15 7.863333333333334 0.9
    vertex 1.15 7.616666666666667 0.575
  endloop
endfacet
facet normal -1 0 0
  outer loop
    vertex 1.15 7.616666666666667 0.575
    vertex 1.15 7.863333333333334 0.9
    vertex 1.15 8.110000000000001 0.575
  endloop
endfacet
facet normal -1 0 0
  outer loop
    vertex 1.15 8.356666666666667 0.25
    vertex 1.15 7.863333333333334 0.25
    vertex 1.15 8.110000000000001 0.575
  endloop
endfacet
facet normal -1 -0 0
  outer loop
    vertex 1.15 7.123333333333334 0.575
    vertex 1.15 6.876666666666667 0.25
    vertex 1.15 6.713021295712623 0.5750000000000001
  endloop
endfacet
facet normal -1 0 0
  outer loop
    vertex 1.15 8.356666666666667 0.25
    vertex 1.15 8.110000000000001 0.575
    vertex 1.15 8.520312037620712 0.575
  endloop
endfacet
facet normal -1 0 0
  outer loop
    vertex 1.15 8.110000000000001 0.575
    vertex 1.15 8.356666666666667 0.9
    vertex 1.15 8.520312037620712 0.575
  endloop
endfacet
facet normal -1 0 -0
  outer loop
    vertex 1.15 6.876666666666667 0.9
    vertex 1.15 7.123333333333334 0.575
    vertex 1.15 6.713021295712623 0.5750000000000001
  endloop
endfacet
facet normal 1 0 0
  outer loop
    vertex 3.616666666666667 8.850000000000001 0.9
    vertex 3.616666666666667 8.520312037620712 0.575
    vertex 3.616666666666667 8.850000000000001 0.5750000000000002
  endloop
endfacet
facet normal 1 -0 0
  outer loop
    vertex 3.616666666666667 6.383333333333334 0.5750000000000002
    vertex 3.616666666666667 6.713021295712623 0.5750000000000001
    vertex 3.616666666666667 6.383333333333334 0.9
  endloop
endfacet
facet normal 1 0 0
  outer loop
    vertex 3.616666666666667 6.383333333333334 0.25
    vertex 3.616666666666667 6.713021295712623 0.5750000000000001
    vertex 3.616666666666667 6.383333333333334 0.5750000000000002
  endloop
endfacet
facet normal 1 0 0
  outer loop
    vertex 3.616666666666667 8.850000000000001 0.5750000000000002
    vertex 3.616666666666667 8.520312037620712 0.575
    vertex 3.616666666666667 8.850000000000001 0.25
  endloop
endfacet
facet normal 1 -0 0
  outer loop
    vertex 3.616666666666667 8.356666666666667 0.9
    vertex 3.616666666666667 8.520312037620712 0.575
    vertex 3.616666666666667 8.850000000000001 0.9
  endloop
endfacet
facet normal 1 -0 0
  outer loop
    vertex 3.616666666666667 6.383333333333334 0.9
    vertex 3.616666666666667 6.713021295712623 0.5750000000000001
    vertex 3.616666666666667 6.876666666666667 0.9
  endloop
endfacet
facet normal 1 0 0
  outer loop
    vertex 3.616666666666667 6.876666666666667 0.25
    vertex 3.616666666666667 6.713021295712623 0.5750000000000001
    vertex 3.616666666666667 6.383333333333334 0.25
  endloop
endfacet
facet normal 1 0 0
  outer loop
    vertex 3.616666666666667 8.850000000000001 0.25
    vertex 3.616666666666667 8.520312037620712 0.575
    vertex 3.616666666666667 8.356666666666667 0.25
  endloop
endfacet
facet normal 1 -0 0
  outer loop
    vertex 3.616666666666667 7.863333333333334 0.9
    vertex 3.616666666666667 8.110000000000001 0.575
    vertex 3.616666666666667 8.356666666666667 0.9
  endloop
endfacet
facet normal 1 0 0
  outer loop
    vertex 3.616666666666667 7.863333333333334 0.25
    vertex 3.616666666666667 7.616666666666668 0.575
    vertex 3.616666666666667 7.370000000000001 0.25
  endloop
endfacet
facet normal 1 0 0
  outer loop
    vertex 3.616666666666667 8.110000000000001 0.575
    vertex 3.616666666666667 7.616666666666668 0.575
    vertex 3.616666666666667 7.863333333333334 0.25
  endloop
endfacet
facet normal 1 0 0
  outer loop
    vertex 3.616666666666667 7.123333333333334 0.575
    vertex 3.616666666666667 7.616666666666668 0.575
    vertex 3.616666666666667 7.370000000000001 0.9
  endloop
endfacet
facet normal 1 0 -0
  outer loop
    vertex 3.616666666666667 7.370000000000001 0.25
    vertex 3.616666666666667 7.616666666666668 0.575
    vertex 3.616666666666667 7.123333333333334 0.575
  endloop
endfacet
facet normal 1 -0 0
  outer loop
    vertex 3.616666666666667 6.876666666666667 0.9
    vertex 3.616666666666667 7.123333333333334 0.575
    vertex 3.616666666666667 7.370000000000001 0.9
  endloop
endfacet
facet normal 1 0 0
  outer loop
    vertex 3.616666666666667 7.370000000000001 0.25
    vertex 3.616666666666667 7.123333333333334 0.575
    vertex 3.616666666666667 6.876666666666667 0.25
  endloop
endfacet
facet normal 1 0 0
  outer loop
    vertex 3.616666666666667 7.863333333333334 0.9
    vertex 3.616666666666667 7.616666666666668 0.575
    vertex 3.616666666666667 8.110000000000001 0.575
  endloop
endfacet
facet normal 1 -0 0
  outer loop
    vertex 3.616666666666667 7.370000000000001 0.9
    vertex 3.616666666666667 7.616666666666668 0.575
    vertex 3.616666666666667 7.863333333333334 0.9
  endloop
endfacet
facet normal 1 0 0
  outer loop
    vertex 3.616666666666667 8.356666666666667 0.25
    vertex 3.616666666666667 8.110000000000001 0.575
    vertex 3.616666666666667 7.863333333333334 0.25
  endloop
endfacet
facet normal 1 0 0
  outer loop
    vertex 3.616666666666667 7.123333333333334 0.575
    vertex 3.616666666666667 6.713021295712623 0.5750000000000001
    vertex 3.616666666666667 6.876666666666667 0.25
  endloop
endfacet
facet normal 1 0 -0
  outer loop
    vertex 3.616666666666667 8.356666666666667 0.25
    vertex 3.616666666666667 8.520312037620712 0.575
    vertex 3.616666666666667 8.110000000000001 0.575
  endloop
endfacet
facet normal 1 0 0
  outer loop
    vertex 3.616666666666667 8.110000000000001 0.575
    vertex 3.616666666666667 8.520312037620712 0.575
    vertex 3.616666666666667 8.356666666666667 0.9
  endloop
endfacet
facet normal 1 0 0
  outer loop
    vertex 3.616666666666667 6.876666666666667 0.9
    vertex 3.616666666666667 6.713021295712623 0.5750000000000001
    vertex 3.616666666666667 7.123333333333334 0.575
  endloop
endfacet
facet normal 0 -1 0
  outer loop
    vertex 1.15 6.383333333333334 0.9
    vertex 1.15 6.383333333333334 0.5750000000000002
    vertex 1.479687962379289 6.383333333333334 0.575
  endloop
endfacet
facet normal 0 -1 0
  outer loop
    vertex 1.15 6.383333333333334 0.5750000000000002
    vertex 1.15 6.383333333333334 0.25
    vertex 1.479687962379289 6.383333333333334 0.575
  endloop
endfacet
facet normal 0 -1 0
  outer loop
    vertex 3.616666666666667 6.383333333333334 0.25
    vertex 3.616666666666667 6.383333333333334 0.5750000000000002
    vertex 3.286978704287378 6.383333333333334 0.575
  endloop
endfacet
facet normal -0 -1 0
  outer loop
    vertex 3.616666666666667 6.383333333333334 0.5750000000000002
    vertex 3.616666666666667 6.383333333333334 0.9
    vertex 3.286978704287378 6.383333333333334 0.575
  endloop
endfacet
facet normal -0 -1 0
  outer loop
    vertex 1.643333333333333 6.383333333333334 0.9
    vertex 1.15 6.383333333333334 0.9
    vertex 1.479687962379289 6.383333333333334 0.575
  endloop
endfacet
facet normal 0 -1 0
  outer loop
    vertex 1.15 6.383333333333334 0.25
    vertex 1.643333333333333 6.383333333333334 0.25
    vertex 1.479687962379289 6.383333333333334 0.575
  endloop
endfacet
facet normal -0 -1 0
  outer loop
    vertex 3.616666666666667 6.383333333333334 0.9
    vertex 3.123333333333334 6.383333333333334 0.9
    vertex 3.286978704287378 6.383333333333334 0.575
  endloop
endfacet
facet normal 0 -1 0
  outer loop
    vertex 3.123333333333334 6.383333333333334 0.25
    vertex 3.616666666666667 6.383333333333334 0.25
    vertex 3.286978704287378 6.383333333333334 0.575
  endloop
endfacet
facet normal 0 -1 0
  outer loop
    vertex 1.89 6.383333333333334 0.575
    vertex 2.136666666666667 6.383333333333334 0.25
    vertex 2.383333333333333 6.383333333333334 0.575
  endloop
endfacet
facet normal 0 -1 -0
  outer loop
    vertex 2.136666666666667 6.383333333333334 0.9
    vertex 1.89 6.383333333333334 0.575
    vertex 2.383333333333333 6.383333333333334 0.575
  endloop
endfacet
facet normal 0 -1 0
  outer loop
    vertex 1.643333333333333 6.383333333333334 0.25
    vertex 2.136666666666667 6.383333333333334 0.25
    vertex 1.89 6.383333333333334 0.575
  endloop
endfacet
facet normal -0 -1 0
  outer loop
    vertex 2.136666666666667 6.383333333333334 0.9
    vertex 1.643333333333333 6.383333333333334 0.9
    vertex 1.89 6.383333333333334 0.575
  endloop
endfacet
facet normal 0 -1 0
  outer loop
    vertex 2.876666666666666 6.383333333333334 0.575
    vertex 2.63 6.383333333333334 0.9
    vertex 2.383333333333333 6.383333333333334 0.575
  endloop
endfacet
facet normal 0 -1 0
  outer loop
    vertex 2.136666666666667 6.383333333333334 0.25
    vertex 2.63 6.383333333333334 0.25
    vertex 2.383333333333333 6.383333333333334 0.575
  endloop
endfacet
facet normal -0 -1 0
  outer loop
    vertex 2.63 6.383333333333334 0.9
    vertex 2.136666666666667 6.383333333333334 0.9
    vertex 2.383333333333333 6.383333333333334 0.575
  endloop
endfacet
facet normal 0 -1 0
  outer loop
    vertex 2.63 6.383333333333334 0.25
    vertex 3.123333333333334 6.383333333333334 0.25
    vertex 2.876666666666666 6.383333333333334 0.575
  endloop
endfacet
facet normal -0 -1 0
  outer loop
    vertex 3.123333333333334 6.383333333333334 0.9
    vertex 2.63 6.383333333333334 0.9
    vertex 2.876666666666666 6.383333333333334 0.575
  endloop
endfacet
facet normal 0 -1 0
  outer loop
    vertex 2.63 6.383333333333334 0.25
    vertex 2.876666666666666 6.383333333333334 0.575
    vertex 2.383333333333333 6.383333333333334 0.575
  endloop
endfacet
facet normal 0 -1 0
  outer loop
    vertex 2.876666666666666 6.383333333333334 0.575
    vertex 3.123333333333334 6.383333333333334 0.25
    vertex 3.286978704287378 6.383333333333334 0.575
  endloop
endfacet
facet normal 0 -1 -0
  outer loop
    vertex 3.123333333333334 6.383333333333334 0.9
    vertex 2.876666666666666 6.383333333333334 0.575
    vertex 3.286978704287378 6.383333333333334 0.575
  endloop
endfacet
facet normal 0 -1 0
  outer loop
    vertex 1.643333333333333 6.383333333333334 0.25
    vertex 1.89 6.383333333333334 0.575
    vertex 1.479687962379289 6.383333333333334 0.575
  endloop
endfacet
facet normal 0 -1 0
  outer loop
    vertex 1.89 6.383333333333334 0.575
    vertex 1.643333333333333 6.383333333333334 0.9
    vertex 1.479687962379289 6.383333333333334 0.575
  endloop
endfacet
facet normal 0 1 0
  outer loop
    vertex 1.15 8.850000000000001 0.9
    vertex 1.479687962379289 8.850000000000001 0.575
    vertex 1.15 8.850000000000001 0.5750000000000002
  endloop
endfacet
facet normal 0 1 0
  outer loop
    vertex 1.15 8.850000000000001 0.5750000000000002
    vertex 1.479687962379289 8.850000000000001 0.575
    vertex 1.15 8.850000000000001 0.25
  endloop
endfacet
facet normal 0 1 -0
  outer loop
    vertex 3.616666666666667 8.850000000000001 0.25
    vertex 3.286978704287378 8.850000000000001 0.575
    vertex 3.616666666666667 8.850000000000001 0.5750000000000002
  endloop
endfacet
facet normal 0 1 -0
  outer loop
    vertex 3.616666666666667 8.850000000000001 0.5750000000000002
    vertex 3.286978704287378 8.850000000000001 0.575
    vertex 3.616666666666667 8.850000000000001 0.9
  endloop
endfacet
facet normal 0 1 0
  outer loop
    vertex 1.643333333333333 8.850000000000001 0.9
    vertex 1.479687962379289 8.850000000000001 0.575
    vertex 1.15 8.850000000000001 0.9
  endloop
endfacet
facet normal 0 1 0
  outer loop
    vertex 1.15 8.850000000000001 0.25
    vertex 1.479687962379289 8.850000000000001 0.575
    vertex 1.643333333333333 8.850000000000001 0.25
  endloop
endfacet
facet normal 0 1 0
  outer loop
    vertex 3.616666666666667 8.850000000000001 0.9
    vertex 3.286978704287378 8.850000000000001 0.575
    vertex 3.123333333333334 8.850000000000001 0.9
  endloop
endfacet
facet normal 0 1 0
  outer loop
    vertex 3.123333333333334 8.850000000000001 0.25
    vertex 3.286978704287378 8.850000000000001 0.575
    vertex 3.616666666666667 8.850000000000001 0.25
  endloop
endfacet
facet normal -0 1 0
  outer loop
    vertex 1.89 8.850000000000001 0.575
    vertex 2.383333333333333 8.850000000000001 0.5750000000000001
    vertex 2.136666666666667 8.850000000000001 0.25
  endloop
endfacet
facet normal 0 1 0
  outer loop
    vertex 2.136666666666667 8.850000000000001 0.9
    vertex 2.383333333333333 8.850000000000001 0.5750000000000001
    vertex 1.89 8.850000000000001 0.575
  endloop
endfacet
facet normal 0 1 0
  outer loop
    vertex 1.643333333333333 8.850000000000001 0.25
    vertex 1.89 8.850000000000001 0.575
    vertex 2.136666666666667 8.850000000000001 0.25
  endloop
endfacet
facet normal 0 1 0
  outer loop
    vertex 2.136666666666667 8.850000000000001 0.9
    vertex 1.89 8.850000000000001 0.575
    vertex 1.643333333333333 8.850000000000001 0.9
  endloop
endfacet
facet normal 0 1 0
  outer loop
    vertex 2.136666666666667 8.850000000000001 0.25
    vertex 2.383333333333333 8.850000000000001 0.5750000000000001
    vertex 2.63 8.850000000000001 0.25
  endloop
endfacet
facet normal 0 1 0
  outer loop
    vertex 2.63 8.850000000000001 0.25
    vertex 2.876666666666666 8.850000000000001 0.5750000000000002
    vertex 3.123333333333334 8.850000000000001 0.25
  endloop
endfacet
facet normal 0 1 0
  outer loop
    vertex 2.63 8.850000000000001 0.9
    vertex 2.383333333333333 8.850000000000001 0.5750000000000001
    vertex 2.136666666666667 8.850000000000001 0.9
  endloop
endfacet
facet normal 0 1 0
  outer loop
    vertex 3.123333333333334 8.850000000000001 0.9
    vertex 2.876666666666666 8.850000000000001 0.5750000000000002
    vertex 2.63 8.850000000000001 0.9
  endloop
endfacet
facet normal 0 1 0
  outer loop
    vertex 2.63 8.850000000000001 0.9
    vertex 2.876666666666666 8.850000000000001 0.5750000000000002
    vertex 2.383333333333333 8.850000000000001 0.5750000000000001
  endloop
endfacet
facet normal -0 1 0
  outer loop
    vertex 2.383333333333333 8.850000000000001 0.5750000000000001
    vertex 2.876666666666666 8.850000000000001 0.5750000000000002
    vertex 2.63 8.850000000000001 0.25
  endloop
endfacet
facet normal 0 1 0
  outer loop
    vertex 2.876666666666666 8.850000000000001 0.5750000000000002
    vertex 3.286978704287378 8.850000000000001 0.575
    vertex 3.123333333333334 8.850000000000001 0.25
  endloop
endfacet
facet normal 0 1 0
  outer loop
    vertex 3.123333333333334 8.850000000000001 0.9
    vertex 3.286978704287378 8.850000000000001 0.575
    vertex 2.876666666666666 8.850000000000001 0.5750000000000002
  endloop
endfacet
facet normal 0 1 -0
  outer loop
    vertex 1.643333333333333 8.850000000000001 0.25
    vertex 1.479687962379289 8.850000000000001 0.575
    vertex 1.89 8.850000000000001 0.575
  endloop
endfacet
facet normal 0 1 0
  outer loop
    vertex 1.89 8.850000000000001 0.575
    vertex 1.479687962379289 8.850000000000001 0.575
    vertex 1.643333333333333 8.850000000000001 0.9
  endloop
endfacet
facet normal 0 0 -1
  outer loop
    vertex 2.639494195611596 8.037843963174037 0.25
    vertex 2.874821130451554 8.432400517114049 0.25
    vertex 3.152822585068811 8.070268754561823 0.25
  endloop
endfacet
facet normal 0 0 -1
  outer loop
    vertex 1.934596631113312 6.855949947040038 0.25
    vertex 1.940837124446061 7.344926033270116 0.25
    vertex 2.308217658545314 7.189427467466345 0.25
  endloop
endfacet
facet normal 0 0 -1
  outer loop
    vertex 2.136151165984177 8.04965098173968 0.25
    vertex 1.606819541713639 8.083678361245518 0.25
    vertex 1.903580188020128 8.45787882795292 0.25
  endloop
endfacet
facet normal 0 0 -1
  outer loop
    vertex 1.934596631113312 6.855949947040038 0.25
    vertex 1.549801735836956 7.139082493980989 0.25
    vertex 1.940837124446061 7.344926033270116 0.25
  endloop
endfacet
facet normal 0 0 -1
  outer loop
    vertex 2.639494195611596 8.037843963174037 0.25
    vertex 3.152822585068811 8.070268754561823 0.25
    vertex 2.851383886396311 7.719962700265967 0.25
  endloop
endfacet
facet normal 0 0 -1
  outer loop
    vertex 1.606819541713639 8.083678361245518 0.25
    vertex 2.136151165984177 8.04965098173968 0.25
    vertex 1.915282780270354 7.719962700265968 0.25
  endloop
endfacet
facet normal 0 0 -1
  outer loop
    vertex 3.144892964255872 7.10937936418382 0.25
    vertex 2.876473823640135 6.749048888014341 0.25
    vertex 2.652772127397076 7.056136127426146 0.25
  endloop
endfacet
facet normal 0 -0 -1
  outer loop
    vertex 2.788381821997021 7.371175630195328 0.25
    vertex 3.144892964255872 7.10937936418382 0.25
    vertex 2.652772127397076 7.056136127426146 0.25
  endloop
endfacet
facet normal 0 0 -1
  outer loop
    vertex 2.412592028188671 6.773265999535987 0.25
    vertex 1.934596631113312 6.855949947040038 0.25
    vertex 2.308217658545314 7.189427467466345 0.25
  endloop
endfacet
facet normal 0 0 -1
  outer loop
    vertex 2.63 6.383333333333334 0.25
    vertex 2.412592028188671 6.773265999535987 0.25
    vertex 2.876473823640135 6.749048888014341 0.25
  endloop
endfacet
facet normal 0 0 -1
  outer loop
    vertex 1.15 7.863333333333334 0.25
    vertex 1.15 8.356666666666667 0.25
    vertex 1.606819541713639 8.083678361245518 0.25
  endloop
endfacet
facet normal 0 0 -1
  outer loop
    vertex 1.15 7.370000000000001 0.25
    vertex 1.15 7.863333333333334 0.25
    vertex 1.553790607577094 7.596851188468321 0.25
  endloop
endfacet
facet normal 0 -0 -1
  outer loop
    vertex 3.616666666666667 7.863333333333334 0.25
    vertex 3.616666666666667 7.370000000000001 0.25
    vertex 3.215203948089528 7.592819166446018 0.25
  endloop
endfacet
facet normal 0 0 -1
  outer loop
    vertex 1.553790607577094 7.596851188468321 0.25
    vertex 1.15 7.863333333333334 0.25
    vertex 1.606819541713639 8.083678361245518 0.25
  endloop
endfacet
facet normal 0 0 -1
  outer loop
    vertex 2.63 6.383333333333334 0.25
    vertex 2.136666666666667 6.383333333333334 0.25
    vertex 2.412592028188671 6.773265999535987 0.25
  endloop
endfacet
facet normal 0 0 -1
  outer loop
    vertex 2.136666666666667 8.850000000000001 0.25
    vertex 2.63 8.850000000000001 0.25
    vertex 2.387365355355636 8.425088689799633 0.25
  endloop
endfacet
facet normal 0 0 -1
  outer loop
    vertex 2.387365355355636 8.425088689799633 0.25
    vertex 2.63 8.850000000000001 0.25
    vertex 2.874821130451554 8.432400517114049 0.25
  endloop
endfacet
facet normal 0 0 -1
  outer loop
    vertex 2.387365355355636 8.425088689799633 0.25
    vertex 2.874821130451554 8.432400517114049 0.25
    vertex 2.639494195611596 8.037843963174037 0.25
  endloop
endfacet
facet normal 0 0 -1
  outer loop
    vertex 2.136151165984177 8.04965098173968 0.25
    vertex 2.639494195611596 8.037843963174037 0.25
    vertex 2.383333333333334 7.568282402399032 0.25
  endloop
endfacet
facet normal 0 0 -1
  outer loop
    vertex 2.136666666666667 6.383333333333334 0.25
    vertex 1.643333333333333 6.383333333333334 0.25
    vertex 1.934596631113312 6.855949947040038 0.25
  endloop
endfacet
facet normal -0 0 -1
  outer loop
    vertex 2.412592028188671 6.773265999535987 0.25
    vertex 2.136666666666667 6.383333333333334 0.25
    vertex 1.934596631113312 6.855949947040038 0.25
  endloop
endfacet
facet normal 0 0 -1
  outer loop
    vertex 3.123333333333334 6.383333333333334 0.25
    vertex 2.63 6.383333333333334 0.25
    vertex 2.876473823640135 6.749048888014341 0.25
  endloop
endfacet
facet normal 0 0 -1
  outer loop
    vertex 2.63 8.850000000000001 0.25
    vertex 3.123333333333334 8.850000000000001 0.25
    vertex 2.874821130451554 8.432400517114049 0.25
  endloop
endfacet
facet normal 0 -0 -1
  outer loop
    vertex 2.387365355355636 8.425088689799633 0.25
    vertex 2.639494195611596 8.037843963174037 0.25
    vertex 2.136151165984177 8.04965098173968 0.25
  endloop
endfacet
facet normal 0 0 -1
  outer loop
    vertex 1.15 6.876666666666667 0.25
    vertex 1.15 7.370000000000001 0.25
    vertex 1.549801735836956 7.139082493980989 0.25
  endloop
endfacet
facet normal 0 -0 -1
  outer loop
    vertex 3.616666666666667 7.370000000000001 0.25
    vertex 3.616666666666667 6.876666666666667 0.25
    vertex 3.144892964255872 7.10937936418382 0.25
  endloop
endfacet
facet normal 0 -0 -1
  outer loop
    vertex 3.616666666666667 8.356666666666667 0.25
    vertex 3.616666666666667 7.863333333333334 0.25
    vertex 3.152822585068811 8.070268754561823 0.25
  endloop
endfacet
facet normal 0 0 -1
  outer loop
    vertex 1.643333333333333 8.850000000000001 0.25
    vertex 2.136666666666667 8.850000000000001 0.25
    vertex 1.903580188020128 8.45787882795292 0.25
  endloop
endfacet
facet normal -0 0 -1
  outer loop
    vertex 2.387365355355636 8.425088689799633 0.25
    vertex 2.136151165984177 8.04965098173968 0.25
    vertex 1.903580188020128 8.45787882795292 0.25
  endloop
endfacet
facet normal -0 0 -1
  outer loop
    vertex 3.616666666666667 7.863333333333334 0.25
    vertex 3.215203948089528 7.592819166446018 0.25
    vertex 3.152822585068811 8.070268754561823 0.25
  endloop
endfacet
facet normal 0 0 -1
  outer loop
    vertex 1.15 7.370000000000001 0.25
    vertex 1.553790607577094 7.596851188468321 0.25
    vertex 1.549801735836956 7.139082493980989 0.25
  endloop
endfacet
facet normal 0 -0 -1
  outer loop
    vertex 3.215203948089528 7.592819166446018 0.25
    vertex 3.616666666666667 7.370000000000001 0.25
    vertex 3.144892964255872 7.10937936418382 0.25
  endloop
endfacet
facet normal 0 -0 -1
  outer loop
    vertex 2.136666666666667 8.850000000000001 0.25
    vertex 2.387365355355636 8.425088689799633 0.25
    vertex 1.903580188020128 8.45787882795292 0.25
  endloop
endfacet
facet normal 0 0 -1
  outer loop
    vertex 1.15 8.356666666666667 0.25
    vertex 1.15 8.850000000000001 0.25
    vertex 1.511145065067313 8.488854934932689 0.25
  endloop
endfacet
facet normal 0 0 -1
  outer loop
    vertex 1.15 6.383333333333334 0.25
    vertex 1.15 6.876666666666667 0.25
    vertex 1.511145065067313 6.744478398400647 0.25
  endloop
endfacet
facet normal 0 -0 -1
  outer loop
    vertex 3.616666666666667 6.876666666666667 0.25
    vertex 3.616666666666667 6.383333333333334 0.25
    vertex 3.255521601599354 6.744478398400647 0.25
  endloop
endfacet
facet normal 0 0 -1
  outer loop
    vertex 1.643333333333333 6.383333333333334 0.25
    vertex 1.15 6.383333333333334 0.25
    vertex 1.511145065067313 6.744478398400647 0.25
  endloop
endfacet
facet normal 0 0 -1
  outer loop
    vertex 1.15 8.850000000000001 0.25
    vertex 1.643333333333333 8.850000000000001 0.25
    vertex 1.511145065067313 8.488854934932689 0.25
  endloop
endfacet
facet normal 0 0 -1
  outer loop
    vertex 3.616666666666667 6.383333333333334 0.25
    vertex 3.123333333333334 6.383333333333334 0.25
    vertex 3.255521601599354 6.744478398400647 0.25
  endloop
endfacet
facet normal 0 0 -1
  outer loop
    vertex 3.123333333333334 8.850000000000001 0.25
    vertex 3.616666666666667 8.850000000000001 0.25
    vertex 3.255521601599354 8.488854934932689 0.25
  endloop
endfacet
facet normal 0 -0 -1
  outer loop
    vertex 3.616666666666667 8.850000000000001 0.25
    vertex 3.616666666666667 8.356666666666667 0.25
    vertex 3.255521601599354 8.488854934932689 0.25
  endloop
endfacet
facet normal 0 -0 -1
  outer loop
    vertex 2.383333333333334 7.568282402399032 0.25
    vertex 2.788381821997021 7.371175630195328 0.25
    vertex 2.308217658545314 7.189427467466345 0.25
  endloop
endfacet
facet normal 0 0 -1
  outer loop
    vertex 1.553790607577094 7.596851188468321 0.25
    vertex 1.606819541713639 8.083678361245518 0.25
    vertex 1.915282780270354 7.719962700265968 0.25
  endloop
endfacet
facet normal 0 0 -1
  outer loop
    vertex 1.549801735836956 7.139082493980989 0.25
    vertex 1.553790607577094 7.596851188468321 0.25
    vertex 1.940837124446061 7.344926033270116 0.25
  endloop
endfacet
facet normal 0 0 -1
  outer loop
    vertex 3.215203948089528 7.592819166446018 0.25
    vertex 3.144892964255872 7.10937936418382 0.25
    vertex 2.788381821997021 7.371175630195328 0.25
  endloop
endfacet
facet normal 0 -0 -1
  outer loop
    vertex 2.136151165984177 8.04965098173968 0.25
    vertex 2.383333333333334 7.568282402399032 0.25
    vertex 1.915282780270354 7.719962700265968 0.25
  endloop
endfacet
facet normal 0 0 -1
  outer loop
    vertex 2.383333333333334 7.568282402399032 0.25
    vertex 2.639494195611596 8.037843963174037 0.25
    vertex 2.851383886396311 7.719962700265967 0.25
  endloop
endfacet
facet normal 0 0 -1
  outer loop
    vertex 2.308217658545314 7.189427467466345 0.25
    vertex 2.788381821997021 7.371175630195328 0.25
    vertex 2.652772127397076 7.056136127426146 0.25
  endloop
endfacet
facet normal 0 -0 -1
  outer loop
    vertex 3.152822585068811 8.070268754561823 0.25
    vertex 3.215203948089528 7.592819166446018 0.25
    vertex 2.851383886396311 7.719962700265967 0.25
  endloop
endfacet
facet normal -0 0 -1
  outer loop
    vertex 2.383333333333334 7.568282402399032 0.25
    vertex 1.940837124446061 7.344926033270116 0.25
    vertex 1.915282780270354 7.719962700265968 0.25
  endloop
endfacet
facet normal 0 0 -1
  outer loop
    vertex 2.788381821997021 7.371175630195328 0.25
    vertex 2.383333333333334 7.568282402399032 0.25
    vertex 2.851383886396311 7.719962700265967 0.25
  endloop
endfacet
facet normal -0 0 -1
  outer loop
    vertex 3.616666666666667 8.356666666666667 0.25
    vertex 3.152822585068811 8.070268754561823 0.25
    vertex 3.255521601599354 8.488854934932689 0.25
  endloop
endfacet
facet normal 0 0 -1
  outer loop
    vertex 1.15 6.876666666666667 0.25
    vertex 1.549801735836956 7.139082493980989 0.25
    vertex 1.511145065067313 6.744478398400647 0.25
  endloop
endfacet
facet normal 0 0 -1
  outer loop
    vertex 3.144892964255872 7.10937936418382 0.25
    vertex 3.616666666666667 6.876666666666667 0.25
    vertex 3.255521601599354 6.744478398400647 0.25
  endloop
endfacet
facet normal 0 -0 -1
  outer loop
    vertex 1.643333333333333 8.850000000000001 0.25
    vertex 1.903580188020128 8.45787882795292 0.25
    vertex 1.511145065067313 8.488854934932689 0.25
  endloop
endfacet
facet normal 0 0 -1
  outer loop
    vertex 1.606819541713639 8.083678361245518 0.25
    vertex 1.15 8.356666666666667 0.25
    vertex 1.511145065067313 8.488854934932689 0.25
  endloop
endfacet
facet normal 0 0 -1
  outer loop
    vertex 3.123333333333334 6.383333333333334 0.25
    vertex 2.876473823640135 6.749048888014341 0.25
    vertex 3.255521601599354 6.744478398400647 0.25
  endloop
endfacet
facet normal 0 0 -1
  outer loop
    vertex 2.874821130451554 8.432400517114049 0.25
    vertex 3.123333333333334 8.850000000000001 0.25
    vertex 3.255521601599354 8.488854934932689 0.25
  endloop
endfacet
facet normal 0 0 -1
  outer loop
    vertex 1.934596631113312 6.855949947040038 0.25
    vertex 1.643333333333333 6.383333333333334 0.25
    vertex 1.511145065067313 6.744478398400647 0.25
  endloop
endfacet
facet normal 0 0 -1
  outer loop
    vertex 2.876473823640135 6.749048888014341 0.25
    vertex 2.412592028188671 6.773265999535987 0.25
    vertex 2.652772127397076 7.056136127426146 0.25
  endloop
endfacet
facet normal 0 0 -1
  outer loop
    vertex 2.876473823640135 6.749048888014341 0.25
    vertex 3.144892964255872 7.10937936418382 0.25
    vertex 3.255521601599354 6.744478398400647 0.25
  endloop
endfacet
facet normal 0 0 -1
  outer loop
    vertex 3.152822585068811 8.070268754561823 0.25
    vertex 2.874821130451554 8.432400517114049 0.25
    vertex 3.255521601599354 8.488854934932689 0.25
  endloop
endfacet
facet normal 0 -0 -1
  outer loop
    vertex 1.549801735836956 7.139082493980989 0.25
    vertex 1.934596631113312 6.855949947040038 0.25
    vertex 1.511145065067313 6.744478398400647 0.25
  endloop
endfacet
facet normal -0 0 -1
  outer loop
    vertex 1.903580188020128 8.45787882795292 0.25
    vertex 1.606819541713639 8.083678361245518 0.25
    vertex 1.511145065067313 8.488854934932689 0.25
  endloop
endfacet
facet normal 0 0 -1
  outer loop
    vertex 1.940837124446061 7.344926033270116 0.25
    vertex 2.383333333333334 7.568282402399032 0.25
    vertex 2.308217658545314 7.189427467466345 0.25
  endloop
endfacet
facet normal 0 0 -1
  outer loop
    vertex 1.940837124446061 7.344926033270116 0.25
    vertex 1.553790607577094 7.596851188468321 0.25
    vertex 1.915282780270354 7.719962700265968 0.25
  endloop
endfacet
facet normal -0 0 -1
  outer loop
    vertex 3.215203948089528 7.592819166446018 0.25
    vertex 2.788381821997021 7.371175630195328 0.25
    vertex 2.851383886396311 7.719962700265967 0.25
  endloop
endfacet
facet normal 0 0 -1
  outer loop
    vertex 2.412592028188671 6.773265999535987 0.25
    vertex 2.308217658545314 7.189427467466345 0.25
    vertex 2.652772127397076 7.056136127426146 0.25
  endloop
endfacet
facet normal 0 0 1
  outer loop
    vertex 2.798664837187955 7.333936048382651 0.9
    vertex 2.32560376966223 7.166985743768807 0.9
    vertex 2.837471099167243 6.813816985539066 0.9
  endloop
endfacet
facet normal 0 0 1
  outer loop
    vertex 2.837471099167243 6.813816985539066 0.9
    vertex 2.32560376966223 7.166985743768807 0.9
    vertex 2.363471771948966 6.712654373040119 0.9
  endloop
endfacet
facet normal 0 0 1
  outer loop
    vertex 2.639472302719474 8.037811635536025 0.9
    vertex 3.152465417251656 8.069649004787969 0.9
    vertex 2.874821130451554 8.432400517114049 0.9
  endloop
endfacet
facet normal 0 0 1
  outer loop
    vertex 1.927579451650497 6.847291143254914 0.9
    vertex 2.32560376966223 7.166985743768807 0.9
    vertex 1.939528364784345 7.343311097643524 0.9
  endloop
endfacet
facet normal 0 0 1
  outer loop
    vertex 2.136147517168824 8.049645593800012 0.9
    vertex 1.903579517829552 8.457877838331349 0.9
    vertex 1.606819169385541 8.083677811455756 0.9
  endloop
endfacet
facet normal 0 0 1
  outer loop
    vertex 3.198857379423958 7.123613488958437 0.9
    vertex 2.798664837187955 7.333936048382651 0.9
    vertex 2.837471099167243 6.813816985539066 0.9
  endloop
endfacet
facet normal 0 -0 1
  outer loop
    vertex 1.927579451650497 6.847291143254914 0.9
    vertex 1.939528364784345 7.343311097643524 0.9
    vertex 1.548966357329478 7.13805168400657 0.9
  endloop
endfacet
facet normal -0 0 1
  outer loop
    vertex 2.639472302719474 8.037811635536025 0.9
    vertex 2.85125252904358 7.719768734437901 0.9
    vertex 3.152465417251656 8.069649004787969 0.9
  endloop
endfacet
facet normal 0 0 1
  outer loop
    vertex 1.606819169385541 8.083677811455756 0.9
    vertex 1.915282780270354 7.719962700265968 0.9
    vertex 2.136147517168824 8.049645593800012 0.9
  endloop
endfacet
facet normal 0 0 1
  outer loop
    vertex 2.363471771948966 6.712654373040119 0.9
    vertex 2.32560376966223 7.166985743768807 0.9
    vertex 1.927579451650497 6.847291143254914 0.9
  endloop
endfacet
facet normal 0 0 1
  outer loop
    vertex 1.15 7.863333333333334 0.9
    vertex 1.606819169385541 8.083677811455756 0.9
    vertex 1.15 8.356666666666667 0.9
  endloop
endfacet
facet normal 0 0 1
  outer loop
    vertex 1.15 7.370000000000001 0.9
    vertex 1.553790607577094 7.596851188468321 0.9
    vertex 1.15 7.863333333333334 0.9
  endloop
endfacet
facet normal 0 0 1
  outer loop
    vertex 3.616666666666667 7.370000000000001 0.9
    vertex 3.198857379423958 7.123613488958437 0.9
    vertex 3.616666666666667 6.876666666666667 0.9
  endloop
endfacet
facet normal 0 0 1
  outer loop
    vertex 3.616666666666667 7.863333333333334 0.9
    vertex 3.212857023614299 7.588707211495126 0.9
    vertex 3.616666666666667 7.370000000000001 0.9
  endloop
endfacet
facet normal 0 0 1
  outer loop
    vertex 3.212857023614299 7.588707211495126 0.9
    vertex 3.198857379423958 7.123613488958437 0.9
    vertex 3.616666666666667 7.370000000000001 0.9
  endloop
endfacet
facet normal 0 -0 1
  outer loop
    vertex 1.553790607577094 7.596851188468321 0.9
    vertex 1.606819169385541 8.083677811455756 0.9
    vertex 1.15 7.863333333333334 0.9
  endloop
endfacet
facet normal 0 0 1
  outer loop
    vertex 2.63 6.383333333333334 0.9
    vertex 2.363471771948966 6.712654373040119 0.9
    vertex 2.136666666666667 6.383333333333334 0.9
  endloop
endfacet
facet normal -0 0 1
  outer loop
    vertex 2.136666666666667 8.850000000000001 0.9
    vertex 2.387365355355636 8.425088689799633 0.9
    vertex 2.63 8.850000000000001 0.9
  endloop
endfacet
facet normal 0 0 1
  outer loop
    vertex 2.387365355355636 8.425088689799633 0.9
    vertex 2.874821130451554 8.432400517114049 0.9
    vertex 2.63 8.850000000000001 0.9
  endloop
endfacet
facet normal -0 0 1
  outer loop
    vertex 2.387365355355636 8.425088689799633 0.9
    vertex 2.639472302719474 8.037811635536025 0.9
    vertex 2.874821130451554 8.432400517114049 0.9
  endloop
endfacet
facet normal 0 0 1
  outer loop
    vertex 2.136147517168824 8.049645593800012 0.9
    vertex 2.383333333333334 7.568282402399032 0.9
    vertex 2.639472302719474 8.037811635536025 0.9
  endloop
endfacet
facet normal 0 0 1
  outer loop
    vertex 2.136666666666667 6.383333333333334 0.9
    vertex 1.927579451650497 6.847291143254914 0.9
    vertex 1.643333333333333 6.383333333333334 0.9
  endloop
endfacet
facet normal 0 0 1
  outer loop
    vertex 2.363471771948966 6.712654373040119 0.9
    vertex 1.927579451650497 6.847291143254914 0.9
    vertex 2.136666666666667 6.383333333333334 0.9
  endloop
endfacet
facet normal -0 0 1
  outer loop
    vertex 2.63 8.850000000000001 0.9
    vertex 2.874821130451554 8.432400517114049 0.9
    vertex 3.123333333333334 8.850000000000001 0.9
  endloop
endfacet
facet normal 0 0 1
  outer loop
    vertex 2.387365355355636 8.425088689799633 0.9
    vertex 2.136147517168824 8.049645593800012 0.9
    vertex 2.639472302719474 8.037811635536025 0.9
  endloop
endfacet
facet normal 0 0 1
  outer loop
    vertex 1.15 6.876666666666667 0.9
    vertex 1.548966357329478 7.13805168400657 0.9
    vertex 1.15 7.370000000000001 0.9
  endloop
endfacet
facet normal 0 0 1
  outer loop
    vertex 3.123333333333334 6.383333333333334 0.9
    vertex 2.837471099167243 6.813816985539066 0.9
    vertex 2.63 6.383333333333334 0.9
  endloop
endfacet
facet normal -0 0 1
  outer loop
    vertex 1.643333333333333 8.850000000000001 0.9
    vertex 1.903579517829552 8.457877838331349 0.9
    vertex 2.136666666666667 8.850000000000001 0.9
  endloop
endfacet
facet normal 0 0 1
  outer loop
    vertex 2.387365355355636 8.425088689799633 0.9
    vertex 1.903579517829552 8.457877838331349 0.9
    vertex 2.136147517168824 8.049645593800012 0.9
  endloop
endfacet
facet normal 0 0 1
  outer loop
    vertex 3.616666666666667 8.356666666666667 0.9
    vertex 3.152465417251656 8.069649004787969 0.9
    vertex 3.616666666666667 7.863333333333334 0.9
  endloop
endfacet
facet normal 0 -0 1
  outer loop
    vertex 2.63 6.383333333333334 0.9
    vertex 2.837471099167243 6.813816985539066 0.9
    vertex 2.363471771948966 6.712654373040119 0.9
  endloop
endfacet
facet normal -0 0 1
  outer loop
    vertex 1.15 7.370000000000001 0.9
    vertex 1.548966357329478 7.13805168400657 0.9
    vertex 1.553790607577094 7.596851188468321 0.9
  endloop
endfacet
facet normal 0 0 1
  outer loop
    vertex 3.616666666666667 7.863333333333334 0.9
    vertex 3.152465417251656 8.069649004787969 0.9
    vertex 3.212857023614299 7.588707211495126 0.9
  endloop
endfacet
facet normal 0 0 1
  outer loop
    vertex 2.136666666666667 8.850000000000001 0.9
    vertex 1.903579517829552 8.457877838331349 0.9
    vertex 2.387365355355636 8.425088689799633 0.9
  endloop
endfacet
facet normal 0 0 1
  outer loop
    vertex 3.212857023614299 7.588707211495126 0.9
    vertex 2.798664837187955 7.333936048382651 0.9
    vertex 3.198857379423958 7.123613488958437 0.9
  endloop
endfacet
facet normal 0 0 1
  outer loop
    vertex 1.15 8.356666666666667 0.9
    vertex 1.511145065067313 8.488854934932689 0.9
    vertex 1.15 8.850000000000001 0.9
  endloop
endfacet
facet normal 0 0 1
  outer loop
    vertex 3.616666666666667 6.876666666666667 0.9
    vertex 3.255521601599354 6.744478398400648 0.9
    vertex 3.616666666666667 6.383333333333334 0.9
  endloop
endfacet
facet normal 0 0 1
  outer loop
    vertex 1.15 6.383333333333334 0.9
    vertex 1.511145065067313 6.744478398400647 0.9
    vertex 1.15 6.876666666666667 0.9
  endloop
endfacet
facet normal 0 0 1
  outer loop
    vertex 3.616666666666667 6.383333333333334 0.9
    vertex 3.255521601599354 6.744478398400648 0.9
    vertex 3.123333333333334 6.383333333333334 0.9
  endloop
endfacet
facet normal 0 0 1
  outer loop
    vertex 1.643333333333333 6.383333333333334 0.9
    vertex 1.511145065067313 6.744478398400647 0.9
    vertex 1.15 6.383333333333334 0.9
  endloop
endfacet
facet normal -0 0 1
  outer loop
    vertex 1.15 8.850000000000001 0.9
    vertex 1.511145065067313 8.488854934932689 0.9
    vertex 1.643333333333333 8.850000000000001 0.9
  endloop
endfacet
facet normal -0 0 1
  outer loop
    vertex 3.123333333333334 8.850000000000001 0.9
    vertex 3.255521601599354 8.488854934932689 0.9
    vertex 3.616666666666667 8.850000000000001 0.9
  endloop
endfacet
facet normal 0 0 1
  outer loop
    vertex 3.616666666666667 8.850000000000001 0.9
    vertex 3.255521601599354 8.488854934932689 0.9
    vertex 3.616666666666667 8.356666666666667 0.9
  endloop
endfacet
facet normal 0 0 1
  outer loop
    vertex 2.383333333333334 7.568282402399032 0.9
    vertex 2.32560376966223 7.166985743768807 0.9
    vertex 2.798664837187955 7.333936048382651 0.9
  endloop
endfacet
facet normal 0 0 1
  outer loop
    vertex 1.553790607577094 7.596851188468321 0.9
    vertex 1.915282780270354 7.719962700265968 0.9
    vertex 1.606819169385541 8.083677811455756 0.9
  endloop
endfacet
facet normal 0 0 1
  outer loop
    vertex 1.548966357329478 7.13805168400657 0.9
    vertex 1.939528364784345 7.343311097643524 0.9
    vertex 1.553790607577094 7.596851188468321 0.9
  endloop
endfacet
facet normal 0 0 1
  outer loop
    vertex 2.136147517168824 8.049645593800012 0.9
    vertex 1.915282780270354 7.719962700265968 0.9
    vertex 2.383333333333334 7.568282402399032 0.9
  endloop
endfacet
facet normal 0 0 1
  outer loop
    vertex 2.383333333333334 7.568282402399032 0.9
    vertex 2.85125252904358 7.719768734437901 0.9
    vertex 2.639472302719474 8.037811635536025 0.9
  endloop
endfacet
facet normal 0 0 1
  outer loop
    vertex 3.152465417251656 8.069649004787969 0.9
    vertex 2.85125252904358 7.719768734437901 0.9
    vertex 3.212857023614299 7.588707211495126 0.9
  endloop
endfacet
facet normal 0 0 1
  outer loop
    vertex 2.383333333333334 7.568282402399032 0.9
    vertex 1.915282780270354 7.719962700265968 0.9
    vertex 1.939528364784345 7.343311097643524 0.9
  endloop
endfacet
facet normal 0 -0 1
  outer loop
    vertex 2.798664837187955 7.333936048382651 0.9
    vertex 2.85125252904358 7.719768734437901 0.9
    vertex 2.383333333333334 7.568282402399032 0.9
  endloop
endfacet
facet normal -0 0 1
  outer loop
    vertex 1.15 6.876666666666667 0.9
    vertex 1.511145065067313 6.744478398400647 0.9
    vertex 1.548966357329478 7.13805168400657 0.9
  endloop
endfacet
facet normal 0 -0 1
  outer loop
    vertex 3.123333333333334 6.383333333333334 0.9
    vertex 3.255521601599354 6.744478398400648 0.9
    vertex 2.837471099167243 6.813816985539066 0.9
  endloop
endfacet
facet normal 0 0 1
  outer loop
    vertex 3.616666666666667 8.356666666666667 0.9
    vertex 3.255521601599354 8.488854934932689 0.9
    vertex 3.152465417251656 8.069649004787969 0.9
  endloop
endfacet
facet normal 0 0 1
  outer loop
    vertex 1.643333333333333 8.850000000000001 0.9
    vertex 1.511145065067313 8.488854934932689 0.9
    vertex 1.903579517829552 8.457877838331349 0.9
  endloop
endfacet
facet normal 0 0 1
  outer loop
    vertex 1.606819169385541 8.083677811455756 0.9
    vertex 1.511145065067313 8.488854934932689 0.9
    vertex 1.15 8.356666666666667 0.9
  endloop
endfacet
facet normal 0 0 1
  outer loop
    vertex 3.198857379423958 7.123613488958437 0.9
    vertex 3.255521601599354 6.744478398400648 0.9
    vertex 3.616666666666667 6.876666666666667 0.9
  endloop
endfacet
facet normal 0 0 1
  outer loop
    vertex 2.874821130451554 8.432400517114049 0.9
    vertex 3.255521601599354 8.488854934932689 0.9
    vertex 3.123333333333334 8.850000000000001 0.9
  endloop
endfacet
facet normal 0 0 1
  outer loop
    vertex 1.927579451650497 6.847291143254914 0.9
    vertex 1.511145065067313 6.744478398400647 0.9
    vertex 1.643333333333333 6.383333333333334 0.9
  endloop
endfacet
facet normal 0 -0 1
  outer loop
    vertex 3.152465417251656 8.069649004787969 0.9
    vertex 3.255521601599354 8.488854934932689 0.9
    vertex 2.874821130451554 8.432400517114049 0.9
  endloop
endfacet
facet normal 0 0 1
  outer loop
    vertex 1.548966357329478 7.13805168400657 0.9
    vertex 1.511145065067313 6.744478398400647 0.9
    vertex 1.927579451650497 6.847291143254914 0.9
  endloop
endfacet
facet normal -0 0 1
  outer loop
    vertex 2.837471099167243 6.813816985539066 0.9
    vertex 3.255521601599354 6.744478398400648 0.9
    vertex 3.198857379423958 7.123613488958437 0.9
  endloop
endfacet
facet normal 0 0 1
  outer loop
    vertex 1.903579517829552 8.457877838331349 0.9
    vertex 1.511145065067313 8.488854934932689 0.9
    vertex 1.606819169385541 8.083677811455756 0.9
  endloop
endfacet
facet normal -0 0 1
  outer loop
    vertex 1.939528364784345 7.343311097643524 0.9
    vertex 2.32560376966223 7.166985743768807 0.9
    vertex 2.383333333333334 7.568282402399032 0.9
  endloop
endfacet
facet normal 0 0 1
  outer loop
    vertex 3.212857023614299 7.588707211495126 0.9
    vertex 2.85125252904358 7.719768734437901 0.9
    vertex 2.798664837187955 7.333936048382651 0.9
  endloop
endfacet
facet normal 0 0 1
  outer loop
    vertex 1.939528364784345 7.343311097643524 0.9
    vertex 1.915282780270354 7.719962700265968 0.9
    vertex 1.553790607577094 7.596851188468321 0.9
  endloop
endfacet
endsolid Created by Gmsh
