solid Created by Gmsh
facet normal -1 0 0
  outer loop
    vertex 3.766666666666667 1.15 0.25
    vertex 3.766666666666667 1.15 0.5750000000000002
    vertex 3.766666666666667 1.479687962379289 0.575
  endloop
endfacet
facet normal -1 0 0
  outer loop
    vertex 3.766666666666667 1.15 0.5750000000000002
    vertex 3.766666666666667 1.15 0.9
    vertex 3.766666666666667 1.479687962379289 0.575
  endloop
endfacet
facet normal -1 0 -0
  outer loop
    vertex 3.766666666666667 3.616666666666667 0.5750000000000002
    vertex 3.766666666666667 3.616666666666667 0.25
    vertex 3.766666666666667 3.286978704287378 0.575
  endloop
endfacet
facet normal -1 0 -0
  outer loop
    vertex 3.766666666666667 3.616666666666667 0.9
    vertex 3.766666666666667 3.616666666666667 0.5750000000000002
    vertex 3.766666666666667 3.286978704287378 0.575
  endloop
endfacet
facet normal -1 0 0
  outer loop
    vertex 3.766666666666667 1.15 0.9
    vertex 3.766666666666667 1.643333333333333 0.9
    vertex 3.766666666666667 1.479687962379289 0.575
  endloop
endfacet
facet normal -1 0 0
  outer loop
    vertex 3.766666666666667 3.123333333333334 0.9
    vertex 3.766666666666667 3.616666666666667 0.9
    vertex 3.766666666666667 3.286978704287378 0.575
  endloop
endfacet
facet normal -1 0 0
  outer loop
    vertex 3.766666666666667 1.643333333333333 0.25
    vertex 3.766666666666667 1.15 0.25
    vertex 3.766666666666667 1.479687962379289 0.575
  endloop
endfacet
facet normal -1 0 0
  outer loop
    vertex 3.766666666666667 3.616666666666667 0.25
    vertex 3.766666666666667 3.123333333333334 0.25
    vertex 3.766666666666667 3.286978704287378 0.575
  endloop
endfacet
facet normal -1 0 0
  outer loop
    vertex 3.766666666666667 1.89 0.575
    vertex 3.766666666666667 2.136666666666667 0.9
    vertex 3.766666666666667 2.383333333333333 0.575
  endloop
endfacet
facet normal -1 0 0
  outer loop
    vertex 3.766666666666667 2.63 0.9
    vertex 3.766666666666667 3.123333333333334 0.9
    vertex 3.766666666666667 2.876666666666666 0.5750000000000002
  endloop
endfacet
facet normal -1 0 0
  outer loop
    vertex 3.766666666666667 1.643333333333333 0.9
    vertex 3.766666666666667 2.136666666666667 0.9
    vertex 3.766666666666667 1.89 0.575
  endloop
endfacet
facet normal -1 0 0
  outer loop
    vertex 3.766666666666667 2.136666666666667 0.25
    vertex 3.766666666666667 1.643333333333333 0.25
    vertex 3.766666666666667 1.89 0.575
  endloop
endfacet
facet normal -1 0 0
  outer loop
    vertex 3.766666666666667 2.136666666666667 0.25
    vertex 3.766666666666667 1.89 0.575
    vertex 3.766666666666667 2.383333333333333 0.575
  endloop
endfacet
facet normal -1 0 0
  outer loop
    vertex 3.766666666666667 2.136666666666667 0.9
    vertex 3.766666666666667 2.63 0.9
    vertex 3.766666666666667 2.383333333333333 0.575
  endloop
endfacet
facet normal -1 0 0
  outer loop
    vertex 3.766666666666667 2.63 0.25
    vertex 3.766666666666667 2.136666666666667 0.25
    vertex 3.766666666666667 2.383333333333333 0.575
  endloop
endfacet
facet normal -1 0 0
  outer loop
    vertex 3.766666666666667 3.123333333333334 0.25
    vertex 3.766666666666667 2.63 0.25
    vertex 3.766666666666667 2.876666666666666 0.5750000000000002
  endloop
endfacet
facet normal -1 0 -0
  outer loop
    vertex 3.766666666666667 2.63 0.9
    vertex 3.766666666666667 2.876666666666666 0.5750000000000002
    vertex 3.766666666666667 2.383333333333333 0.575
  endloop
endfacet
facet normal -1 0 0
  outer loop
    vertex 3.766666666666667 2.876666666666666 0.5750000000000002
    vertex 3.766666666666667 2.63 0.25
    vertex 3.766666666666667 2.383333333333333 0.575
  endloop
endfacet
facet normal -1 0 0
  outer loop
    vertex 3.766666666666667 3.123333333333334 0.25
    vertex 3.766666666666667 2.876666666666666 0.5750000000000002
    vertex 3.766666666666667 3.286978704287378 0.575
  endloop
endfacet
facet normal -1 0 -0
  outer loop
    vertex 3.766666666666667 1.643333333333333 0.9
    vertex 3.766666666666667 1.89 0.575
    vertex 3.766666666666667 1.479687962379289 0.575
  endloop
endfacet
facet normal -1 0 0
  outer loop
    vertex 3.766666666666667 2.876666666666666 0.5750000000000002
    vertex 3.766666666666667 3.123333333333334 0.9
    vertex 3.766666666666667 3.286978704287378 0.575
  endloop
endfacet
facet normal -1 -0 0
  outer loop
    vertex 3.766666666666667 1.89 0.575
    vertex 3.766666666666667 1.643333333333333 0.25
    vertex 3.766666666666667 1.479687962379289 0.575
  endloop
endfacet
facet normal 1 0 0
  outer loop
    vertex 6.233333333333333 1.15 0.25
    vertex 6.233333333333333 1.479687962379289 0.575
    vertex 6.233333333333333 1.15 0.5750000000000002
  endloop
endfacet
facet normal 1 -0 0
  outer loop
    vertex 6.233333333333333 1.15 0.5750000000000002
    vertex 6.233333333333333 1.479687962379289 0.575
    vertex 6.233333333333333 1.15 0.9
  endloop
endfacet
facet normal 1 0 0
  outer loop
    vertex 6.233333333333333 3.616666666666667 0.5750000000000002
    vertex 6.233333333333333 3.286978704287378 0.575
    vertex 6.233333333333333 3.616666666666667 0.25
  endloop
endfacet
facet normal 1 0 0
  outer loop
    vertex 6.233333333333333 3.616666666666667 0.9
    vertex 6.233333333333333 3.286978704287378 0.575
    vertex 6.233333333333333 3.616666666666667 0.5750000000000002
  endloop
endfacet
facet normal 1 -0 0
  outer loop
    vertex 6.233333333333333 1.15 0.9
    vertex 6.233333333333333 1.479687962379289 0.575
    vertex 6.233333333333333 1.643333333333333 0.9
  endloop
endfacet
facet normal 1 -0 0
  outer loop
    vertex 6.233333333333333 3.123333333333334 0.9
    vertex 6.233333333333333 3.286978704287378 0.575
    vertex 6.233333333333333 3.616666666666667 0.9
  endloop
endfacet
facet normal 1 0 0
  outer loop
    vertex 6.233333333333333 1.643333333333333 0.25
    vertex 6.233333333333333 1.479687962379289 0.575
    vertex 6.233333333333333 1.15 0.25
  endloop
endfacet
facet normal 1 0 0
  outer loop
    vertex 6.233333333333333 3.616666666666667 0.25
    vertex 6.233333333333333 3.286978704287378 0.575
    vertex 6.233333333333333 3.123333333333334 0.25
  endloop
endfacet
facet normal 1 -0 0
  outer loop
    vertex 6.233333333333333 1.643333333333333 0.9
    vertex 6.233333333333333 1.89 0.575
    vertex 6.233333333333333 2.136666666666667 0.9
  endloop
endfacet
facet normal 1 0 0
  outer loop
    vertex 6.233333333333333 1.89 0.575
    vertex 6.233333333333333 2.383333333333333 0.575
    vertex 6.233333333333333 2.136666666666667 0.9
  endloop
endfacet
facet normal 1 0 0
  outer loop
    vertex 6.233333333333333 2.136666666666667 0.25
    vertex 6.233333333333333 1.89 0.575
    vertex 6.233333333333333 1.643333333333333 0.25
  endloop
endfacet
facet normal 1 0 -0
  outer loop
    vertex 6.233333333333333 2.136666666666667 0.25
    vertex 6.233333333333333 2.383333333333333 0.575
    vertex 6.233333333333333 1.89 0.575
  endloop
endfacet
facet normal 1 -0 0
  outer loop
    vertex 6.233333333333333 2.136666666666667 0.9
    vertex 6.233333333333333 2.383333333333333 0.575
    vertex 6.233333333333333 2.63 0.9
  endloop
endfacet
facet normal 1 0 0
  outer loop
    vertex 6.233333333333333 2.63 0.25
    vertex 6.233333333333333 2.383333333333333 0.575
    vertex 6.233333333333333 2.136666666666667 0.25
  endloop
endfacet
facet normal 1 -0 0
  outer loop
    vertex 6.233333333333333 2.63 0.9
    vertex 6.233333333333333 2.876666666666666 0.575
    vertex 6.233333333333333 3.123333333333334 0.9
  endloop
endfacet
facet normal 1 0 0
  outer loop
    vertex 6.233333333333333 3.123333333333334 0.25
    vertex 6.233333333333333 2.876666666666666 0.575
    vertex 6.233333333333333 2.63 0.25
  endloop
endfacet
facet normal 1 0 0
  outer loop
    vertex 6.233333333333333 2.383333333333333 0.575
    vertex 6.233333333333333 2.876666666666666 0.575
    vertex 6.233333333333333 2.63 0.9
  endloop
endfacet
facet normal 1 0 -0
  outer loop
    vertex 6.233333333333333 2.63 0.25
    vertex 6.233333333333333 2.876666666666666 0.575
    vertex 6.233333333333333 2.383333333333333 0.575
  endloop
endfacet
facet normal 1 0 -0
  outer loop
    vertex 6.233333333333333 3.123333333333334 0.25
    vertex 6.233333333333333 3.286978704287378 0.575
    vertex 6.233333333333333 2.876666666666666 0.575
  endloop
endfacet
facet normal 1 0 0
  outer loop
    vertex 6.233333333333333 2.876666666666666 0.575
    vertex 6.233333333333333 3.286978704287378 0.575
    vertex 6.233333333333333 3.123333333333334 0.9
  endloop
endfacet
facet normal 1 0 0
  outer loop
    vertex 6.233333333333333 1.89 0.575
    vertex 6.233333333333333 1.479687962379289 0.575
    vertex 6.233333333333333 1.643333333333333 0.25
  endloop
endfacet
facet normal 1 0 0
  outer loop
    vertex 6.233333333333333 1.643333333333333 0.9
    vertex 6.233333333333333 1.479687962379289 0.575
    vertex 6.233333333333333 1.89 0.575
  endloop
endfacet
facet normal 0 -1 0
  outer loop
    vertex 3.766666666666667 1.15 0.9
    vertex 3.766666666666667 1.15 0.5750000000000002
    vertex 4.096354629045956 1.15 0.575
  endloop
endfacet
facet normal 0 -1 0
  outer loop
    vertex 3.766666666666667 1.15 0.5750000000000002
    vertex 3.766666666666667 1.15 0.25
    vertex 4.096354629045956 1.15 0.575
  endloop
endfacet
facet normal 0 -1 0
  outer loop
    vertex 6.233333333333333 1.15 0.25
    vertex 6.233333333333333 1.15 0.5750000000000002
    vertex 5.903645370954045 1.15 0.575
  endloop
endfacet
facet normal -0 -1 0
  outer loop
    vertex 6.233333333333333 1.15 0.5750000000000002
    vertex 6.233333333333333 1.15 0.9
    vertex 5.903645370954045 1.15 0.575
  endloop
endfacet
facet normal 0 -1 0
  outer loop
    vertex 3.766666666666667 1.15 0.25
    vertex 4.26 1.15 0.25
    vertex 4.096354629045956 1.15 0.575
  endloop
endfacet
facet normal -0 -1 0
  outer loop
    vertex 6.233333333333333 1.15 0.9
    vertex 5.74 1.15 0.9
    vertex 5.903645370954045 1.15 0.575
  endloop
endfacet
facet normal -0 -1 0
  outer loop
    vertex 4.26 1.15 0.9
    vertex 3.766666666666667 1.15 0.9
    vertex 4.096354629045956 1.15 0.575
  endloop
endfacet
facet normal 0 -1 0
  outer loop
    vertex 5.74 1.15 0.25
    vertex 6.233333333333333 1.15 0.25
    vertex 5.903645370954045 1.15 0.575
  endloop
endfacet
facet normal 0 -1 0
  outer loop
    vertex 5.246666666666667 1.15 0.25
    vertex 5.74 1.15 0.25
    vertex 5.493333333333333 1.15 0.575
  endloop
endfacet
facet normal -0 -1 0
  outer loop
    vertex 4.753333333333333 1.15 0.9
    vertex 4.26 1.15 0.9
    vertex 4.506666666666667 1.15 0.575
  endloop
endfacet
facet normal 0 -1 0
  outer loop
    vertex 5 1.15 0.575
    vertex 4.753333333333333 1.15 0.9
    vertex 4.506666666666667 1.15 0.575
  endloop
endfacet
facet normal 0 -1 0
  outer loop
    vertex 4.753333333333333 1.15 0.25
    vertex 5.246666666666667 1.15 0.25
    vertex 5 1.15 0.575
  endloop
endfacet
facet normal -0 -1 0
  outer loop
    vertex 5.246666666666667 1.15 0.9
    vertex 4.753333333333333 1.15 0.9
    vertex 5 1.15 0.575
  endloop
endfacet
facet normal 0 -1 -0
  outer loop
    vertex 5.246666666666667 1.15 0.9
    vertex 5 1.15 0.575
    vertex 5.493333333333333 1.15 0.575
  endloop
endfacet
facet normal 0 -1 0
  outer loop
    vertex 4.753333333333333 1.15 0.25
    vertex 5 1.15 0.575
    vertex 4.506666666666667 1.15 0.575
  endloop
endfacet
facet normal -0 -1 0
  outer loop
    vertex 5.74 1.15 0.9
    vertex 5.246666666666667 1.15 0.9
    vertex 5.493333333333333 1.15 0.575
  endloop
endfacet
facet normal 0 -1 0
  outer loop
    vertex 4.26 1.15 0.25
    vertex 4.753333333333333 1.15 0.25
    vertex 4.506666666666667 1.15 0.575
  endloop
endfacet
facet normal 0 -1 0
  outer loop
    vertex 5 1.15 0.575
    vertex 5.246666666666667 1.15 0.25
    vertex 5.493333333333333 1.15 0.575
  endloop
endfacet
facet normal 0 -1 0
  outer loop
    vertex 5.493333333333333 1.15 0.575
    vertex 5.74 1.15 0.25
    vertex 5.903645370954045 1.15 0.575
  endloop
endfacet
facet normal 0 -1 0
  outer loop
    vertex 4.506666666666667 1.15 0.575
    vertex 4.26 1.15 0.9
    vertex 4.096354629045956 1.15 0.575
  endloop
endfacet
facet normal 0 -1 -0
  outer loop
    vertex 5.74 1.15 0.9
    vertex 5.493333333333333 1.15 0.575
    vertex 5.903645370954045 1.15 0.575
  endloop
endfacet
facet normal 0 -1 0
  outer loop
    vertex 4.26 1.15 0.25
    vertex 4.506666666666667 1.15 0.575
    vertex 4.096354629045956 1.15 0.575
  endloop
endfacet
facet normal 0 1 0
  outer loop
    vertex 3.766666666666667 3.616666666666667 0.9
    vertex 4.096354629045956 3.616666666666667 0.575
    vertex 3.766666666666667 3.616666666666667 0.5750000000000002
  endloop
endfacet
facet normal 0 1 0
  outer loop
    vertex 3.766666666666667 3.616666666666667 0.5750000000000002
    vertex 4.096354629045956 3.616666666666667 0.575
    vertex 3.766666666666667 3.616666666666667 0.25
  endloop
endfacet
facet normal 0 1 -0
  outer loop
    vertex 6.233333333333333 3.616666666666667 0.25
    vertex 5.903645370954045 3.616666666666667 0.575
    vertex 6.233333333333333 3.616666666666667 0.5750000000000002
  endloop
endfacet
facet normal 0 1 -0
  outer loop
    vertex 6.233333333333333 3.616666666666667 0.5750000000000002
    vertex 5.903645370954045 3.616666666666667 0.575
    vertex 6.233333333333333 3.616666666666667 0.9
  endloop
endfacet
facet normal 0 1 0
  outer loop
    vertex 3.766666666666667 3.616666666666667 0.25
    vertex 4.096354629045956 3.616666666666667 0.575
    vertex 4.26 3.616666666666667 0.25
  endloop
endfacet
facet normal 0 1 0
  outer loop
    vertex 6.233333333333333 3.616666666666667 0.9
    vertex 5.903645370954045 3.616666666666667 0.575
    vertex 5.74 3.616666666666667 0.9
  endloop
endfacet
facet normal 0 1 0
  outer loop
    vertex 4.26 3.616666666666667 0.9
    vertex 4.096354629045956 3.616666666666667 0.575
    vertex 3.766666666666667 3.616666666666667 0.9
  endloop
endfacet
facet normal 0 1 0
  outer loop
    vertex 5.74 3.616666666666667 0.25
    vertex 5.903645370954045 3.616666666666667 0.575
    vertex 6.233333333333333 3.616666666666667 0.25
  endloop
endfacet
facet normal 0 1 0
  outer loop
    vertex 5.246666666666667 3.616666666666667 0.25
    vertex 5.493333333333333 3.616666666666667 0.5750000000000002
    vertex 5.74 3.616666666666667 0.25
  endloop
endfacet
facet normal 0 1 0
  outer loop
    vertex 4.753333333333333 3.616666666666667 0.9
    vertex 4.506666666666667 3.616666666666667 0.575
    vertex 4.26 3.616666666666667 0.9
  endloop
endfacet
facet normal 0 1 0
  outer loop
    vertex 5 3.616666666666667 0.5750000000000001
    vertex 4.506666666666667 3.616666666666667 0.575
    vertex 4.753333333333333 3.616666666666667 0.9
  endloop
endfacet
facet normal 0 1 0
  outer loop
    vertex 4.753333333333333 3.616666666666667 0.25
    vertex 5 3.616666666666667 0.5750000000000001
    vertex 5.246666666666667 3.616666666666667 0.25
  endloop
endfacet
facet normal 0 1 0
  outer loop
    vertex 5.246666666666667 3.616666666666667 0.9
    vertex 5 3.616666666666667 0.5750000000000001
    vertex 4.753333333333333 3.616666666666667 0.9
  endloop
endfacet
facet normal 0 1 -0
  outer loop
    vertex 4.753333333333333 3.616666666666667 0.25
    vertex 4.506666666666667 3.616666666666667 0.575
    vertex 5 3.616666666666667 0.5750000000000001
  endloop
endfacet
facet normal 0 1 0
  outer loop
    vertex 5.246666666666667 3.616666666666667 0.9
    vertex 5.493333333333333 3.616666666666667 0.5750000000000002
    vertex 5 3.616666666666667 0.5750000000000001
  endloop
endfacet
facet normal 0 1 0
  outer loop
    vertex 4.26 3.616666666666667 0.25
    vertex 4.506666666666667 3.616666666666667 0.575
    vertex 4.753333333333333 3.616666666666667 0.25
  endloop
endfacet
facet normal -0 1 0
  outer loop
    vertex 5 3.616666666666667 0.5750000000000001
    vertex 5.493333333333333 3.616666666666667 0.5750000000000002
    vertex 5.246666666666667 3.616666666666667 0.25
  endloop
endfacet
facet normal 0 1 0
  outer loop
    vertex 5.74 3.616666666666667 0.9
    vertex 5.493333333333333 3.616666666666667 0.5750000000000002
    vertex 5.246666666666667 3.616666666666667 0.9
  endloop
endfacet
facet normal 0 1 0
  outer loop
    vertex 4.506666666666667 3.616666666666667 0.575
    vertex 4.096354629045956 3.616666666666667 0.575
    vertex 4.26 3.616666666666667 0.9
  endloop
endfacet
facet normal 0 1 0
  outer loop
    vertex 5.493333333333333 3.616666666666667 0.5750000000000002
    vertex 5.903645370954045 3.616666666666667 0.575
    vertex 5.74 3.616666666666667 0.25
  endloop
endfacet
facet normal 0 1 0
  outer loop
    vertex 5.74 3.616666666666667 0.9
    vertex 5.903645370954045 3.616666666666667 0.575
    vertex 5.493333333333333 3.616666666666667 0.5750000000000002
  endloop
endfacet
facet normal 0 1 -0
  outer loop
    vertex 4.26 3.616666666666667 0.25
    vertex 4.096354629045956 3.616666666666667 0.575
    vertex 4.506666666666667 3.616666666666667 0.575
  endloop
endfacet
facet normal 0 0 -1
  outer loop
    vertex 4.743839137721737 1.962156036825964 0.25
    vertex 4.508512202881779 1.567599482885953 0.25
    vertex 4.230510748264522 1.929731245438178 0.25
  endloop
endfacet
facet normal 0 0 -1
  outer loop
    vertex 4.557069621338926 2.655825970837219 0.25
    vertex 4.551263297779979 3.144050052959962 0.25
    vertex 4.924884325211981 2.810572532533655 0.25
  endloop
endfacet
facet normal 0 0 -1
  outer loop
    vertex 5.247182167349156 1.950349018260321 0.25
    vertex 5.776513791619694 1.916321638754484 0.25
    vertex 5.479753145313206 1.542121172047081 0.25
  endloop
endfacet
facet normal 0 0 -1
  outer loop
    vertex 4.166191272860771 2.861397508640714 0.25
    vertex 4.551263297779979 3.144050052959962 0.25
    vertex 4.557069621338926 2.655825970837219 0.25
  endloop
endfacet
facet normal -0 0 -1
  outer loop
    vertex 4.743839137721737 1.962156036825964 0.25
    vertex 4.230510748264522 1.929731245438178 0.25
    vertex 4.531949446937021 2.280037299734033 0.25
  endloop
endfacet
facet normal 0 0 -1
  outer loop
    vertex 5.776513791619694 1.916321638754484 0.25
    vertex 5.247182167349156 1.950349018260321 0.25
    vertex 5.463777280753634 2.276391684338816 0.25
  endloop
endfacet
facet normal 0 -0 -1
  outer loop
    vertex 5.493140490306802 3.250951111985658 0.25
    vertex 5.761227075351116 2.890044632670137 0.25
    vertex 5.269415471585441 2.943823476856479 0.25
  endloop
endfacet
facet normal -0 0 -1
  outer loop
    vertex 5.761227075351116 2.890044632670137 0.25
    vertex 5.404933066071912 2.628624452011378 0.25
    vertex 5.269415471585441 2.943823476856479 0.25
  endloop
endfacet
facet normal 0 0 -1
  outer loop
    vertex 4.551263297779979 3.144050052959962 0.25
    vertex 5.029258694855338 3.226734000464013 0.25
    vertex 4.924884325211981 2.810572532533655 0.25
  endloop
endfacet
facet normal 0 0 -1
  outer loop
    vertex 4.753333333333333 1.15 0.25
    vertex 4.26 1.15 0.25
    vertex 4.508512202881779 1.567599482885953 0.25
  endloop
endfacet
facet normal -0 0 -1
  outer loop
    vertex 4.995967977977697 1.574911310200368 0.25
    vertex 4.508512202881779 1.567599482885953 0.25
    vertex 4.743839137721737 1.962156036825964 0.25
  endloop
endfacet
facet normal 0 0 -1
  outer loop
    vertex 4.26 3.616666666666667 0.25
    vertex 4.753333333333333 3.616666666666667 0.25
    vertex 4.551263297779979 3.144050052959962 0.25
  endloop
endfacet
facet normal 0 0 -1
  outer loop
    vertex 4.753333333333333 3.616666666666667 0.25
    vertex 5.246666666666667 3.616666666666667 0.25
    vertex 5.029258694855338 3.226734000464013 0.25
  endloop
endfacet
facet normal 0 0 -1
  outer loop
    vertex 5.246666666666667 3.616666666666667 0.25
    vertex 5.74 3.616666666666667 0.25
    vertex 5.493140490306802 3.250951111985658 0.25
  endloop
endfacet
facet normal 0 0 -1
  outer loop
    vertex 5.247182167349156 1.950349018260321 0.25
    vertex 4.743839137721737 1.962156036825964 0.25
    vertex 5.000000000000001 2.431717597600969 0.25
  endloop
endfacet
facet normal 0 0 -1
  outer loop
    vertex 5.246666666666667 1.15 0.25
    vertex 4.753333333333333 1.15 0.25
    vertex 4.995967977977697 1.574911310200368 0.25
  endloop
endfacet
facet normal 0 -0 -1
  outer loop
    vertex 4.753333333333333 3.616666666666667 0.25
    vertex 5.029258694855338 3.226734000464013 0.25
    vertex 4.551263297779979 3.144050052959962 0.25
  endloop
endfacet
facet normal 0 -0 -1
  outer loop
    vertex 6.233333333333333 2.63 0.25
    vertex 6.233333333333333 2.136666666666667 0.25
    vertex 5.829542725756239 2.40314881153168 0.25
  endloop
endfacet
facet normal 0 0 -1
  outer loop
    vertex 3.766666666666667 2.136666666666667 0.25
    vertex 3.766666666666667 2.63 0.25
    vertex 4.168129385243805 2.407180833553983 0.25
  endloop
endfacet
facet normal 0 -0 -1
  outer loop
    vertex 6.233333333333333 2.136666666666667 0.25
    vertex 6.233333333333333 1.643333333333333 0.25
    vertex 5.776513791619694 1.916321638754484 0.25
  endloop
endfacet
facet normal 0 0 -1
  outer loop
    vertex 5.029258694855338 3.226734000464013 0.25
    vertex 5.246666666666667 3.616666666666667 0.25
    vertex 5.493140490306802 3.250951111985658 0.25
  endloop
endfacet
facet normal 0 0 -1
  outer loop
    vertex 4.995967977977697 1.574911310200368 0.25
    vertex 4.743839137721737 1.962156036825964 0.25
    vertex 5.247182167349156 1.950349018260321 0.25
  endloop
endfacet
facet normal 0 -0 -1
  outer loop
    vertex 5.829542725756239 2.40314881153168 0.25
    vertex 6.233333333333333 2.136666666666667 0.25
    vertex 5.776513791619694 1.916321638754484 0.25
  endloop
endfacet
facet normal 0 0 -1
  outer loop
    vertex 4.995967977977697 1.574911310200368 0.25
    vertex 4.753333333333333 1.15 0.25
    vertex 4.508512202881779 1.567599482885953 0.25
  endloop
endfacet
facet normal 0 0 -1
  outer loop
    vertex 5.74 1.15 0.25
    vertex 5.246666666666667 1.15 0.25
    vertex 5.479753145313206 1.542121172047081 0.25
  endloop
endfacet
facet normal 0 0 -1
  outer loop
    vertex 4.995967977977697 1.574911310200368 0.25
    vertex 5.247182167349156 1.950349018260321 0.25
    vertex 5.479753145313206 1.542121172047081 0.25
  endloop
endfacet
facet normal 0 0 -1
  outer loop
    vertex 3.766666666666667 1.643333333333333 0.25
    vertex 3.766666666666667 2.136666666666667 0.25
    vertex 4.230510748264522 1.929731245438178 0.25
  endloop
endfacet
facet normal 0 0 -1
  outer loop
    vertex 3.766666666666667 2.63 0.25
    vertex 3.766666666666667 3.123333333333334 0.25
    vertex 4.166191272860771 2.861397508640714 0.25
  endloop
endfacet
facet normal 0 -0 -1
  outer loop
    vertex 6.233333333333333 3.123333333333334 0.25
    vertex 6.233333333333333 2.63 0.25
    vertex 5.761227075351116 2.890044632670137 0.25
  endloop
endfacet
facet normal 0 0 -1
  outer loop
    vertex 3.766666666666667 2.136666666666667 0.25
    vertex 4.168129385243805 2.407180833553983 0.25
    vertex 4.230510748264522 1.929731245438178 0.25
  endloop
endfacet
facet normal -0 0 -1
  outer loop
    vertex 6.233333333333333 2.63 0.25
    vertex 5.829542725756239 2.40314881153168 0.25
    vertex 5.761227075351116 2.890044632670137 0.25
  endloop
endfacet
facet normal 0 0 -1
  outer loop
    vertex 5.246666666666667 1.15 0.25
    vertex 4.995967977977697 1.574911310200368 0.25
    vertex 5.479753145313206 1.542121172047081 0.25
  endloop
endfacet
facet normal 0 0 -1
  outer loop
    vertex 4.168129385243805 2.407180833553983 0.25
    vertex 3.766666666666667 2.63 0.25
    vertex 4.166191272860771 2.861397508640714 0.25
  endloop
endfacet
facet normal 0 0 -1
  outer loop
    vertex 4.26 1.15 0.25
    vertex 3.766666666666667 1.15 0.25
    vertex 4.12781173173398 1.511145065067313 0.25
  endloop
endfacet
facet normal 0 0 -1
  outer loop
    vertex 6.233333333333333 1.15 0.25
    vertex 5.74 1.15 0.25
    vertex 5.87218826826602 1.511145065067313 0.25
  endloop
endfacet
facet normal 0 0 -1
  outer loop
    vertex 5.74 3.616666666666667 0.25
    vertex 6.233333333333333 3.616666666666667 0.25
    vertex 5.87218826826602 3.255521601599354 0.25
  endloop
endfacet
facet normal 0 -0 -1
  outer loop
    vertex 6.233333333333333 1.643333333333333 0.25
    vertex 6.233333333333333 1.15 0.25
    vertex 5.87218826826602 1.511145065067313 0.25
  endloop
endfacet
facet normal 0 0 -1
  outer loop
    vertex 3.766666666666667 1.15 0.25
    vertex 3.766666666666667 1.643333333333333 0.25
    vertex 4.12781173173398 1.511145065067313 0.25
  endloop
endfacet
facet normal 0 0 -1
  outer loop
    vertex 3.766666666666667 3.616666666666667 0.25
    vertex 4.26 3.616666666666667 0.25
    vertex 4.12781173173398 3.255521601599355 0.25
  endloop
endfacet
facet normal 0 0 -1
  outer loop
    vertex 3.766666666666667 3.123333333333334 0.25
    vertex 3.766666666666667 3.616666666666667 0.25
    vertex 4.12781173173398 3.255521601599355 0.25
  endloop
endfacet
facet normal 0 -0 -1
  outer loop
    vertex 6.233333333333333 3.616666666666667 0.25
    vertex 6.233333333333333 3.123333333333334 0.25
    vertex 5.87218826826602 3.255521601599354 0.25
  endloop
endfacet
facet normal -0 0 -1
  outer loop
    vertex 5.404933066071912 2.628624452011378 0.25
    vertex 5.000000000000001 2.431717597600969 0.25
    vertex 4.924884325211981 2.810572532533655 0.25
  endloop
endfacet
facet normal 0 0 -1
  outer loop
    vertex 5.829542725756239 2.40314881153168 0.25
    vertex 5.776513791619694 1.916321638754484 0.25
    vertex 5.463777280753634 2.276391684338816 0.25
  endloop
endfacet
facet normal 0 0 -1
  outer loop
    vertex 4.168129385243805 2.407180833553983 0.25
    vertex 4.166191272860771 2.861397508640714 0.25
    vertex 4.557069621338926 2.655825970837219 0.25
  endloop
endfacet
facet normal 0 -0 -1
  outer loop
    vertex 5.761227075351116 2.890044632670137 0.25
    vertex 5.829542725756239 2.40314881153168 0.25
    vertex 5.404933066071912 2.628624452011378 0.25
  endloop
endfacet
facet normal 0 0 -1
  outer loop
    vertex 5.000000000000001 2.431717597600969 0.25
    vertex 4.743839137721737 1.962156036825964 0.25
    vertex 4.531949446937021 2.280037299734033 0.25
  endloop
endfacet
facet normal 0 0 -1
  outer loop
    vertex 5.247182167349156 1.950349018260321 0.25
    vertex 5.000000000000001 2.431717597600969 0.25
    vertex 5.463777280753634 2.276391684338816 0.25
  endloop
endfacet
facet normal 0 0 -1
  outer loop
    vertex 5.404933066071912 2.628624452011378 0.25
    vertex 4.924884325211981 2.810572532533655 0.25
    vertex 5.269415471585441 2.943823476856479 0.25
  endloop
endfacet
facet normal 0 0 -1
  outer loop
    vertex 4.230510748264522 1.929731245438178 0.25
    vertex 4.168129385243805 2.407180833553983 0.25
    vertex 4.531949446937021 2.280037299734033 0.25
  endloop
endfacet
facet normal 0 -0 -1
  outer loop
    vertex 4.557069621338926 2.655825970837219 0.25
    vertex 5.000000000000001 2.431717597600969 0.25
    vertex 4.531949446937021 2.280037299734033 0.25
  endloop
endfacet
facet normal 0 0 -1
  outer loop
    vertex 5.000000000000001 2.431717597600969 0.25
    vertex 5.404933066071912 2.628624452011378 0.25
    vertex 5.463777280753634 2.276391684338816 0.25
  endloop
endfacet
facet normal 0 0 -1
  outer loop
    vertex 3.766666666666667 1.643333333333333 0.25
    vertex 4.230510748264522 1.929731245438178 0.25
    vertex 4.12781173173398 1.511145065067313 0.25
  endloop
endfacet
facet normal -0 0 -1
  outer loop
    vertex 6.233333333333333 3.123333333333334 0.25
    vertex 5.761227075351116 2.890044632670137 0.25
    vertex 5.87218826826602 3.255521601599354 0.25
  endloop
endfacet
facet normal 0 0 -1
  outer loop
    vertex 5.74 1.15 0.25
    vertex 5.479753145313206 1.542121172047081 0.25
    vertex 5.87218826826602 1.511145065067313 0.25
  endloop
endfacet
facet normal 0 0 -1
  outer loop
    vertex 4.166191272860771 2.861397508640714 0.25
    vertex 3.766666666666667 3.123333333333334 0.25
    vertex 4.12781173173398 3.255521601599355 0.25
  endloop
endfacet
facet normal 0 -0 -1
  outer loop
    vertex 4.26 3.616666666666667 0.25
    vertex 4.551263297779979 3.144050052959962 0.25
    vertex 4.12781173173398 3.255521601599355 0.25
  endloop
endfacet
facet normal 0 0 -1
  outer loop
    vertex 5.493140490306802 3.250951111985658 0.25
    vertex 5.74 3.616666666666667 0.25
    vertex 5.87218826826602 3.255521601599354 0.25
  endloop
endfacet
facet normal 0 0 -1
  outer loop
    vertex 4.508512202881779 1.567599482885953 0.25
    vertex 4.26 1.15 0.25
    vertex 4.12781173173398 1.511145065067313 0.25
  endloop
endfacet
facet normal 0 0 -1
  outer loop
    vertex 5.776513791619694 1.916321638754484 0.25
    vertex 6.233333333333333 1.643333333333333 0.25
    vertex 5.87218826826602 1.511145065067313 0.25
  endloop
endfacet
facet normal 0 0 -1
  outer loop
    vertex 5.029258694855338 3.226734000464013 0.25
    vertex 5.493140490306802 3.250951111985658 0.25
    vertex 5.269415471585441 2.943823476856479 0.25
  endloop
endfacet
facet normal 0 0 -1
  outer loop
    vertex 5.761227075351116 2.890044632670137 0.25
    vertex 5.493140490306802 3.250951111985658 0.25
    vertex 5.87218826826602 3.255521601599354 0.25
  endloop
endfacet
facet normal 0 -0 -1
  outer loop
    vertex 4.230510748264522 1.929731245438178 0.25
    vertex 4.508512202881779 1.567599482885953 0.25
    vertex 4.12781173173398 1.511145065067313 0.25
  endloop
endfacet
facet normal -0 0 -1
  outer loop
    vertex 4.551263297779979 3.144050052959962 0.25
    vertex 4.166191272860771 2.861397508640714 0.25
    vertex 4.12781173173398 3.255521601599355 0.25
  endloop
endfacet
facet normal 0 0 -1
  outer loop
    vertex 5.479753145313206 1.542121172047081 0.25
    vertex 5.776513791619694 1.916321638754484 0.25
    vertex 5.87218826826602 1.511145065067313 0.25
  endloop
endfacet
facet normal 0 0 -1
  outer loop
    vertex 5.000000000000001 2.431717597600969 0.25
    vertex 4.557069621338926 2.655825970837219 0.25
    vertex 4.924884325211981 2.810572532533655 0.25
  endloop
endfacet
facet normal 0 0 -1
  outer loop
    vertex 4.168129385243805 2.407180833553983 0.25
    vertex 4.557069621338926 2.655825970837219 0.25
    vertex 4.531949446937021 2.280037299734033 0.25
  endloop
endfacet
facet normal 0 0 -1
  outer loop
    vertex 5.404933066071912 2.628624452011378 0.25
    vertex 5.829542725756239 2.40314881153168 0.25
    vertex 5.463777280753634 2.276391684338816 0.25
  endloop
endfacet
facet normal 0 0 -1
  outer loop
    vertex 4.924884325211981 2.810572532533655 0.25
    vertex 5.029258694855338 3.226734000464013 0.25
    vertex 5.269415471585441 2.943823476856479 0.25
  endloop
endfacet
facet normal 0 0 1
  outer loop
    vertex 4.743839137721737 1.962156036825964 0.9
    vertex 4.230510748264522 1.929731245438178 0.9
    vertex 4.508512202881779 1.567599482885953 0.9
  endloop
endfacet
facet normal 0 -0 1
  outer loop
    vertex 4.557069621338926 2.655825970837219 0.9
    vertex 4.924884325211981 2.810572532533655 0.9
    vertex 4.551263297779979 3.144050052959962 0.9
  endloop
endfacet
facet normal 0 0 1
  outer loop
    vertex 5.247182167349156 1.950349018260321 0.9
    vertex 5.479753145313206 1.542121172047081 0.9
    vertex 5.776513791619694 1.916321638754484 0.9
  endloop
endfacet
facet normal -0 0 1
  outer loop
    vertex 4.166191272860771 2.861397508640714 0.9
    vertex 4.557069621338926 2.655825970837219 0.9
    vertex 4.551263297779979 3.144050052959962 0.9
  endloop
endfacet
facet normal 0 0 1
  outer loop
    vertex 4.743839137721737 1.962156036825964 0.9
    vertex 4.531949446937021 2.280037299734033 0.9
    vertex 4.230510748264522 1.929731245438178 0.9
  endloop
endfacet
facet normal 0 0 1
  outer loop
    vertex 5.776513791619694 1.916321638754484 0.9
    vertex 5.463777280753634 2.276391684338816 0.9
    vertex 5.247182167349156 1.950349018260321 0.9
  endloop
endfacet
facet normal 0 0 1
  outer loop
    vertex 5.493140490306802 3.250951111985658 0.9
    vertex 5.269415471585441 2.943823476856479 0.9
    vertex 5.761227075351116 2.890044632670137 0.9
  endloop
endfacet
facet normal 0 0 1
  outer loop
    vertex 5.761227075351116 2.890044632670137 0.9
    vertex 5.269415471585441 2.943823476856479 0.9
    vertex 5.404933066071912 2.628624452011378 0.9
  endloop
endfacet
facet normal -0 0 1
  outer loop
    vertex 4.551263297779979 3.144050052959962 0.9
    vertex 4.924884325211981 2.810572532533655 0.9
    vertex 5.029258694855338 3.226734000464013 0.9
  endloop
endfacet
facet normal 0 0 1
  outer loop
    vertex 4.753333333333333 1.15 0.9
    vertex 4.508512202881779 1.567599482885953 0.9
    vertex 4.26 1.15 0.9
  endloop
endfacet
facet normal 0 0 1
  outer loop
    vertex 4.995967977977697 1.574911310200368 0.9
    vertex 4.743839137721737 1.962156036825964 0.9
    vertex 4.508512202881779 1.567599482885953 0.9
  endloop
endfacet
facet normal -0 0 1
  outer loop
    vertex 4.26 3.616666666666667 0.9
    vertex 4.551263297779979 3.144050052959962 0.9
    vertex 4.753333333333333 3.616666666666667 0.9
  endloop
endfacet
facet normal -0 0 1
  outer loop
    vertex 4.753333333333333 3.616666666666667 0.9
    vertex 5.029258694855338 3.226734000464013 0.9
    vertex 5.246666666666667 3.616666666666667 0.9
  endloop
endfacet
facet normal -0 0 1
  outer loop
    vertex 5.246666666666667 3.616666666666667 0.9
    vertex 5.493140490306802 3.250951111985658 0.9
    vertex 5.74 3.616666666666667 0.9
  endloop
endfacet
facet normal 0 0 1
  outer loop
    vertex 5.247182167349156 1.950349018260321 0.9
    vertex 5.000000000000001 2.431717597600969 0.9
    vertex 4.743839137721737 1.962156036825964 0.9
  endloop
endfacet
facet normal 0 0 1
  outer loop
    vertex 5.246666666666667 1.15 0.9
    vertex 4.995967977977697 1.574911310200368 0.9
    vertex 4.753333333333333 1.15 0.9
  endloop
endfacet
facet normal 0 0 1
  outer loop
    vertex 4.753333333333333 3.616666666666667 0.9
    vertex 4.551263297779979 3.144050052959962 0.9
    vertex 5.029258694855338 3.226734000464013 0.9
  endloop
endfacet
facet normal 0 0 1
  outer loop
    vertex 6.233333333333333 2.63 0.9
    vertex 5.829542725756239 2.40314881153168 0.9
    vertex 6.233333333333333 2.136666666666667 0.9
  endloop
endfacet
facet normal 0 0 1
  outer loop
    vertex 3.766666666666667 2.136666666666667 0.9
    vertex 4.168129385243805 2.407180833553983 0.9
    vertex 3.766666666666667 2.63 0.9
  endloop
endfacet
facet normal 0 0 1
  outer loop
    vertex 6.233333333333333 2.136666666666667 0.9
    vertex 5.776513791619694 1.916321638754484 0.9
    vertex 6.233333333333333 1.643333333333333 0.9
  endloop
endfacet
facet normal 0 0 1
  outer loop
    vertex 5.029258694855338 3.226734000464013 0.9
    vertex 5.493140490306802 3.250951111985658 0.9
    vertex 5.246666666666667 3.616666666666667 0.9
  endloop
endfacet
facet normal 0 -0 1
  outer loop
    vertex 4.995967977977697 1.574911310200368 0.9
    vertex 5.247182167349156 1.950349018260321 0.9
    vertex 4.743839137721737 1.962156036825964 0.9
  endloop
endfacet
facet normal 0 0 1
  outer loop
    vertex 5.829542725756239 2.40314881153168 0.9
    vertex 5.776513791619694 1.916321638754484 0.9
    vertex 6.233333333333333 2.136666666666667 0.9
  endloop
endfacet
facet normal 0 0 1
  outer loop
    vertex 4.995967977977697 1.574911310200368 0.9
    vertex 4.508512202881779 1.567599482885953 0.9
    vertex 4.753333333333333 1.15 0.9
  endloop
endfacet
facet normal 0 0 1
  outer loop
    vertex 5.74 1.15 0.9
    vertex 5.479753145313206 1.542121172047081 0.9
    vertex 5.246666666666667 1.15 0.9
  endloop
endfacet
facet normal -0 0 1
  outer loop
    vertex 4.995967977977697 1.574911310200368 0.9
    vertex 5.479753145313206 1.542121172047081 0.9
    vertex 5.247182167349156 1.950349018260321 0.9
  endloop
endfacet
facet normal 0 0 1
  outer loop
    vertex 3.766666666666667 1.643333333333333 0.9
    vertex 4.230510748264522 1.929731245438178 0.9
    vertex 3.766666666666667 2.136666666666667 0.9
  endloop
endfacet
facet normal 0 0 1
  outer loop
    vertex 3.766666666666667 2.63 0.9
    vertex 4.166191272860771 2.861397508640714 0.9
    vertex 3.766666666666667 3.123333333333334 0.9
  endloop
endfacet
facet normal 0 0 1
  outer loop
    vertex 6.233333333333333 3.123333333333334 0.9
    vertex 5.761227075351116 2.890044632670137 0.9
    vertex 6.233333333333333 2.63 0.9
  endloop
endfacet
facet normal -0 0 1
  outer loop
    vertex 3.766666666666667 2.136666666666667 0.9
    vertex 4.230510748264522 1.929731245438178 0.9
    vertex 4.168129385243805 2.407180833553983 0.9
  endloop
endfacet
facet normal 0 0 1
  outer loop
    vertex 6.233333333333333 2.63 0.9
    vertex 5.761227075351116 2.890044632670137 0.9
    vertex 5.829542725756239 2.40314881153168 0.9
  endloop
endfacet
facet normal 0 -0 1
  outer loop
    vertex 5.246666666666667 1.15 0.9
    vertex 5.479753145313206 1.542121172047081 0.9
    vertex 4.995967977977697 1.574911310200368 0.9
  endloop
endfacet
facet normal 0 0 1
  outer loop
    vertex 4.168129385243805 2.407180833553983 0.9
    vertex 4.166191272860771 2.861397508640714 0.9
    vertex 3.766666666666667 2.63 0.9
  endloop
endfacet
facet normal 0 0 1
  outer loop
    vertex 4.26 1.15 0.9
    vertex 4.12781173173398 1.511145065067313 0.9
    vertex 3.766666666666667 1.15 0.9
  endloop
endfacet
facet normal 0 0 1
  outer loop
    vertex 6.233333333333333 1.15 0.9
    vertex 5.87218826826602 1.511145065067313 0.9
    vertex 5.74 1.15 0.9
  endloop
endfacet
facet normal -0 0 1
  outer loop
    vertex 5.74 3.616666666666667 0.9
    vertex 5.87218826826602 3.255521601599354 0.9
    vertex 6.233333333333333 3.616666666666667 0.9
  endloop
endfacet
facet normal 0 0 1
  outer loop
    vertex 6.233333333333333 1.643333333333333 0.9
    vertex 5.87218826826602 1.511145065067313 0.9
    vertex 6.233333333333333 1.15 0.9
  endloop
endfacet
facet normal 0 0 1
  outer loop
    vertex 3.766666666666667 1.15 0.9
    vertex 4.12781173173398 1.511145065067313 0.9
    vertex 3.766666666666667 1.643333333333333 0.9
  endloop
endfacet
facet normal -0 0 1
  outer loop
    vertex 3.766666666666667 3.616666666666667 0.9
    vertex 4.12781173173398 3.255521601599355 0.9
    vertex 4.26 3.616666666666667 0.9
  endloop
endfacet
facet normal 0 0 1
  outer loop
    vertex 3.766666666666667 3.123333333333334 0.9
    vertex 4.12781173173398 3.255521601599355 0.9
    vertex 3.766666666666667 3.616666666666667 0.9
  endloop
endfacet
facet normal 0 0 1
  outer loop
    vertex 6.233333333333333 3.616666666666667 0.9
    vertex 5.87218826826602 3.255521601599354 0.9
    vertex 6.233333333333333 3.123333333333334 0.9
  endloop
endfacet
facet normal 0 0 1
  outer loop
    vertex 5.404933066071912 2.628624452011378 0.9
    vertex 4.924884325211981 2.810572532533655 0.9
    vertex 5.000000000000001 2.431717597600969 0.9
  endloop
endfacet
facet normal 0 0 1
  outer loop
    vertex 5.829542725756239 2.40314881153168 0.9
    vertex 5.463777280753634 2.276391684338816 0.9
    vertex 5.776513791619694 1.916321638754484 0.9
  endloop
endfacet
facet normal 0 -0 1
  outer loop
    vertex 4.168129385243805 2.407180833553983 0.9
    vertex 4.557069621338926 2.655825970837219 0.9
    vertex 4.166191272860771 2.861397508640714 0.9
  endloop
endfacet
facet normal 0 0 1
  outer loop
    vertex 5.761227075351116 2.890044632670137 0.9
    vertex 5.404933066071912 2.628624452011378 0.9
    vertex 5.829542725756239 2.40314881153168 0.9
  endloop
endfacet
facet normal 0 0 1
  outer loop
    vertex 5.000000000000001 2.431717597600969 0.9
    vertex 4.531949446937021 2.280037299734033 0.9
    vertex 4.743839137721737 1.962156036825964 0.9
  endloop
endfacet
facet normal 0 -0 1
  outer loop
    vertex 5.247182167349156 1.950349018260321 0.9
    vertex 5.463777280753634 2.276391684338816 0.9
    vertex 5.000000000000001 2.431717597600969 0.9
  endloop
endfacet
facet normal 0 0 1
  outer loop
    vertex 5.404933066071912 2.628624452011378 0.9
    vertex 5.269415471585441 2.943823476856479 0.9
    vertex 4.924884325211981 2.810572532533655 0.9
  endloop
endfacet
facet normal 0 -0 1
  outer loop
    vertex 4.230510748264522 1.929731245438178 0.9
    vertex 4.531949446937021 2.280037299734033 0.9
    vertex 4.168129385243805 2.407180833553983 0.9
  endloop
endfacet
facet normal 0 0 1
  outer loop
    vertex 4.557069621338926 2.655825970837219 0.9
    vertex 4.531949446937021 2.280037299734033 0.9
    vertex 5.000000000000001 2.431717597600969 0.9
  endloop
endfacet
facet normal -0 0 1
  outer loop
    vertex 5.000000000000001 2.431717597600969 0.9
    vertex 5.463777280753634 2.276391684338816 0.9
    vertex 5.404933066071912 2.628624452011378 0.9
  endloop
endfacet
facet normal -0 0 1
  outer loop
    vertex 3.766666666666667 1.643333333333333 0.9
    vertex 4.12781173173398 1.511145065067313 0.9
    vertex 4.230510748264522 1.929731245438178 0.9
  endloop
endfacet
facet normal 0 0 1
  outer loop
    vertex 6.233333333333333 3.123333333333334 0.9
    vertex 5.87218826826602 3.255521601599354 0.9
    vertex 5.761227075351116 2.890044632670137 0.9
  endloop
endfacet
facet normal 0 -0 1
  outer loop
    vertex 5.74 1.15 0.9
    vertex 5.87218826826602 1.511145065067313 0.9
    vertex 5.479753145313206 1.542121172047081 0.9
  endloop
endfacet
facet normal 0 0 1
  outer loop
    vertex 4.166191272860771 2.861397508640714 0.9
    vertex 4.12781173173398 3.255521601599355 0.9
    vertex 3.766666666666667 3.123333333333334 0.9
  endloop
endfacet
facet normal 0 0 1
  outer loop
    vertex 4.26 3.616666666666667 0.9
    vertex 4.12781173173398 3.255521601599355 0.9
    vertex 4.551263297779979 3.144050052959962 0.9
  endloop
endfacet
facet normal 0 0 1
  outer loop
    vertex 5.493140490306802 3.250951111985658 0.9
    vertex 5.87218826826602 3.255521601599354 0.9
    vertex 5.74 3.616666666666667 0.9
  endloop
endfacet
facet normal 0 0 1
  outer loop
    vertex 4.508512202881779 1.567599482885953 0.9
    vertex 4.12781173173398 1.511145065067313 0.9
    vertex 4.26 1.15 0.9
  endloop
endfacet
facet normal 0 0 1
  outer loop
    vertex 5.776513791619694 1.916321638754484 0.9
    vertex 5.87218826826602 1.511145065067313 0.9
    vertex 6.233333333333333 1.643333333333333 0.9
  endloop
endfacet
facet normal -0 0 1
  outer loop
    vertex 5.029258694855338 3.226734000464013 0.9
    vertex 5.269415471585441 2.943823476856479 0.9
    vertex 5.493140490306802 3.250951111985658 0.9
  endloop
endfacet
facet normal 0 -0 1
  outer loop
    vertex 5.761227075351116 2.890044632670137 0.9
    vertex 5.87218826826602 3.255521601599354 0.9
    vertex 5.493140490306802 3.250951111985658 0.9
  endloop
endfacet
facet normal 0 0 1
  outer loop
    vertex 4.230510748264522 1.929731245438178 0.9
    vertex 4.12781173173398 1.511145065067313 0.9
    vertex 4.508512202881779 1.567599482885953 0.9
  endloop
endfacet
facet normal 0 0 1
  outer loop
    vertex 4.551263297779979 3.144050052959962 0.9
    vertex 4.12781173173398 3.255521601599355 0.9
    vertex 4.166191272860771 2.861397508640714 0.9
  endloop
endfacet
facet normal -0 0 1
  outer loop
    vertex 5.479753145313206 1.542121172047081 0.9
    vertex 5.87218826826602 1.511145065067313 0.9
    vertex 5.776513791619694 1.916321638754484 0.9
  endloop
endfacet
facet normal 0 0 1
  outer loop
    vertex 5.000000000000001 2.431717597600969 0.9
    vertex 4.924884325211981 2.810572532533655 0.9
    vertex 4.557069621338926 2.655825970837219 0.9
  endloop
endfacet
facet normal -0 0 1
  outer loop
    vertex 4.168129385243805 2.407180833553983 0.9
    vertex 4.531949446937021 2.280037299734033 0.9
    vertex 4.557069621338926 2.655825970837219 0.9
  endloop
endfacet
facet normal 0 0 1
  outer loop
    vertex 5.404933066071912 2.628624452011378 0.9
    vertex 5.463777280753634 2.276391684338816 0.9
    vertex 5.829542725756239 2.40314881153168 0.9
  endloop
endfacet
facet normal 0 0 1
  outer loop
    vertex 4.924884325211981 2.810572532533655 0.9
    vertex 5.269415471585441 2.943823476856479 0.9
    vertex 5.029258694855338 3.226734000464013 0.9
  endloop
endfacet
endsolid Created by Gmsh
