solid Created by Gmsh
facet normal -1 0 -0
  outer loop
    vertex 3.766666666666667 8.850000000000001 0.9
    vertex 3.766666666666667 8.850000000000001 0.5750000000000002
    vertex 3.766666666666667 8.520312037620712 0.575
  endloop
endfacet
facet normal -1 0 0
  outer loop
    vertex 3.766666666666667 6.383333333333334 0.5750000000000002
    vertex 3.766666666666667 6.383333333333334 0.9
    vertex 3.766666666666667 6.713021295712623 0.5750000000000001
  endloop
endfacet
facet normal -1 0 0
  outer loop
    vertex 3.766666666666667 6.383333333333334 0.25
    vertex 3.766666666666667 6.383333333333334 0.5750000000000002
    vertex 3.766666666666667 6.713021295712623 0.5750000000000001
  endloop
endfacet
facet normal -1 0 -0
  outer loop
    vertex 3.766666666666667 8.850000000000001 0.5750000000000002
    vertex 3.766666666666667 8.850000000000001 0.25
    vertex 3.766666666666667 8.520312037620712 0.575
  endloop
endfacet
facet normal -1 0 0
  outer loop
    vertex 3.766666666666667 8.356666666666667 0.9
    vertex 3.766666666666667 8.850000000000001 0.9
    vertex 3.766666666666667 8.520312037620712 0.575
  endloop
endfacet
facet normal -1 0 0
  outer loop
    vertex 3.766666666666667 6.383333333333334 0.9
    vertex 3.766666666666667 6.876666666666667 0.9
    vertex 3.766666666666667 6.713021295712623 0.5750000000000001
  endloop
endfacet
facet normal -1 0 0
  outer loop
    vertex 3.766666666666667 6.876666666666667 0.25
    vertex 3.766666666666667 6.383333333333334 0.25
    vertex 3.766666666666667 6.713021295712623 0.5750000000000001
  endloop
endfacet
facet normal -1 0 0
  outer loop
    vertex 3.766666666666667 8.850000000000001 0.25
    vertex 3.766666666666667 8.356666666666667 0.25
    vertex 3.766666666666667 8.520312037620712 0.575
  endloop
endfacet
facet normal -1 0 0
  outer loop
    vertex 3.766666666666667 7.863333333333334 0.9
    vertex 3.766666666666667 8.356666666666667 0.9
    vertex 3.766666666666667 8.110000000000001 0.575
  endloop
endfacet
facet normal -1 0 0
  outer loop
    vertex 3.766666666666667 7.863333333333334 0.25
    vertex 3.766666666666667 7.370000000000001 0.25
    vertex 3.766666666666667 7.616666666666667 0.575
  endloop
endfacet
facet normal -1 0 0
  outer loop
    vertex 3.766666666666667 7.123333333333334 0.575
    vertex 3.766666666666667 7.370000000000001 0.9
    vertex 3.766666666666667 7.616666666666667 0.575
  endloop
endfacet
facet normal -1 0 0
  outer loop
    vertex 3.766666666666667 7.370000000000001 0.25
    vertex 3.766666666666667 7.123333333333334 0.575
    vertex 3.766666666666667 7.616666666666667 0.575
  endloop
endfacet
facet normal -1 0 0
  outer loop
    vertex 3.766666666666667 6.876666666666667 0.9
    vertex 3.766666666666667 7.370000000000001 0.9
    vertex 3.766666666666667 7.123333333333334 0.575
  endloop
endfacet
facet normal -1 0 0
  outer loop
    vertex 3.766666666666667 7.370000000000001 0.25
    vertex 3.766666666666667 6.876666666666667 0.25
    vertex 3.766666666666667 7.123333333333334 0.575
  endloop
endfacet
facet normal -1 0 0
  outer loop
    vertex 3.766666666666667 7.863333333333334 0.25
    vertex 3.766666666666667 7.616666666666667 0.575
    vertex 3.766666666666667 8.110000000000001 0.575
  endloop
endfacet
facet normal -1 0 0
  outer loop
    vertex 3.766666666666667 7.370000000000001 0.9
    vertex 3.766666666666667 7.863333333333334 0.9
    vertex 3.766666666666667 7.616666666666667 0.575
  endloop
endfacet
facet normal -1 0 0
  outer loop
    vertex 3.766666666666667 7.616666666666667 0.575
    vertex 3.766666666666667 7.863333333333334 0.9
    vertex 3.766666666666667 8.110000000000001 0.575
  endloop
endfacet
facet normal -1 0 0
  outer loop
    vertex 3.766666666666667 8.356666666666667 0.25
    vertex 3.766666666666667 7.863333333333334 0.25
    vertex 3.766666666666667 8.110000000000001 0.575
  endloop
endfacet
facet normal -1 -0 0
  outer loop
    vertex 3.766666666666667 7.123333333333334 0.575
    vertex 3.766666666666667 6.876666666666667 0.25
    vertex 3.766666666666667 6.713021295712623 0.5750000000000001
  endloop
endfacet
facet normal -1 0 0
  outer loop
    vertex 3.766666666666667 8.356666666666667 0.25
    vertex 3.766666666666667 8.110000000000001 0.575
    vertex 3.766666666666667 8.520312037620712 0.575
  endloop
endfacet
facet normal -1 0 0
  outer loop
    vertex 3.766666666666667 8.110000000000001 0.575
    vertex 3.766666666666667 8.356666666666667 0.9
    vertex 3.766666666666667 8.520312037620712 0.575
  endloop
endfacet
facet normal -1 0 -0
  outer loop
    vertex 3.766666666666667 6.876666666666667 0.9
    vertex 3.766666666666667 7.123333333333334 0.575
    vertex 3.766666666666667 6.713021295712623 0.5750000000000001
  endloop
endfacet
facet normal 1 0 0
  outer loop
    vertex 6.233333333333333 8.850000000000001 0.9
    vertex 6.233333333333333 8.520312037620712 0.575
    vertex 6.233333333333333 8.850000000000001 0.5750000000000002
  endloop
endfacet
facet normal 1 -0 0
  outer loop
    vertex 6.233333333333333 6.383333333333334 0.5750000000000002
    vertex 6.233333333333333 6.713021295712623 0.5750000000000001
    vertex 6.233333333333333 6.383333333333334 0.9
  endloop
endfacet
facet normal 1 0 0
  outer loop
    vertex 6.233333333333333 6.383333333333334 0.25
    vertex 6.233333333333333 6.713021295712623 0.5750000000000001
    vertex 6.233333333333333 6.383333333333334 0.5750000000000002
  endloop
endfacet
facet normal 1 0 0
  outer loop
    vertex 6.233333333333333 8.850000000000001 0.5750000000000002
    vertex 6.233333333333333 8.520312037620712 0.575
    vertex 6.233333333333333 8.850000000000001 0.25
  endloop
endfacet
facet normal 1 -0 0
  outer loop
    vertex 6.233333333333333 8.356666666666667 0.9
    vertex 6.233333333333333 8.520312037620712 0.575
    vertex 6.233333333333333 8.850000000000001 0.9
  endloop
endfacet
facet normal 1 -0 0
  outer loop
    vertex 6.233333333333333 6.383333333333334 0.9
    vertex 6.233333333333333 6.713021295712623 0.5750000000000001
    vertex 6.233333333333333 6.876666666666667 0.9
  endloop
endfacet
facet normal 1 0 0
  outer loop
    vertex 6.233333333333333 6.876666666666667 0.25
    vertex 6.233333333333333 6.713021295712623 0.5750000000000001
    vertex 6.233333333333333 6.383333333333334 0.25
  endloop
endfacet
facet normal 1 0 0
  outer loop
    vertex 6.233333333333333 8.850000000000001 0.25
    vertex 6.233333333333333 8.520312037620712 0.575
    vertex 6.233333333333333 8.356666666666667 0.25
  endloop
endfacet
facet normal 1 -0 0
  outer loop
    vertex 6.233333333333333 7.863333333333334 0.9
    vertex 6.233333333333333 8.110000000000001 0.575
    vertex 6.233333333333333 8.356666666666667 0.9
  endloop
endfacet
facet normal 1 0 0
  outer loop
    vertex 6.233333333333333 7.863333333333334 0.25
    vertex 6.233333333333333 7.616666666666668 0.575
    vertex 6.233333333333333 7.370000000000001 0.25
  endloop
endfacet
facet normal 1 0 0
  outer loop
    vertex 6.233333333333333 8.110000000000001 0.575
    vertex 6.233333333333333 7.616666666666668 0.575
    vertex 6.233333333333333 7.863333333333334 0.25
  endloop
endfacet
facet normal 1 0 0
  outer loop
    vertex 6.233333333333333 7.123333333333334 0.575
    vertex 6.233333333333333 7.616666666666668 0.575
    vertex 6.233333333333333 7.370000000000001 0.9
  endloop
endfacet
facet normal 1 0 -0
  outer loop
    vertex 6.233333333333333 7.370000000000001 0.25
    vertex 6.233333333333333 7.616666666666668 0.575
    vertex 6.233333333333333 7.123333333333334 0.575
  endloop
endfacet
facet normal 1 -0 0
  outer loop
    vertex 6.233333333333333 6.876666666666667 0.9
    vertex 6.233333333333333 7.123333333333334 0.575
    vertex 6.233333333333333 7.370000000000001 0.9
  endloop
endfacet
facet normal 1 0 0
  outer loop
    vertex 6.233333333333333 7.370000000000001 0.25
    vertex 6.233333333333333 7.123333333333334 0.575
    vertex 6.233333333333333 6.876666666666667 0.25
  endloop
endfacet
facet normal 1 0 0
  outer loop
    vertex 6.233333333333333 7.863333333333334 0.9
    vertex 6.233333333333333 7.616666666666668 0.575
    vertex 6.233333333333333 8.110000000000001 0.575
  endloop
endfacet
facet normal 1 -0 0
  outer loop
    vertex 6.233333333333333 7.370000000000001 0.9
    vertex 6.233333333333333 7.616666666666668 0.575
    vertex 6.233333333333333 7.863333333333334 0.9
  endloop
endfacet
facet normal 1 0 0
  outer loop
    vertex 6.233333333333333 8.356666666666667 0.25
    vertex 6.233333333333333 8.110000000000001 0.575
    vertex 6.233333333333333 7.863333333333334 0.25
  endloop
endfacet
facet normal 1 0 0
  outer loop
    vertex 6.233333333333333 7.123333333333334 0.575
    vertex 6.233333333333333 6.713021295712623 0.5750000000000001
    vertex 6.233333333333333 6.876666666666667 0.25
  endloop
endfacet
facet normal 1 0 -0
  outer loop
    vertex 6.233333333333333 8.356666666666667 0.25
    vertex 6.233333333333333 8.520312037620712 0.575
    vertex 6.233333333333333 8.110000000000001 0.575
  endloop
endfacet
facet normal 1 0 0
  outer loop
    vertex 6.233333333333333 8.110000000000001 0.575
    vertex 6.233333333333333 8.520312037620712 0.575
    vertex 6.233333333333333 8.356666666666667 0.9
  endloop
endfacet
facet normal 1 0 0
  outer loop
    vertex 6.233333333333333 6.876666666666667 0.9
    vertex 6.233333333333333 6.713021295712623 0.5750000000000001
    vertex 6.233333333333333 7.123333333333334 0.575
  endloop
endfacet
facet normal 0 -1 0
  outer loop
    vertex 3.766666666666667 6.383333333333334 0.9
    vertex 3.766666666666667 6.383333333333334 0.5750000000000002
    vertex 4.096354629045956 6.383333333333334 0.575
  endloop
endfacet
facet normal 0 -1 0
  outer loop
    vertex 3.766666666666667 6.383333333333334 0.5750000000000002
    vertex 3.766666666666667 6.383333333333334 0.25
    vertex 4.096354629045956 6.383333333333334 0.575
  endloop
endfacet
facet normal 0 -1 0
  outer loop
    vertex 6.233333333333333 6.383333333333334 0.25
    vertex 6.233333333333333 6.383333333333334 0.5750000000000002
    vertex 5.903645370954045 6.383333333333334 0.575
  endloop
endfacet
facet normal -0 -1 0
  outer loop
    vertex 6.233333333333333 6.383333333333334 0.5750000000000002
    vertex 6.233333333333333 6.383333333333334 0.9
    vertex 5.903645370954045 6.383333333333334 0.575
  endloop
endfacet
facet normal 0 -1 0
  outer loop
    vertex 3.766666666666667 6.383333333333334 0.25
    vertex 4.26 6.383333333333334 0.25
    vertex 4.096354629045956 6.383333333333334 0.575
  endloop
endfacet
facet normal -0 -1 0
  outer loop
    vertex 6.233333333333333 6.383333333333334 0.9
    vertex 5.74 6.383333333333334 0.9
    vertex 5.903645370954045 6.383333333333334 0.575
  endloop
endfacet
facet normal -0 -1 0
  outer loop
    vertex 4.26 6.383333333333334 0.9
    vertex 3.766666666666667 6.383333333333334 0.9
    vertex 4.096354629045956 6.383333333333334 0.575
  endloop
endfacet
facet normal 0 -1 0
  outer loop
    vertex 5.74 6.383333333333334 0.25
    vertex 6.233333333333333 6.383333333333334 0.25
    vertex 5.903645370954045 6.383333333333334 0.575
  endloop
endfacet
facet normal 0 -1 0
  outer loop
    vertex 5.246666666666667 6.383333333333334 0.25
    vertex 5.74 6.383333333333334 0.25
    vertex 5.493333333333333 6.383333333333334 0.575
  endloop
endfacet
facet normal -0 -1 0
  outer loop
    vertex 4.753333333333333 6.383333333333334 0.9
    vertex 4.26 6.383333333333334 0.9
    vertex 4.506666666666667 6.383333333333334 0.575
  endloop
endfacet
facet normal 0 -1 0
  outer loop
    vertex 5 6.383333333333334 0.575
    vertex 4.753333333333333 6.383333333333334 0.9
    vertex 4.506666666666667 6.383333333333334 0.575
  endloop
endfacet
facet normal 0 -1 0
  outer loop
    vertex 4.753333333333333 6.383333333333334 0.25
    vertex 5.246666666666667 6.383333333333334 0.25
    vertex 5 6.383333333333334 0.575
  endloop
endfacet
facet normal -0 -1 0
  outer loop
    vertex 5.246666666666667 6.383333333333334 0.9
    vertex 4.753333333333333 6.383333333333334 0.9
    vertex 5 6.383333333333334 0.575
  endloop
endfacet
facet normal 0 -1 -0
  outer loop
    vertex 5.246666666666667 6.383333333333334 0.9
    vertex 5 6.383333333333334 0.575
    vertex 5.493333333333333 6.383333333333334 0.575
  endloop
endfacet
facet normal 0 -1 0
  outer loop
    vertex 4.753333333333333 6.383333333333334 0.25
    vertex 5 6.383333333333334 0.575
    vertex 4.506666666666667 6.383333333333334 0.575
  endloop
endfacet
facet normal -0 -1 0
  outer loop
    vertex 5.74 6.383333333333334 0.9
    vertex 5.246666666666667 6.383333333333334 0.9
    vertex 5.493333333333333 6.383333333333334 0.575
  endloop
endfacet
facet normal 0 -1 0
  outer loop
    vertex 4.26 6.383333333333334 0.25
    vertex 4.753333333333333 6.383333333333334 0.25
    vertex 4.506666666666667 6.383333333333334 0.575
  endloop
endfacet
facet normal 0 -1 0
  outer loop
    vertex 5 6.383333333333334 0.575
    vertex 5.246666666666667 6.383333333333334 0.25
    vertex 5.493333333333333 6.383333333333334 0.575
  endloop
endfacet
facet normal 0 -1 0
  outer loop
    vertex 5.493333333333333 6.383333333333334 0.575
    vertex 5.74 6.383333333333334 0.25
    vertex 5.903645370954045 6.383333333333334 0.575
  endloop
endfacet
facet normal 0 -1 0
  outer loop
    vertex 4.506666666666667 6.383333333333334 0.575
    vertex 4.26 6.383333333333334 0.9
    vertex 4.096354629045956 6.383333333333334 0.575
  endloop
endfacet
facet normal 0 -1 -0
  outer loop
    vertex 5.74 6.383333333333334 0.9
    vertex 5.493333333333333 6.383333333333334 0.575
    vertex 5.903645370954045 6.383333333333334 0.575
  endloop
endfacet
facet normal 0 -1 0
  outer loop
    vertex 4.26 6.383333333333334 0.25
    vertex 4.506666666666667 6.383333333333334 0.575
    vertex 4.096354629045956 6.383333333333334 0.575
  endloop
endfacet
facet normal 0 1 0
  outer loop
    vertex 3.766666666666667 8.850000000000001 0.9
    vertex 4.096354629045956 8.850000000000001 0.575
    vertex 3.766666666666667 8.850000000000001 0.5750000000000002
  endloop
endfacet
facet normal 0 1 0
  outer loop
    vertex 3.766666666666667 8.850000000000001 0.5750000000000002
    vertex 4.096354629045956 8.850000000000001 0.575
    vertex 3.766666666666667 8.850000000000001 0.25
  endloop
endfacet
facet normal 0 1 -0
  outer loop
    vertex 6.233333333333333 8.850000000000001 0.25
    vertex 5.903645370954045 8.850000000000001 0.575
    vertex 6.233333333333333 8.850000000000001 0.5750000000000002
  endloop
endfacet
facet normal 0 1 -0
  outer loop
    vertex 6.233333333333333 8.850000000000001 0.5750000000000002
    vertex 5.903645370954045 8.850000000000001 0.575
    vertex 6.233333333333333 8.850000000000001 0.9
  endloop
endfacet
facet normal 0 1 0
  outer loop
    vertex 3.766666666666667 8.850000000000001 0.25
    vertex 4.096354629045956 8.850000000000001 0.575
    vertex 4.26 8.850000000000001 0.25
  endloop
endfacet
facet normal 0 1 0
  outer loop
    vertex 6.233333333333333 8.850000000000001 0.9
    vertex 5.903645370954045 8.850000000000001 0.575
    vertex 5.74 8.850000000000001 0.9
  endloop
endfacet
facet normal 0 1 0
  outer loop
    vertex 4.26 8.850000000000001 0.9
    vertex 4.096354629045956 8.850000000000001 0.575
    vertex 3.766666666666667 8.850000000000001 0.9
  endloop
endfacet
facet normal 0 1 0
  outer loop
    vertex 5.74 8.850000000000001 0.25
    vertex 5.903645370954045 8.850000000000001 0.575
    vertex 6.233333333333333 8.850000000000001 0.25
  endloop
endfacet
facet normal 0 1 0
  outer loop
    vertex 5.246666666666667 8.850000000000001 0.25
    vertex 5.493333333333333 8.850000000000001 0.5750000000000002
    vertex 5.74 8.850000000000001 0.25
  endloop
endfacet
facet normal 0 1 0
  outer loop
    vertex 4.753333333333333 8.850000000000001 0.9
    vertex 4.506666666666667 8.850000000000001 0.575
    vertex 4.26 8.850000000000001 0.9
  endloop
endfacet
facet normal 0 1 0
  outer loop
    vertex 5 8.850000000000001 0.5750000000000001
    vertex 4.506666666666667 8.850000000000001 0.575
    vertex 4.753333333333333 8.850000000000001 0.9
  endloop
endfacet
facet normal 0 1 0
  outer loop
    vertex 4.753333333333333 8.850000000000001 0.25
    vertex 5 8.850000000000001 0.5750000000000001
    vertex 5.246666666666667 8.850000000000001 0.25
  endloop
endfacet
facet normal 0 1 0
  outer loop
    vertex 5.246666666666667 8.850000000000001 0.9
    vertex 5 8.850000000000001 0.5750000000000001
    vertex 4.753333333333333 8.850000000000001 0.9
  endloop
endfacet
facet normal 0 1 -0
  outer loop
    vertex 4.753333333333333 8.850000000000001 0.25
    vertex 4.506666666666667 8.850000000000001 0.575
    vertex 5 8.850000000000001 0.5750000000000001
  endloop
endfacet
facet normal 0 1 0
  outer loop
    vertex 5.246666666666667 8.850000000000001 0.9
    vertex 5.493333333333333 8.850000000000001 0.5750000000000002
    vertex 5 8.850000000000001 0.5750000000000001
  endloop
endfacet
facet normal 0 1 0
  outer loop
    vertex 4.26 8.850000000000001 0.25
    vertex 4.506666666666667 8.850000000000001 0.575
    vertex 4.753333333333333 8.850000000000001 0.25
  endloop
endfacet
facet normal -0 1 0
  outer loop
    vertex 5 8.850000000000001 0.5750000000000001
    vertex 5.493333333333333 8.850000000000001 0.5750000000000002
    vertex 5.246666666666667 8.850000000000001 0.25
  endloop
endfacet
facet normal 0 1 0
  outer loop
    vertex 5.74 8.850000000000001 0.9
    vertex 5.493333333333333 8.850000000000001 0.5750000000000002
    vertex 5.246666666666667 8.850000000000001 0.9
  endloop
endfacet
facet normal 0 1 0
  outer loop
    vertex 4.506666666666667 8.850000000000001 0.575
    vertex 4.096354629045956 8.850000000000001 0.575
    vertex 4.26 8.850000000000001 0.9
  endloop
endfacet
facet normal 0 1 0
  outer loop
    vertex 5.493333333333333 8.850000000000001 0.5750000000000002
    vertex 5.903645370954045 8.850000000000001 0.575
    vertex 5.74 8.850000000000001 0.25
  endloop
endfacet
facet normal 0 1 0
  outer loop
    vertex 5.74 8.850000000000001 0.9
    vertex 5.903645370954045 8.850000000000001 0.575
    vertex 5.493333333333333 8.850000000000001 0.5750000000000002
  endloop
endfacet
facet normal 0 1 -0
  outer loop
    vertex 4.26 8.850000000000001 0.25
    vertex 4.096354629045956 8.850000000000001 0.575
    vertex 4.506666666666667 8.850000000000001 0.575
  endloop
endfacet
facet normal 0 -0 -1
  outer loop
    vertex 5.416182391141575 7.343642232920628 0.25
    vertex 5.458609292365257 6.808795451776429 0.25
    vertex 4.943000271119303 7.166707936279384 0.25
  endloop
endfacet
facet normal -0 0 -1
  outer loop
    vertex 5.458609292365257 6.808795451776429 0.25
    vertex 4.984998847247726 6.709860906240173 0.25
    vertex 4.943000271119303 7.166707936279384 0.25
  endloop
endfacet
facet normal 0 0 -1
  outer loop
    vertex 5.254314641335005 8.042796782482114 0.25
    vertex 5.492171970203406 8.431596337263764 0.25
    vertex 5.783566994207549 8.074692452105808 0.25
  endloop
endfacet
facet normal 0 -0 -1
  outer loop
    vertex 4.508757102178565 8.432259124439124 0.25
    vertex 4.744573850833707 8.037400088590212 0.25
    vertex 4.231004733155482 8.069570013413578 0.25
  endloop
endfacet
facet normal 0 0 -1
  outer loop
    vertex 4.54560191791713 6.843435275390324 0.25
    vertex 4.559604870345654 7.338872430024527 0.25
    vertex 4.943000271119303 7.166707936279384 0.25
  endloop
endfacet
facet normal -0 0 -1
  outer loop
    vertex 5.815524046090625 7.123613488958437 0.25
    vertex 5.458609292365257 6.808795451776429 0.25
    vertex 5.416182391141575 7.343642232920628 0.25
  endloop
endfacet
facet normal 0 0 -1
  outer loop
    vertex 4.54560191791713 6.843435275390324 0.25
    vertex 4.184475953909375 7.123613488958437 0.25
    vertex 4.559604870345654 7.338872430024527 0.25
  endloop
endfacet
facet normal 0 0 -1
  outer loop
    vertex 5.254314641335005 8.042796782482114 0.25
    vertex 5.783566994207549 8.074692452105808 0.25
    vertex 5.467919195710247 7.7197687344379 0.25
  endloop
endfacet
facet normal 0 0 -1
  outer loop
    vertex 4.231004733155482 8.069570013413578 0.25
    vertex 4.744573850833707 8.037400088590212 0.25
    vertex 4.532080804289753 7.7197687344379 0.25
  endloop
endfacet
facet normal 0 0 -1
  outer loop
    vertex 4.744573850833707 8.037400088590212 0.25
    vertex 5 8.422760800799679 0.25
    vertex 5.254314641335005 8.042796782482114 0.25
  endloop
endfacet
facet normal 0 -0 -1
  outer loop
    vertex 6.233333333333333 7.863333333333334 0.25
    vertex 6.233333333333333 7.370000000000001 0.25
    vertex 5.829523690280966 7.588707211495126 0.25
  endloop
endfacet
facet normal 0 0 -1
  outer loop
    vertex 4.26 8.850000000000001 0.25
    vertex 4.753333333333333 8.850000000000001 0.25
    vertex 4.508757102178565 8.432259124439124 0.25
  endloop
endfacet
facet normal 0 0 -1
  outer loop
    vertex 5.246666666666667 8.850000000000001 0.25
    vertex 5.74 8.850000000000001 0.25
    vertex 5.492171970203406 8.431596337263764 0.25
  endloop
endfacet
facet normal 0 0 -1
  outer loop
    vertex 4.508757102178565 8.432259124439124 0.25
    vertex 5 8.422760800799679 0.25
    vertex 4.744573850833707 8.037400088590212 0.25
  endloop
endfacet
facet normal 0 0 -1
  outer loop
    vertex 4.744573850833707 8.037400088590212 0.25
    vertex 5.254314641335005 8.042796782482114 0.25
    vertex 4.999999999999999 7.568282402399032 0.25
  endloop
endfacet
facet normal 0 0 -1
  outer loop
    vertex 3.766666666666667 6.876666666666667 0.25
    vertex 3.766666666666667 7.370000000000001 0.25
    vertex 4.184475953909375 7.123613488958437 0.25
  endloop
endfacet
facet normal 0 0 -1
  outer loop
    vertex 3.766666666666667 7.370000000000001 0.25
    vertex 3.766666666666667 7.863333333333334 0.25
    vertex 4.170476309719034 7.588707211495126 0.25
  endloop
endfacet
facet normal 0 -0 -1
  outer loop
    vertex 6.233333333333333 7.370000000000001 0.25
    vertex 6.233333333333333 6.876666666666667 0.25
    vertex 5.815524046090625 7.123613488958437 0.25
  endloop
endfacet
facet normal 0 0 -1
  outer loop
    vertex 5.246666666666667 6.383333333333334 0.25
    vertex 4.753333333333333 6.383333333333334 0.25
    vertex 4.984998847247726 6.709860906240173 0.25
  endloop
endfacet
facet normal 0 0 -1
  outer loop
    vertex 3.766666666666667 7.370000000000001 0.25
    vertex 4.170476309719034 7.588707211495126 0.25
    vertex 4.184475953909375 7.123613488958437 0.25
  endloop
endfacet
facet normal 0 -0 -1
  outer loop
    vertex 5.829523690280966 7.588707211495126 0.25
    vertex 6.233333333333333 7.370000000000001 0.25
    vertex 5.815524046090625 7.123613488958437 0.25
  endloop
endfacet
facet normal 0 0 -1
  outer loop
    vertex 5 8.422760800799679 0.25
    vertex 5.246666666666667 8.850000000000001 0.25
    vertex 5.492171970203406 8.431596337263764 0.25
  endloop
endfacet
facet normal 0 0 -1
  outer loop
    vertex 4.753333333333333 8.850000000000001 0.25
    vertex 5.246666666666667 8.850000000000001 0.25
    vertex 5 8.422760800799679 0.25
  endloop
endfacet
facet normal 0 -0 -1
  outer loop
    vertex 4.753333333333333 8.850000000000001 0.25
    vertex 5 8.422760800799679 0.25
    vertex 4.508757102178565 8.432259124439124 0.25
  endloop
endfacet
facet normal 0 0 -1
  outer loop
    vertex 5.254314641335005 8.042796782482114 0.25
    vertex 5 8.422760800799679 0.25
    vertex 5.492171970203406 8.431596337263764 0.25
  endloop
endfacet
facet normal 0 0 -1
  outer loop
    vertex 4.984998847247726 6.709860906240173 0.25
    vertex 4.54560191791713 6.843435275390324 0.25
    vertex 4.943000271119303 7.166707936279384 0.25
  endloop
endfacet
facet normal 0 0 -1
  outer loop
    vertex 3.766666666666667 7.863333333333334 0.25
    vertex 3.766666666666667 8.356666666666667 0.25
    vertex 4.231004733155482 8.069570013413578 0.25
  endloop
endfacet
facet normal 0 0 -1
  outer loop
    vertex 4.753333333333333 6.383333333333334 0.25
    vertex 4.26 6.383333333333334 0.25
    vertex 4.54560191791713 6.843435275390324 0.25
  endloop
endfacet
facet normal 0 -0 -1
  outer loop
    vertex 6.233333333333333 8.356666666666667 0.25
    vertex 6.233333333333333 7.863333333333334 0.25
    vertex 5.783566994207549 8.074692452105808 0.25
  endloop
endfacet
facet normal 0 0 -1
  outer loop
    vertex 5.74 6.383333333333334 0.25
    vertex 5.246666666666667 6.383333333333334 0.25
    vertex 5.458609292365257 6.808795451776429 0.25
  endloop
endfacet
facet normal 0 0 -1
  outer loop
    vertex 4.170476309719034 7.588707211495126 0.25
    vertex 3.766666666666667 7.863333333333334 0.25
    vertex 4.231004733155482 8.069570013413578 0.25
  endloop
endfacet
facet normal -0 0 -1
  outer loop
    vertex 4.984998847247726 6.709860906240173 0.25
    vertex 4.753333333333333 6.383333333333334 0.25
    vertex 4.54560191791713 6.843435275390324 0.25
  endloop
endfacet
facet normal -0 0 -1
  outer loop
    vertex 6.233333333333333 7.863333333333334 0.25
    vertex 5.829523690280966 7.588707211495126 0.25
    vertex 5.783566994207549 8.074692452105808 0.25
  endloop
endfacet
facet normal 0 0 -1
  outer loop
    vertex 5.246666666666667 6.383333333333334 0.25
    vertex 4.984998847247726 6.709860906240173 0.25
    vertex 5.458609292365257 6.808795451776429 0.25
  endloop
endfacet
facet normal 0 0 -1
  outer loop
    vertex 4.184475953909375 7.123613488958437 0.25
    vertex 4.170476309719034 7.588707211495126 0.25
    vertex 4.559604870345654 7.338872430024527 0.25
  endloop
endfacet
facet normal 0 0 -1
  outer loop
    vertex 5.829523690280966 7.588707211495126 0.25
    vertex 5.815524046090625 7.123613488958437 0.25
    vertex 5.416182391141575 7.343642232920628 0.25
  endloop
endfacet
facet normal 0 0 -1
  outer loop
    vertex 3.766666666666667 6.383333333333334 0.25
    vertex 3.766666666666667 6.876666666666667 0.25
    vertex 4.12781173173398 6.744478398400647 0.25
  endloop
endfacet
facet normal 0 0 -1
  outer loop
    vertex 4.26 6.383333333333334 0.25
    vertex 3.766666666666667 6.383333333333334 0.25
    vertex 4.12781173173398 6.744478398400647 0.25
  endloop
endfacet
facet normal 0 0 -1
  outer loop
    vertex 3.766666666666667 8.850000000000001 0.25
    vertex 4.26 8.850000000000001 0.25
    vertex 4.12781173173398 8.488854934932689 0.25
  endloop
endfacet
facet normal 0 -0 -1
  outer loop
    vertex 6.233333333333333 6.876666666666667 0.25
    vertex 6.233333333333333 6.383333333333334 0.25
    vertex 5.87218826826602 6.744478398400647 0.25
  endloop
endfacet
facet normal 0 0 -1
  outer loop
    vertex 6.233333333333333 6.383333333333334 0.25
    vertex 5.74 6.383333333333334 0.25
    vertex 5.87218826826602 6.744478398400647 0.25
  endloop
endfacet
facet normal 0 -0 -1
  outer loop
    vertex 6.233333333333333 8.850000000000001 0.25
    vertex 6.233333333333333 8.356666666666667 0.25
    vertex 5.87218826826602 8.488854934932689 0.25
  endloop
endfacet
facet normal 0 0 -1
  outer loop
    vertex 5.74 8.850000000000001 0.25
    vertex 6.233333333333333 8.850000000000001 0.25
    vertex 5.87218826826602 8.488854934932689 0.25
  endloop
endfacet
facet normal 0 0 -1
  outer loop
    vertex 3.766666666666667 8.356666666666667 0.25
    vertex 3.766666666666667 8.850000000000001 0.25
    vertex 4.12781173173398 8.488854934932689 0.25
  endloop
endfacet
facet normal 0 -0 -1
  outer loop
    vertex 4.999999999999999 7.568282402399032 0.25
    vertex 5.416182391141575 7.343642232920628 0.25
    vertex 4.943000271119303 7.166707936279384 0.25
  endloop
endfacet
facet normal 0 -0 -1
  outer loop
    vertex 4.744573850833707 8.037400088590212 0.25
    vertex 4.999999999999999 7.568282402399032 0.25
    vertex 4.532080804289753 7.7197687344379 0.25
  endloop
endfacet
facet normal 0 0 -1
  outer loop
    vertex 4.999999999999999 7.568282402399032 0.25
    vertex 5.254314641335005 8.042796782482114 0.25
    vertex 5.467919195710247 7.7197687344379 0.25
  endloop
endfacet
facet normal 0 0 -1
  outer loop
    vertex 4.170476309719034 7.588707211495126 0.25
    vertex 4.231004733155482 8.069570013413578 0.25
    vertex 4.532080804289753 7.7197687344379 0.25
  endloop
endfacet
facet normal 0 -0 -1
  outer loop
    vertex 5.783566994207549 8.074692452105808 0.25
    vertex 5.829523690280966 7.588707211495126 0.25
    vertex 5.467919195710247 7.7197687344379 0.25
  endloop
endfacet
facet normal 0 0 -1
  outer loop
    vertex 5.416182391141575 7.343642232920628 0.25
    vertex 4.999999999999999 7.568282402399032 0.25
    vertex 5.467919195710247 7.7197687344379 0.25
  endloop
endfacet
facet normal -0 0 -1
  outer loop
    vertex 4.999999999999999 7.568282402399032 0.25
    vertex 4.559604870345654 7.338872430024527 0.25
    vertex 4.532080804289753 7.7197687344379 0.25
  endloop
endfacet
facet normal -0 0 -1
  outer loop
    vertex 6.233333333333333 8.356666666666667 0.25
    vertex 5.783566994207549 8.074692452105808 0.25
    vertex 5.87218826826602 8.488854934932689 0.25
  endloop
endfacet
facet normal 0 0 -1
  outer loop
    vertex 4.231004733155482 8.069570013413578 0.25
    vertex 3.766666666666667 8.356666666666667 0.25
    vertex 4.12781173173398 8.488854934932689 0.25
  endloop
endfacet
facet normal 0 0 -1
  outer loop
    vertex 4.54560191791713 6.843435275390324 0.25
    vertex 4.26 6.383333333333334 0.25
    vertex 4.12781173173398 6.744478398400647 0.25
  endloop
endfacet
facet normal 0 0 -1
  outer loop
    vertex 5.74 6.383333333333334 0.25
    vertex 5.458609292365257 6.808795451776429 0.25
    vertex 5.87218826826602 6.744478398400647 0.25
  endloop
endfacet
facet normal 0 0 -1
  outer loop
    vertex 5.815524046090625 7.123613488958437 0.25
    vertex 6.233333333333333 6.876666666666667 0.25
    vertex 5.87218826826602 6.744478398400647 0.25
  endloop
endfacet
facet normal 0 -0 -1
  outer loop
    vertex 4.26 8.850000000000001 0.25
    vertex 4.508757102178565 8.432259124439124 0.25
    vertex 4.12781173173398 8.488854934932689 0.25
  endloop
endfacet
facet normal 0 0 -1
  outer loop
    vertex 3.766666666666667 6.876666666666667 0.25
    vertex 4.184475953909375 7.123613488958437 0.25
    vertex 4.12781173173398 6.744478398400647 0.25
  endloop
endfacet
facet normal 0 0 -1
  outer loop
    vertex 5.492171970203406 8.431596337263764 0.25
    vertex 5.74 8.850000000000001 0.25
    vertex 5.87218826826602 8.488854934932689 0.25
  endloop
endfacet
facet normal -0 0 -1
  outer loop
    vertex 4.508757102178565 8.432259124439124 0.25
    vertex 4.231004733155482 8.069570013413578 0.25
    vertex 4.12781173173398 8.488854934932689 0.25
  endloop
endfacet
facet normal 0 0 -1
  outer loop
    vertex 5.458609292365257 6.808795451776429 0.25
    vertex 5.815524046090625 7.123613488958437 0.25
    vertex 5.87218826826602 6.744478398400647 0.25
  endloop
endfacet
facet normal 0 -0 -1
  outer loop
    vertex 4.184475953909375 7.123613488958437 0.25
    vertex 4.54560191791713 6.843435275390324 0.25
    vertex 4.12781173173398 6.744478398400647 0.25
  endloop
endfacet
facet normal 0 0 -1
  outer loop
    vertex 5.783566994207549 8.074692452105808 0.25
    vertex 5.492171970203406 8.431596337263764 0.25
    vertex 5.87218826826602 8.488854934932689 0.25
  endloop
endfacet
facet normal 0 0 -1
  outer loop
    vertex 4.559604870345654 7.338872430024527 0.25
    vertex 4.999999999999999 7.568282402399032 0.25
    vertex 4.943000271119303 7.166707936279384 0.25
  endloop
endfacet
facet normal 0 0 -1
  outer loop
    vertex 4.559604870345654 7.338872430024527 0.25
    vertex 4.170476309719034 7.588707211495126 0.25
    vertex 4.532080804289753 7.7197687344379 0.25
  endloop
endfacet
facet normal -0 0 -1
  outer loop
    vertex 5.829523690280966 7.588707211495126 0.25
    vertex 5.416182391141575 7.343642232920628 0.25
    vertex 5.467919195710247 7.7197687344379 0.25
  endloop
endfacet
facet normal 0 0 1
  outer loop
    vertex 4.197159425914732 8.070799174547235 0.9
    vertex 4.550317332131465 7.558900437803368 0.9
    vertex 4.717972057904944 8.031592480234439 0.9
  endloop
endfacet
facet normal -0 0 1
  outer loop
    vertex 4.095987706373451 7.5968051052823 0.9
    vertex 4.550317332131465 7.558900437803368 0.9
    vertex 4.197159425914732 8.070799174547235 0.9
  endloop
endfacet
facet normal 0 0 1
  outer loop
    vertex 5.421177296507369 7.360505804388405 0.9
    vertex 5.453602087895155 6.847177414931189 0.9
    vertex 5.815733850447381 7.125178869548447 0.9
  endloop
endfacet
facet normal 0 0 1
  outer loop
    vertex 4.725892426869523 7.172427528343877 0.9
    vertex 4.550317332131465 7.558900437803368 0.9
    vertex 4.230624476588247 7.160912784983831 0.9
  endloop
endfacet
facet normal 0 0 1
  outer loop
    vertex 5.432951987435001 7.863826941123702 0.9
    vertex 5.841132993611601 8.096373643186286 0.9
    vertex 5.466569016168954 8.392925338416966 0.9
  endloop
endfacet
facet normal -0 0 1
  outer loop
    vertex 4.197159425914732 8.070799174547235 0.9
    vertex 4.717972057904944 8.031592480234439 0.9
    vertex 4.507121750360903 8.432089717989491 0.9
  endloop
endfacet
facet normal 0 -0 1
  outer loop
    vertex 4.520905014718199 6.78202256101996 0.9
    vertex 4.725892426869523 7.172427528343877 0.9
    vertex 4.230624476588247 7.160912784983831 0.9
  endloop
endfacet
facet normal 0 0 1
  outer loop
    vertex 5.421177296507369 7.360505804388405 0.9
    vertex 5.1032960335993 7.148616113603689 0.9
    vertex 5.453602087895155 6.847177414931189 0.9
  endloop
endfacet
facet normal 0 0 1
  outer loop
    vertex 5.466569016168954 8.392925338416966 0.9
    vertex 5.103102067771232 8.084585862376915 0.9
    vertex 5.432951987435001 7.863826941123702 0.9
  endloop
endfacet
facet normal 0 -0 1
  outer loop
    vertex 4.230624476588247 7.160912784983831 0.9
    vertex 4.550317332131465 7.558900437803368 0.9
    vertex 4.095987706373451 7.5968051052823 0.9
  endloop
endfacet
facet normal 0 0 1
  outer loop
    vertex 6.233333333333333 7.863333333333334 0.9
    vertex 5.808422023132966 7.612634644644364 0.9
    vertex 6.233333333333333 7.370000000000001 0.9
  endloop
endfacet
facet normal -0 0 1
  outer loop
    vertex 4.26 8.850000000000001 0.9
    vertex 4.507121750360903 8.432089717989491 0.9
    vertex 4.753333333333333 8.850000000000001 0.9
  endloop
endfacet
facet normal -0 0 1
  outer loop
    vertex 5.246666666666667 8.850000000000001 0.9
    vertex 5.466569016168954 8.392925338416966 0.9
    vertex 5.74 8.850000000000001 0.9
  endloop
endfacet
facet normal 0 0 1
  outer loop
    vertex 5.808422023132966 7.612634644644364 0.9
    vertex 5.421177296507369 7.360505804388405 0.9
    vertex 5.815733850447381 7.125178869548447 0.9
  endloop
endfacet
facet normal 0 0 1
  outer loop
    vertex 3.766666666666667 6.876666666666667 0.9
    vertex 4.230624476588247 7.160912784983831 0.9
    vertex 3.766666666666667 7.370000000000001 0.9
  endloop
endfacet
facet normal 0 0 1
  outer loop
    vertex 3.766666666666667 7.370000000000001 0.9
    vertex 4.095987706373451 7.5968051052823 0.9
    vertex 3.766666666666667 7.863333333333334 0.9
  endloop
endfacet
facet normal 0 0 1
  outer loop
    vertex 6.233333333333333 7.370000000000001 0.9
    vertex 5.815733850447381 7.125178869548447 0.9
    vertex 6.233333333333333 6.876666666666667 0.9
  endloop
endfacet
facet normal 0 0 1
  outer loop
    vertex 5.808422023132966 7.612634644644364 0.9
    vertex 5.815733850447381 7.125178869548447 0.9
    vertex 6.233333333333333 7.370000000000001 0.9
  endloop
endfacet
facet normal 0 0 1
  outer loop
    vertex 5.246666666666667 6.383333333333334 0.9
    vertex 4.97615249977935 6.784796051910472 0.9
    vertex 4.753333333333333 6.383333333333334 0.9
  endloop
endfacet
facet normal -0 0 1
  outer loop
    vertex 3.766666666666667 7.370000000000001 0.9
    vertex 4.230624476588247 7.160912784983831 0.9
    vertex 4.095987706373451 7.5968051052823 0.9
  endloop
endfacet
facet normal -0 0 1
  outer loop
    vertex 4.97607256685076 8.443862467947678 0.9
    vertex 5.466569016168954 8.392925338416966 0.9
    vertex 5.246666666666667 8.850000000000001 0.9
  endloop
endfacet
facet normal 0 0 1
  outer loop
    vertex 5.808422023132966 7.612634644644364 0.9
    vertex 5.432951987435001 7.863826941123702 0.9
    vertex 5.421177296507369 7.360505804388405 0.9
  endloop
endfacet
facet normal 0 0 1
  outer loop
    vertex 5.432951987435001 7.863826941123702 0.9
    vertex 4.951615735732364 7.616666666666666 0.9
    vertex 5.421177296507369 7.360505804388405 0.9
  endloop
endfacet
facet normal -0 0 1
  outer loop
    vertex 4.753333333333333 8.850000000000001 0.9
    vertex 4.97607256685076 8.443862467947678 0.9
    vertex 5.246666666666667 8.850000000000001 0.9
  endloop
endfacet
facet normal 0 0 1
  outer loop
    vertex 4.753333333333333 8.850000000000001 0.9
    vertex 4.507121750360903 8.432089717989491 0.9
    vertex 4.97607256685076 8.443862467947678 0.9
  endloop
endfacet
facet normal 0 0 1
  outer loop
    vertex 3.766666666666667 7.863333333333334 0.9
    vertex 4.197159425914732 8.070799174547235 0.9
    vertex 3.766666666666667 8.356666666666667 0.9
  endloop
endfacet
facet normal 0 0 1
  outer loop
    vertex 4.753333333333333 6.383333333333334 0.9
    vertex 4.520905014718199 6.78202256101996 0.9
    vertex 4.26 6.383333333333334 0.9
  endloop
endfacet
facet normal 0 -0 1
  outer loop
    vertex 5.808422023132966 7.612634644644364 0.9
    vertex 5.841132993611601 8.096373643186286 0.9
    vertex 5.432951987435001 7.863826941123702 0.9
  endloop
endfacet
facet normal 0 0 1
  outer loop
    vertex 6.233333333333333 8.356666666666667 0.9
    vertex 5.841132993611601 8.096373643186286 0.9
    vertex 6.233333333333333 7.863333333333334 0.9
  endloop
endfacet
facet normal 0 0 1
  outer loop
    vertex 5.74 6.383333333333334 0.9
    vertex 5.453602087895155 6.847177414931189 0.9
    vertex 5.246666666666667 6.383333333333334 0.9
  endloop
endfacet
facet normal 0 -0 1
  outer loop
    vertex 5.246666666666667 6.383333333333334 0.9
    vertex 5.453602087895155 6.847177414931189 0.9
    vertex 4.97615249977935 6.784796051910472 0.9
  endloop
endfacet
facet normal 0 0 1
  outer loop
    vertex 6.233333333333333 7.863333333333334 0.9
    vertex 5.841132993611601 8.096373643186286 0.9
    vertex 5.808422023132966 7.612634644644364 0.9
  endloop
endfacet
facet normal 0 -0 1
  outer loop
    vertex 4.095987706373451 7.5968051052823 0.9
    vertex 4.197159425914732 8.070799174547235 0.9
    vertex 3.766666666666667 7.863333333333334 0.9
  endloop
endfacet
facet normal 0 0 1
  outer loop
    vertex 4.97615249977935 6.784796051910472 0.9
    vertex 4.520905014718199 6.78202256101996 0.9
    vertex 4.753333333333333 6.383333333333334 0.9
  endloop
endfacet
facet normal -0 0 1
  outer loop
    vertex 4.507121750360903 8.432089717989491 0.9
    vertex 4.717972057904944 8.031592480234439 0.9
    vertex 4.97607256685076 8.443862467947678 0.9
  endloop
endfacet
facet normal 0 0 1
  outer loop
    vertex 6.233333333333333 6.876666666666667 0.9
    vertex 5.87218826826602 6.744478398400648 0.9
    vertex 6.233333333333333 6.383333333333334 0.9
  endloop
endfacet
facet normal 0 0 1
  outer loop
    vertex 6.233333333333333 6.383333333333334 0.9
    vertex 5.87218826826602 6.744478398400648 0.9
    vertex 5.74 6.383333333333334 0.9
  endloop
endfacet
facet normal 0 0 1
  outer loop
    vertex 3.766666666666667 6.383333333333334 0.9
    vertex 4.12781173173398 6.744478398400647 0.9
    vertex 3.766666666666667 6.876666666666667 0.9
  endloop
endfacet
facet normal 0 0 1
  outer loop
    vertex 4.26 6.383333333333334 0.9
    vertex 4.12781173173398 6.744478398400647 0.9
    vertex 3.766666666666667 6.383333333333334 0.9
  endloop
endfacet
facet normal -0 0 1
  outer loop
    vertex 3.766666666666667 8.850000000000001 0.9
    vertex 4.12781173173398 8.488854934932689 0.9
    vertex 4.26 8.850000000000001 0.9
  endloop
endfacet
facet normal 0 0 1
  outer loop
    vertex 6.233333333333333 8.850000000000001 0.9
    vertex 5.87218826826602 8.488854934932689 0.9
    vertex 6.233333333333333 8.356666666666667 0.9
  endloop
endfacet
facet normal -0 0 1
  outer loop
    vertex 5.74 8.850000000000001 0.9
    vertex 5.87218826826602 8.488854934932689 0.9
    vertex 6.233333333333333 8.850000000000001 0.9
  endloop
endfacet
facet normal 0 0 1
  outer loop
    vertex 3.766666666666667 8.356666666666667 0.9
    vertex 4.12781173173398 8.488854934932689 0.9
    vertex 3.766666666666667 8.850000000000001 0.9
  endloop
endfacet
facet normal 0 0 1
  outer loop
    vertex 4.717972057904944 8.031592480234439 0.9
    vertex 4.550317332131465 7.558900437803368 0.9
    vertex 4.951615735732364 7.616666666666666 0.9
  endloop
endfacet
facet normal 0 0 1
  outer loop
    vertex 4.97607256685076 8.443862467947678 0.9
    vertex 5.103102067771232 8.084585862376915 0.9
    vertex 5.466569016168954 8.392925338416966 0.9
  endloop
endfacet
facet normal 0 0 1
  outer loop
    vertex 4.97615249977935 6.784796051910472 0.9
    vertex 4.725892426869523 7.172427528343877 0.9
    vertex 4.520905014718199 6.78202256101996 0.9
  endloop
endfacet
facet normal 0 0 1
  outer loop
    vertex 4.951615735732364 7.616666666666666 0.9
    vertex 5.1032960335993 7.148616113603689 0.9
    vertex 5.421177296507369 7.360505804388405 0.9
  endloop
endfacet
facet normal 0 0 1
  outer loop
    vertex 5.432951987435001 7.863826941123702 0.9
    vertex 5.103102067771232 8.084585862376915 0.9
    vertex 4.951615735732364 7.616666666666666 0.9
  endloop
endfacet
facet normal 0 0 1
  outer loop
    vertex 5.453602087895155 6.847177414931189 0.9
    vertex 5.1032960335993 7.148616113603689 0.9
    vertex 4.97615249977935 6.784796051910472 0.9
  endloop
endfacet
facet normal -0 0 1
  outer loop
    vertex 4.725892426869523 7.172427528343877 0.9
    vertex 5.1032960335993 7.148616113603689 0.9
    vertex 4.951615735732364 7.616666666666666 0.9
  endloop
endfacet
facet normal 0 -0 1
  outer loop
    vertex 4.951615735732364 7.616666666666666 0.9
    vertex 5.103102067771232 8.084585862376915 0.9
    vertex 4.717972057904944 8.031592480234439 0.9
  endloop
endfacet
facet normal 0 0 1
  outer loop
    vertex 4.197159425914732 8.070799174547235 0.9
    vertex 4.12781173173398 8.488854934932689 0.9
    vertex 3.766666666666667 8.356666666666667 0.9
  endloop
endfacet
facet normal 0 -0 1
  outer loop
    vertex 5.74 6.383333333333334 0.9
    vertex 5.87218826826602 6.744478398400648 0.9
    vertex 5.453602087895155 6.847177414931189 0.9
  endloop
endfacet
facet normal 0 0 1
  outer loop
    vertex 4.520905014718199 6.78202256101996 0.9
    vertex 4.12781173173398 6.744478398400647 0.9
    vertex 4.26 6.383333333333334 0.9
  endloop
endfacet
facet normal 0 0 1
  outer loop
    vertex 6.233333333333333 8.356666666666667 0.9
    vertex 5.87218826826602 8.488854934932689 0.9
    vertex 5.841132993611601 8.096373643186286 0.9
  endloop
endfacet
facet normal 0 0 1
  outer loop
    vertex 5.815733850447381 7.125178869548447 0.9
    vertex 5.87218826826602 6.744478398400648 0.9
    vertex 6.233333333333333 6.876666666666667 0.9
  endloop
endfacet
facet normal 0 0 1
  outer loop
    vertex 4.26 8.850000000000001 0.9
    vertex 4.12781173173398 8.488854934932689 0.9
    vertex 4.507121750360903 8.432089717989491 0.9
  endloop
endfacet
facet normal -0 0 1
  outer loop
    vertex 3.766666666666667 6.876666666666667 0.9
    vertex 4.12781173173398 6.744478398400647 0.9
    vertex 4.230624476588247 7.160912784983831 0.9
  endloop
endfacet
facet normal 0 0 1
  outer loop
    vertex 5.466569016168954 8.392925338416966 0.9
    vertex 5.87218826826602 8.488854934932689 0.9
    vertex 5.74 8.850000000000001 0.9
  endloop
endfacet
facet normal 0 0 1
  outer loop
    vertex 4.507121750360903 8.432089717989491 0.9
    vertex 4.12781173173398 8.488854934932689 0.9
    vertex 4.197159425914732 8.070799174547235 0.9
  endloop
endfacet
facet normal -0 0 1
  outer loop
    vertex 5.453602087895155 6.847177414931189 0.9
    vertex 5.87218826826602 6.744478398400648 0.9
    vertex 5.815733850447381 7.125178869548447 0.9
  endloop
endfacet
facet normal 0 -0 1
  outer loop
    vertex 5.841132993611601 8.096373643186286 0.9
    vertex 5.87218826826602 8.488854934932689 0.9
    vertex 5.466569016168954 8.392925338416966 0.9
  endloop
endfacet
facet normal 0 0 1
  outer loop
    vertex 4.230624476588247 7.160912784983831 0.9
    vertex 4.12781173173398 6.744478398400647 0.9
    vertex 4.520905014718199 6.78202256101996 0.9
  endloop
endfacet
facet normal 0 0 1
  outer loop
    vertex 4.951615735732364 7.616666666666666 0.9
    vertex 4.550317332131465 7.558900437803368 0.9
    vertex 4.725892426869523 7.172427528343877 0.9
  endloop
endfacet
facet normal 0 0 1
  outer loop
    vertex 4.717972057904944 8.031592480234439 0.9
    vertex 5.103102067771232 8.084585862376915 0.9
    vertex 4.97607256685076 8.443862467947678 0.9
  endloop
endfacet
facet normal 0 -0 1
  outer loop
    vertex 4.97615249977935 6.784796051910472 0.9
    vertex 5.1032960335993 7.148616113603689 0.9
    vertex 4.725892426869523 7.172427528343877 0.9
  endloop
endfacet
endsolid Created by Gmsh
