solid Created by Gmsh
facet normal -1 0 -0
  outer loop
    vertex 6.383333333333334 8.850000000000001 0.9
    vertex 6.383333333333334 8.850000000000001 0.5750000000000005
    vertex 6.383333333333334 8.520312037620712 0.575
  endloop
endfacet
facet normal -1 0 0
  outer loop
    vertex 6.383333333333334 6.383333333333334 0.5750000000000005
    vertex 6.383333333333334 6.383333333333334 0.9
    vertex 6.383333333333334 6.713021295712623 0.575
  endloop
endfacet
facet normal -1 0 0
  outer loop
    vertex 6.383333333333334 6.383333333333334 0.25
    vertex 6.383333333333334 6.383333333333334 0.5750000000000005
    vertex 6.383333333333334 6.713021295712623 0.575
  endloop
endfacet
facet normal -1 0 -0
  outer loop
    vertex 6.383333333333334 8.850000000000001 0.5750000000000005
    vertex 6.383333333333334 8.850000000000001 0.25
    vertex 6.383333333333334 8.520312037620712 0.575
  endloop
endfacet
facet normal -1 0 0
  outer loop
    vertex 6.383333333333334 8.356666666666667 0.9
    vertex 6.383333333333334 8.850000000000001 0.9
    vertex 6.383333333333334 8.520312037620712 0.575
  endloop
endfacet
facet normal -1 0 0
  outer loop
    vertex 6.383333333333334 6.383333333333334 0.9
    vertex 6.383333333333334 6.876666666666667 0.9
    vertex 6.383333333333334 6.713021295712623 0.575
  endloop
endfacet
facet normal -1 0 0
  outer loop
    vertex 6.383333333333334 6.876666666666667 0.25
    vertex 6.383333333333334 6.383333333333334 0.25
    vertex 6.383333333333334 6.713021295712623 0.575
  endloop
endfacet
facet normal -1 0 0
  outer loop
    vertex 6.383333333333334 8.850000000000001 0.25
    vertex 6.383333333333334 8.356666666666667 0.25
    vertex 6.383333333333334 8.520312037620712 0.575
  endloop
endfacet
facet normal -1 0 0
  outer loop
    vertex 6.383333333333334 7.863333333333334 0.9
    vertex 6.383333333333334 8.356666666666667 0.9
    vertex 6.383333333333334 8.110000000000001 0.575
  endloop
endfacet
facet normal -1 0 0
  outer loop
    vertex 6.383333333333334 7.863333333333334 0.25
    vertex 6.383333333333334 7.370000000000001 0.25
    vertex 6.383333333333334 7.616666666666667 0.575
  endloop
endfacet
facet normal -1 0 0
  outer loop
    vertex 6.383333333333334 7.123333333333334 0.575
    vertex 6.383333333333334 7.370000000000001 0.9
    vertex 6.383333333333334 7.616666666666667 0.575
  endloop
endfacet
facet normal -1 0 0
  outer loop
    vertex 6.383333333333334 7.370000000000001 0.25
    vertex 6.383333333333334 7.123333333333334 0.575
    vertex 6.383333333333334 7.616666666666667 0.575
  endloop
endfacet
facet normal -1 0 0
  outer loop
    vertex 6.383333333333334 6.876666666666667 0.9
    vertex 6.383333333333334 7.370000000000001 0.9
    vertex 6.383333333333334 7.123333333333334 0.575
  endloop
endfacet
facet normal -1 0 0
  outer loop
    vertex 6.383333333333334 7.370000000000001 0.25
    vertex 6.383333333333334 6.876666666666667 0.25
    vertex 6.383333333333334 7.123333333333334 0.575
  endloop
endfacet
facet normal -1 0 0
  outer loop
    vertex 6.383333333333334 7.863333333333334 0.25
    vertex 6.383333333333334 7.616666666666667 0.575
    vertex 6.383333333333334 8.110000000000001 0.575
  endloop
endfacet
facet normal -1 0 0
  outer loop
    vertex 6.383333333333334 7.370000000000001 0.9
    vertex 6.383333333333334 7.863333333333334 0.9
    vertex 6.383333333333334 7.616666666666667 0.575
  endloop
endfacet
facet normal -1 0 0
  outer loop
    vertex 6.383333333333334 7.616666666666667 0.575
    vertex 6.383333333333334 7.863333333333334 0.9
    vertex 6.383333333333334 8.110000000000001 0.575
  endloop
endfacet
facet normal -1 0 0
  outer loop
    vertex 6.383333333333334 8.356666666666667 0.25
    vertex 6.383333333333334 7.863333333333334 0.25
    vertex 6.383333333333334 8.110000000000001 0.575
  endloop
endfacet
facet normal -1 -0 0
  outer loop
    vertex 6.383333333333334 7.123333333333334 0.575
    vertex 6.383333333333334 6.876666666666667 0.25
    vertex 6.383333333333334 6.713021295712623 0.575
  endloop
endfacet
facet normal -1 0 0
  outer loop
    vertex 6.383333333333334 8.356666666666667 0.25
    vertex 6.383333333333334 8.110000000000001 0.575
    vertex 6.383333333333334 8.520312037620712 0.575
  endloop
endfacet
facet normal -1 0 0
  outer loop
    vertex 6.383333333333334 8.110000000000001 0.575
    vertex 6.383333333333334 8.356666666666667 0.9
    vertex 6.383333333333334 8.520312037620712 0.575
  endloop
endfacet
facet normal -1 0 -0
  outer loop
    vertex 6.383333333333334 6.876666666666667 0.9
    vertex 6.383333333333334 7.123333333333334 0.575
    vertex 6.383333333333334 6.713021295712623 0.575
  endloop
endfacet
facet normal 1 0 0
  outer loop
    vertex 8.850000000000001 8.850000000000001 0.9
    vertex 8.850000000000001 8.520312037620712 0.575
    vertex 8.850000000000001 8.850000000000001 0.5750000000000005
  endloop
endfacet
facet normal 1 -0 0
  outer loop
    vertex 8.850000000000001 6.383333333333334 0.5750000000000005
    vertex 8.850000000000001 6.713021295712623 0.575
    vertex 8.850000000000001 6.383333333333334 0.9
  endloop
endfacet
facet normal 1 0 0
  outer loop
    vertex 8.850000000000001 6.383333333333334 0.25
    vertex 8.850000000000001 6.713021295712623 0.575
    vertex 8.850000000000001 6.383333333333334 0.5750000000000005
  endloop
endfacet
facet normal 1 0 0
  outer loop
    vertex 8.850000000000001 8.850000000000001 0.5750000000000005
    vertex 8.850000000000001 8.520312037620712 0.575
    vertex 8.850000000000001 8.850000000000001 0.25
  endloop
endfacet
facet normal 1 -0 0
  outer loop
    vertex 8.850000000000001 8.356666666666667 0.9
    vertex 8.850000000000001 8.520312037620712 0.575
    vertex 8.850000000000001 8.850000000000001 0.9
  endloop
endfacet
facet normal 1 -0 0
  outer loop
    vertex 8.850000000000001 6.383333333333334 0.9
    vertex 8.850000000000001 6.713021295712623 0.575
    vertex 8.850000000000001 6.876666666666667 0.9
  endloop
endfacet
facet normal 1 0 0
  outer loop
    vertex 8.850000000000001 6.876666666666667 0.25
    vertex 8.850000000000001 6.713021295712623 0.575
    vertex 8.850000000000001 6.383333333333334 0.25
  endloop
endfacet
facet normal 1 0 0
  outer loop
    vertex 8.850000000000001 8.850000000000001 0.25
    vertex 8.850000000000001 8.520312037620712 0.575
    vertex 8.850000000000001 8.356666666666667 0.25
  endloop
endfacet
facet normal 1 -0 0
  outer loop
    vertex 8.850000000000001 7.863333333333334 0.9
    vertex 8.850000000000001 8.110000000000001 0.575
    vertex 8.850000000000001 8.356666666666667 0.9
  endloop
endfacet
facet normal 1 0 0
  outer loop
    vertex 8.850000000000001 7.863333333333334 0.25
    vertex 8.850000000000001 7.616666666666668 0.575
    vertex 8.850000000000001 7.370000000000001 0.25
  endloop
endfacet
facet normal 1 0 0
  outer loop
    vertex 8.850000000000001 8.110000000000001 0.575
    vertex 8.850000000000001 7.616666666666668 0.575
    vertex 8.850000000000001 7.863333333333334 0.25
  endloop
endfacet
facet normal 1 0 0
  outer loop
    vertex 8.850000000000001 7.123333333333334 0.575
    vertex 8.850000000000001 7.616666666666668 0.575
    vertex 8.850000000000001 7.370000000000001 0.9
  endloop
endfacet
facet normal 1 0 -0
  outer loop
    vertex 8.850000000000001 7.370000000000001 0.25
    vertex 8.850000000000001 7.616666666666668 0.575
    vertex 8.850000000000001 7.123333333333334 0.575
  endloop
endfacet
facet normal 1 -0 0
  outer loop
    vertex 8.850000000000001 6.876666666666667 0.9
    vertex 8.850000000000001 7.123333333333334 0.575
    vertex 8.850000000000001 7.370000000000001 0.9
  endloop
endfacet
facet normal 1 0 0
  outer loop
    vertex 8.850000000000001 7.370000000000001 0.25
    vertex 8.850000000000001 7.123333333333334 0.575
    vertex 8.850000000000001 6.876666666666667 0.25
  endloop
endfacet
facet normal 1 0 0
  outer loop
    vertex 8.850000000000001 7.863333333333334 0.9
    vertex 8.850000000000001 7.616666666666668 0.575
    vertex 8.850000000000001 8.110000000000001 0.575
  endloop
endfacet
facet normal 1 -0 0
  outer loop
    vertex 8.850000000000001 7.370000000000001 0.9
    vertex 8.850000000000001 7.616666666666668 0.575
    vertex 8.850000000000001 7.863333333333334 0.9
  endloop
endfacet
facet normal 1 0 0
  outer loop
    vertex 8.850000000000001 8.356666666666667 0.25
    vertex 8.850000000000001 8.110000000000001 0.575
    vertex 8.850000000000001 7.863333333333334 0.25
  endloop
endfacet
facet normal 1 0 0
  outer loop
    vertex 8.850000000000001 7.123333333333334 0.575
    vertex 8.850000000000001 6.713021295712623 0.575
    vertex 8.850000000000001 6.876666666666667 0.25
  endloop
endfacet
facet normal 1 0 -0
  outer loop
    vertex 8.850000000000001 8.356666666666667 0.25
    vertex 8.850000000000001 8.520312037620712 0.575
    vertex 8.850000000000001 8.110000000000001 0.575
  endloop
endfacet
facet normal 1 0 0
  outer loop
    vertex 8.850000000000001 8.110000000000001 0.575
    vertex 8.850000000000001 8.520312037620712 0.575
    vertex 8.850000000000001 8.356666666666667 0.9
  endloop
endfacet
facet normal 1 0 0
  outer loop
    vertex 8.850000000000001 6.876666666666667 0.9
    vertex 8.850000000000001 6.713021295712623 0.575
    vertex 8.850000000000001 7.123333333333334 0.575
  endloop
endfacet
facet normal -0 -1 0
  outer loop
    vertex 8.850000000000001 6.383333333333334 0.5750000000000005
    vertex 8.850000000000001 6.383333333333334 0.9
    vertex 8.520312037620712 6.383333333333334 0.575
  endloop
endfacet
facet normal 0 -1 0
  outer loop
    vertex 6.383333333333334 6.383333333333334 0.9
    vertex 6.383333333333334 6.383333333333334 0.5750000000000005
    vertex 6.713021295712623 6.383333333333334 0.575
  endloop
endfacet
facet normal 0 -1 0
  outer loop
    vertex 6.383333333333334 6.383333333333334 0.5750000000000005
    vertex 6.383333333333334 6.383333333333334 0.25
    vertex 6.713021295712623 6.383333333333334 0.575
  endloop
endfacet
facet normal 0 -1 0
  outer loop
    vertex 8.850000000000001 6.383333333333334 0.25
    vertex 8.850000000000001 6.383333333333334 0.5750000000000005
    vertex 8.520312037620712 6.383333333333334 0.575
  endloop
endfacet
facet normal 0 -1 0
  outer loop
    vertex 8.356666666666667 6.383333333333334 0.25
    vertex 8.850000000000001 6.383333333333334 0.25
    vertex 8.520312037620712 6.383333333333334 0.575
  endloop
endfacet
facet normal 0 -1 0
  outer loop
    vertex 6.383333333333334 6.383333333333334 0.25
    vertex 6.876666666666667 6.383333333333334 0.25
    vertex 6.713021295712623 6.383333333333334 0.575
  endloop
endfacet
facet normal -0 -1 0
  outer loop
    vertex 6.876666666666667 6.383333333333334 0.9
    vertex 6.383333333333334 6.383333333333334 0.9
    vertex 6.713021295712623 6.383333333333334 0.575
  endloop
endfacet
facet normal -0 -1 0
  outer loop
    vertex 8.850000000000001 6.383333333333334 0.9
    vertex 8.356666666666667 6.383333333333334 0.9
    vertex 8.520312037620712 6.383333333333334 0.575
  endloop
endfacet
facet normal 0 -1 0
  outer loop
    vertex 7.123333333333334 6.383333333333334 0.575
    vertex 7.370000000000001 6.383333333333334 0.25
    vertex 7.616666666666668 6.383333333333334 0.575
  endloop
endfacet
facet normal -0 -1 0
  outer loop
    vertex 7.863333333333334 6.383333333333334 0.9
    vertex 7.370000000000001 6.383333333333334 0.9
    vertex 7.616666666666668 6.383333333333334 0.575
  endloop
endfacet
facet normal 0 -1 0
  outer loop
    vertex 7.863333333333334 6.383333333333334 0.25
    vertex 8.356666666666667 6.383333333333334 0.25
    vertex 8.110000000000001 6.383333333333334 0.575
  endloop
endfacet
facet normal 0 -1 0
  outer loop
    vertex 6.876666666666667 6.383333333333334 0.25
    vertex 7.370000000000001 6.383333333333334 0.25
    vertex 7.123333333333334 6.383333333333334 0.575
  endloop
endfacet
facet normal -0 -1 0
  outer loop
    vertex 7.370000000000001 6.383333333333334 0.9
    vertex 6.876666666666667 6.383333333333334 0.9
    vertex 7.123333333333334 6.383333333333334 0.575
  endloop
endfacet
facet normal 0 -1 -0
  outer loop
    vertex 7.370000000000001 6.383333333333334 0.9
    vertex 7.123333333333334 6.383333333333334 0.575
    vertex 7.616666666666668 6.383333333333334 0.575
  endloop
endfacet
facet normal 0 -1 -0
  outer loop
    vertex 7.863333333333334 6.383333333333334 0.9
    vertex 7.616666666666668 6.383333333333334 0.575
    vertex 8.110000000000001 6.383333333333334 0.575
  endloop
endfacet
facet normal 0 -1 0
  outer loop
    vertex 7.370000000000001 6.383333333333334 0.25
    vertex 7.863333333333334 6.383333333333334 0.25
    vertex 7.616666666666668 6.383333333333334 0.575
  endloop
endfacet
facet normal 0 -1 0
  outer loop
    vertex 7.616666666666668 6.383333333333334 0.575
    vertex 7.863333333333334 6.383333333333334 0.25
    vertex 8.110000000000001 6.383333333333334 0.575
  endloop
endfacet
facet normal -0 -1 0
  outer loop
    vertex 8.356666666666667 6.383333333333334 0.9
    vertex 7.863333333333334 6.383333333333334 0.9
    vertex 8.110000000000001 6.383333333333334 0.575
  endloop
endfacet
facet normal 0 -1 0
  outer loop
    vertex 7.123333333333334 6.383333333333334 0.575
    vertex 6.876666666666667 6.383333333333334 0.9
    vertex 6.713021295712623 6.383333333333334 0.575
  endloop
endfacet
facet normal 0 -1 0
  outer loop
    vertex 8.110000000000001 6.383333333333334 0.575
    vertex 8.356666666666667 6.383333333333334 0.25
    vertex 8.520312037620712 6.383333333333334 0.575
  endloop
endfacet
facet normal 0 -1 -0
  outer loop
    vertex 8.356666666666667 6.383333333333334 0.9
    vertex 8.110000000000001 6.383333333333334 0.575
    vertex 8.520312037620712 6.383333333333334 0.575
  endloop
endfacet
facet normal 0 -1 0
  outer loop
    vertex 6.876666666666667 6.383333333333334 0.25
    vertex 7.123333333333334 6.383333333333334 0.575
    vertex 6.713021295712623 6.383333333333334 0.575
  endloop
endfacet
facet normal 0 1 -0
  outer loop
    vertex 8.850000000000001 8.850000000000001 0.5750000000000005
    vertex 8.520312037620712 8.850000000000001 0.575
    vertex 8.850000000000001 8.850000000000001 0.9
  endloop
endfacet
facet normal 0 1 0
  outer loop
    vertex 6.383333333333334 8.850000000000001 0.9
    vertex 6.713021295712623 8.850000000000001 0.575
    vertex 6.383333333333334 8.850000000000001 0.5750000000000005
  endloop
endfacet
facet normal 0 1 0
  outer loop
    vertex 6.383333333333334 8.850000000000001 0.5750000000000005
    vertex 6.713021295712623 8.850000000000001 0.575
    vertex 6.383333333333334 8.850000000000001 0.25
  endloop
endfacet
facet normal 0 1 -0
  outer loop
    vertex 8.850000000000001 8.850000000000001 0.25
    vertex 8.520312037620712 8.850000000000001 0.575
    vertex 8.850000000000001 8.850000000000001 0.5750000000000005
  endloop
endfacet
facet normal 0 1 0
  outer loop
    vertex 8.356666666666667 8.850000000000001 0.25
    vertex 8.520312037620712 8.850000000000001 0.575
    vertex 8.850000000000001 8.850000000000001 0.25
  endloop
endfacet
facet normal 0 1 0
  outer loop
    vertex 6.383333333333334 8.850000000000001 0.25
    vertex 6.713021295712623 8.850000000000001 0.575
    vertex 6.876666666666667 8.850000000000001 0.25
  endloop
endfacet
facet normal 0 1 0
  outer loop
    vertex 6.876666666666667 8.850000000000001 0.9
    vertex 6.713021295712623 8.850000000000001 0.575
    vertex 6.383333333333334 8.850000000000001 0.9
  endloop
endfacet
facet normal 0 1 0
  outer loop
    vertex 8.850000000000001 8.850000000000001 0.9
    vertex 8.520312037620712 8.850000000000001 0.575
    vertex 8.356666666666667 8.850000000000001 0.9
  endloop
endfacet
facet normal 0 1 0
  outer loop
    vertex 7.863333333333334 8.850000000000001 0.9
    vertex 7.616666666666668 8.850000000000001 0.575
    vertex 7.370000000000001 8.850000000000001 0.9
  endloop
endfacet
facet normal 0 1 0
  outer loop
    vertex 7.863333333333334 8.850000000000001 0.25
    vertex 8.110000000000001 8.850000000000001 0.575
    vertex 8.356666666666667 8.850000000000001 0.25
  endloop
endfacet
facet normal -0 1 0
  outer loop
    vertex 7.616666666666668 8.850000000000001 0.575
    vertex 8.110000000000001 8.850000000000001 0.575
    vertex 7.863333333333334 8.850000000000001 0.25
  endloop
endfacet
facet normal 0 1 0
  outer loop
    vertex 6.876666666666667 8.850000000000001 0.25
    vertex 7.123333333333334 8.850000000000001 0.575
    vertex 7.370000000000001 8.850000000000001 0.25
  endloop
endfacet
facet normal -0 1 0
  outer loop
    vertex 7.123333333333334 8.850000000000001 0.575
    vertex 7.616666666666668 8.850000000000001 0.575
    vertex 7.370000000000001 8.850000000000001 0.25
  endloop
endfacet
facet normal 0 1 0
  outer loop
    vertex 7.370000000000001 8.850000000000001 0.9
    vertex 7.123333333333334 8.850000000000001 0.575
    vertex 6.876666666666667 8.850000000000001 0.9
  endloop
endfacet
facet normal 0 1 0
  outer loop
    vertex 7.370000000000001 8.850000000000001 0.9
    vertex 7.616666666666668 8.850000000000001 0.575
    vertex 7.123333333333334 8.850000000000001 0.575
  endloop
endfacet
facet normal 0 1 0
  outer loop
    vertex 7.863333333333334 8.850000000000001 0.9
    vertex 8.110000000000001 8.850000000000001 0.575
    vertex 7.616666666666668 8.850000000000001 0.575
  endloop
endfacet
facet normal 0 1 0
  outer loop
    vertex 7.370000000000001 8.850000000000001 0.25
    vertex 7.616666666666668 8.850000000000001 0.575
    vertex 7.863333333333334 8.850000000000001 0.25
  endloop
endfacet
facet normal 0 1 0
  outer loop
    vertex 8.356666666666667 8.850000000000001 0.9
    vertex 8.110000000000001 8.850000000000001 0.575
    vertex 7.863333333333334 8.850000000000001 0.9
  endloop
endfacet
facet normal 0 1 0
  outer loop
    vertex 7.123333333333334 8.850000000000001 0.575
    vertex 6.713021295712623 8.850000000000001 0.575
    vertex 6.876666666666667 8.850000000000001 0.9
  endloop
endfacet
facet normal -0 1 0
  outer loop
    vertex 8.110000000000001 8.850000000000001 0.575
    vertex 8.520312037620712 8.850000000000001 0.575
    vertex 8.356666666666667 8.850000000000001 0.25
  endloop
endfacet
facet normal 0 1 0
  outer loop
    vertex 8.356666666666667 8.850000000000001 0.9
    vertex 8.520312037620712 8.850000000000001 0.575
    vertex 8.110000000000001 8.850000000000001 0.575
  endloop
endfacet
facet normal 0 1 -0
  outer loop
    vertex 6.876666666666667 8.850000000000001 0.25
    vertex 6.713021295712623 8.850000000000001 0.575
    vertex 7.123333333333334 8.850000000000001 0.575
  endloop
endfacet
facet normal 0 0 -1
  outer loop
    vertex 7.162528900832758 6.813816985539066 0.25
    vertex 7.201335162812046 7.333936048382651 0.25
    vertex 7.674396230337772 7.166985743768807 0.25
  endloop
endfacet
facet normal 0 0 -1
  outer loop
    vertex 7.636528228051035 6.712654373040119 0.25
    vertex 7.162528900832758 6.813816985539066 0.25
    vertex 7.674396230337772 7.166985743768807 0.25
  endloop
endfacet
facet normal 0 -0 -1
  outer loop
    vertex 7.125178869548446 8.432400517114049 0.25
    vertex 7.360527697280526 8.037811635536025 0.25
    vertex 6.847534582748344 8.069649004787969 0.25
  endloop
endfacet
facet normal 0 -0 -1
  outer loop
    vertex 8.060471635215656 7.343311097643525 0.25
    vertex 8.072420548349504 6.847291143254914 0.25
    vertex 7.674396230337772 7.166985743768807 0.25
  endloop
endfacet
facet normal -0 0 -1
  outer loop
    vertex 8.39318083061446 8.083677811455756 0.25
    vertex 7.863852482831177 8.049645593800012 0.25
    vertex 8.09642048217045 8.457877838331349 0.25
  endloop
endfacet
facet normal 0 0 -1
  outer loop
    vertex 7.162528900832758 6.813816985539066 0.25
    vertex 6.801142620576042 7.123613488958437 0.25
    vertex 7.201335162812046 7.333936048382651 0.25
  endloop
endfacet
facet normal -0 0 -1
  outer loop
    vertex 8.451033642670524 7.13805168400657 0.25
    vertex 8.072420548349504 6.847291143254914 0.25
    vertex 8.060471635215656 7.343311097643525 0.25
  endloop
endfacet
facet normal 0 0 -1
  outer loop
    vertex 6.847534582748344 8.069649004787969 0.25
    vertex 7.360527697280526 8.037811635536025 0.25
    vertex 7.14874747095642 7.7197687344379 0.25
  endloop
endfacet
facet normal 0 0 -1
  outer loop
    vertex 7.863852482831177 8.049645593800012 0.25
    vertex 8.39318083061446 8.083677811455756 0.25
    vertex 8.084717219729647 7.719962700265968 0.25
  endloop
endfacet
facet normal -0 0 -1
  outer loop
    vertex 8.072420548349504 6.847291143254914 0.25
    vertex 7.636528228051035 6.712654373040119 0.25
    vertex 7.674396230337772 7.166985743768807 0.25
  endloop
endfacet
facet normal 0 0 -1
  outer loop
    vertex 6.383333333333334 7.370000000000001 0.25
    vertex 6.787142976385701 7.588707211495125 0.25
    vertex 6.801142620576042 7.123613488958437 0.25
  endloop
endfacet
facet normal -0 0 -1
  outer loop
    vertex 8.850000000000001 7.863333333333334 0.25
    vertex 8.446209392422908 7.596851188468321 0.25
    vertex 8.39318083061446 8.083677811455756 0.25
  endloop
endfacet
facet normal 0 0 -1
  outer loop
    vertex 7.863333333333334 6.383333333333334 0.25
    vertex 7.636528228051035 6.712654373040119 0.25
    vertex 8.072420548349504 6.847291143254914 0.25
  endloop
endfacet
facet normal 0 -0 -1
  outer loop
    vertex 7.370000000000001 8.850000000000001 0.25
    vertex 7.612634644644364 8.425088689799633 0.25
    vertex 7.125178869548446 8.432400517114049 0.25
  endloop
endfacet
facet normal 0 0 -1
  outer loop
    vertex 7.360527697280526 8.037811635536025 0.25
    vertex 7.612634644644364 8.425088689799633 0.25
    vertex 7.863852482831177 8.049645593800012 0.25
  endloop
endfacet
facet normal 0 0 -1
  outer loop
    vertex 6.383333333333334 7.370000000000001 0.25
    vertex 6.383333333333334 7.863333333333334 0.25
    vertex 6.787142976385701 7.588707211495125 0.25
  endloop
endfacet
facet normal 0 -0 -1
  outer loop
    vertex 8.850000000000001 7.863333333333334 0.25
    vertex 8.850000000000001 7.370000000000001 0.25
    vertex 8.446209392422908 7.596851188468321 0.25
  endloop
endfacet
facet normal 0 0 -1
  outer loop
    vertex 7.863333333333334 6.383333333333334 0.25
    vertex 7.370000000000001 6.383333333333334 0.25
    vertex 7.636528228051035 6.712654373040119 0.25
  endloop
endfacet
facet normal 0 0 -1
  outer loop
    vertex 7.370000000000001 8.850000000000001 0.25
    vertex 7.863333333333334 8.850000000000001 0.25
    vertex 7.612634644644364 8.425088689799633 0.25
  endloop
endfacet
facet normal 0 0 -1
  outer loop
    vertex 7.125178869548446 8.432400517114049 0.25
    vertex 7.612634644644364 8.425088689799633 0.25
    vertex 7.360527697280526 8.037811635536025 0.25
  endloop
endfacet
facet normal 0 0 -1
  outer loop
    vertex 6.383333333333334 6.876666666666667 0.25
    vertex 6.383333333333334 7.370000000000001 0.25
    vertex 6.801142620576042 7.123613488958437 0.25
  endloop
endfacet
facet normal 0 -0 -1
  outer loop
    vertex 8.850000000000001 8.356666666666667 0.25
    vertex 8.850000000000001 7.863333333333334 0.25
    vertex 8.39318083061446 8.083677811455756 0.25
  endloop
endfacet
facet normal 0 0 -1
  outer loop
    vertex 8.356666666666667 6.383333333333334 0.25
    vertex 7.863333333333334 6.383333333333334 0.25
    vertex 8.072420548349504 6.847291143254914 0.25
  endloop
endfacet
facet normal 0 0 -1
  outer loop
    vertex 7.360527697280526 8.037811635536025 0.25
    vertex 7.863852482831177 8.049645593800012 0.25
    vertex 7.616666666666666 7.568282402399032 0.25
  endloop
endfacet
facet normal 0 0 -1
  outer loop
    vertex 6.876666666666667 8.850000000000001 0.25
    vertex 7.370000000000001 8.850000000000001 0.25
    vertex 7.125178869548446 8.432400517114049 0.25
  endloop
endfacet
facet normal 0 0 -1
  outer loop
    vertex 7.863852482831177 8.049645593800012 0.25
    vertex 7.612634644644364 8.425088689799633 0.25
    vertex 8.09642048217045 8.457877838331349 0.25
  endloop
endfacet
facet normal 0 0 -1
  outer loop
    vertex 7.863333333333334 8.850000000000001 0.25
    vertex 8.356666666666667 8.850000000000001 0.25
    vertex 8.09642048217045 8.457877838331349 0.25
  endloop
endfacet
facet normal 0 0 -1
  outer loop
    vertex 6.383333333333334 7.863333333333334 0.25
    vertex 6.383333333333334 8.356666666666667 0.25
    vertex 6.847534582748344 8.069649004787969 0.25
  endloop
endfacet
facet normal 0 0 -1
  outer loop
    vertex 7.370000000000001 6.383333333333334 0.25
    vertex 6.876666666666667 6.383333333333334 0.25
    vertex 7.162528900832758 6.813816985539066 0.25
  endloop
endfacet
facet normal 0 -0 -1
  outer loop
    vertex 8.850000000000001 7.370000000000001 0.25
    vertex 8.850000000000001 6.876666666666667 0.25
    vertex 8.451033642670524 7.13805168400657 0.25
  endloop
endfacet
facet normal 0 0 -1
  outer loop
    vertex 8.446209392422908 7.596851188468321 0.25
    vertex 8.850000000000001 7.370000000000001 0.25
    vertex 8.451033642670524 7.13805168400657 0.25
  endloop
endfacet
facet normal 0 0 -1
  outer loop
    vertex 7.612634644644364 8.425088689799633 0.25
    vertex 7.863333333333334 8.850000000000001 0.25
    vertex 8.09642048217045 8.457877838331349 0.25
  endloop
endfacet
facet normal 0 0 -1
  outer loop
    vertex 6.787142976385701 7.588707211495125 0.25
    vertex 6.383333333333334 7.863333333333334 0.25
    vertex 6.847534582748344 8.069649004787969 0.25
  endloop
endfacet
facet normal -0 0 -1
  outer loop
    vertex 7.636528228051035 6.712654373040119 0.25
    vertex 7.370000000000001 6.383333333333334 0.25
    vertex 7.162528900832758 6.813816985539066 0.25
  endloop
endfacet
facet normal 0 0 -1
  outer loop
    vertex 6.801142620576042 7.123613488958437 0.25
    vertex 6.787142976385701 7.588707211495125 0.25
    vertex 7.201335162812046 7.333936048382651 0.25
  endloop
endfacet
facet normal 0 0 -1
  outer loop
    vertex 8.850000000000001 6.383333333333334 0.25
    vertex 8.356666666666667 6.383333333333334 0.25
    vertex 8.488854934932689 6.744478398400648 0.25
  endloop
endfacet
facet normal 0 0 -1
  outer loop
    vertex 8.356666666666667 8.850000000000001 0.25
    vertex 8.850000000000001 8.850000000000001 0.25
    vertex 8.488854934932689 8.488854934932689 0.25
  endloop
endfacet
facet normal 0 0 -1
  outer loop
    vertex 6.383333333333334 6.383333333333334 0.25
    vertex 6.383333333333334 6.876666666666667 0.25
    vertex 6.744478398400647 6.744478398400647 0.25
  endloop
endfacet
facet normal 0 0 -1
  outer loop
    vertex 6.876666666666667 6.383333333333334 0.25
    vertex 6.383333333333334 6.383333333333334 0.25
    vertex 6.744478398400647 6.744478398400647 0.25
  endloop
endfacet
facet normal 0 0 -1
  outer loop
    vertex 6.383333333333334 8.850000000000001 0.25
    vertex 6.876666666666667 8.850000000000001 0.25
    vertex 6.744478398400647 8.488854934932689 0.25
  endloop
endfacet
facet normal 0 0 -1
  outer loop
    vertex 6.383333333333334 8.356666666666667 0.25
    vertex 6.383333333333334 8.850000000000001 0.25
    vertex 6.744478398400647 8.488854934932689 0.25
  endloop
endfacet
facet normal 0 -0 -1
  outer loop
    vertex 8.850000000000001 6.876666666666667 0.25
    vertex 8.850000000000001 6.383333333333334 0.25
    vertex 8.488854934932689 6.744478398400648 0.25
  endloop
endfacet
facet normal 0 -0 -1
  outer loop
    vertex 8.850000000000001 8.850000000000001 0.25
    vertex 8.850000000000001 8.356666666666667 0.25
    vertex 8.488854934932689 8.488854934932689 0.25
  endloop
endfacet
facet normal 0 0 -1
  outer loop
    vertex 7.201335162812046 7.333936048382651 0.25
    vertex 7.616666666666666 7.568282402399032 0.25
    vertex 7.674396230337772 7.166985743768807 0.25
  endloop
endfacet
facet normal 0 -0 -1
  outer loop
    vertex 8.39318083061446 8.083677811455756 0.25
    vertex 8.446209392422908 7.596851188468321 0.25
    vertex 8.084717219729647 7.719962700265968 0.25
  endloop
endfacet
facet normal 0 -0 -1
  outer loop
    vertex 8.446209392422908 7.596851188468321 0.25
    vertex 8.451033642670524 7.13805168400657 0.25
    vertex 8.060471635215656 7.343311097643525 0.25
  endloop
endfacet
facet normal 0 0 -1
  outer loop
    vertex 7.616666666666666 7.568282402399032 0.25
    vertex 7.863852482831177 8.049645593800012 0.25
    vertex 8.084717219729647 7.719962700265968 0.25
  endloop
endfacet
facet normal 0 -0 -1
  outer loop
    vertex 7.360527697280526 8.037811635536025 0.25
    vertex 7.616666666666666 7.568282402399032 0.25
    vertex 7.14874747095642 7.7197687344379 0.25
  endloop
endfacet
facet normal 0 0 -1
  outer loop
    vertex 6.787142976385701 7.588707211495125 0.25
    vertex 6.847534582748344 8.069649004787969 0.25
    vertex 7.14874747095642 7.7197687344379 0.25
  endloop
endfacet
facet normal 0 0 -1
  outer loop
    vertex 8.060471635215656 7.343311097643525 0.25
    vertex 7.616666666666666 7.568282402399032 0.25
    vertex 8.084717219729647 7.719962700265968 0.25
  endloop
endfacet
facet normal -0 0 -1
  outer loop
    vertex 7.616666666666666 7.568282402399032 0.25
    vertex 7.201335162812046 7.333936048382651 0.25
    vertex 7.14874747095642 7.7197687344379 0.25
  endloop
endfacet
facet normal 0 0 -1
  outer loop
    vertex 7.162528900832758 6.813816985539066 0.25
    vertex 6.876666666666667 6.383333333333334 0.25
    vertex 6.744478398400647 6.744478398400647 0.25
  endloop
endfacet
facet normal 0 0 -1
  outer loop
    vertex 8.451033642670524 7.13805168400657 0.25
    vertex 8.850000000000001 6.876666666666667 0.25
    vertex 8.488854934932689 6.744478398400648 0.25
  endloop
endfacet
facet normal 0 0 -1
  outer loop
    vertex 6.847534582748344 8.069649004787969 0.25
    vertex 6.383333333333334 8.356666666666667 0.25
    vertex 6.744478398400647 8.488854934932689 0.25
  endloop
endfacet
facet normal 0 0 -1
  outer loop
    vertex 8.09642048217045 8.457877838331349 0.25
    vertex 8.356666666666667 8.850000000000001 0.25
    vertex 8.488854934932689 8.488854934932689 0.25
  endloop
endfacet
facet normal 0 -0 -1
  outer loop
    vertex 6.876666666666667 8.850000000000001 0.25
    vertex 7.125178869548446 8.432400517114049 0.25
    vertex 6.744478398400647 8.488854934932689 0.25
  endloop
endfacet
facet normal 0 0 -1
  outer loop
    vertex 8.356666666666667 6.383333333333334 0.25
    vertex 8.072420548349504 6.847291143254914 0.25
    vertex 8.488854934932689 6.744478398400648 0.25
  endloop
endfacet
facet normal 0 0 -1
  outer loop
    vertex 6.383333333333334 6.876666666666667 0.25
    vertex 6.801142620576042 7.123613488958437 0.25
    vertex 6.744478398400647 6.744478398400647 0.25
  endloop
endfacet
facet normal -0 0 -1
  outer loop
    vertex 8.850000000000001 8.356666666666667 0.25
    vertex 8.39318083061446 8.083677811455756 0.25
    vertex 8.488854934932689 8.488854934932689 0.25
  endloop
endfacet
facet normal 0 0 -1
  outer loop
    vertex 8.39318083061446 8.083677811455756 0.25
    vertex 8.09642048217045 8.457877838331349 0.25
    vertex 8.488854934932689 8.488854934932689 0.25
  endloop
endfacet
facet normal -0 0 -1
  outer loop
    vertex 7.125178869548446 8.432400517114049 0.25
    vertex 6.847534582748344 8.069649004787969 0.25
    vertex 6.744478398400647 8.488854934932689 0.25
  endloop
endfacet
facet normal 0 -0 -1
  outer loop
    vertex 6.801142620576042 7.123613488958437 0.25
    vertex 7.162528900832758 6.813816985539066 0.25
    vertex 6.744478398400647 6.744478398400647 0.25
  endloop
endfacet
facet normal 0 0 -1
  outer loop
    vertex 8.072420548349504 6.847291143254914 0.25
    vertex 8.451033642670524 7.13805168400657 0.25
    vertex 8.488854934932689 6.744478398400648 0.25
  endloop
endfacet
facet normal 0 0 -1
  outer loop
    vertex 7.616666666666666 7.568282402399032 0.25
    vertex 8.060471635215656 7.343311097643525 0.25
    vertex 7.674396230337772 7.166985743768807 0.25
  endloop
endfacet
facet normal 0 0 -1
  outer loop
    vertex 7.201335162812046 7.333936048382651 0.25
    vertex 6.787142976385701 7.588707211495125 0.25
    vertex 7.14874747095642 7.7197687344379 0.25
  endloop
endfacet
facet normal -0 0 -1
  outer loop
    vertex 8.446209392422908 7.596851188468321 0.25
    vertex 8.060471635215656 7.343311097643525 0.25
    vertex 8.084717219729647 7.719962700265968 0.25
  endloop
endfacet
facet normal 0 0 1
  outer loop
    vertex 8.070804432500578 8.41951634779427 0.9
    vertex 7.558918266669822 8.066380215037739 0.9
    vertex 8.031998170521289 7.899397284950684 0.9
  endloop
endfacet
facet normal 0 0 1
  outer loop
    vertex 7.5968051052823 8.520678960293216 0.9
    vertex 7.558918266669822 8.066380215037739 0.9
    vertex 8.070804432500578 8.41951634779427 0.9
  endloop
endfacet
facet normal 0 -0 1
  outer loop
    vertex 8.108838478567311 6.80173676231542 0.9
    vertex 8.400233272392777 7.158640307585301 0.9
    vertex 7.870977659186319 7.190531162911553 0.9
  endloop
endfacet
facet normal 0 0 1
  outer loop
    vertex 7.361218624608253 7.195900917105112 0.9
    vertex 6.847314232004995 7.163143570145903 0.9
    vertex 7.125423768845233 6.801074208894211 0.9
  endloop
endfacet
facet normal 0 -0 1
  outer loop
    vertex 7.172427528343878 7.890774239797144 0.9
    vertex 7.558918266669822 8.066380215037739 0.9
    vertex 7.160912784983831 8.38604219007842 0.9
  endloop
endfacet
facet normal 0 0 1
  outer loop
    vertex 8.070804432500578 8.41951634779427 0.9
    vertex 8.031998170521289 7.899397284950684 0.9
    vertex 8.432190712757293 8.109719844374899 0.9
  endloop
endfacet
facet normal -0 0 1
  outer loop
    vertex 6.78202256101996 8.095761651948468 0.9
    vertex 7.172427528343878 7.890774239797144 0.9
    vertex 7.160912784983831 8.38604219007842 0.9
  endloop
endfacet
facet normal 0 0 1
  outer loop
    vertex 8.400233272392777 7.158640307585301 0.9
    vertex 8.084585862376915 7.513564598895435 0.9
    vertex 7.870977659186319 7.190531162911553 0.9
  endloop
endfacet
facet normal 0 0 1
  outer loop
    vertex 7.361218624608253 7.195900917105112 0.9
    vertex 7.148616113603689 7.513370633067368 0.9
    vertex 6.847314232004995 7.163143570145903 0.9
  endloop
endfacet
facet normal -0 0 1
  outer loop
    vertex 7.160912784983831 8.38604219007842 0.9
    vertex 7.558918266669822 8.066380215037739 0.9
    vertex 7.5968051052823 8.520678960293216 0.9
  endloop
endfacet
facet normal 0 -0 1
  outer loop
    vertex 7.863333333333334 6.383333333333334 0.9
    vertex 8.108838478567311 6.80173676231542 0.9
    vertex 7.616666666666667 6.810572532533657 0.9
  endloop
endfacet
facet normal 0 0 1
  outer loop
    vertex 8.850000000000001 7.863333333333334 0.9
    vertex 8.432190712757293 8.109719844374899 0.9
    vertex 8.446190356947634 7.644626121838209 0.9
  endloop
endfacet
facet normal 0 0 1
  outer loop
    vertex 7.370000000000001 8.850000000000001 0.9
    vertex 7.160912784983831 8.38604219007842 0.9
    vertex 7.5968051052823 8.520678960293216 0.9
  endloop
endfacet
facet normal 0 0 1
  outer loop
    vertex 7.616666666666667 6.810572532533657 0.9
    vertex 7.361218624608253 7.195900917105112 0.9
    vertex 7.125423768845233 6.801074208894211 0.9
  endloop
endfacet
facet normal 0 0 1
  outer loop
    vertex 7.870977659186319 7.190531162911553 0.9
    vertex 7.616666666666669 7.665050930934303 0.9
    vertex 7.361218624608253 7.195900917105112 0.9
  endloop
endfacet
facet normal 0 0 1
  outer loop
    vertex 6.383333333333334 7.370000000000001 0.9
    vertex 6.784796051910472 7.640514166887317 0.9
    vertex 6.383333333333334 7.863333333333334 0.9
  endloop
endfacet
facet normal 0 0 1
  outer loop
    vertex 8.850000000000001 7.863333333333334 0.9
    vertex 8.446190356947634 7.644626121838209 0.9
    vertex 8.850000000000001 7.370000000000001 0.9
  endloop
endfacet
facet normal 0 0 1
  outer loop
    vertex 7.863333333333334 6.383333333333334 0.9
    vertex 7.616666666666667 6.810572532533657 0.9
    vertex 7.370000000000001 6.383333333333334 0.9
  endloop
endfacet
facet normal -0 0 1
  outer loop
    vertex 7.370000000000001 8.850000000000001 0.9
    vertex 7.5968051052823 8.520678960293216 0.9
    vertex 7.863333333333334 8.850000000000001 0.9
  endloop
endfacet
facet normal 0 0 1
  outer loop
    vertex 7.370000000000001 6.383333333333334 0.9
    vertex 7.125423768845233 6.801074208894211 0.9
    vertex 6.876666666666667 6.383333333333334 0.9
  endloop
endfacet
facet normal 0 0 1
  outer loop
    vertex 7.616666666666667 6.810572532533657 0.9
    vertex 7.125423768845233 6.801074208894211 0.9
    vertex 7.370000000000001 6.383333333333334 0.9
  endloop
endfacet
facet normal 0 -0 1
  outer loop
    vertex 7.616666666666667 6.810572532533657 0.9
    vertex 7.870977659186319 7.190531162911553 0.9
    vertex 7.361218624608253 7.195900917105112 0.9
  endloop
endfacet
facet normal 0 0 1
  outer loop
    vertex 8.850000000000001 8.356666666666667 0.9
    vertex 8.432190712757293 8.109719844374899 0.9
    vertex 8.850000000000001 7.863333333333334 0.9
  endloop
endfacet
facet normal 0 0 1
  outer loop
    vertex 8.356666666666667 6.383333333333334 0.9
    vertex 8.108838478567311 6.80173676231542 0.9
    vertex 7.863333333333334 6.383333333333334 0.9
  endloop
endfacet
facet normal -0 0 1
  outer loop
    vertex 6.876666666666667 8.850000000000001 0.9
    vertex 7.160912784983831 8.38604219007842 0.9
    vertex 7.370000000000001 8.850000000000001 0.9
  endloop
endfacet
facet normal -0 0 1
  outer loop
    vertex 7.616666666666667 6.810572532533657 0.9
    vertex 8.108838478567311 6.80173676231542 0.9
    vertex 7.870977659186319 7.190531162911553 0.9
  endloop
endfacet
facet normal -0 0 1
  outer loop
    vertex 7.863333333333334 8.850000000000001 0.9
    vertex 8.070804432500578 8.41951634779427 0.9
    vertex 8.356666666666667 8.850000000000001 0.9
  endloop
endfacet
facet normal 0 0 1
  outer loop
    vertex 6.383333333333334 6.876666666666667 0.9
    vertex 6.847314232004995 7.163143570145903 0.9
    vertex 6.383333333333334 7.370000000000001 0.9
  endloop
endfacet
facet normal 0 0 1
  outer loop
    vertex 6.383333333333334 7.863333333333334 0.9
    vertex 6.78202256101996 8.095761651948468 0.9
    vertex 6.383333333333334 8.356666666666667 0.9
  endloop
endfacet
facet normal 0 0 1
  outer loop
    vertex 8.850000000000001 7.370000000000001 0.9
    vertex 8.400233272392777 7.158640307585301 0.9
    vertex 8.850000000000001 6.876666666666667 0.9
  endloop
endfacet
facet normal -0 0 1
  outer loop
    vertex 6.383333333333334 7.370000000000001 0.9
    vertex 6.847314232004995 7.163143570145903 0.9
    vertex 6.784796051910472 7.640514166887317 0.9
  endloop
endfacet
facet normal 0 0 1
  outer loop
    vertex 8.446190356947634 7.644626121838209 0.9
    vertex 8.400233272392777 7.158640307585301 0.9
    vertex 8.850000000000001 7.370000000000001 0.9
  endloop
endfacet
facet normal -0 0 1
  outer loop
    vertex 7.5968051052823 8.520678960293216 0.9
    vertex 8.070804432500578 8.41951634779427 0.9
    vertex 7.863333333333334 8.850000000000001 0.9
  endloop
endfacet
facet normal 0 0 1
  outer loop
    vertex 6.784796051910472 7.640514166887317 0.9
    vertex 6.78202256101996 8.095761651948468 0.9
    vertex 6.383333333333334 7.863333333333334 0.9
  endloop
endfacet
facet normal 0 0 1
  outer loop
    vertex 8.432190712757293 8.109719844374899 0.9
    vertex 8.031998170521289 7.899397284950684 0.9
    vertex 8.446190356947634 7.644626121838209 0.9
  endloop
endfacet
facet normal -0 0 1
  outer loop
    vertex 8.356666666666667 8.850000000000001 0.9
    vertex 8.488854934932689 8.488854934932689 0.9
    vertex 8.850000000000001 8.850000000000001 0.9
  endloop
endfacet
facet normal 0 0 1
  outer loop
    vertex 6.383333333333334 6.383333333333334 0.9
    vertex 6.744478398400647 6.744478398400647 0.9
    vertex 6.383333333333334 6.876666666666667 0.9
  endloop
endfacet
facet normal 0 0 1
  outer loop
    vertex 6.876666666666667 6.383333333333334 0.9
    vertex 6.744478398400647 6.744478398400647 0.9
    vertex 6.383333333333334 6.383333333333334 0.9
  endloop
endfacet
facet normal -0 0 1
  outer loop
    vertex 6.383333333333334 8.850000000000001 0.9
    vertex 6.744478398400647 8.488854934932689 0.9
    vertex 6.876666666666667 8.850000000000001 0.9
  endloop
endfacet
facet normal 0 0 1
  outer loop
    vertex 6.383333333333334 8.356666666666667 0.9
    vertex 6.744478398400647 8.488854934932689 0.9
    vertex 6.383333333333334 8.850000000000001 0.9
  endloop
endfacet
facet normal 0 0 1
  outer loop
    vertex 8.850000000000001 6.876666666666667 0.9
    vertex 8.488854934932689 6.744478398400647 0.9
    vertex 8.850000000000001 6.383333333333334 0.9
  endloop
endfacet
facet normal 0 0 1
  outer loop
    vertex 8.850000000000001 6.383333333333334 0.9
    vertex 8.488854934932689 6.744478398400647 0.9
    vertex 8.356666666666667 6.383333333333334 0.9
  endloop
endfacet
facet normal 0 0 1
  outer loop
    vertex 8.850000000000001 8.850000000000001 0.9
    vertex 8.488854934932689 8.488854934932689 0.9
    vertex 8.850000000000001 8.356666666666667 0.9
  endloop
endfacet
facet normal 0 0 1
  outer loop
    vertex 8.031998170521289 7.899397284950684 0.9
    vertex 7.558918266669822 8.066380215037739 0.9
    vertex 7.616666666666669 7.665050930934303 0.9
  endloop
endfacet
facet normal 0 -0 1
  outer loop
    vertex 6.784796051910472 7.640514166887317 0.9
    vertex 7.172427528343878 7.890774239797144 0.9
    vertex 6.78202256101996 8.095761651948468 0.9
  endloop
endfacet
facet normal 0 0 1
  outer loop
    vertex 7.616666666666669 7.665050930934303 0.9
    vertex 7.148616113603689 7.513370633067368 0.9
    vertex 7.361218624608253 7.195900917105112 0.9
  endloop
endfacet
facet normal 0 -0 1
  outer loop
    vertex 7.870977659186319 7.190531162911553 0.9
    vertex 8.084585862376915 7.513564598895435 0.9
    vertex 7.616666666666669 7.665050930934303 0.9
  endloop
endfacet
facet normal 0 0 1
  outer loop
    vertex 8.446190356947634 7.644626121838209 0.9
    vertex 8.084585862376915 7.513564598895435 0.9
    vertex 8.400233272392777 7.158640307585301 0.9
  endloop
endfacet
facet normal 0 -0 1
  outer loop
    vertex 6.847314232004995 7.163143570145903 0.9
    vertex 7.148616113603689 7.513370633067368 0.9
    vertex 6.784796051910472 7.640514166887317 0.9
  endloop
endfacet
facet normal 0 0 1
  outer loop
    vertex 7.172427528343878 7.890774239797144 0.9
    vertex 7.148616113603689 7.513370633067368 0.9
    vertex 7.616666666666669 7.665050930934303 0.9
  endloop
endfacet
facet normal -0 0 1
  outer loop
    vertex 7.616666666666669 7.665050930934303 0.9
    vertex 8.084585862376915 7.513564598895435 0.9
    vertex 8.031998170521289 7.899397284950684 0.9
  endloop
endfacet
facet normal -0 0 1
  outer loop
    vertex 6.383333333333334 6.876666666666667 0.9
    vertex 6.744478398400647 6.744478398400647 0.9
    vertex 6.847314232004995 7.163143570145903 0.9
  endloop
endfacet
facet normal 0 0 1
  outer loop
    vertex 6.78202256101996 8.095761651948468 0.9
    vertex 6.744478398400647 8.488854934932689 0.9
    vertex 6.383333333333334 8.356666666666667 0.9
  endloop
endfacet
facet normal 0 0 1
  outer loop
    vertex 8.400233272392777 7.158640307585301 0.9
    vertex 8.488854934932689 6.744478398400647 0.9
    vertex 8.850000000000001 6.876666666666667 0.9
  endloop
endfacet
facet normal 0 0 1
  outer loop
    vertex 8.070804432500578 8.41951634779427 0.9
    vertex 8.488854934932689 8.488854934932689 0.9
    vertex 8.356666666666667 8.850000000000001 0.9
  endloop
endfacet
facet normal 0 0 1
  outer loop
    vertex 7.125423768845233 6.801074208894211 0.9
    vertex 6.744478398400647 6.744478398400647 0.9
    vertex 6.876666666666667 6.383333333333334 0.9
  endloop
endfacet
facet normal 0 0 1
  outer loop
    vertex 6.876666666666667 8.850000000000001 0.9
    vertex 6.744478398400647 8.488854934932689 0.9
    vertex 7.160912784983831 8.38604219007842 0.9
  endloop
endfacet
facet normal 0 -0 1
  outer loop
    vertex 8.356666666666667 6.383333333333334 0.9
    vertex 8.488854934932689 6.744478398400647 0.9
    vertex 8.108838478567311 6.80173676231542 0.9
  endloop
endfacet
facet normal 0 0 1
  outer loop
    vertex 8.850000000000001 8.356666666666667 0.9
    vertex 8.488854934932689 8.488854934932689 0.9
    vertex 8.432190712757293 8.109719844374899 0.9
  endloop
endfacet
facet normal 0 -0 1
  outer loop
    vertex 8.432190712757293 8.109719844374899 0.9
    vertex 8.488854934932689 8.488854934932689 0.9
    vertex 8.070804432500578 8.41951634779427 0.9
  endloop
endfacet
facet normal 0 0 1
  outer loop
    vertex 7.160912784983831 8.38604219007842 0.9
    vertex 6.744478398400647 8.488854934932689 0.9
    vertex 6.78202256101996 8.095761651948468 0.9
  endloop
endfacet
facet normal -0 0 1
  outer loop
    vertex 8.108838478567311 6.80173676231542 0.9
    vertex 8.488854934932689 6.744478398400647 0.9
    vertex 8.400233272392777 7.158640307585301 0.9
  endloop
endfacet
facet normal 0 0 1
  outer loop
    vertex 6.847314232004995 7.163143570145903 0.9
    vertex 6.744478398400647 6.744478398400647 0.9
    vertex 7.125423768845233 6.801074208894211 0.9
  endloop
endfacet
facet normal 0 0 1
  outer loop
    vertex 7.616666666666669 7.665050930934303 0.9
    vertex 7.558918266669822 8.066380215037739 0.9
    vertex 7.172427528343878 7.890774239797144 0.9
  endloop
endfacet
facet normal 0 0 1
  outer loop
    vertex 8.031998170521289 7.899397284950684 0.9
    vertex 8.084585862376915 7.513564598895435 0.9
    vertex 8.446190356947634 7.644626121838209 0.9
  endloop
endfacet
facet normal -0 0 1
  outer loop
    vertex 6.784796051910472 7.640514166887317 0.9
    vertex 7.148616113603689 7.513370633067368 0.9
    vertex 7.172427528343878 7.890774239797144 0.9
  endloop
endfacet
endsolid Created by Gmsh
