solid Created by Gmsh
facet normal -1 0 0
  outer loop
    vertex 6.383333333333334 1.15 0.25
    vertex 6.383333333333334 1.15 0.5750000000000002
    vertex 6.383333333333334 1.479687962379289 0.575
  endloop
endfacet
facet normal -1 0 0
  outer loop
    vertex 6.383333333333334 1.15 0.5750000000000002
    vertex 6.383333333333334 1.15 0.9
    vertex 6.383333333333334 1.479687962379289 0.575
  endloop
endfacet
facet normal -1 0 -0
  outer loop
    vertex 6.383333333333334 3.616666666666667 0.5750000000000002
    vertex 6.383333333333334 3.616666666666667 0.25
    vertex 6.383333333333334 3.286978704287378 0.575
  endloop
endfacet
facet normal -1 0 -0
  outer loop
    vertex 6.383333333333334 3.616666666666667 0.9
    vertex 6.383333333333334 3.616666666666667 0.5750000000000002
    vertex 6.383333333333334 3.286978704287378 0.575
  endloop
endfacet
facet normal -1 0 0
  outer loop
    vertex 6.383333333333334 1.15 0.9
    vertex 6.383333333333334 1.643333333333333 0.9
    vertex 6.383333333333334 1.479687962379289 0.575
  endloop
endfacet
facet normal -1 0 0
  outer loop
    vertex 6.383333333333334 3.123333333333334 0.9
    vertex 6.383333333333334 3.616666666666667 0.9
    vertex 6.383333333333334 3.286978704287378 0.575
  endloop
endfacet
facet normal -1 0 0
  outer loop
    vertex 6.383333333333334 1.643333333333333 0.25
    vertex 6.383333333333334 1.15 0.25
    vertex 6.383333333333334 1.479687962379289 0.575
  endloop
endfacet
facet normal -1 0 0
  outer loop
    vertex 6.383333333333334 3.616666666666667 0.25
    vertex 6.383333333333334 3.123333333333334 0.25
    vertex 6.383333333333334 3.286978704287378 0.575
  endloop
endfacet
facet normal -1 0 0
  outer loop
    vertex 6.383333333333334 1.89 0.575
    vertex 6.383333333333334 2.136666666666667 0.9
    vertex 6.383333333333334 2.383333333333333 0.575
  endloop
endfacet
facet normal -1 0 0
  outer loop
    vertex 6.383333333333334 2.63 0.9
    vertex 6.383333333333334 3.123333333333334 0.9
    vertex 6.383333333333334 2.876666666666666 0.5750000000000002
  endloop
endfacet
facet normal -1 0 0
  outer loop
    vertex 6.383333333333334 1.643333333333333 0.9
    vertex 6.383333333333334 2.136666666666667 0.9
    vertex 6.383333333333334 1.89 0.575
  endloop
endfacet
facet normal -1 0 0
  outer loop
    vertex 6.383333333333334 2.136666666666667 0.25
    vertex 6.383333333333334 1.643333333333333 0.25
    vertex 6.383333333333334 1.89 0.575
  endloop
endfacet
facet normal -1 0 0
  outer loop
    vertex 6.383333333333334 2.136666666666667 0.25
    vertex 6.383333333333334 1.89 0.575
    vertex 6.383333333333334 2.383333333333333 0.575
  endloop
endfacet
facet normal -1 0 0
  outer loop
    vertex 6.383333333333334 2.136666666666667 0.9
    vertex 6.383333333333334 2.63 0.9
    vertex 6.383333333333334 2.383333333333333 0.575
  endloop
endfacet
facet normal -1 0 0
  outer loop
    vertex 6.383333333333334 2.63 0.25
    vertex 6.383333333333334 2.136666666666667 0.25
    vertex 6.383333333333334 2.383333333333333 0.575
  endloop
endfacet
facet normal -1 0 0
  outer loop
    vertex 6.383333333333334 3.123333333333334 0.25
    vertex 6.383333333333334 2.63 0.25
    vertex 6.383333333333334 2.876666666666666 0.5750000000000002
  endloop
endfacet
facet normal -1 0 -0
  outer loop
    vertex 6.383333333333334 2.63 0.9
    vertex 6.383333333333334 2.876666666666666 0.5750000000000002
    vertex 6.383333333333334 2.383333333333333 0.575
  endloop
endfacet
facet normal -1 0 0
  outer loop
    vertex 6.383333333333334 2.876666666666666 0.5750000000000002
    vertex 6.383333333333334 2.63 0.25
    vertex 6.383333333333334 2.383333333333333 0.575
  endloop
endfacet
facet normal -1 0 0
  outer loop
    vertex 6.383333333333334 3.123333333333334 0.25
    vertex 6.383333333333334 2.876666666666666 0.5750000000000002
    vertex 6.383333333333334 3.286978704287378 0.575
  endloop
endfacet
facet normal -1 0 -0
  outer loop
    vertex 6.383333333333334 1.643333333333333 0.9
    vertex 6.383333333333334 1.89 0.575
    vertex 6.383333333333334 1.479687962379289 0.575
  endloop
endfacet
facet normal -1 0 0
  outer loop
    vertex 6.383333333333334 2.876666666666666 0.5750000000000002
    vertex 6.383333333333334 3.123333333333334 0.9
    vertex 6.383333333333334 3.286978704287378 0.575
  endloop
endfacet
facet normal -1 -0 0
  outer loop
    vertex 6.383333333333334 1.89 0.575
    vertex 6.383333333333334 1.643333333333333 0.25
    vertex 6.383333333333334 1.479687962379289 0.575
  endloop
endfacet
facet normal 1 0 0
  outer loop
    vertex 8.850000000000001 1.15 0.25
    vertex 8.850000000000001 1.479687962379289 0.575
    vertex 8.850000000000001 1.15 0.5750000000000002
  endloop
endfacet
facet normal 1 -0 0
  outer loop
    vertex 8.850000000000001 1.15 0.5750000000000002
    vertex 8.850000000000001 1.479687962379289 0.575
    vertex 8.850000000000001 1.15 0.9
  endloop
endfacet
facet normal 1 0 0
  outer loop
    vertex 8.850000000000001 3.616666666666667 0.5750000000000002
    vertex 8.850000000000001 3.286978704287378 0.575
    vertex 8.850000000000001 3.616666666666667 0.25
  endloop
endfacet
facet normal 1 0 0
  outer loop
    vertex 8.850000000000001 3.616666666666667 0.9
    vertex 8.850000000000001 3.286978704287378 0.575
    vertex 8.850000000000001 3.616666666666667 0.5750000000000002
  endloop
endfacet
facet normal 1 -0 0
  outer loop
    vertex 8.850000000000001 1.15 0.9
    vertex 8.850000000000001 1.479687962379289 0.575
    vertex 8.850000000000001 1.643333333333333 0.9
  endloop
endfacet
facet normal 1 -0 0
  outer loop
    vertex 8.850000000000001 3.123333333333334 0.9
    vertex 8.850000000000001 3.286978704287378 0.575
    vertex 8.850000000000001 3.616666666666667 0.9
  endloop
endfacet
facet normal 1 0 0
  outer loop
    vertex 8.850000000000001 1.643333333333333 0.25
    vertex 8.850000000000001 1.479687962379289 0.575
    vertex 8.850000000000001 1.15 0.25
  endloop
endfacet
facet normal 1 0 0
  outer loop
    vertex 8.850000000000001 3.616666666666667 0.25
    vertex 8.850000000000001 3.286978704287378 0.575
    vertex 8.850000000000001 3.123333333333334 0.25
  endloop
endfacet
facet normal 1 -0 0
  outer loop
    vertex 8.850000000000001 1.643333333333333 0.9
    vertex 8.850000000000001 1.89 0.575
    vertex 8.850000000000001 2.136666666666667 0.9
  endloop
endfacet
facet normal 1 0 0
  outer loop
    vertex 8.850000000000001 1.89 0.575
    vertex 8.850000000000001 2.383333333333333 0.575
    vertex 8.850000000000001 2.136666666666667 0.9
  endloop
endfacet
facet normal 1 0 0
  outer loop
    vertex 8.850000000000001 2.136666666666667 0.25
    vertex 8.850000000000001 1.89 0.575
    vertex 8.850000000000001 1.643333333333333 0.25
  endloop
endfacet
facet normal 1 0 -0
  outer loop
    vertex 8.850000000000001 2.136666666666667 0.25
    vertex 8.850000000000001 2.383333333333333 0.575
    vertex 8.850000000000001 1.89 0.575
  endloop
endfacet
facet normal 1 -0 0
  outer loop
    vertex 8.850000000000001 2.136666666666667 0.9
    vertex 8.850000000000001 2.383333333333333 0.575
    vertex 8.850000000000001 2.63 0.9
  endloop
endfacet
facet normal 1 0 0
  outer loop
    vertex 8.850000000000001 2.63 0.25
    vertex 8.850000000000001 2.383333333333333 0.575
    vertex 8.850000000000001 2.136666666666667 0.25
  endloop
endfacet
facet normal 1 -0 0
  outer loop
    vertex 8.850000000000001 2.63 0.9
    vertex 8.850000000000001 2.876666666666666 0.575
    vertex 8.850000000000001 3.123333333333334 0.9
  endloop
endfacet
facet normal 1 0 0
  outer loop
    vertex 8.850000000000001 3.123333333333334 0.25
    vertex 8.850000000000001 2.876666666666666 0.575
    vertex 8.850000000000001 2.63 0.25
  endloop
endfacet
facet normal 1 0 0
  outer loop
    vertex 8.850000000000001 2.383333333333333 0.575
    vertex 8.850000000000001 2.876666666666666 0.575
    vertex 8.850000000000001 2.63 0.9
  endloop
endfacet
facet normal 1 0 -0
  outer loop
    vertex 8.850000000000001 2.63 0.25
    vertex 8.850000000000001 2.876666666666666 0.575
    vertex 8.850000000000001 2.383333333333333 0.575
  endloop
endfacet
facet normal 1 0 -0
  outer loop
    vertex 8.850000000000001 3.123333333333334 0.25
    vertex 8.850000000000001 3.286978704287378 0.575
    vertex 8.850000000000001 2.876666666666666 0.575
  endloop
endfacet
facet normal 1 0 0
  outer loop
    vertex 8.850000000000001 2.876666666666666 0.575
    vertex 8.850000000000001 3.286978704287378 0.575
    vertex 8.850000000000001 3.123333333333334 0.9
  endloop
endfacet
facet normal 1 0 0
  outer loop
    vertex 8.850000000000001 1.89 0.575
    vertex 8.850000000000001 1.479687962379289 0.575
    vertex 8.850000000000001 1.643333333333333 0.25
  endloop
endfacet
facet normal 1 0 0
  outer loop
    vertex 8.850000000000001 1.643333333333333 0.9
    vertex 8.850000000000001 1.479687962379289 0.575
    vertex 8.850000000000001 1.89 0.575
  endloop
endfacet
facet normal 0 -1 0
  outer loop
    vertex 6.383333333333334 1.15 0.9
    vertex 6.383333333333334 1.15 0.5750000000000002
    vertex 6.713021295712623 1.15 0.5750000000000001
  endloop
endfacet
facet normal -0 -1 0
  outer loop
    vertex 8.850000000000001 1.15 0.5750000000000002
    vertex 8.850000000000001 1.15 0.9
    vertex 8.520312037620712 1.15 0.575
  endloop
endfacet
facet normal 0 -1 0
  outer loop
    vertex 6.383333333333334 1.15 0.5750000000000002
    vertex 6.383333333333334 1.15 0.25
    vertex 6.713021295712623 1.15 0.5750000000000001
  endloop
endfacet
facet normal 0 -1 0
  outer loop
    vertex 8.850000000000001 1.15 0.25
    vertex 8.850000000000001 1.15 0.5750000000000002
    vertex 8.520312037620712 1.15 0.575
  endloop
endfacet
facet normal 0 -1 0
  outer loop
    vertex 8.356666666666667 1.15 0.25
    vertex 8.850000000000001 1.15 0.25
    vertex 8.520312037620712 1.15 0.575
  endloop
endfacet
facet normal 0 -1 0
  outer loop
    vertex 6.383333333333334 1.15 0.25
    vertex 6.876666666666667 1.15 0.25
    vertex 6.713021295712623 1.15 0.5750000000000001
  endloop
endfacet
facet normal -0 -1 0
  outer loop
    vertex 6.876666666666667 1.15 0.9
    vertex 6.383333333333334 1.15 0.9
    vertex 6.713021295712623 1.15 0.5750000000000001
  endloop
endfacet
facet normal -0 -1 0
  outer loop
    vertex 8.850000000000001 1.15 0.9
    vertex 8.356666666666667 1.15 0.9
    vertex 8.520312037620712 1.15 0.575
  endloop
endfacet
facet normal 0 -1 0
  outer loop
    vertex 7.123333333333334 1.15 0.575
    vertex 7.370000000000001 1.15 0.25
    vertex 7.616666666666668 1.15 0.575
  endloop
endfacet
facet normal -0 -1 0
  outer loop
    vertex 7.863333333333334 1.15 0.9
    vertex 7.370000000000001 1.15 0.9
    vertex 7.616666666666668 1.15 0.575
  endloop
endfacet
facet normal 0 -1 0
  outer loop
    vertex 7.863333333333334 1.15 0.25
    vertex 8.356666666666667 1.15 0.25
    vertex 8.110000000000001 1.15 0.575
  endloop
endfacet
facet normal 0 -1 0
  outer loop
    vertex 6.876666666666667 1.15 0.25
    vertex 7.370000000000001 1.15 0.25
    vertex 7.123333333333334 1.15 0.575
  endloop
endfacet
facet normal -0 -1 0
  outer loop
    vertex 7.370000000000001 1.15 0.9
    vertex 6.876666666666667 1.15 0.9
    vertex 7.123333333333334 1.15 0.575
  endloop
endfacet
facet normal 0 -1 -0
  outer loop
    vertex 7.370000000000001 1.15 0.9
    vertex 7.123333333333334 1.15 0.575
    vertex 7.616666666666668 1.15 0.575
  endloop
endfacet
facet normal 0 -1 -0
  outer loop
    vertex 7.863333333333334 1.15 0.9
    vertex 7.616666666666668 1.15 0.575
    vertex 8.110000000000001 1.15 0.575
  endloop
endfacet
facet normal 0 -1 0
  outer loop
    vertex 7.370000000000001 1.15 0.25
    vertex 7.863333333333334 1.15 0.25
    vertex 7.616666666666668 1.15 0.575
  endloop
endfacet
facet normal 0 -1 0
  outer loop
    vertex 7.616666666666668 1.15 0.575
    vertex 7.863333333333334 1.15 0.25
    vertex 8.110000000000001 1.15 0.575
  endloop
endfacet
facet normal -0 -1 0
  outer loop
    vertex 8.356666666666667 1.15 0.9
    vertex 7.863333333333334 1.15 0.9
    vertex 8.110000000000001 1.15 0.575
  endloop
endfacet
facet normal 0 -1 0
  outer loop
    vertex 8.110000000000001 1.15 0.575
    vertex 8.356666666666667 1.15 0.25
    vertex 8.520312037620712 1.15 0.575
  endloop
endfacet
facet normal 0 -1 -0
  outer loop
    vertex 8.356666666666667 1.15 0.9
    vertex 8.110000000000001 1.15 0.575
    vertex 8.520312037620712 1.15 0.575
  endloop
endfacet
facet normal 0 -1 0
  outer loop
    vertex 6.876666666666667 1.15 0.25
    vertex 7.123333333333334 1.15 0.575
    vertex 6.713021295712623 1.15 0.5750000000000001
  endloop
endfacet
facet normal 0 -1 0
  outer loop
    vertex 7.123333333333334 1.15 0.575
    vertex 6.876666666666667 1.15 0.9
    vertex 6.713021295712623 1.15 0.5750000000000001
  endloop
endfacet
facet normal 0 1 0
  outer loop
    vertex 6.383333333333334 3.616666666666667 0.9
    vertex 6.713021295712623 3.616666666666667 0.5750000000000001
    vertex 6.383333333333334 3.616666666666667 0.5750000000000002
  endloop
endfacet
facet normal 0 1 -0
  outer loop
    vertex 8.850000000000001 3.616666666666667 0.5750000000000002
    vertex 8.520312037620712 3.616666666666667 0.575
    vertex 8.850000000000001 3.616666666666667 0.9
  endloop
endfacet
facet normal 0 1 0
  outer loop
    vertex 6.383333333333334 3.616666666666667 0.5750000000000002
    vertex 6.713021295712623 3.616666666666667 0.5750000000000001
    vertex 6.383333333333334 3.616666666666667 0.25
  endloop
endfacet
facet normal 0 1 -0
  outer loop
    vertex 8.850000000000001 3.616666666666667 0.25
    vertex 8.520312037620712 3.616666666666667 0.575
    vertex 8.850000000000001 3.616666666666667 0.5750000000000002
  endloop
endfacet
facet normal 0 1 0
  outer loop
    vertex 8.356666666666667 3.616666666666667 0.25
    vertex 8.520312037620712 3.616666666666667 0.575
    vertex 8.850000000000001 3.616666666666667 0.25
  endloop
endfacet
facet normal 0 1 0
  outer loop
    vertex 6.383333333333334 3.616666666666667 0.25
    vertex 6.713021295712623 3.616666666666667 0.5750000000000001
    vertex 6.876666666666667 3.616666666666667 0.25
  endloop
endfacet
facet normal 0 1 0
  outer loop
    vertex 6.876666666666667 3.616666666666667 0.9
    vertex 6.713021295712623 3.616666666666667 0.5750000000000001
    vertex 6.383333333333334 3.616666666666667 0.9
  endloop
endfacet
facet normal 0 1 0
  outer loop
    vertex 8.850000000000001 3.616666666666667 0.9
    vertex 8.520312037620712 3.616666666666667 0.575
    vertex 8.356666666666667 3.616666666666667 0.9
  endloop
endfacet
facet normal 0 1 0
  outer loop
    vertex 7.863333333333334 3.616666666666667 0.9
    vertex 7.616666666666668 3.616666666666667 0.575
    vertex 7.370000000000001 3.616666666666667 0.9
  endloop
endfacet
facet normal 0 1 0
  outer loop
    vertex 7.863333333333334 3.616666666666667 0.25
    vertex 8.110000000000001 3.616666666666667 0.575
    vertex 8.356666666666667 3.616666666666667 0.25
  endloop
endfacet
facet normal -0 1 0
  outer loop
    vertex 7.616666666666668 3.616666666666667 0.575
    vertex 8.110000000000001 3.616666666666667 0.575
    vertex 7.863333333333334 3.616666666666667 0.25
  endloop
endfacet
facet normal 0 1 0
  outer loop
    vertex 6.876666666666667 3.616666666666667 0.25
    vertex 7.123333333333334 3.616666666666667 0.575
    vertex 7.370000000000001 3.616666666666667 0.25
  endloop
endfacet
facet normal -0 1 0
  outer loop
    vertex 7.123333333333334 3.616666666666667 0.575
    vertex 7.616666666666668 3.616666666666667 0.575
    vertex 7.370000000000001 3.616666666666667 0.25
  endloop
endfacet
facet normal 0 1 0
  outer loop
    vertex 7.370000000000001 3.616666666666667 0.9
    vertex 7.123333333333334 3.616666666666667 0.575
    vertex 6.876666666666667 3.616666666666667 0.9
  endloop
endfacet
facet normal 0 1 0
  outer loop
    vertex 7.370000000000001 3.616666666666667 0.9
    vertex 7.616666666666668 3.616666666666667 0.575
    vertex 7.123333333333334 3.616666666666667 0.575
  endloop
endfacet
facet normal 0 1 0
  outer loop
    vertex 7.863333333333334 3.616666666666667 0.9
    vertex 8.110000000000001 3.616666666666667 0.575
    vertex 7.616666666666668 3.616666666666667 0.575
  endloop
endfacet
facet normal 0 1 0
  outer loop
    vertex 7.370000000000001 3.616666666666667 0.25
    vertex 7.616666666666668 3.616666666666667 0.575
    vertex 7.863333333333334 3.616666666666667 0.25
  endloop
endfacet
facet normal 0 1 0
  outer loop
    vertex 8.356666666666667 3.616666666666667 0.9
    vertex 8.110000000000001 3.616666666666667 0.575
    vertex 7.863333333333334 3.616666666666667 0.9
  endloop
endfacet
facet normal -0 1 0
  outer loop
    vertex 8.110000000000001 3.616666666666667 0.575
    vertex 8.520312037620712 3.616666666666667 0.575
    vertex 8.356666666666667 3.616666666666667 0.25
  endloop
endfacet
facet normal 0 1 0
  outer loop
    vertex 8.356666666666667 3.616666666666667 0.9
    vertex 8.520312037620712 3.616666666666667 0.575
    vertex 8.110000000000001 3.616666666666667 0.575
  endloop
endfacet
facet normal 0 1 -0
  outer loop
    vertex 6.876666666666667 3.616666666666667 0.25
    vertex 6.713021295712623 3.616666666666667 0.5750000000000001
    vertex 7.123333333333334 3.616666666666667 0.575
  endloop
endfacet
facet normal 0 1 0
  outer loop
    vertex 7.123333333333334 3.616666666666667 0.575
    vertex 6.713021295712623 3.616666666666667 0.5750000000000001
    vertex 6.876666666666667 3.616666666666667 0.9
  endloop
endfacet
facet normal -0 0 -1
  outer loop
    vertex 8.431597973542818 2.875506095050552 0.25
    vertex 8.042834498059793 2.637666218745106 0.25
    vertex 8.075135847272714 3.167155155848897 0.25
  endloop
endfacet
facet normal 0 0 -1
  outer loop
    vertex 8.037432416228222 2.127885291274918 0.25
    vertex 8.432259124439124 1.892090435511899 0.25
    vertex 8.070189763187432 1.61398089867166 0.25
  endloop
endfacet
facet normal -0 0 -1
  outer loop
    vertex 7.344174029162781 1.940402954672259 0.25
    vertex 6.855949947040038 1.934596631113311 0.25
    vertex 7.189427467466344 2.308217658545312 0.25
  endloop
endfacet
facet normal 0 0 -1
  outer loop
    vertex 7.138602491359286 1.549524606194104 0.25
    vertex 6.855949947040038 1.934596631113311 0.25
    vertex 7.344174029162781 1.940402954672259 0.25
  endloop
endfacet
facet normal 0 0 -1
  outer loop
    vertex 8.075135847272714 3.167155155848897 0.25
    vertex 8.042834498059793 2.637666218745106 0.25
    vertex 7.719962700265968 2.851383886396312 0.25
  endloop
endfacet
facet normal 0 -0 -1
  outer loop
    vertex 8.037432416228222 2.127885291274918 0.25
    vertex 8.070189763187432 1.61398089867166 0.25
    vertex 7.719962700265969 1.915282780270354 0.25
  endloop
endfacet
facet normal 0 0 -1
  outer loop
    vertex 6.749048888014341 2.876473823640135 0.25
    vertex 7.10937936418382 3.144892964255872 0.25
    vertex 7.056136127426146 2.652772127397075 0.25
  endloop
endfacet
facet normal 0 -0 -1
  outer loop
    vertex 7.10937936418382 3.144892964255872 0.25
    vertex 7.371175630195328 2.78838182199702 0.25
    vertex 7.056136127426146 2.652772127397075 0.25
  endloop
endfacet
facet normal 0 0 -1
  outer loop
    vertex 6.855949947040038 1.934596631113311 0.25
    vertex 6.773265999535987 2.412592028188671 0.25
    vertex 7.189427467466344 2.308217658545312 0.25
  endloop
endfacet
facet normal 0 0 -1
  outer loop
    vertex 8.422760800799677 2.383333333333333 0.25
    vertex 8.042834498059793 2.637666218745106 0.25
    vertex 8.431597973542818 2.875506095050552 0.25
  endloop
endfacet
facet normal 0 0 -1
  outer loop
    vertex 6.383333333333334 2.136666666666667 0.25
    vertex 6.773265999535987 2.412592028188671 0.25
    vertex 6.855949947040038 1.934596631113311 0.25
  endloop
endfacet
facet normal -0 0 -1
  outer loop
    vertex 8.850000000000001 2.63 0.25
    vertex 8.422760800799677 2.383333333333333 0.25
    vertex 8.431597973542818 2.875506095050552 0.25
  endloop
endfacet
facet normal -0 0 -1
  outer loop
    vertex 8.422760800799677 2.383333333333333 0.25
    vertex 8.037432416228222 2.127885291274918 0.25
    vertex 8.042834498059793 2.637666218745106 0.25
  endloop
endfacet
facet normal 0 0 -1
  outer loop
    vertex 6.383333333333334 2.63 0.25
    vertex 6.383333333333334 3.123333333333334 0.25
    vertex 6.749048888014341 2.876473823640135 0.25
  endloop
endfacet
facet normal 0 0 -1
  outer loop
    vertex 7.863333333333334 1.15 0.25
    vertex 7.370000000000001 1.15 0.25
    vertex 7.592819166446018 1.551462718577138 0.25
  endloop
endfacet
facet normal 0 0 -1
  outer loop
    vertex 7.370000000000001 3.616666666666667 0.25
    vertex 7.863333333333334 3.616666666666667 0.25
    vertex 7.592819166446018 3.215203948089528 0.25
  endloop
endfacet
facet normal 0 0 -1
  outer loop
    vertex 6.383333333333334 2.136666666666667 0.25
    vertex 6.383333333333334 2.63 0.25
    vertex 6.773265999535987 2.412592028188671 0.25
  endloop
endfacet
facet normal 0 -0 -1
  outer loop
    vertex 8.850000000000001 2.63 0.25
    vertex 8.850000000000001 2.136666666666667 0.25
    vertex 8.422760800799677 2.383333333333333 0.25
  endloop
endfacet
facet normal 0 0 -1
  outer loop
    vertex 8.422760800799677 2.383333333333333 0.25
    vertex 8.850000000000001 2.136666666666667 0.25
    vertex 8.432259124439124 1.892090435511899 0.25
  endloop
endfacet
facet normal 0 -0 -1
  outer loop
    vertex 8.850000000000001 3.123333333333334 0.25
    vertex 8.850000000000001 2.63 0.25
    vertex 8.431597973542818 2.875506095050552 0.25
  endloop
endfacet
facet normal 0 -0 -1
  outer loop
    vertex 8.422760800799677 2.383333333333333 0.25
    vertex 8.432259124439124 1.892090435511899 0.25
    vertex 8.037432416228222 2.127885291274918 0.25
  endloop
endfacet
facet normal 0 0 -1
  outer loop
    vertex 8.042834498059793 2.637666218745106 0.25
    vertex 8.037432416228222 2.127885291274918 0.25
    vertex 7.568282402399032 2.383333333333332 0.25
  endloop
endfacet
facet normal 0 0 -1
  outer loop
    vertex 6.383333333333334 1.643333333333333 0.25
    vertex 6.383333333333334 2.136666666666667 0.25
    vertex 6.855949947040038 1.934596631113311 0.25
  endloop
endfacet
facet normal 0 0 -1
  outer loop
    vertex 6.773265999535987 2.412592028188671 0.25
    vertex 6.383333333333334 2.63 0.25
    vertex 6.749048888014341 2.876473823640135 0.25
  endloop
endfacet
facet normal 0 -0 -1
  outer loop
    vertex 8.850000000000001 2.136666666666667 0.25
    vertex 8.850000000000001 1.643333333333333 0.25
    vertex 8.432259124439124 1.892090435511899 0.25
  endloop
endfacet
facet normal 0 0 -1
  outer loop
    vertex 6.876666666666667 3.616666666666667 0.25
    vertex 7.370000000000001 3.616666666666667 0.25
    vertex 7.10937936418382 3.144892964255872 0.25
  endloop
endfacet
facet normal 0 0 -1
  outer loop
    vertex 7.370000000000001 1.15 0.25
    vertex 6.876666666666667 1.15 0.25
    vertex 7.138602491359286 1.549524606194104 0.25
  endloop
endfacet
facet normal 0 0 -1
  outer loop
    vertex 7.863333333333334 3.616666666666667 0.25
    vertex 8.356666666666667 3.616666666666667 0.25
    vertex 8.075135847272714 3.167155155848897 0.25
  endloop
endfacet
facet normal 0 0 -1
  outer loop
    vertex 8.356666666666667 1.15 0.25
    vertex 7.863333333333334 1.15 0.25
    vertex 8.070189763187432 1.61398089867166 0.25
  endloop
endfacet
facet normal 0 0 -1
  outer loop
    vertex 7.863333333333334 1.15 0.25
    vertex 7.592819166446018 1.551462718577138 0.25
    vertex 8.070189763187432 1.61398089867166 0.25
  endloop
endfacet
facet normal 0 -0 -1
  outer loop
    vertex 7.370000000000001 3.616666666666667 0.25
    vertex 7.592819166446018 3.215203948089528 0.25
    vertex 7.10937936418382 3.144892964255872 0.25
  endloop
endfacet
facet normal 0 0 -1
  outer loop
    vertex 7.592819166446018 3.215203948089528 0.25
    vertex 7.863333333333334 3.616666666666667 0.25
    vertex 8.075135847272714 3.167155155848897 0.25
  endloop
endfacet
facet normal 0 0 -1
  outer loop
    vertex 7.592819166446018 1.551462718577138 0.25
    vertex 7.370000000000001 1.15 0.25
    vertex 7.138602491359286 1.549524606194104 0.25
  endloop
endfacet
facet normal 0 0 -1
  outer loop
    vertex 8.850000000000001 1.15 0.25
    vertex 8.356666666666667 1.15 0.25
    vertex 8.488854934932689 1.511145065067313 0.25
  endloop
endfacet
facet normal 0 0 -1
  outer loop
    vertex 6.876666666666667 1.15 0.25
    vertex 6.383333333333334 1.15 0.25
    vertex 6.744478398400647 1.511145065067313 0.25
  endloop
endfacet
facet normal 0 0 -1
  outer loop
    vertex 6.383333333333334 3.616666666666667 0.25
    vertex 6.876666666666667 3.616666666666667 0.25
    vertex 6.744478398400647 3.255521601599354 0.25
  endloop
endfacet
facet normal 0 0 -1
  outer loop
    vertex 6.383333333333334 1.15 0.25
    vertex 6.383333333333334 1.643333333333333 0.25
    vertex 6.744478398400647 1.511145065067313 0.25
  endloop
endfacet
facet normal 0 0 -1
  outer loop
    vertex 6.383333333333334 3.123333333333334 0.25
    vertex 6.383333333333334 3.616666666666667 0.25
    vertex 6.744478398400647 3.255521601599354 0.25
  endloop
endfacet
facet normal 0 -0 -1
  outer loop
    vertex 8.850000000000001 1.643333333333333 0.25
    vertex 8.850000000000001 1.15 0.25
    vertex 8.488854934932689 1.511145065067313 0.25
  endloop
endfacet
facet normal 0 -0 -1
  outer loop
    vertex 8.850000000000001 3.616666666666667 0.25
    vertex 8.850000000000001 3.123333333333334 0.25
    vertex 8.488854934932689 3.255521601599354 0.25
  endloop
endfacet
facet normal 0 0 -1
  outer loop
    vertex 8.356666666666667 3.616666666666667 0.25
    vertex 8.850000000000001 3.616666666666667 0.25
    vertex 8.488854934932689 3.255521601599354 0.25
  endloop
endfacet
facet normal 0 -0 -1
  outer loop
    vertex 7.371175630195328 2.78838182199702 0.25
    vertex 7.568282402399032 2.383333333333332 0.25
    vertex 7.189427467466344 2.308217658545312 0.25
  endloop
endfacet
facet normal 0 0 -1
  outer loop
    vertex 7.10937936418382 3.144892964255872 0.25
    vertex 7.592819166446018 3.215203948089528 0.25
    vertex 7.371175630195328 2.78838182199702 0.25
  endloop
endfacet
facet normal -0 0 -1
  outer loop
    vertex 7.592819166446018 1.551462718577138 0.25
    vertex 7.138602491359286 1.549524606194104 0.25
    vertex 7.344174029162781 1.940402954672259 0.25
  endloop
endfacet
facet normal -0 0 -1
  outer loop
    vertex 8.042834498059793 2.637666218745106 0.25
    vertex 7.568282402399032 2.383333333333332 0.25
    vertex 7.719962700265968 2.851383886396312 0.25
  endloop
endfacet
facet normal 0 0 -1
  outer loop
    vertex 7.568282402399032 2.383333333333332 0.25
    vertex 8.037432416228222 2.127885291274918 0.25
    vertex 7.719962700265969 1.915282780270354 0.25
  endloop
endfacet
facet normal 0 0 -1
  outer loop
    vertex 7.371175630195328 2.78838182199702 0.25
    vertex 7.189427467466344 2.308217658545312 0.25
    vertex 7.056136127426146 2.652772127397075 0.25
  endloop
endfacet
facet normal 0 0 -1
  outer loop
    vertex 7.592819166446018 3.215203948089528 0.25
    vertex 8.075135847272714 3.167155155848897 0.25
    vertex 7.719962700265968 2.851383886396312 0.25
  endloop
endfacet
facet normal -0 0 -1
  outer loop
    vertex 8.070189763187432 1.61398089867166 0.25
    vertex 7.592819166446018 1.551462718577138 0.25
    vertex 7.719962700265969 1.915282780270354 0.25
  endloop
endfacet
facet normal 0 0 -1
  outer loop
    vertex 7.568282402399032 2.383333333333332 0.25
    vertex 7.371175630195328 2.78838182199702 0.25
    vertex 7.719962700265968 2.851383886396312 0.25
  endloop
endfacet
facet normal 0 0 -1
  outer loop
    vertex 7.344174029162781 1.940402954672259 0.25
    vertex 7.568282402399032 2.383333333333332 0.25
    vertex 7.719962700265969 1.915282780270354 0.25
  endloop
endfacet
facet normal 0 0 -1
  outer loop
    vertex 8.356666666666667 1.15 0.25
    vertex 8.070189763187432 1.61398089867166 0.25
    vertex 8.488854934932689 1.511145065067313 0.25
  endloop
endfacet
facet normal 0 -0 -1
  outer loop
    vertex 6.876666666666667 3.616666666666667 0.25
    vertex 7.10937936418382 3.144892964255872 0.25
    vertex 6.744478398400647 3.255521601599354 0.25
  endloop
endfacet
facet normal 0 0 -1
  outer loop
    vertex 7.138602491359286 1.549524606194104 0.25
    vertex 6.876666666666667 1.15 0.25
    vertex 6.744478398400647 1.511145065067313 0.25
  endloop
endfacet
facet normal 0 0 -1
  outer loop
    vertex 8.075135847272714 3.167155155848897 0.25
    vertex 8.356666666666667 3.616666666666667 0.25
    vertex 8.488854934932689 3.255521601599354 0.25
  endloop
endfacet
facet normal -0 0 -1
  outer loop
    vertex 8.850000000000001 3.123333333333334 0.25
    vertex 8.431597973542818 2.875506095050552 0.25
    vertex 8.488854934932689 3.255521601599354 0.25
  endloop
endfacet
facet normal 0 0 -1
  outer loop
    vertex 6.383333333333334 1.643333333333333 0.25
    vertex 6.855949947040038 1.934596631113311 0.25
    vertex 6.744478398400647 1.511145065067313 0.25
  endloop
endfacet
facet normal 0 0 -1
  outer loop
    vertex 6.749048888014341 2.876473823640135 0.25
    vertex 6.383333333333334 3.123333333333334 0.25
    vertex 6.744478398400647 3.255521601599354 0.25
  endloop
endfacet
facet normal 0 0 -1
  outer loop
    vertex 8.432259124439124 1.892090435511899 0.25
    vertex 8.850000000000001 1.643333333333333 0.25
    vertex 8.488854934932689 1.511145065067313 0.25
  endloop
endfacet
facet normal 0 0 -1
  outer loop
    vertex 6.773265999535987 2.412592028188671 0.25
    vertex 6.749048888014341 2.876473823640135 0.25
    vertex 7.056136127426146 2.652772127397075 0.25
  endloop
endfacet
facet normal 0 0 -1
  outer loop
    vertex 8.431597973542818 2.875506095050552 0.25
    vertex 8.075135847272714 3.167155155848897 0.25
    vertex 8.488854934932689 3.255521601599354 0.25
  endloop
endfacet
facet normal 0 -0 -1
  outer loop
    vertex 6.855949947040038 1.934596631113311 0.25
    vertex 7.138602491359286 1.549524606194104 0.25
    vertex 6.744478398400647 1.511145065067313 0.25
  endloop
endfacet
facet normal 0 0 -1
  outer loop
    vertex 8.070189763187432 1.61398089867166 0.25
    vertex 8.432259124439124 1.892090435511899 0.25
    vertex 8.488854934932689 1.511145065067313 0.25
  endloop
endfacet
facet normal -0 0 -1
  outer loop
    vertex 7.10937936418382 3.144892964255872 0.25
    vertex 6.749048888014341 2.876473823640135 0.25
    vertex 6.744478398400647 3.255521601599354 0.25
  endloop
endfacet
facet normal 0 0 -1
  outer loop
    vertex 7.568282402399032 2.383333333333332 0.25
    vertex 7.344174029162781 1.940402954672259 0.25
    vertex 7.189427467466344 2.308217658545312 0.25
  endloop
endfacet
facet normal 0 0 -1
  outer loop
    vertex 7.371175630195328 2.78838182199702 0.25
    vertex 7.592819166446018 3.215203948089528 0.25
    vertex 7.719962700265968 2.851383886396312 0.25
  endloop
endfacet
facet normal 0 0 -1
  outer loop
    vertex 7.592819166446018 1.551462718577138 0.25
    vertex 7.344174029162781 1.940402954672259 0.25
    vertex 7.719962700265969 1.915282780270354 0.25
  endloop
endfacet
facet normal 0 0 -1
  outer loop
    vertex 7.189427467466344 2.308217658545312 0.25
    vertex 6.773265999535987 2.412592028188671 0.25
    vertex 7.056136127426146 2.652772127397075 0.25
  endloop
endfacet
facet normal 0 0 1
  outer loop
    vertex 8.431597973542818 2.875506095050552 0.9
    vertex 8.075135847272714 3.167155155848897 0.9
    vertex 8.042834498059793 2.637666218745106 0.9
  endloop
endfacet
facet normal 0 0 1
  outer loop
    vertex 8.037432416228222 2.127885291274918 0.9
    vertex 8.070189763187432 1.61398089867166 0.9
    vertex 8.432259124439124 1.892090435511899 0.9
  endloop
endfacet
facet normal 0 0 1
  outer loop
    vertex 7.344174029162781 1.940402954672259 0.9
    vertex 7.189427467466344 2.308217658545312 0.9
    vertex 6.855949947040038 1.934596631113311 0.9
  endloop
endfacet
facet normal 0 -0 1
  outer loop
    vertex 7.138602491359286 1.549524606194104 0.9
    vertex 7.344174029162781 1.940402954672259 0.9
    vertex 6.855949947040038 1.934596631113311 0.9
  endloop
endfacet
facet normal 0 0 1
  outer loop
    vertex 8.075135847272714 3.167155155848897 0.9
    vertex 7.719962700265968 2.851383886396312 0.9
    vertex 8.042834498059793 2.637666218745106 0.9
  endloop
endfacet
facet normal 0 0 1
  outer loop
    vertex 8.037432416228222 2.127885291274918 0.9
    vertex 7.719962700265969 1.915282780270354 0.9
    vertex 8.070189763187432 1.61398089867166 0.9
  endloop
endfacet
facet normal -0 0 1
  outer loop
    vertex 6.749048888014341 2.876473823640135 0.9
    vertex 7.056136127426146 2.652772127397075 0.9
    vertex 7.10937936418382 3.144892964255872 0.9
  endloop
endfacet
facet normal 0 0 1
  outer loop
    vertex 7.10937936418382 3.144892964255872 0.9
    vertex 7.056136127426146 2.652772127397075 0.9
    vertex 7.371175630195328 2.78838182199702 0.9
  endloop
endfacet
facet normal 0 -0 1
  outer loop
    vertex 6.855949947040038 1.934596631113311 0.9
    vertex 7.189427467466344 2.308217658545312 0.9
    vertex 6.773265999535987 2.412592028188671 0.9
  endloop
endfacet
facet normal 0 -0 1
  outer loop
    vertex 8.422760800799677 2.383333333333333 0.9
    vertex 8.431597973542818 2.875506095050552 0.9
    vertex 8.042834498059793 2.637666218745106 0.9
  endloop
endfacet
facet normal -0 0 1
  outer loop
    vertex 6.383333333333334 2.136666666666667 0.9
    vertex 6.855949947040038 1.934596631113311 0.9
    vertex 6.773265999535987 2.412592028188671 0.9
  endloop
endfacet
facet normal 0 0 1
  outer loop
    vertex 8.850000000000001 2.63 0.9
    vertex 8.431597973542818 2.875506095050552 0.9
    vertex 8.422760800799677 2.383333333333333 0.9
  endloop
endfacet
facet normal 0 0 1
  outer loop
    vertex 8.422760800799677 2.383333333333333 0.9
    vertex 8.042834498059793 2.637666218745106 0.9
    vertex 8.037432416228222 2.127885291274918 0.9
  endloop
endfacet
facet normal 0 0 1
  outer loop
    vertex 6.383333333333334 2.63 0.9
    vertex 6.749048888014341 2.876473823640135 0.9
    vertex 6.383333333333334 3.123333333333334 0.9
  endloop
endfacet
facet normal 0 0 1
  outer loop
    vertex 7.863333333333334 1.15 0.9
    vertex 7.592819166446018 1.551462718577138 0.9
    vertex 7.370000000000001 1.15 0.9
  endloop
endfacet
facet normal -0 0 1
  outer loop
    vertex 7.370000000000001 3.616666666666667 0.9
    vertex 7.592819166446018 3.215203948089528 0.9
    vertex 7.863333333333334 3.616666666666667 0.9
  endloop
endfacet
facet normal 0 0 1
  outer loop
    vertex 6.383333333333334 2.136666666666667 0.9
    vertex 6.773265999535987 2.412592028188671 0.9
    vertex 6.383333333333334 2.63 0.9
  endloop
endfacet
facet normal 0 0 1
  outer loop
    vertex 8.850000000000001 2.63 0.9
    vertex 8.422760800799677 2.383333333333333 0.9
    vertex 8.850000000000001 2.136666666666667 0.9
  endloop
endfacet
facet normal 0 0 1
  outer loop
    vertex 8.422760800799677 2.383333333333333 0.9
    vertex 8.432259124439124 1.892090435511899 0.9
    vertex 8.850000000000001 2.136666666666667 0.9
  endloop
endfacet
facet normal 0 0 1
  outer loop
    vertex 8.850000000000001 3.123333333333334 0.9
    vertex 8.431597973542818 2.875506095050552 0.9
    vertex 8.850000000000001 2.63 0.9
  endloop
endfacet
facet normal 0 0 1
  outer loop
    vertex 8.422760800799677 2.383333333333333 0.9
    vertex 8.037432416228222 2.127885291274918 0.9
    vertex 8.432259124439124 1.892090435511899 0.9
  endloop
endfacet
facet normal 0 0 1
  outer loop
    vertex 8.042834498059793 2.637666218745106 0.9
    vertex 7.568282402399032 2.383333333333332 0.9
    vertex 8.037432416228222 2.127885291274918 0.9
  endloop
endfacet
facet normal 0 0 1
  outer loop
    vertex 6.383333333333334 1.643333333333333 0.9
    vertex 6.855949947040038 1.934596631113311 0.9
    vertex 6.383333333333334 2.136666666666667 0.9
  endloop
endfacet
facet normal 0 0 1
  outer loop
    vertex 6.773265999535987 2.412592028188671 0.9
    vertex 6.749048888014341 2.876473823640135 0.9
    vertex 6.383333333333334 2.63 0.9
  endloop
endfacet
facet normal 0 0 1
  outer loop
    vertex 8.850000000000001 2.136666666666667 0.9
    vertex 8.432259124439124 1.892090435511899 0.9
    vertex 8.850000000000001 1.643333333333333 0.9
  endloop
endfacet
facet normal -0 0 1
  outer loop
    vertex 6.876666666666667 3.616666666666667 0.9
    vertex 7.10937936418382 3.144892964255872 0.9
    vertex 7.370000000000001 3.616666666666667 0.9
  endloop
endfacet
facet normal 0 0 1
  outer loop
    vertex 7.370000000000001 1.15 0.9
    vertex 7.138602491359286 1.549524606194104 0.9
    vertex 6.876666666666667 1.15 0.9
  endloop
endfacet
facet normal -0 0 1
  outer loop
    vertex 7.863333333333334 3.616666666666667 0.9
    vertex 8.075135847272714 3.167155155848897 0.9
    vertex 8.356666666666667 3.616666666666667 0.9
  endloop
endfacet
facet normal 0 0 1
  outer loop
    vertex 8.356666666666667 1.15 0.9
    vertex 8.070189763187432 1.61398089867166 0.9
    vertex 7.863333333333334 1.15 0.9
  endloop
endfacet
facet normal 0 -0 1
  outer loop
    vertex 7.863333333333334 1.15 0.9
    vertex 8.070189763187432 1.61398089867166 0.9
    vertex 7.592819166446018 1.551462718577138 0.9
  endloop
endfacet
facet normal 0 0 1
  outer loop
    vertex 7.370000000000001 3.616666666666667 0.9
    vertex 7.10937936418382 3.144892964255872 0.9
    vertex 7.592819166446018 3.215203948089528 0.9
  endloop
endfacet
facet normal -0 0 1
  outer loop
    vertex 7.592819166446018 3.215203948089528 0.9
    vertex 8.075135847272714 3.167155155848897 0.9
    vertex 7.863333333333334 3.616666666666667 0.9
  endloop
endfacet
facet normal 0 0 1
  outer loop
    vertex 7.592819166446018 1.551462718577138 0.9
    vertex 7.138602491359286 1.549524606194104 0.9
    vertex 7.370000000000001 1.15 0.9
  endloop
endfacet
facet normal 0 0 1
  outer loop
    vertex 8.850000000000001 1.15 0.9
    vertex 8.488854934932689 1.511145065067313 0.9
    vertex 8.356666666666667 1.15 0.9
  endloop
endfacet
facet normal 0 0 1
  outer loop
    vertex 6.876666666666667 1.15 0.9
    vertex 6.744478398400647 1.511145065067313 0.9
    vertex 6.383333333333334 1.15 0.9
  endloop
endfacet
facet normal -0 0 1
  outer loop
    vertex 6.383333333333334 3.616666666666667 0.9
    vertex 6.744478398400647 3.255521601599354 0.9
    vertex 6.876666666666667 3.616666666666667 0.9
  endloop
endfacet
facet normal 0 0 1
  outer loop
    vertex 6.383333333333334 1.15 0.9
    vertex 6.744478398400647 1.511145065067313 0.9
    vertex 6.383333333333334 1.643333333333333 0.9
  endloop
endfacet
facet normal 0 0 1
  outer loop
    vertex 6.383333333333334 3.123333333333334 0.9
    vertex 6.744478398400647 3.255521601599354 0.9
    vertex 6.383333333333334 3.616666666666667 0.9
  endloop
endfacet
facet normal 0 0 1
  outer loop
    vertex 8.850000000000001 1.643333333333333 0.9
    vertex 8.488854934932689 1.511145065067313 0.9
    vertex 8.850000000000001 1.15 0.9
  endloop
endfacet
facet normal 0 0 1
  outer loop
    vertex 8.850000000000001 3.616666666666667 0.9
    vertex 8.488854934932689 3.255521601599354 0.9
    vertex 8.850000000000001 3.123333333333334 0.9
  endloop
endfacet
facet normal -0 0 1
  outer loop
    vertex 8.356666666666667 3.616666666666667 0.9
    vertex 8.488854934932689 3.255521601599354 0.9
    vertex 8.850000000000001 3.616666666666667 0.9
  endloop
endfacet
facet normal 0 0 1
  outer loop
    vertex 7.371175630195328 2.78838182199702 0.9
    vertex 7.189427467466344 2.308217658545312 0.9
    vertex 7.568282402399032 2.383333333333332 0.9
  endloop
endfacet
facet normal -0 0 1
  outer loop
    vertex 7.10937936418382 3.144892964255872 0.9
    vertex 7.371175630195328 2.78838182199702 0.9
    vertex 7.592819166446018 3.215203948089528 0.9
  endloop
endfacet
facet normal 0 0 1
  outer loop
    vertex 7.592819166446018 1.551462718577138 0.9
    vertex 7.344174029162781 1.940402954672259 0.9
    vertex 7.138602491359286 1.549524606194104 0.9
  endloop
endfacet
facet normal 0 0 1
  outer loop
    vertex 8.042834498059793 2.637666218745106 0.9
    vertex 7.719962700265968 2.851383886396312 0.9
    vertex 7.568282402399032 2.383333333333332 0.9
  endloop
endfacet
facet normal 0 0 1
  outer loop
    vertex 7.568282402399032 2.383333333333332 0.9
    vertex 7.719962700265969 1.915282780270354 0.9
    vertex 8.037432416228222 2.127885291274918 0.9
  endloop
endfacet
facet normal 0 0 1
  outer loop
    vertex 7.371175630195328 2.78838182199702 0.9
    vertex 7.056136127426146 2.652772127397075 0.9
    vertex 7.189427467466344 2.308217658545312 0.9
  endloop
endfacet
facet normal 0 0 1
  outer loop
    vertex 7.592819166446018 3.215203948089528 0.9
    vertex 7.719962700265968 2.851383886396312 0.9
    vertex 8.075135847272714 3.167155155848897 0.9
  endloop
endfacet
facet normal 0 0 1
  outer loop
    vertex 8.070189763187432 1.61398089867166 0.9
    vertex 7.719962700265969 1.915282780270354 0.9
    vertex 7.592819166446018 1.551462718577138 0.9
  endloop
endfacet
facet normal 0 -0 1
  outer loop
    vertex 7.568282402399032 2.383333333333332 0.9
    vertex 7.719962700265968 2.851383886396312 0.9
    vertex 7.371175630195328 2.78838182199702 0.9
  endloop
endfacet
facet normal -0 0 1
  outer loop
    vertex 7.344174029162781 1.940402954672259 0.9
    vertex 7.719962700265969 1.915282780270354 0.9
    vertex 7.568282402399032 2.383333333333332 0.9
  endloop
endfacet
facet normal 0 -0 1
  outer loop
    vertex 8.356666666666667 1.15 0.9
    vertex 8.488854934932689 1.511145065067313 0.9
    vertex 8.070189763187432 1.61398089867166 0.9
  endloop
endfacet
facet normal 0 0 1
  outer loop
    vertex 6.876666666666667 3.616666666666667 0.9
    vertex 6.744478398400647 3.255521601599354 0.9
    vertex 7.10937936418382 3.144892964255872 0.9
  endloop
endfacet
facet normal 0 0 1
  outer loop
    vertex 7.138602491359286 1.549524606194104 0.9
    vertex 6.744478398400647 1.511145065067313 0.9
    vertex 6.876666666666667 1.15 0.9
  endloop
endfacet
facet normal 0 0 1
  outer loop
    vertex 8.075135847272714 3.167155155848897 0.9
    vertex 8.488854934932689 3.255521601599354 0.9
    vertex 8.356666666666667 3.616666666666667 0.9
  endloop
endfacet
facet normal 0 0 1
  outer loop
    vertex 8.850000000000001 3.123333333333334 0.9
    vertex 8.488854934932689 3.255521601599354 0.9
    vertex 8.431597973542818 2.875506095050552 0.9
  endloop
endfacet
facet normal -0 0 1
  outer loop
    vertex 6.383333333333334 1.643333333333333 0.9
    vertex 6.744478398400647 1.511145065067313 0.9
    vertex 6.855949947040038 1.934596631113311 0.9
  endloop
endfacet
facet normal 0 0 1
  outer loop
    vertex 6.749048888014341 2.876473823640135 0.9
    vertex 6.744478398400647 3.255521601599354 0.9
    vertex 6.383333333333334 3.123333333333334 0.9
  endloop
endfacet
facet normal 0 0 1
  outer loop
    vertex 8.432259124439124 1.892090435511899 0.9
    vertex 8.488854934932689 1.511145065067313 0.9
    vertex 8.850000000000001 1.643333333333333 0.9
  endloop
endfacet
facet normal 0 -0 1
  outer loop
    vertex 6.773265999535987 2.412592028188671 0.9
    vertex 7.056136127426146 2.652772127397075 0.9
    vertex 6.749048888014341 2.876473823640135 0.9
  endloop
endfacet
facet normal 0 -0 1
  outer loop
    vertex 8.431597973542818 2.875506095050552 0.9
    vertex 8.488854934932689 3.255521601599354 0.9
    vertex 8.075135847272714 3.167155155848897 0.9
  endloop
endfacet
facet normal 0 0 1
  outer loop
    vertex 6.855949947040038 1.934596631113311 0.9
    vertex 6.744478398400647 1.511145065067313 0.9
    vertex 7.138602491359286 1.549524606194104 0.9
  endloop
endfacet
facet normal -0 0 1
  outer loop
    vertex 8.070189763187432 1.61398089867166 0.9
    vertex 8.488854934932689 1.511145065067313 0.9
    vertex 8.432259124439124 1.892090435511899 0.9
  endloop
endfacet
facet normal 0 0 1
  outer loop
    vertex 7.10937936418382 3.144892964255872 0.9
    vertex 6.744478398400647 3.255521601599354 0.9
    vertex 6.749048888014341 2.876473823640135 0.9
  endloop
endfacet
facet normal 0 0 1
  outer loop
    vertex 7.568282402399032 2.383333333333332 0.9
    vertex 7.189427467466344 2.308217658545312 0.9
    vertex 7.344174029162781 1.940402954672259 0.9
  endloop
endfacet
facet normal 0 0 1
  outer loop
    vertex 7.371175630195328 2.78838182199702 0.9
    vertex 7.719962700265968 2.851383886396312 0.9
    vertex 7.592819166446018 3.215203948089528 0.9
  endloop
endfacet
facet normal 0 -0 1
  outer loop
    vertex 7.592819166446018 1.551462718577138 0.9
    vertex 7.719962700265969 1.915282780270354 0.9
    vertex 7.344174029162781 1.940402954672259 0.9
  endloop
endfacet
facet normal 0 0 1
  outer loop
    vertex 7.189427467466344 2.308217658545312 0.9
    vertex 7.056136127426146 2.652772127397075 0.9
    vertex 6.773265999535987 2.412592028188671 0.9
  endloop
endfacet
endsolid Created by Gmsh
