solid Created by Gmsh
facet normal -1 0 0
  outer loop
    vertex 1.15 3.766666666666667 0.25
    vertex 1.15 3.766666666666667 0.5750000000000002
    vertex 1.15 4.096354629045956 0.575
  endloop
endfacet
facet normal -1 0 0
  outer loop
    vertex 1.15 3.766666666666667 0.5750000000000002
    vertex 1.15 3.766666666666667 0.9
    vertex 1.15 4.096354629045956 0.575
  endloop
endfacet
facet normal -1 0 -0
  outer loop
    vertex 1.15 6.233333333333333 0.5750000000000002
    vertex 1.15 6.233333333333333 0.25
    vertex 1.15 5.903645370954045 0.575
  endloop
endfacet
facet normal -1 0 -0
  outer loop
    vertex 1.15 6.233333333333333 0.9
    vertex 1.15 6.233333333333333 0.5750000000000002
    vertex 1.15 5.903645370954045 0.575
  endloop
endfacet
facet normal -1 0 0
  outer loop
    vertex 1.15 3.766666666666667 0.9
    vertex 1.15 4.26 0.9
    vertex 1.15 4.096354629045956 0.575
  endloop
endfacet
facet normal -1 0 0
  outer loop
    vertex 1.15 6.233333333333333 0.25
    vertex 1.15 5.74 0.25
    vertex 1.15 5.903645370954045 0.575
  endloop
endfacet
facet normal -1 0 0
  outer loop
    vertex 1.15 5.74 0.9
    vertex 1.15 6.233333333333333 0.9
    vertex 1.15 5.903645370954045 0.575
  endloop
endfacet
facet normal -1 0 0
  outer loop
    vertex 1.15 4.26 0.25
    vertex 1.15 3.766666666666667 0.25
    vertex 1.15 4.096354629045956 0.575
  endloop
endfacet
facet normal -1 0 0
  outer loop
    vertex 1.15 5.246666666666667 0.9
    vertex 1.15 5.74 0.9
    vertex 1.15 5.493333333333333 0.575
  endloop
endfacet
facet normal -1 0 0
  outer loop
    vertex 1.15 5 0.575
    vertex 1.15 5.246666666666667 0.9
    vertex 1.15 5.493333333333333 0.575
  endloop
endfacet
facet normal -1 0 0
  outer loop
    vertex 1.15 4.753333333333333 0.25
    vertex 1.15 4.26 0.25
    vertex 1.15 4.506666666666667 0.575
  endloop
endfacet
facet normal -1 0 0
  outer loop
    vertex 1.15 5.246666666666667 0.25
    vertex 1.15 4.753333333333333 0.25
    vertex 1.15 5 0.575
  endloop
endfacet
facet normal -1 0 0
  outer loop
    vertex 1.15 4.753333333333333 0.9
    vertex 1.15 5.246666666666667 0.9
    vertex 1.15 5 0.575
  endloop
endfacet
facet normal -1 0 -0
  outer loop
    vertex 1.15 4.753333333333333 0.9
    vertex 1.15 5 0.575
    vertex 1.15 4.506666666666667 0.575
  endloop
endfacet
facet normal -1 0 0
  outer loop
    vertex 1.15 5.246666666666667 0.25
    vertex 1.15 5 0.575
    vertex 1.15 5.493333333333333 0.575
  endloop
endfacet
facet normal -1 0 0
  outer loop
    vertex 1.15 4.26 0.9
    vertex 1.15 4.753333333333333 0.9
    vertex 1.15 4.506666666666667 0.575
  endloop
endfacet
facet normal -1 -0 0
  outer loop
    vertex 1.15 5 0.575
    vertex 1.15 4.753333333333333 0.25
    vertex 1.15 4.506666666666667 0.575
  endloop
endfacet
facet normal -1 0 0
  outer loop
    vertex 1.15 5.74 0.25
    vertex 1.15 5.246666666666667 0.25
    vertex 1.15 5.493333333333333 0.575
  endloop
endfacet
facet normal -1 -0 0
  outer loop
    vertex 1.15 4.506666666666667 0.575
    vertex 1.15 4.26 0.25
    vertex 1.15 4.096354629045956 0.575
  endloop
endfacet
facet normal -1 0 0
  outer loop
    vertex 1.15 5.493333333333333 0.575
    vertex 1.15 5.74 0.9
    vertex 1.15 5.903645370954045 0.575
  endloop
endfacet
facet normal -1 0 0
  outer loop
    vertex 1.15 5.74 0.25
    vertex 1.15 5.493333333333333 0.575
    vertex 1.15 5.903645370954045 0.575
  endloop
endfacet
facet normal -1 0 -0
  outer loop
    vertex 1.15 4.26 0.9
    vertex 1.15 4.506666666666667 0.575
    vertex 1.15 4.096354629045956 0.575
  endloop
endfacet
facet normal 1 0 0
  outer loop
    vertex 3.616666666666667 3.766666666666667 0.25
    vertex 3.616666666666667 4.096354629045956 0.575
    vertex 3.616666666666667 3.766666666666667 0.5750000000000002
  endloop
endfacet
facet normal 1 -0 0
  outer loop
    vertex 3.616666666666667 3.766666666666667 0.5750000000000002
    vertex 3.616666666666667 4.096354629045956 0.575
    vertex 3.616666666666667 3.766666666666667 0.9
  endloop
endfacet
facet normal 1 0 0
  outer loop
    vertex 3.616666666666667 6.233333333333333 0.5750000000000002
    vertex 3.616666666666667 5.903645370954045 0.575
    vertex 3.616666666666667 6.233333333333333 0.25
  endloop
endfacet
facet normal 1 0 0
  outer loop
    vertex 3.616666666666667 6.233333333333333 0.9
    vertex 3.616666666666667 5.903645370954045 0.575
    vertex 3.616666666666667 6.233333333333333 0.5750000000000002
  endloop
endfacet
facet normal 1 -0 0
  outer loop
    vertex 3.616666666666667 3.766666666666667 0.9
    vertex 3.616666666666667 4.096354629045956 0.575
    vertex 3.616666666666667 4.26 0.9
  endloop
endfacet
facet normal 1 0 0
  outer loop
    vertex 3.616666666666667 6.233333333333333 0.25
    vertex 3.616666666666667 5.903645370954045 0.575
    vertex 3.616666666666667 5.74 0.25
  endloop
endfacet
facet normal 1 -0 0
  outer loop
    vertex 3.616666666666667 5.74 0.9
    vertex 3.616666666666667 5.903645370954045 0.575
    vertex 3.616666666666667 6.233333333333333 0.9
  endloop
endfacet
facet normal 1 0 0
  outer loop
    vertex 3.616666666666667 4.26 0.25
    vertex 3.616666666666667 4.096354629045956 0.575
    vertex 3.616666666666667 3.766666666666667 0.25
  endloop
endfacet
facet normal 1 -0 0
  outer loop
    vertex 3.616666666666667 5.246666666666667 0.9
    vertex 3.616666666666667 5.493333333333333 0.575
    vertex 3.616666666666667 5.74 0.9
  endloop
endfacet
facet normal 1 0 0
  outer loop
    vertex 3.616666666666667 5 0.575
    vertex 3.616666666666667 5.493333333333333 0.575
    vertex 3.616666666666667 5.246666666666667 0.9
  endloop
endfacet
facet normal 1 0 0
  outer loop
    vertex 3.616666666666667 4.753333333333333 0.25
    vertex 3.616666666666667 4.506666666666667 0.575
    vertex 3.616666666666667 4.26 0.25
  endloop
endfacet
facet normal 1 0 0
  outer loop
    vertex 3.616666666666667 5.246666666666667 0.25
    vertex 3.616666666666667 5 0.575
    vertex 3.616666666666667 4.753333333333333 0.25
  endloop
endfacet
facet normal 1 -0 0
  outer loop
    vertex 3.616666666666667 4.753333333333333 0.9
    vertex 3.616666666666667 5 0.575
    vertex 3.616666666666667 5.246666666666667 0.9
  endloop
endfacet
facet normal 1 0 0
  outer loop
    vertex 3.616666666666667 4.753333333333333 0.9
    vertex 3.616666666666667 4.506666666666667 0.575
    vertex 3.616666666666667 5 0.575
  endloop
endfacet
facet normal 1 0 -0
  outer loop
    vertex 3.616666666666667 5.246666666666667 0.25
    vertex 3.616666666666667 5.493333333333333 0.575
    vertex 3.616666666666667 5 0.575
  endloop
endfacet
facet normal 1 -0 0
  outer loop
    vertex 3.616666666666667 4.26 0.9
    vertex 3.616666666666667 4.506666666666667 0.575
    vertex 3.616666666666667 4.753333333333333 0.9
  endloop
endfacet
facet normal 1 0 0
  outer loop
    vertex 3.616666666666667 5 0.575
    vertex 3.616666666666667 4.506666666666667 0.575
    vertex 3.616666666666667 4.753333333333333 0.25
  endloop
endfacet
facet normal 1 0 0
  outer loop
    vertex 3.616666666666667 5.74 0.25
    vertex 3.616666666666667 5.493333333333333 0.575
    vertex 3.616666666666667 5.246666666666667 0.25
  endloop
endfacet
facet normal 1 0 0
  outer loop
    vertex 3.616666666666667 4.506666666666667 0.575
    vertex 3.616666666666667 4.096354629045956 0.575
    vertex 3.616666666666667 4.26 0.25
  endloop
endfacet
facet normal 1 0 0
  outer loop
    vertex 3.616666666666667 5.493333333333333 0.575
    vertex 3.616666666666667 5.903645370954045 0.575
    vertex 3.616666666666667 5.74 0.9
  endloop
endfacet
facet normal 1 0 -0
  outer loop
    vertex 3.616666666666667 5.74 0.25
    vertex 3.616666666666667 5.903645370954045 0.575
    vertex 3.616666666666667 5.493333333333333 0.575
  endloop
endfacet
facet normal 1 0 0
  outer loop
    vertex 3.616666666666667 4.26 0.9
    vertex 3.616666666666667 4.096354629045956 0.575
    vertex 3.616666666666667 4.506666666666667 0.575
  endloop
endfacet
facet normal 0 -1 0
  outer loop
    vertex 1.15 3.766666666666667 0.9
    vertex 1.15 3.766666666666667 0.5750000000000002
    vertex 1.479687962379289 3.766666666666667 0.575
  endloop
endfacet
facet normal 0 -1 0
  outer loop
    vertex 1.15 3.766666666666667 0.5750000000000002
    vertex 1.15 3.766666666666667 0.25
    vertex 1.479687962379289 3.766666666666667 0.575
  endloop
endfacet
facet normal 0 -1 0
  outer loop
    vertex 3.616666666666667 3.766666666666667 0.25
    vertex 3.616666666666667 3.766666666666667 0.5750000000000002
    vertex 3.286978704287378 3.766666666666667 0.575
  endloop
endfacet
facet normal -0 -1 0
  outer loop
    vertex 3.616666666666667 3.766666666666667 0.5750000000000002
    vertex 3.616666666666667 3.766666666666667 0.9
    vertex 3.286978704287378 3.766666666666667 0.575
  endloop
endfacet
facet normal -0 -1 0
  outer loop
    vertex 1.643333333333333 3.766666666666667 0.9
    vertex 1.15 3.766666666666667 0.9
    vertex 1.479687962379289 3.766666666666667 0.575
  endloop
endfacet
facet normal 0 -1 0
  outer loop
    vertex 1.15 3.766666666666667 0.25
    vertex 1.643333333333333 3.766666666666667 0.25
    vertex 1.479687962379289 3.766666666666667 0.575
  endloop
endfacet
facet normal -0 -1 0
  outer loop
    vertex 3.616666666666667 3.766666666666667 0.9
    vertex 3.123333333333334 3.766666666666667 0.9
    vertex 3.286978704287378 3.766666666666667 0.575
  endloop
endfacet
facet normal 0 -1 0
  outer loop
    vertex 3.123333333333334 3.766666666666667 0.25
    vertex 3.616666666666667 3.766666666666667 0.25
    vertex 3.286978704287378 3.766666666666667 0.575
  endloop
endfacet
facet normal 0 -1 0
  outer loop
    vertex 1.89 3.766666666666667 0.575
    vertex 2.136666666666667 3.766666666666667 0.25
    vertex 2.383333333333333 3.766666666666667 0.575
  endloop
endfacet
facet normal 0 -1 -0
  outer loop
    vertex 2.136666666666667 3.766666666666667 0.9
    vertex 1.89 3.766666666666667 0.575
    vertex 2.383333333333333 3.766666666666667 0.575
  endloop
endfacet
facet normal 0 -1 0
  outer loop
    vertex 1.643333333333333 3.766666666666667 0.25
    vertex 2.136666666666667 3.766666666666667 0.25
    vertex 1.89 3.766666666666667 0.575
  endloop
endfacet
facet normal -0 -1 0
  outer loop
    vertex 2.136666666666667 3.766666666666667 0.9
    vertex 1.643333333333333 3.766666666666667 0.9
    vertex 1.89 3.766666666666667 0.575
  endloop
endfacet
facet normal 0 -1 0
  outer loop
    vertex 2.876666666666666 3.766666666666667 0.575
    vertex 2.63 3.766666666666667 0.9
    vertex 2.383333333333333 3.766666666666667 0.575
  endloop
endfacet
facet normal 0 -1 0
  outer loop
    vertex 2.136666666666667 3.766666666666667 0.25
    vertex 2.63 3.766666666666667 0.25
    vertex 2.383333333333333 3.766666666666667 0.575
  endloop
endfacet
facet normal -0 -1 0
  outer loop
    vertex 2.63 3.766666666666667 0.9
    vertex 2.136666666666667 3.766666666666667 0.9
    vertex 2.383333333333333 3.766666666666667 0.575
  endloop
endfacet
facet normal 0 -1 0
  outer loop
    vertex 2.63 3.766666666666667 0.25
    vertex 3.123333333333334 3.766666666666667 0.25
    vertex 2.876666666666666 3.766666666666667 0.575
  endloop
endfacet
facet normal -0 -1 0
  outer loop
    vertex 3.123333333333334 3.766666666666667 0.9
    vertex 2.63 3.766666666666667 0.9
    vertex 2.876666666666666 3.766666666666667 0.575
  endloop
endfacet
facet normal 0 -1 0
  outer loop
    vertex 2.63 3.766666666666667 0.25
    vertex 2.876666666666666 3.766666666666667 0.575
    vertex 2.383333333333333 3.766666666666667 0.575
  endloop
endfacet
facet normal 0 -1 0
  outer loop
    vertex 2.876666666666666 3.766666666666667 0.575
    vertex 3.123333333333334 3.766666666666667 0.25
    vertex 3.286978704287378 3.766666666666667 0.575
  endloop
endfacet
facet normal 0 -1 -0
  outer loop
    vertex 3.123333333333334 3.766666666666667 0.9
    vertex 2.876666666666666 3.766666666666667 0.575
    vertex 3.286978704287378 3.766666666666667 0.575
  endloop
endfacet
facet normal 0 -1 0
  outer loop
    vertex 1.643333333333333 3.766666666666667 0.25
    vertex 1.89 3.766666666666667 0.575
    vertex 1.479687962379289 3.766666666666667 0.575
  endloop
endfacet
facet normal 0 -1 0
  outer loop
    vertex 1.89 3.766666666666667 0.575
    vertex 1.643333333333333 3.766666666666667 0.9
    vertex 1.479687962379289 3.766666666666667 0.575
  endloop
endfacet
facet normal 0 1 0
  outer loop
    vertex 1.15 6.233333333333333 0.9
    vertex 1.479687962379289 6.233333333333333 0.575
    vertex 1.15 6.233333333333333 0.5750000000000002
  endloop
endfacet
facet normal 0 1 0
  outer loop
    vertex 1.15 6.233333333333333 0.5750000000000002
    vertex 1.479687962379289 6.233333333333333 0.575
    vertex 1.15 6.233333333333333 0.25
  endloop
endfacet
facet normal 0 1 -0
  outer loop
    vertex 3.616666666666667 6.233333333333333 0.25
    vertex 3.286978704287378 6.233333333333333 0.575
    vertex 3.616666666666667 6.233333333333333 0.5750000000000002
  endloop
endfacet
facet normal 0 1 -0
  outer loop
    vertex 3.616666666666667 6.233333333333333 0.5750000000000002
    vertex 3.286978704287378 6.233333333333333 0.575
    vertex 3.616666666666667 6.233333333333333 0.9
  endloop
endfacet
facet normal 0 1 0
  outer loop
    vertex 1.643333333333333 6.233333333333333 0.9
    vertex 1.479687962379289 6.233333333333333 0.575
    vertex 1.15 6.233333333333333 0.9
  endloop
endfacet
facet normal 0 1 0
  outer loop
    vertex 1.15 6.233333333333333 0.25
    vertex 1.479687962379289 6.233333333333333 0.575
    vertex 1.643333333333333 6.233333333333333 0.25
  endloop
endfacet
facet normal 0 1 0
  outer loop
    vertex 3.616666666666667 6.233333333333333 0.9
    vertex 3.286978704287378 6.233333333333333 0.575
    vertex 3.123333333333334 6.233333333333333 0.9
  endloop
endfacet
facet normal 0 1 0
  outer loop
    vertex 3.123333333333334 6.233333333333333 0.25
    vertex 3.286978704287378 6.233333333333333 0.575
    vertex 3.616666666666667 6.233333333333333 0.25
  endloop
endfacet
facet normal -0 1 0
  outer loop
    vertex 1.89 6.233333333333333 0.575
    vertex 2.383333333333333 6.233333333333333 0.5750000000000001
    vertex 2.136666666666667 6.233333333333333 0.25
  endloop
endfacet
facet normal 0 1 0
  outer loop
    vertex 2.136666666666667 6.233333333333333 0.9
    vertex 2.383333333333333 6.233333333333333 0.5750000000000001
    vertex 1.89 6.233333333333333 0.575
  endloop
endfacet
facet normal 0 1 0
  outer loop
    vertex 1.643333333333333 6.233333333333333 0.25
    vertex 1.89 6.233333333333333 0.575
    vertex 2.136666666666667 6.233333333333333 0.25
  endloop
endfacet
facet normal 0 1 0
  outer loop
    vertex 2.136666666666667 6.233333333333333 0.9
    vertex 1.89 6.233333333333333 0.575
    vertex 1.643333333333333 6.233333333333333 0.9
  endloop
endfacet
facet normal 0 1 0
  outer loop
    vertex 2.136666666666667 6.233333333333333 0.25
    vertex 2.383333333333333 6.233333333333333 0.5750000000000001
    vertex 2.63 6.233333333333333 0.25
  endloop
endfacet
facet normal 0 1 0
  outer loop
    vertex 2.63 6.233333333333333 0.25
    vertex 2.876666666666666 6.233333333333333 0.5750000000000002
    vertex 3.123333333333334 6.233333333333333 0.25
  endloop
endfacet
facet normal 0 1 0
  outer loop
    vertex 2.63 6.233333333333333 0.9
    vertex 2.383333333333333 6.233333333333333 0.5750000000000001
    vertex 2.136666666666667 6.233333333333333 0.9
  endloop
endfacet
facet normal 0 1 0
  outer loop
    vertex 3.123333333333334 6.233333333333333 0.9
    vertex 2.876666666666666 6.233333333333333 0.5750000000000002
    vertex 2.63 6.233333333333333 0.9
  endloop
endfacet
facet normal 0 1 0
  outer loop
    vertex 2.63 6.233333333333333 0.9
    vertex 2.876666666666666 6.233333333333333 0.5750000000000002
    vertex 2.383333333333333 6.233333333333333 0.5750000000000001
  endloop
endfacet
facet normal -0 1 0
  outer loop
    vertex 2.383333333333333 6.233333333333333 0.5750000000000001
    vertex 2.876666666666666 6.233333333333333 0.5750000000000002
    vertex 2.63 6.233333333333333 0.25
  endloop
endfacet
facet normal 0 1 0
  outer loop
    vertex 2.876666666666666 6.233333333333333 0.5750000000000002
    vertex 3.286978704287378 6.233333333333333 0.575
    vertex 3.123333333333334 6.233333333333333 0.25
  endloop
endfacet
facet normal 0 1 0
  outer loop
    vertex 3.123333333333334 6.233333333333333 0.9
    vertex 3.286978704287378 6.233333333333333 0.575
    vertex 2.876666666666666 6.233333333333333 0.5750000000000002
  endloop
endfacet
facet normal 0 1 -0
  outer loop
    vertex 1.643333333333333 6.233333333333333 0.25
    vertex 1.479687962379289 6.233333333333333 0.575
    vertex 1.89 6.233333333333333 0.575
  endloop
endfacet
facet normal 0 1 0
  outer loop
    vertex 1.89 6.233333333333333 0.575
    vertex 1.479687962379289 6.233333333333333 0.575
    vertex 1.643333333333333 6.233333333333333 0.9
  endloop
endfacet
facet normal 0 0 -1
  outer loop
    vertex 1.962156036825964 5.256160862278263 0.25
    vertex 1.567599482885953 5.491487797118221 0.25
    vertex 1.929731245438178 5.769489251735477 0.25
  endloop
endfacet
facet normal 0 0 -1
  outer loop
    vertex 3.144050052959963 4.551263297779978 0.25
    vertex 2.655073966729885 4.557503791112727 0.25
    vertex 2.810572532533656 4.92488432521198 0.25
  endloop
endfacet
facet normal 0 0 -1
  outer loop
    vertex 1.950349018260321 4.752817832650843 0.25
    vertex 1.916321638754483 4.223486208380305 0.25
    vertex 1.542121172047081 4.520246854686794 0.25
  endloop
endfacet
facet normal -0 0 -1
  outer loop
    vertex 3.144050052959963 4.551263297779978 0.25
    vertex 2.860917506019012 4.166468402503622 0.25
    vertex 2.655073966729885 4.557503791112727 0.25
  endloop
endfacet
facet normal 0 0 -1
  outer loop
    vertex 1.962156036825964 5.256160862278263 0.25
    vertex 1.929731245438178 5.769489251735477 0.25
    vertex 2.280037299734035 5.468050553062978 0.25
  endloop
endfacet
facet normal 0 0 -1
  outer loop
    vertex 1.916321638754483 4.223486208380305 0.25
    vertex 1.950349018260321 4.752817832650843 0.25
    vertex 2.280037299734033 4.531949446937021 0.25
  endloop
endfacet
facet normal 0 0 -1
  outer loop
    vertex 2.890620635816181 5.761559630922538 0.25
    vertex 3.250951111985659 5.493140490306802 0.25
    vertex 2.943863872573855 5.269438794063741 0.25
  endloop
endfacet
facet normal 0 0 -1
  outer loop
    vertex 2.628824369804674 5.405048488663687 0.25
    vertex 2.890620635816181 5.761559630922538 0.25
    vertex 2.943863872573855 5.269438794063741 0.25
  endloop
endfacet
facet normal 0 0 -1
  outer loop
    vertex 3.226734000464014 5.029258694855337 0.25
    vertex 3.144050052959963 4.551263297779978 0.25
    vertex 2.810572532533656 4.92488432521198 0.25
  endloop
endfacet
facet normal 0 0 -1
  outer loop
    vertex 1.950349018260321 4.752817832650843 0.25
    vertex 1.962156036825964 5.256160862278263 0.25
    vertex 2.431717597600968 4.999999999999999 0.25
  endloop
endfacet
facet normal 0 0 -1
  outer loop
    vertex 1.15 5.246666666666667 0.25
    vertex 1.15 5.74 0.25
    vertex 1.567599482885953 5.491487797118221 0.25
  endloop
endfacet
facet normal 0 -0 -1
  outer loop
    vertex 3.616666666666667 4.753333333333333 0.25
    vertex 3.616666666666667 4.26 0.25
    vertex 3.144050052959963 4.551263297779978 0.25
  endloop
endfacet
facet normal 0 -0 -1
  outer loop
    vertex 3.616666666666667 5.246666666666667 0.25
    vertex 3.616666666666667 4.753333333333333 0.25
    vertex 3.226734000464014 5.029258694855337 0.25
  endloop
endfacet
facet normal 0 0 -1
  outer loop
    vertex 1.574911310200368 5.004032022022303 0.25
    vertex 1.567599482885953 5.491487797118221 0.25
    vertex 1.962156036825964 5.256160862278263 0.25
  endloop
endfacet
facet normal 0 0 -1
  outer loop
    vertex 1.15 4.753333333333333 0.25
    vertex 1.15 5.246666666666667 0.25
    vertex 1.574911310200368 5.004032022022303 0.25
  endloop
endfacet
facet normal -0 0 -1
  outer loop
    vertex 2.40314881153168 4.17045727424376 0.25
    vertex 2.136666666666667 3.766666666666667 0.25
    vertex 1.916321638754483 4.223486208380305 0.25
  endloop
endfacet
facet normal 0 0 -1
  outer loop
    vertex 2.136666666666667 6.233333333333333 0.25
    vertex 2.63 6.233333333333333 0.25
    vertex 2.407180833553983 5.831870614756195 0.25
  endloop
endfacet
facet normal 0 -0 -1
  outer loop
    vertex 3.616666666666667 5.74 0.25
    vertex 3.616666666666667 5.246666666666667 0.25
    vertex 3.250951111985659 5.493140490306802 0.25
  endloop
endfacet
facet normal 0 0 -1
  outer loop
    vertex 2.136666666666667 3.766666666666667 0.25
    vertex 1.643333333333333 3.766666666666667 0.25
    vertex 1.916321638754483 4.223486208380305 0.25
  endloop
endfacet
facet normal 0 0 -1
  outer loop
    vertex 1.574911310200368 5.004032022022303 0.25
    vertex 1.962156036825964 5.256160862278263 0.25
    vertex 1.950349018260321 4.752817832650843 0.25
  endloop
endfacet
facet normal 0 0 -1
  outer loop
    vertex 2.63 3.766666666666667 0.25
    vertex 2.136666666666667 3.766666666666667 0.25
    vertex 2.40314881153168 4.17045727424376 0.25
  endloop
endfacet
facet normal -0 0 -1
  outer loop
    vertex 3.616666666666667 5.246666666666667 0.25
    vertex 3.226734000464014 5.029258694855337 0.25
    vertex 3.250951111985659 5.493140490306802 0.25
  endloop
endfacet
facet normal 0 0 -1
  outer loop
    vertex 1.574911310200368 5.004032022022303 0.25
    vertex 1.15 5.246666666666667 0.25
    vertex 1.567599482885953 5.491487797118221 0.25
  endloop
endfacet
facet normal 0 -0 -1
  outer loop
    vertex 3.226734000464014 5.029258694855337 0.25
    vertex 3.616666666666667 4.753333333333333 0.25
    vertex 3.144050052959963 4.551263297779978 0.25
  endloop
endfacet
facet normal 0 0 -1
  outer loop
    vertex 1.15 4.26 0.25
    vertex 1.15 4.753333333333333 0.25
    vertex 1.542121172047081 4.520246854686794 0.25
  endloop
endfacet
facet normal 0 0 -1
  outer loop
    vertex 1.643333333333333 6.233333333333333 0.25
    vertex 2.136666666666667 6.233333333333333 0.25
    vertex 1.929731245438178 5.769489251735477 0.25
  endloop
endfacet
facet normal 0 -0 -1
  outer loop
    vertex 1.574911310200368 5.004032022022303 0.25
    vertex 1.950349018260321 4.752817832650843 0.25
    vertex 1.542121172047081 4.520246854686794 0.25
  endloop
endfacet
facet normal 0 0 -1
  outer loop
    vertex 3.123333333333334 3.766666666666667 0.25
    vertex 2.63 3.766666666666667 0.25
    vertex 2.860917506019012 4.166468402503622 0.25
  endloop
endfacet
facet normal 0 0 -1
  outer loop
    vertex 2.63 6.233333333333333 0.25
    vertex 3.123333333333334 6.233333333333333 0.25
    vertex 2.890620635816181 5.761559630922538 0.25
  endloop
endfacet
facet normal 0 0 -1
  outer loop
    vertex 2.63 3.766666666666667 0.25
    vertex 2.40314881153168 4.17045727424376 0.25
    vertex 2.860917506019012 4.166468402503622 0.25
  endloop
endfacet
facet normal 0 -0 -1
  outer loop
    vertex 2.136666666666667 6.233333333333333 0.25
    vertex 2.407180833553983 5.831870614756195 0.25
    vertex 1.929731245438178 5.769489251735477 0.25
  endloop
endfacet
facet normal 0 0 -1
  outer loop
    vertex 2.407180833553983 5.831870614756195 0.25
    vertex 2.63 6.233333333333333 0.25
    vertex 2.890620635816181 5.761559630922538 0.25
  endloop
endfacet
facet normal 0 0 -1
  outer loop
    vertex 1.15 4.753333333333333 0.25
    vertex 1.574911310200368 5.004032022022303 0.25
    vertex 1.542121172047081 4.520246854686794 0.25
  endloop
endfacet
facet normal 0 0 -1
  outer loop
    vertex 1.15 5.74 0.25
    vertex 1.15 6.233333333333333 0.25
    vertex 1.511145065067313 5.87218826826602 0.25
  endloop
endfacet
facet normal 0 0 -1
  outer loop
    vertex 1.15 3.766666666666667 0.25
    vertex 1.15 4.26 0.25
    vertex 1.511145065067313 4.12781173173398 0.25
  endloop
endfacet
facet normal 0 -0 -1
  outer loop
    vertex 3.616666666666667 4.26 0.25
    vertex 3.616666666666667 3.766666666666667 0.25
    vertex 3.255521601599354 4.12781173173398 0.25
  endloop
endfacet
facet normal 0 -0 -1
  outer loop
    vertex 3.616666666666667 6.233333333333333 0.25
    vertex 3.616666666666667 5.74 0.25
    vertex 3.255521601599354 5.87218826826602 0.25
  endloop
endfacet
facet normal 0 0 -1
  outer loop
    vertex 1.643333333333333 3.766666666666667 0.25
    vertex 1.15 3.766666666666667 0.25
    vertex 1.511145065067313 4.12781173173398 0.25
  endloop
endfacet
facet normal 0 0 -1
  outer loop
    vertex 3.616666666666667 3.766666666666667 0.25
    vertex 3.123333333333334 3.766666666666667 0.25
    vertex 3.255521601599354 4.12781173173398 0.25
  endloop
endfacet
facet normal 0 0 -1
  outer loop
    vertex 1.15 6.233333333333333 0.25
    vertex 1.643333333333333 6.233333333333333 0.25
    vertex 1.511145065067313 5.87218826826602 0.25
  endloop
endfacet
facet normal 0 0 -1
  outer loop
    vertex 3.123333333333334 6.233333333333333 0.25
    vertex 3.616666666666667 6.233333333333333 0.25
    vertex 3.255521601599354 5.87218826826602 0.25
  endloop
endfacet
facet normal 0 0 -1
  outer loop
    vertex 2.431717597600968 4.999999999999999 0.25
    vertex 2.628824369804674 5.405048488663687 0.25
    vertex 2.810572532533656 4.92488432521198 0.25
  endloop
endfacet
facet normal 0 0 -1
  outer loop
    vertex 2.40314881153168 4.17045727424376 0.25
    vertex 1.916321638754483 4.223486208380305 0.25
    vertex 2.280037299734033 4.531949446937021 0.25
  endloop
endfacet
facet normal 0 0 -1
  outer loop
    vertex 2.407180833553983 5.831870614756195 0.25
    vertex 2.890620635816181 5.761559630922538 0.25
    vertex 2.628824369804674 5.405048488663687 0.25
  endloop
endfacet
facet normal 0 0 -1
  outer loop
    vertex 2.860917506019012 4.166468402503622 0.25
    vertex 2.40314881153168 4.17045727424376 0.25
    vertex 2.655073966729885 4.557503791112727 0.25
  endloop
endfacet
facet normal 0 0 -1
  outer loop
    vertex 2.431717597600968 4.999999999999999 0.25
    vertex 1.962156036825964 5.256160862278263 0.25
    vertex 2.280037299734035 5.468050553062978 0.25
  endloop
endfacet
facet normal 0 0 -1
  outer loop
    vertex 1.950349018260321 4.752817832650843 0.25
    vertex 2.431717597600968 4.999999999999999 0.25
    vertex 2.280037299734033 4.531949446937021 0.25
  endloop
endfacet
facet normal 0 0 -1
  outer loop
    vertex 2.810572532533656 4.92488432521198 0.25
    vertex 2.628824369804674 5.405048488663687 0.25
    vertex 2.943863872573855 5.269438794063741 0.25
  endloop
endfacet
facet normal 0 0 -1
  outer loop
    vertex 1.929731245438178 5.769489251735477 0.25
    vertex 2.407180833553983 5.831870614756195 0.25
    vertex 2.280037299734035 5.468050553062978 0.25
  endloop
endfacet
facet normal -0 0 -1
  outer loop
    vertex 2.628824369804674 5.405048488663687 0.25
    vertex 2.431717597600968 4.999999999999999 0.25
    vertex 2.280037299734035 5.468050553062978 0.25
  endloop
endfacet
facet normal 0 -0 -1
  outer loop
    vertex 2.431717597600968 4.999999999999999 0.25
    vertex 2.655073966729885 4.557503791112727 0.25
    vertex 2.280037299734033 4.531949446937021 0.25
  endloop
endfacet
facet normal 0 -0 -1
  outer loop
    vertex 1.643333333333333 6.233333333333333 0.25
    vertex 1.929731245438178 5.769489251735477 0.25
    vertex 1.511145065067313 5.87218826826602 0.25
  endloop
endfacet
facet normal 0 0 -1
  outer loop
    vertex 1.15 4.26 0.25
    vertex 1.542121172047081 4.520246854686794 0.25
    vertex 1.511145065067313 4.12781173173398 0.25
  endloop
endfacet
facet normal 0 0 -1
  outer loop
    vertex 2.890620635816181 5.761559630922538 0.25
    vertex 3.123333333333334 6.233333333333333 0.25
    vertex 3.255521601599354 5.87218826826602 0.25
  endloop
endfacet
facet normal 0 0 -1
  outer loop
    vertex 3.123333333333334 3.766666666666667 0.25
    vertex 2.860917506019012 4.166468402503622 0.25
    vertex 3.255521601599354 4.12781173173398 0.25
  endloop
endfacet
facet normal 0 0 -1
  outer loop
    vertex 1.916321638754483 4.223486208380305 0.25
    vertex 1.643333333333333 3.766666666666667 0.25
    vertex 1.511145065067313 4.12781173173398 0.25
  endloop
endfacet
facet normal 0 0 -1
  outer loop
    vertex 1.567599482885953 5.491487797118221 0.25
    vertex 1.15 5.74 0.25
    vertex 1.511145065067313 5.87218826826602 0.25
  endloop
endfacet
facet normal 0 0 -1
  outer loop
    vertex 3.144050052959963 4.551263297779978 0.25
    vertex 3.616666666666667 4.26 0.25
    vertex 3.255521601599354 4.12781173173398 0.25
  endloop
endfacet
facet normal -0 0 -1
  outer loop
    vertex 3.616666666666667 5.74 0.25
    vertex 3.250951111985659 5.493140490306802 0.25
    vertex 3.255521601599354 5.87218826826602 0.25
  endloop
endfacet
facet normal 0 0 -1
  outer loop
    vertex 3.250951111985659 5.493140490306802 0.25
    vertex 3.226734000464014 5.029258694855337 0.25
    vertex 2.943863872573855 5.269438794063741 0.25
  endloop
endfacet
facet normal 0 0 -1
  outer loop
    vertex 3.250951111985659 5.493140490306802 0.25
    vertex 2.890620635816181 5.761559630922538 0.25
    vertex 3.255521601599354 5.87218826826602 0.25
  endloop
endfacet
facet normal 0 0 -1
  outer loop
    vertex 2.860917506019012 4.166468402503622 0.25
    vertex 3.144050052959963 4.551263297779978 0.25
    vertex 3.255521601599354 4.12781173173398 0.25
  endloop
endfacet
facet normal 0 -0 -1
  outer loop
    vertex 1.542121172047081 4.520246854686794 0.25
    vertex 1.916321638754483 4.223486208380305 0.25
    vertex 1.511145065067313 4.12781173173398 0.25
  endloop
endfacet
facet normal -0 0 -1
  outer loop
    vertex 1.929731245438178 5.769489251735477 0.25
    vertex 1.567599482885953 5.491487797118221 0.25
    vertex 1.511145065067313 5.87218826826602 0.25
  endloop
endfacet
facet normal 0 0 -1
  outer loop
    vertex 2.655073966729885 4.557503791112727 0.25
    vertex 2.431717597600968 4.999999999999999 0.25
    vertex 2.810572532533656 4.92488432521198 0.25
  endloop
endfacet
facet normal 0 -0 -1
  outer loop
    vertex 2.407180833553983 5.831870614756195 0.25
    vertex 2.628824369804674 5.405048488663687 0.25
    vertex 2.280037299734035 5.468050553062978 0.25
  endloop
endfacet
facet normal 0 0 -1
  outer loop
    vertex 2.655073966729885 4.557503791112727 0.25
    vertex 2.40314881153168 4.17045727424376 0.25
    vertex 2.280037299734033 4.531949446937021 0.25
  endloop
endfacet
facet normal -0 0 -1
  outer loop
    vertex 3.226734000464014 5.029258694855337 0.25
    vertex 2.810572532533656 4.92488432521198 0.25
    vertex 2.943863872573855 5.269438794063741 0.25
  endloop
endfacet
facet normal 0 0 1
  outer loop
    vertex 1.962156036825964 5.256160862278263 0.9
    vertex 1.929731245438178 5.769489251735477 0.9
    vertex 1.567599482885953 5.491487797118221 0.9
  endloop
endfacet
facet normal 0 0 1
  outer loop
    vertex 3.144050052959963 4.551263297779978 0.9
    vertex 2.810572532533656 4.92488432521198 0.9
    vertex 2.655073966729885 4.557503791112727 0.9
  endloop
endfacet
facet normal 0 0 1
  outer loop
    vertex 1.950349018260321 4.752817832650843 0.9
    vertex 1.542121172047081 4.520246854686794 0.9
    vertex 1.916321638754483 4.223486208380305 0.9
  endloop
endfacet
facet normal 0 0 1
  outer loop
    vertex 3.144050052959963 4.551263297779978 0.9
    vertex 2.655073966729885 4.557503791112727 0.9
    vertex 2.860917506019012 4.166468402503622 0.9
  endloop
endfacet
facet normal 0 -0 1
  outer loop
    vertex 1.962156036825964 5.256160862278263 0.9
    vertex 2.280037299734035 5.468050553062978 0.9
    vertex 1.929731245438178 5.769489251735477 0.9
  endloop
endfacet
facet normal 0 0 1
  outer loop
    vertex 1.916321638754483 4.223486208380305 0.9
    vertex 2.280037299734033 4.531949446937021 0.9
    vertex 1.950349018260321 4.752817832650843 0.9
  endloop
endfacet
facet normal 0 0 1
  outer loop
    vertex 2.890620635816181 5.761559630922538 0.9
    vertex 2.943863872573855 5.269438794063741 0.9
    vertex 3.250951111985659 5.493140490306802 0.9
  endloop
endfacet
facet normal -0 0 1
  outer loop
    vertex 2.628824369804674 5.405048488663687 0.9
    vertex 2.943863872573855 5.269438794063741 0.9
    vertex 2.890620635816181 5.761559630922538 0.9
  endloop
endfacet
facet normal 0 0 1
  outer loop
    vertex 3.226734000464014 5.029258694855337 0.9
    vertex 2.810572532533656 4.92488432521198 0.9
    vertex 3.144050052959963 4.551263297779978 0.9
  endloop
endfacet
facet normal 0 0 1
  outer loop
    vertex 1.950349018260321 4.752817832650843 0.9
    vertex 2.431717597600968 4.999999999999999 0.9
    vertex 1.962156036825964 5.256160862278263 0.9
  endloop
endfacet
facet normal 0 0 1
  outer loop
    vertex 1.15 5.246666666666667 0.9
    vertex 1.567599482885953 5.491487797118221 0.9
    vertex 1.15 5.74 0.9
  endloop
endfacet
facet normal 0 0 1
  outer loop
    vertex 3.616666666666667 4.753333333333333 0.9
    vertex 3.144050052959963 4.551263297779978 0.9
    vertex 3.616666666666667 4.26 0.9
  endloop
endfacet
facet normal 0 0 1
  outer loop
    vertex 3.616666666666667 5.246666666666667 0.9
    vertex 3.226734000464014 5.029258694855337 0.9
    vertex 3.616666666666667 4.753333333333333 0.9
  endloop
endfacet
facet normal 0 -0 1
  outer loop
    vertex 1.574911310200368 5.004032022022303 0.9
    vertex 1.962156036825964 5.256160862278263 0.9
    vertex 1.567599482885953 5.491487797118221 0.9
  endloop
endfacet
facet normal 0 0 1
  outer loop
    vertex 1.15 4.753333333333333 0.9
    vertex 1.574911310200368 5.004032022022303 0.9
    vertex 1.15 5.246666666666667 0.9
  endloop
endfacet
facet normal 0 0 1
  outer loop
    vertex 2.40314881153168 4.17045727424376 0.9
    vertex 1.916321638754483 4.223486208380305 0.9
    vertex 2.136666666666667 3.766666666666667 0.9
  endloop
endfacet
facet normal -0 0 1
  outer loop
    vertex 2.136666666666667 6.233333333333333 0.9
    vertex 2.407180833553983 5.831870614756195 0.9
    vertex 2.63 6.233333333333333 0.9
  endloop
endfacet
facet normal 0 0 1
  outer loop
    vertex 3.616666666666667 5.74 0.9
    vertex 3.250951111985659 5.493140490306802 0.9
    vertex 3.616666666666667 5.246666666666667 0.9
  endloop
endfacet
facet normal 0 0 1
  outer loop
    vertex 2.136666666666667 3.766666666666667 0.9
    vertex 1.916321638754483 4.223486208380305 0.9
    vertex 1.643333333333333 3.766666666666667 0.9
  endloop
endfacet
facet normal -0 0 1
  outer loop
    vertex 1.574911310200368 5.004032022022303 0.9
    vertex 1.950349018260321 4.752817832650843 0.9
    vertex 1.962156036825964 5.256160862278263 0.9
  endloop
endfacet
facet normal 0 0 1
  outer loop
    vertex 2.63 3.766666666666667 0.9
    vertex 2.40314881153168 4.17045727424376 0.9
    vertex 2.136666666666667 3.766666666666667 0.9
  endloop
endfacet
facet normal 0 0 1
  outer loop
    vertex 3.616666666666667 5.246666666666667 0.9
    vertex 3.250951111985659 5.493140490306802 0.9
    vertex 3.226734000464014 5.029258694855337 0.9
  endloop
endfacet
facet normal 0 0 1
  outer loop
    vertex 1.574911310200368 5.004032022022303 0.9
    vertex 1.567599482885953 5.491487797118221 0.9
    vertex 1.15 5.246666666666667 0.9
  endloop
endfacet
facet normal 0 0 1
  outer loop
    vertex 3.226734000464014 5.029258694855337 0.9
    vertex 3.144050052959963 4.551263297779978 0.9
    vertex 3.616666666666667 4.753333333333333 0.9
  endloop
endfacet
facet normal 0 0 1
  outer loop
    vertex 1.15 4.26 0.9
    vertex 1.542121172047081 4.520246854686794 0.9
    vertex 1.15 4.753333333333333 0.9
  endloop
endfacet
facet normal -0 0 1
  outer loop
    vertex 1.643333333333333 6.233333333333333 0.9
    vertex 1.929731245438178 5.769489251735477 0.9
    vertex 2.136666666666667 6.233333333333333 0.9
  endloop
endfacet
facet normal 0 0 1
  outer loop
    vertex 1.574911310200368 5.004032022022303 0.9
    vertex 1.542121172047081 4.520246854686794 0.9
    vertex 1.950349018260321 4.752817832650843 0.9
  endloop
endfacet
facet normal 0 0 1
  outer loop
    vertex 3.123333333333334 3.766666666666667 0.9
    vertex 2.860917506019012 4.166468402503622 0.9
    vertex 2.63 3.766666666666667 0.9
  endloop
endfacet
facet normal -0 0 1
  outer loop
    vertex 2.63 6.233333333333333 0.9
    vertex 2.890620635816181 5.761559630922538 0.9
    vertex 3.123333333333334 6.233333333333333 0.9
  endloop
endfacet
facet normal 0 -0 1
  outer loop
    vertex 2.63 3.766666666666667 0.9
    vertex 2.860917506019012 4.166468402503622 0.9
    vertex 2.40314881153168 4.17045727424376 0.9
  endloop
endfacet
facet normal 0 0 1
  outer loop
    vertex 2.136666666666667 6.233333333333333 0.9
    vertex 1.929731245438178 5.769489251735477 0.9
    vertex 2.407180833553983 5.831870614756195 0.9
  endloop
endfacet
facet normal -0 0 1
  outer loop
    vertex 2.407180833553983 5.831870614756195 0.9
    vertex 2.890620635816181 5.761559630922538 0.9
    vertex 2.63 6.233333333333333 0.9
  endloop
endfacet
facet normal -0 0 1
  outer loop
    vertex 1.15 4.753333333333333 0.9
    vertex 1.542121172047081 4.520246854686794 0.9
    vertex 1.574911310200368 5.004032022022303 0.9
  endloop
endfacet
facet normal 0 0 1
  outer loop
    vertex 1.15 5.74 0.9
    vertex 1.511145065067313 5.87218826826602 0.9
    vertex 1.15 6.233333333333333 0.9
  endloop
endfacet
facet normal 0 0 1
  outer loop
    vertex 1.15 3.766666666666667 0.9
    vertex 1.511145065067313 4.12781173173398 0.9
    vertex 1.15 4.26 0.9
  endloop
endfacet
facet normal 0 0 1
  outer loop
    vertex 3.616666666666667 4.26 0.9
    vertex 3.255521601599354 4.12781173173398 0.9
    vertex 3.616666666666667 3.766666666666667 0.9
  endloop
endfacet
facet normal 0 0 1
  outer loop
    vertex 3.616666666666667 6.233333333333333 0.9
    vertex 3.255521601599354 5.87218826826602 0.9
    vertex 3.616666666666667 5.74 0.9
  endloop
endfacet
facet normal 0 0 1
  outer loop
    vertex 1.643333333333333 3.766666666666667 0.9
    vertex 1.511145065067313 4.12781173173398 0.9
    vertex 1.15 3.766666666666667 0.9
  endloop
endfacet
facet normal 0 0 1
  outer loop
    vertex 3.616666666666667 3.766666666666667 0.9
    vertex 3.255521601599354 4.12781173173398 0.9
    vertex 3.123333333333334 3.766666666666667 0.9
  endloop
endfacet
facet normal -0 0 1
  outer loop
    vertex 1.15 6.233333333333333 0.9
    vertex 1.511145065067313 5.87218826826602 0.9
    vertex 1.643333333333333 6.233333333333333 0.9
  endloop
endfacet
facet normal -0 0 1
  outer loop
    vertex 3.123333333333334 6.233333333333333 0.9
    vertex 3.255521601599354 5.87218826826602 0.9
    vertex 3.616666666666667 6.233333333333333 0.9
  endloop
endfacet
facet normal -0 0 1
  outer loop
    vertex 2.431717597600968 4.999999999999999 0.9
    vertex 2.810572532533656 4.92488432521198 0.9
    vertex 2.628824369804674 5.405048488663687 0.9
  endloop
endfacet
facet normal 0 0 1
  outer loop
    vertex 2.40314881153168 4.17045727424376 0.9
    vertex 2.280037299734033 4.531949446937021 0.9
    vertex 1.916321638754483 4.223486208380305 0.9
  endloop
endfacet
facet normal 0 0 1
  outer loop
    vertex 2.407180833553983 5.831870614756195 0.9
    vertex 2.628824369804674 5.405048488663687 0.9
    vertex 2.890620635816181 5.761559630922538 0.9
  endloop
endfacet
facet normal 0 0 1
  outer loop
    vertex 2.860917506019012 4.166468402503622 0.9
    vertex 2.655073966729885 4.557503791112727 0.9
    vertex 2.40314881153168 4.17045727424376 0.9
  endloop
endfacet
facet normal 0 0 1
  outer loop
    vertex 2.431717597600968 4.999999999999999 0.9
    vertex 2.280037299734035 5.468050553062978 0.9
    vertex 1.962156036825964 5.256160862278263 0.9
  endloop
endfacet
facet normal -0 0 1
  outer loop
    vertex 1.950349018260321 4.752817832650843 0.9
    vertex 2.280037299734033 4.531949446937021 0.9
    vertex 2.431717597600968 4.999999999999999 0.9
  endloop
endfacet
facet normal 0 -0 1
  outer loop
    vertex 2.810572532533656 4.92488432521198 0.9
    vertex 2.943863872573855 5.269438794063741 0.9
    vertex 2.628824369804674 5.405048488663687 0.9
  endloop
endfacet
facet normal -0 0 1
  outer loop
    vertex 1.929731245438178 5.769489251735477 0.9
    vertex 2.280037299734035 5.468050553062978 0.9
    vertex 2.407180833553983 5.831870614756195 0.9
  endloop
endfacet
facet normal 0 0 1
  outer loop
    vertex 2.628824369804674 5.405048488663687 0.9
    vertex 2.280037299734035 5.468050553062978 0.9
    vertex 2.431717597600968 4.999999999999999 0.9
  endloop
endfacet
facet normal 0 0 1
  outer loop
    vertex 2.431717597600968 4.999999999999999 0.9
    vertex 2.280037299734033 4.531949446937021 0.9
    vertex 2.655073966729885 4.557503791112727 0.9
  endloop
endfacet
facet normal 0 0 1
  outer loop
    vertex 1.643333333333333 6.233333333333333 0.9
    vertex 1.511145065067313 5.87218826826602 0.9
    vertex 1.929731245438178 5.769489251735477 0.9
  endloop
endfacet
facet normal -0 0 1
  outer loop
    vertex 1.15 4.26 0.9
    vertex 1.511145065067313 4.12781173173398 0.9
    vertex 1.542121172047081 4.520246854686794 0.9
  endloop
endfacet
facet normal 0 0 1
  outer loop
    vertex 2.890620635816181 5.761559630922538 0.9
    vertex 3.255521601599354 5.87218826826602 0.9
    vertex 3.123333333333334 6.233333333333333 0.9
  endloop
endfacet
facet normal 0 -0 1
  outer loop
    vertex 3.123333333333334 3.766666666666667 0.9
    vertex 3.255521601599354 4.12781173173398 0.9
    vertex 2.860917506019012 4.166468402503622 0.9
  endloop
endfacet
facet normal 0 0 1
  outer loop
    vertex 1.916321638754483 4.223486208380305 0.9
    vertex 1.511145065067313 4.12781173173398 0.9
    vertex 1.643333333333333 3.766666666666667 0.9
  endloop
endfacet
facet normal 0 0 1
  outer loop
    vertex 1.567599482885953 5.491487797118221 0.9
    vertex 1.511145065067313 5.87218826826602 0.9
    vertex 1.15 5.74 0.9
  endloop
endfacet
facet normal 0 0 1
  outer loop
    vertex 3.144050052959963 4.551263297779978 0.9
    vertex 3.255521601599354 4.12781173173398 0.9
    vertex 3.616666666666667 4.26 0.9
  endloop
endfacet
facet normal 0 0 1
  outer loop
    vertex 3.616666666666667 5.74 0.9
    vertex 3.255521601599354 5.87218826826602 0.9
    vertex 3.250951111985659 5.493140490306802 0.9
  endloop
endfacet
facet normal 0 0 1
  outer loop
    vertex 3.250951111985659 5.493140490306802 0.9
    vertex 2.943863872573855 5.269438794063741 0.9
    vertex 3.226734000464014 5.029258694855337 0.9
  endloop
endfacet
facet normal 0 -0 1
  outer loop
    vertex 3.250951111985659 5.493140490306802 0.9
    vertex 3.255521601599354 5.87218826826602 0.9
    vertex 2.890620635816181 5.761559630922538 0.9
  endloop
endfacet
facet normal -0 0 1
  outer loop
    vertex 2.860917506019012 4.166468402503622 0.9
    vertex 3.255521601599354 4.12781173173398 0.9
    vertex 3.144050052959963 4.551263297779978 0.9
  endloop
endfacet
facet normal 0 0 1
  outer loop
    vertex 1.542121172047081 4.520246854686794 0.9
    vertex 1.511145065067313 4.12781173173398 0.9
    vertex 1.916321638754483 4.223486208380305 0.9
  endloop
endfacet
facet normal 0 0 1
  outer loop
    vertex 1.929731245438178 5.769489251735477 0.9
    vertex 1.511145065067313 5.87218826826602 0.9
    vertex 1.567599482885953 5.491487797118221 0.9
  endloop
endfacet
facet normal 0 -0 1
  outer loop
    vertex 2.655073966729885 4.557503791112727 0.9
    vertex 2.810572532533656 4.92488432521198 0.9
    vertex 2.431717597600968 4.999999999999999 0.9
  endloop
endfacet
facet normal 0 0 1
  outer loop
    vertex 2.407180833553983 5.831870614756195 0.9
    vertex 2.280037299734035 5.468050553062978 0.9
    vertex 2.628824369804674 5.405048488663687 0.9
  endloop
endfacet
facet normal 0 0 1
  outer loop
    vertex 2.655073966729885 4.557503791112727 0.9
    vertex 2.280037299734033 4.531949446937021 0.9
    vertex 2.40314881153168 4.17045727424376 0.9
  endloop
endfacet
facet normal 0 0 1
  outer loop
    vertex 3.226734000464014 5.029258694855337 0.9
    vertex 2.943863872573855 5.269438794063741 0.9
    vertex 2.810572532533656 4.92488432521198 0.9
  endloop
endfacet
endsolid Created by Gmsh
