solid Created by Gmsh
facet normal -1 0 0
  outer loop
    vertex 6.383333333333334 3.766666666666667 0.25
    vertex 6.383333333333334 3.766666666666667 0.5750000000000002
    vertex 6.383333333333334 4.096354629045956 0.575
  endloop
endfacet
facet normal -1 0 0
  outer loop
    vertex 6.383333333333334 3.766666666666667 0.5750000000000002
    vertex 6.383333333333334 3.766666666666667 0.9
    vertex 6.383333333333334 4.096354629045956 0.575
  endloop
endfacet
facet normal -1 0 -0
  outer loop
    vertex 6.383333333333334 6.233333333333333 0.5750000000000002
    vertex 6.383333333333334 6.233333333333333 0.25
    vertex 6.383333333333334 5.903645370954045 0.575
  endloop
endfacet
facet normal -1 0 -0
  outer loop
    vertex 6.383333333333334 6.233333333333333 0.9
    vertex 6.383333333333334 6.233333333333333 0.5750000000000002
    vertex 6.383333333333334 5.903645370954045 0.575
  endloop
endfacet
facet normal -1 0 0
  outer loop
    vertex 6.383333333333334 3.766666666666667 0.9
    vertex 6.383333333333334 4.26 0.9
    vertex 6.383333333333334 4.096354629045956 0.575
  endloop
endfacet
facet normal -1 0 0
  outer loop
    vertex 6.383333333333334 6.233333333333333 0.25
    vertex 6.383333333333334 5.74 0.25
    vertex 6.383333333333334 5.903645370954045 0.575
  endloop
endfacet
facet normal -1 0 0
  outer loop
    vertex 6.383333333333334 5.74 0.9
    vertex 6.383333333333334 6.233333333333333 0.9
    vertex 6.383333333333334 5.903645370954045 0.575
  endloop
endfacet
facet normal -1 0 0
  outer loop
    vertex 6.383333333333334 4.26 0.25
    vertex 6.383333333333334 3.766666666666667 0.25
    vertex 6.383333333333334 4.096354629045956 0.575
  endloop
endfacet
facet normal -1 0 0
  outer loop
    vertex 6.383333333333334 5.246666666666667 0.9
    vertex 6.383333333333334 5.74 0.9
    vertex 6.383333333333334 5.493333333333333 0.575
  endloop
endfacet
facet normal -1 0 0
  outer loop
    vertex 6.383333333333334 5 0.575
    vertex 6.383333333333334 5.246666666666667 0.9
    vertex 6.383333333333334 5.493333333333333 0.575
  endloop
endfacet
facet normal -1 0 0
  outer loop
    vertex 6.383333333333334 4.753333333333333 0.25
    vertex 6.383333333333334 4.26 0.25
    vertex 6.383333333333334 4.506666666666667 0.575
  endloop
endfacet
facet normal -1 0 0
  outer loop
    vertex 6.383333333333334 5.246666666666667 0.25
    vertex 6.383333333333334 4.753333333333333 0.25
    vertex 6.383333333333334 5 0.575
  endloop
endfacet
facet normal -1 0 0
  outer loop
    vertex 6.383333333333334 4.753333333333333 0.9
    vertex 6.383333333333334 5.246666666666667 0.9
    vertex 6.383333333333334 5 0.575
  endloop
endfacet
facet normal -1 0 -0
  outer loop
    vertex 6.383333333333334 4.753333333333333 0.9
    vertex 6.383333333333334 5 0.575
    vertex 6.383333333333334 4.506666666666667 0.575
  endloop
endfacet
facet normal -1 0 0
  outer loop
    vertex 6.383333333333334 5.246666666666667 0.25
    vertex 6.383333333333334 5 0.575
    vertex 6.383333333333334 5.493333333333333 0.575
  endloop
endfacet
facet normal -1 0 0
  outer loop
    vertex 6.383333333333334 4.26 0.9
    vertex 6.383333333333334 4.753333333333333 0.9
    vertex 6.383333333333334 4.506666666666667 0.575
  endloop
endfacet
facet normal -1 -0 0
  outer loop
    vertex 6.383333333333334 5 0.575
    vertex 6.383333333333334 4.753333333333333 0.25
    vertex 6.383333333333334 4.506666666666667 0.575
  endloop
endfacet
facet normal -1 0 0
  outer loop
    vertex 6.383333333333334 5.74 0.25
    vertex 6.383333333333334 5.246666666666667 0.25
    vertex 6.383333333333334 5.493333333333333 0.575
  endloop
endfacet
facet normal -1 -0 0
  outer loop
    vertex 6.383333333333334 4.506666666666667 0.575
    vertex 6.383333333333334 4.26 0.25
    vertex 6.383333333333334 4.096354629045956 0.575
  endloop
endfacet
facet normal -1 0 0
  outer loop
    vertex 6.383333333333334 5.493333333333333 0.575
    vertex 6.383333333333334 5.74 0.9
    vertex 6.383333333333334 5.903645370954045 0.575
  endloop
endfacet
facet normal -1 0 0
  outer loop
    vertex 6.383333333333334 5.74 0.25
    vertex 6.383333333333334 5.493333333333333 0.575
    vertex 6.383333333333334 5.903645370954045 0.575
  endloop
endfacet
facet normal -1 0 -0
  outer loop
    vertex 6.383333333333334 4.26 0.9
    vertex 6.383333333333334 4.506666666666667 0.575
    vertex 6.383333333333334 4.096354629045956 0.575
  endloop
endfacet
facet normal 1 0 0
  outer loop
    vertex 8.850000000000001 3.766666666666667 0.25
    vertex 8.850000000000001 4.096354629045956 0.575
    vertex 8.850000000000001 3.766666666666667 0.5750000000000002
  endloop
endfacet
facet normal 1 -0 0
  outer loop
    vertex 8.850000000000001 3.766666666666667 0.5750000000000002
    vertex 8.850000000000001 4.096354629045956 0.575
    vertex 8.850000000000001 3.766666666666667 0.9
  endloop
endfacet
facet normal 1 0 0
  outer loop
    vertex 8.850000000000001 6.233333333333333 0.5750000000000002
    vertex 8.850000000000001 5.903645370954045 0.575
    vertex 8.850000000000001 6.233333333333333 0.25
  endloop
endfacet
facet normal 1 0 0
  outer loop
    vertex 8.850000000000001 6.233333333333333 0.9
    vertex 8.850000000000001 5.903645370954045 0.575
    vertex 8.850000000000001 6.233333333333333 0.5750000000000002
  endloop
endfacet
facet normal 1 -0 0
  outer loop
    vertex 8.850000000000001 3.766666666666667 0.9
    vertex 8.850000000000001 4.096354629045956 0.575
    vertex 8.850000000000001 4.26 0.9
  endloop
endfacet
facet normal 1 0 0
  outer loop
    vertex 8.850000000000001 6.233333333333333 0.25
    vertex 8.850000000000001 5.903645370954045 0.575
    vertex 8.850000000000001 5.74 0.25
  endloop
endfacet
facet normal 1 -0 0
  outer loop
    vertex 8.850000000000001 5.74 0.9
    vertex 8.850000000000001 5.903645370954045 0.575
    vertex 8.850000000000001 6.233333333333333 0.9
  endloop
endfacet
facet normal 1 0 0
  outer loop
    vertex 8.850000000000001 4.26 0.25
    vertex 8.850000000000001 4.096354629045956 0.575
    vertex 8.850000000000001 3.766666666666667 0.25
  endloop
endfacet
facet normal 1 -0 0
  outer loop
    vertex 8.850000000000001 5.246666666666667 0.9
    vertex 8.850000000000001 5.493333333333333 0.575
    vertex 8.850000000000001 5.74 0.9
  endloop
endfacet
facet normal 1 0 0
  outer loop
    vertex 8.850000000000001 5 0.575
    vertex 8.850000000000001 5.493333333333333 0.575
    vertex 8.850000000000001 5.246666666666667 0.9
  endloop
endfacet
facet normal 1 0 0
  outer loop
    vertex 8.850000000000001 4.753333333333333 0.25
    vertex 8.850000000000001 4.506666666666667 0.575
    vertex 8.850000000000001 4.26 0.25
  endloop
endfacet
facet normal 1 0 0
  outer loop
    vertex 8.850000000000001 5.246666666666667 0.25
    vertex 8.850000000000001 5 0.575
    vertex 8.850000000000001 4.753333333333333 0.25
  endloop
endfacet
facet normal 1 -0 0
  outer loop
    vertex 8.850000000000001 4.753333333333333 0.9
    vertex 8.850000000000001 5 0.575
    vertex 8.850000000000001 5.246666666666667 0.9
  endloop
endfacet
facet normal 1 0 0
  outer loop
    vertex 8.850000000000001 4.753333333333333 0.9
    vertex 8.850000000000001 4.506666666666667 0.575
    vertex 8.850000000000001 5 0.575
  endloop
endfacet
facet normal 1 0 -0
  outer loop
    vertex 8.850000000000001 5.246666666666667 0.25
    vertex 8.850000000000001 5.493333333333333 0.575
    vertex 8.850000000000001 5 0.575
  endloop
endfacet
facet normal 1 -0 0
  outer loop
    vertex 8.850000000000001 4.26 0.9
    vertex 8.850000000000001 4.506666666666667 0.575
    vertex 8.850000000000001 4.753333333333333 0.9
  endloop
endfacet
facet normal 1 0 0
  outer loop
    vertex 8.850000000000001 5 0.575
    vertex 8.850000000000001 4.506666666666667 0.575
    vertex 8.850000000000001 4.753333333333333 0.25
  endloop
endfacet
facet normal 1 0 0
  outer loop
    vertex 8.850000000000001 5.74 0.25
    vertex 8.850000000000001 5.493333333333333 0.575
    vertex 8.850000000000001 5.246666666666667 0.25
  endloop
endfacet
facet normal 1 0 0
  outer loop
    vertex 8.850000000000001 4.506666666666667 0.575
    vertex 8.850000000000001 4.096354629045956 0.575
    vertex 8.850000000000001 4.26 0.25
  endloop
endfacet
facet normal 1 0 0
  outer loop
    vertex 8.850000000000001 5.493333333333333 0.575
    vertex 8.850000000000001 5.903645370954045 0.575
    vertex 8.850000000000001 5.74 0.9
  endloop
endfacet
facet normal 1 0 -0
  outer loop
    vertex 8.850000000000001 5.74 0.25
    vertex 8.850000000000001 5.903645370954045 0.575
    vertex 8.850000000000001 5.493333333333333 0.575
  endloop
endfacet
facet normal 1 0 0
  outer loop
    vertex 8.850000000000001 4.26 0.9
    vertex 8.850000000000001 4.096354629045956 0.575
    vertex 8.850000000000001 4.506666666666667 0.575
  endloop
endfacet
facet normal 0 -1 0
  outer loop
    vertex 6.383333333333334 3.766666666666667 0.9
    vertex 6.383333333333334 3.766666666666667 0.5750000000000002
    vertex 6.713021295712623 3.766666666666667 0.5750000000000001
  endloop
endfacet
facet normal -0 -1 0
  outer loop
    vertex 8.850000000000001 3.766666666666667 0.5750000000000002
    vertex 8.850000000000001 3.766666666666667 0.9
    vertex 8.520312037620712 3.766666666666667 0.575
  endloop
endfacet
facet normal 0 -1 0
  outer loop
    vertex 6.383333333333334 3.766666666666667 0.5750000000000002
    vertex 6.383333333333334 3.766666666666667 0.25
    vertex 6.713021295712623 3.766666666666667 0.5750000000000001
  endloop
endfacet
facet normal 0 -1 0
  outer loop
    vertex 8.850000000000001 3.766666666666667 0.25
    vertex 8.850000000000001 3.766666666666667 0.5750000000000002
    vertex 8.520312037620712 3.766666666666667 0.575
  endloop
endfacet
facet normal 0 -1 0
  outer loop
    vertex 8.356666666666667 3.766666666666667 0.25
    vertex 8.850000000000001 3.766666666666667 0.25
    vertex 8.520312037620712 3.766666666666667 0.575
  endloop
endfacet
facet normal 0 -1 0
  outer loop
    vertex 6.383333333333334 3.766666666666667 0.25
    vertex 6.876666666666667 3.766666666666667 0.25
    vertex 6.713021295712623 3.766666666666667 0.5750000000000001
  endloop
endfacet
facet normal -0 -1 0
  outer loop
    vertex 6.876666666666667 3.766666666666667 0.9
    vertex 6.383333333333334 3.766666666666667 0.9
    vertex 6.713021295712623 3.766666666666667 0.5750000000000001
  endloop
endfacet
facet normal -0 -1 0
  outer loop
    vertex 8.850000000000001 3.766666666666667 0.9
    vertex 8.356666666666667 3.766666666666667 0.9
    vertex 8.520312037620712 3.766666666666667 0.575
  endloop
endfacet
facet normal 0 -1 0
  outer loop
    vertex 7.123333333333334 3.766666666666667 0.575
    vertex 7.370000000000001 3.766666666666667 0.25
    vertex 7.616666666666668 3.766666666666667 0.575
  endloop
endfacet
facet normal -0 -1 0
  outer loop
    vertex 7.863333333333334 3.766666666666667 0.9
    vertex 7.370000000000001 3.766666666666667 0.9
    vertex 7.616666666666668 3.766666666666667 0.575
  endloop
endfacet
facet normal 0 -1 0
  outer loop
    vertex 7.863333333333334 3.766666666666667 0.25
    vertex 8.356666666666667 3.766666666666667 0.25
    vertex 8.110000000000001 3.766666666666667 0.575
  endloop
endfacet
facet normal 0 -1 0
  outer loop
    vertex 6.876666666666667 3.766666666666667 0.25
    vertex 7.370000000000001 3.766666666666667 0.25
    vertex 7.123333333333334 3.766666666666667 0.575
  endloop
endfacet
facet normal -0 -1 0
  outer loop
    vertex 7.370000000000001 3.766666666666667 0.9
    vertex 6.876666666666667 3.766666666666667 0.9
    vertex 7.123333333333334 3.766666666666667 0.575
  endloop
endfacet
facet normal 0 -1 -0
  outer loop
    vertex 7.370000000000001 3.766666666666667 0.9
    vertex 7.123333333333334 3.766666666666667 0.575
    vertex 7.616666666666668 3.766666666666667 0.575
  endloop
endfacet
facet normal 0 -1 -0
  outer loop
    vertex 7.863333333333334 3.766666666666667 0.9
    vertex 7.616666666666668 3.766666666666667 0.575
    vertex 8.110000000000001 3.766666666666667 0.575
  endloop
endfacet
facet normal 0 -1 0
  outer loop
    vertex 7.370000000000001 3.766666666666667 0.25
    vertex 7.863333333333334 3.766666666666667 0.25
    vertex 7.616666666666668 3.766666666666667 0.575
  endloop
endfacet
facet normal 0 -1 0
  outer loop
    vertex 7.616666666666668 3.766666666666667 0.575
    vertex 7.863333333333334 3.766666666666667 0.25
    vertex 8.110000000000001 3.766666666666667 0.575
  endloop
endfacet
facet normal -0 -1 0
  outer loop
    vertex 8.356666666666667 3.766666666666667 0.9
    vertex 7.863333333333334 3.766666666666667 0.9
    vertex 8.110000000000001 3.766666666666667 0.575
  endloop
endfacet
facet normal 0 -1 0
  outer loop
    vertex 8.110000000000001 3.766666666666667 0.575
    vertex 8.356666666666667 3.766666666666667 0.25
    vertex 8.520312037620712 3.766666666666667 0.575
  endloop
endfacet
facet normal 0 -1 -0
  outer loop
    vertex 8.356666666666667 3.766666666666667 0.9
    vertex 8.110000000000001 3.766666666666667 0.575
    vertex 8.520312037620712 3.766666666666667 0.575
  endloop
endfacet
facet normal 0 -1 0
  outer loop
    vertex 6.876666666666667 3.766666666666667 0.25
    vertex 7.123333333333334 3.766666666666667 0.575
    vertex 6.713021295712623 3.766666666666667 0.5750000000000001
  endloop
endfacet
facet normal 0 -1 0
  outer loop
    vertex 7.123333333333334 3.766666666666667 0.575
    vertex 6.876666666666667 3.766666666666667 0.9
    vertex 6.713021295712623 3.766666666666667 0.5750000000000001
  endloop
endfacet
facet normal 0 1 0
  outer loop
    vertex 6.383333333333334 6.233333333333333 0.9
    vertex 6.713021295712623 6.233333333333333 0.5750000000000001
    vertex 6.383333333333334 6.233333333333333 0.5750000000000002
  endloop
endfacet
facet normal 0 1 -0
  outer loop
    vertex 8.850000000000001 6.233333333333333 0.5750000000000002
    vertex 8.520312037620712 6.233333333333333 0.575
    vertex 8.850000000000001 6.233333333333333 0.9
  endloop
endfacet
facet normal 0 1 0
  outer loop
    vertex 6.383333333333334 6.233333333333333 0.5750000000000002
    vertex 6.713021295712623 6.233333333333333 0.5750000000000001
    vertex 6.383333333333334 6.233333333333333 0.25
  endloop
endfacet
facet normal 0 1 -0
  outer loop
    vertex 8.850000000000001 6.233333333333333 0.25
    vertex 8.520312037620712 6.233333333333333 0.575
    vertex 8.850000000000001 6.233333333333333 0.5750000000000002
  endloop
endfacet
facet normal 0 1 0
  outer loop
    vertex 8.356666666666667 6.233333333333333 0.25
    vertex 8.520312037620712 6.233333333333333 0.575
    vertex 8.850000000000001 6.233333333333333 0.25
  endloop
endfacet
facet normal 0 1 0
  outer loop
    vertex 6.383333333333334 6.233333333333333 0.25
    vertex 6.713021295712623 6.233333333333333 0.5750000000000001
    vertex 6.876666666666667 6.233333333333333 0.25
  endloop
endfacet
facet normal 0 1 0
  outer loop
    vertex 6.876666666666667 6.233333333333333 0.9
    vertex 6.713021295712623 6.233333333333333 0.5750000000000001
    vertex 6.383333333333334 6.233333333333333 0.9
  endloop
endfacet
facet normal 0 1 0
  outer loop
    vertex 8.850000000000001 6.233333333333333 0.9
    vertex 8.520312037620712 6.233333333333333 0.575
    vertex 8.356666666666667 6.233333333333333 0.9
  endloop
endfacet
facet normal 0 1 0
  outer loop
    vertex 7.863333333333334 6.233333333333333 0.9
    vertex 7.616666666666668 6.233333333333333 0.575
    vertex 7.370000000000001 6.233333333333333 0.9
  endloop
endfacet
facet normal 0 1 0
  outer loop
    vertex 7.863333333333334 6.233333333333333 0.25
    vertex 8.110000000000001 6.233333333333333 0.575
    vertex 8.356666666666667 6.233333333333333 0.25
  endloop
endfacet
facet normal -0 1 0
  outer loop
    vertex 7.616666666666668 6.233333333333333 0.575
    vertex 8.110000000000001 6.233333333333333 0.575
    vertex 7.863333333333334 6.233333333333333 0.25
  endloop
endfacet
facet normal 0 1 0
  outer loop
    vertex 6.876666666666667 6.233333333333333 0.25
    vertex 7.123333333333334 6.233333333333333 0.575
    vertex 7.370000000000001 6.233333333333333 0.25
  endloop
endfacet
facet normal -0 1 0
  outer loop
    vertex 7.123333333333334 6.233333333333333 0.575
    vertex 7.616666666666668 6.233333333333333 0.575
    vertex 7.370000000000001 6.233333333333333 0.25
  endloop
endfacet
facet normal 0 1 0
  outer loop
    vertex 7.370000000000001 6.233333333333333 0.9
    vertex 7.123333333333334 6.233333333333333 0.575
    vertex 6.876666666666667 6.233333333333333 0.9
  endloop
endfacet
facet normal 0 1 0
  outer loop
    vertex 7.370000000000001 6.233333333333333 0.9
    vertex 7.616666666666668 6.233333333333333 0.575
    vertex 7.123333333333334 6.233333333333333 0.575
  endloop
endfacet
facet normal 0 1 0
  outer loop
    vertex 7.863333333333334 6.233333333333333 0.9
    vertex 8.110000000000001 6.233333333333333 0.575
    vertex 7.616666666666668 6.233333333333333 0.575
  endloop
endfacet
facet normal 0 1 0
  outer loop
    vertex 7.370000000000001 6.233333333333333 0.25
    vertex 7.616666666666668 6.233333333333333 0.575
    vertex 7.863333333333334 6.233333333333333 0.25
  endloop
endfacet
facet normal 0 1 0
  outer loop
    vertex 8.356666666666667 6.233333333333333 0.9
    vertex 8.110000000000001 6.233333333333333 0.575
    vertex 7.863333333333334 6.233333333333333 0.9
  endloop
endfacet
facet normal -0 1 0
  outer loop
    vertex 8.110000000000001 6.233333333333333 0.575
    vertex 8.520312037620712 6.233333333333333 0.575
    vertex 8.356666666666667 6.233333333333333 0.25
  endloop
endfacet
facet normal 0 1 0
  outer loop
    vertex 8.356666666666667 6.233333333333333 0.9
    vertex 8.520312037620712 6.233333333333333 0.575
    vertex 8.110000000000001 6.233333333333333 0.575
  endloop
endfacet
facet normal 0 1 -0
  outer loop
    vertex 6.876666666666667 6.233333333333333 0.25
    vertex 6.713021295712623 6.233333333333333 0.5750000000000001
    vertex 7.123333333333334 6.233333333333333 0.575
  endloop
endfacet
facet normal 0 1 0
  outer loop
    vertex 7.123333333333334 6.233333333333333 0.575
    vertex 6.713021295712623 6.233333333333333 0.5750000000000001
    vertex 6.876666666666667 6.233333333333333 0.9
  endloop
endfacet
facet normal -0 0 -1
  outer loop
    vertex 8.43159797354282 5.492172761717218 0.25
    vertex 8.042834498059793 5.254332885411773 0.25
    vertex 8.075135847272715 5.783821822515564 0.25
  endloop
endfacet
facet normal 0 0 -1
  outer loop
    vertex 8.037432416228222 4.744551957941585 0.25
    vertex 8.432259124439124 4.508757102178565 0.25
    vertex 8.070189763187432 4.230647565338327 0.25
  endloop
endfacet
facet normal -0 0 -1
  outer loop
    vertex 7.344174029162781 4.557069621338925 0.25
    vertex 6.855949947040038 4.551263297779978 0.25
    vertex 7.189427467466344 4.924884325211979 0.25
  endloop
endfacet
facet normal 0 0 -1
  outer loop
    vertex 7.138602491359286 4.166191272860771 0.25
    vertex 6.855949947040038 4.551263297779978 0.25
    vertex 7.344174029162781 4.557069621338925 0.25
  endloop
endfacet
facet normal 0 -0 -1
  outer loop
    vertex 8.037432416228222 4.744551957941585 0.25
    vertex 8.070189763187432 4.230647565338327 0.25
    vertex 7.719962700265969 4.531949446937022 0.25
  endloop
endfacet
facet normal 0 0 -1
  outer loop
    vertex 8.075135847272715 5.783821822515564 0.25
    vertex 8.042834498059793 5.254332885411773 0.25
    vertex 7.719962700265968 5.468050553062978 0.25
  endloop
endfacet
facet normal 0 0 -1
  outer loop
    vertex 6.749048888014341 5.493140490306802 0.25
    vertex 7.10937936418382 5.761559630922539 0.25
    vertex 7.056136127426146 5.269438794063742 0.25
  endloop
endfacet
facet normal 0 -0 -1
  outer loop
    vertex 7.10937936418382 5.761559630922539 0.25
    vertex 7.371175630195328 5.405048488663686 0.25
    vertex 7.056136127426146 5.269438794063742 0.25
  endloop
endfacet
facet normal 0 0 -1
  outer loop
    vertex 6.855949947040038 4.551263297779978 0.25
    vertex 6.773265999535987 5.029258694855337 0.25
    vertex 7.189427467466344 4.924884325211979 0.25
  endloop
endfacet
facet normal 0 0 -1
  outer loop
    vertex 6.383333333333334 4.753333333333333 0.25
    vertex 6.773265999535987 5.029258694855337 0.25
    vertex 6.855949947040038 4.551263297779978 0.25
  endloop
endfacet
facet normal -0 0 -1
  outer loop
    vertex 8.422760800799679 5 0.25
    vertex 8.037432416228222 4.744551957941585 0.25
    vertex 8.042834498059793 5.254332885411773 0.25
  endloop
endfacet
facet normal 0 0 -1
  outer loop
    vertex 8.422760800799679 5 0.25
    vertex 8.042834498059793 5.254332885411773 0.25
    vertex 8.43159797354282 5.492172761717218 0.25
  endloop
endfacet
facet normal 0 0 -1
  outer loop
    vertex 6.383333333333334 4.26 0.25
    vertex 6.383333333333334 4.753333333333333 0.25
    vertex 6.855949947040038 4.551263297779978 0.25
  endloop
endfacet
facet normal 0 0 -1
  outer loop
    vertex 6.383333333333334 5.246666666666667 0.25
    vertex 6.383333333333334 5.74 0.25
    vertex 6.749048888014341 5.493140490306802 0.25
  endloop
endfacet
facet normal 0 -0 -1
  outer loop
    vertex 8.850000000000001 4.753333333333333 0.25
    vertex 8.850000000000001 4.26 0.25
    vertex 8.432259124439124 4.508757102178565 0.25
  endloop
endfacet
facet normal 0 -0 -1
  outer loop
    vertex 8.850000000000001 5.74 0.25
    vertex 8.850000000000001 5.246666666666667 0.25
    vertex 8.43159797354282 5.492172761717218 0.25
  endloop
endfacet
facet normal 0 0 -1
  outer loop
    vertex 7.370000000000001 6.233333333333333 0.25
    vertex 7.863333333333334 6.233333333333333 0.25
    vertex 7.592819166446018 5.831870614756195 0.25
  endloop
endfacet
facet normal 0 0 -1
  outer loop
    vertex 7.863333333333334 3.766666666666667 0.25
    vertex 7.370000000000001 3.766666666666667 0.25
    vertex 7.592819166446018 4.168129385243805 0.25
  endloop
endfacet
facet normal 0 0 -1
  outer loop
    vertex 6.383333333333334 4.753333333333333 0.25
    vertex 6.383333333333334 5.246666666666667 0.25
    vertex 6.773265999535987 5.029258694855337 0.25
  endloop
endfacet
facet normal 0 0 -1
  outer loop
    vertex 8.422760800799679 5 0.25
    vertex 8.850000000000001 4.753333333333333 0.25
    vertex 8.432259124439124 4.508757102178565 0.25
  endloop
endfacet
facet normal 0 -0 -1
  outer loop
    vertex 8.422760800799679 5 0.25
    vertex 8.432259124439124 4.508757102178565 0.25
    vertex 8.037432416228222 4.744551957941585 0.25
  endloop
endfacet
facet normal 0 -0 -1
  outer loop
    vertex 8.850000000000001 5.246666666666667 0.25
    vertex 8.850000000000001 4.753333333333333 0.25
    vertex 8.422760800799679 5 0.25
  endloop
endfacet
facet normal 0 0 -1
  outer loop
    vertex 8.042834498059793 5.254332885411773 0.25
    vertex 8.037432416228222 4.744551957941585 0.25
    vertex 7.568282402399032 4.999999999999999 0.25
  endloop
endfacet
facet normal 0 0 -1
  outer loop
    vertex 6.773265999535987 5.029258694855337 0.25
    vertex 6.383333333333334 5.246666666666667 0.25
    vertex 6.749048888014341 5.493140490306802 0.25
  endloop
endfacet
facet normal -0 0 -1
  outer loop
    vertex 8.850000000000001 5.246666666666667 0.25
    vertex 8.422760800799679 5 0.25
    vertex 8.43159797354282 5.492172761717218 0.25
  endloop
endfacet
facet normal 0 0 -1
  outer loop
    vertex 7.863333333333334 6.233333333333333 0.25
    vertex 8.356666666666667 6.233333333333333 0.25
    vertex 8.075135847272715 5.783821822515564 0.25
  endloop
endfacet
facet normal 0 0 -1
  outer loop
    vertex 7.370000000000001 3.766666666666667 0.25
    vertex 6.876666666666667 3.766666666666667 0.25
    vertex 7.138602491359286 4.166191272860771 0.25
  endloop
endfacet
facet normal 0 0 -1
  outer loop
    vertex 6.876666666666667 6.233333333333333 0.25
    vertex 7.370000000000001 6.233333333333333 0.25
    vertex 7.10937936418382 5.761559630922539 0.25
  endloop
endfacet
facet normal 0 0 -1
  outer loop
    vertex 8.356666666666667 3.766666666666667 0.25
    vertex 7.863333333333334 3.766666666666667 0.25
    vertex 8.070189763187432 4.230647565338327 0.25
  endloop
endfacet
facet normal 0 0 -1
  outer loop
    vertex 7.863333333333334 3.766666666666667 0.25
    vertex 7.592819166446018 4.168129385243805 0.25
    vertex 8.070189763187432 4.230647565338327 0.25
  endloop
endfacet
facet normal 0 -0 -1
  outer loop
    vertex 7.370000000000001 6.233333333333333 0.25
    vertex 7.592819166446018 5.831870614756195 0.25
    vertex 7.10937936418382 5.761559630922539 0.25
  endloop
endfacet
facet normal 0 0 -1
  outer loop
    vertex 7.592819166446018 5.831870614756195 0.25
    vertex 7.863333333333334 6.233333333333333 0.25
    vertex 8.075135847272715 5.783821822515564 0.25
  endloop
endfacet
facet normal 0 0 -1
  outer loop
    vertex 7.592819166446018 4.168129385243805 0.25
    vertex 7.370000000000001 3.766666666666667 0.25
    vertex 7.138602491359286 4.166191272860771 0.25
  endloop
endfacet
facet normal 0 0 -1
  outer loop
    vertex 6.876666666666667 3.766666666666667 0.25
    vertex 6.383333333333334 3.766666666666667 0.25
    vertex 6.744478398400647 4.12781173173398 0.25
  endloop
endfacet
facet normal 0 0 -1
  outer loop
    vertex 6.383333333333334 3.766666666666667 0.25
    vertex 6.383333333333334 4.26 0.25
    vertex 6.744478398400647 4.12781173173398 0.25
  endloop
endfacet
facet normal 0 0 -1
  outer loop
    vertex 6.383333333333334 5.74 0.25
    vertex 6.383333333333334 6.233333333333333 0.25
    vertex 6.744478398400647 5.87218826826602 0.25
  endloop
endfacet
facet normal 0 0 -1
  outer loop
    vertex 6.383333333333334 6.233333333333333 0.25
    vertex 6.876666666666667 6.233333333333333 0.25
    vertex 6.744478398400647 5.87218826826602 0.25
  endloop
endfacet
facet normal 0 -0 -1
  outer loop
    vertex 8.850000000000001 6.233333333333333 0.25
    vertex 8.850000000000001 5.74 0.25
    vertex 8.488854934932689 5.87218826826602 0.25
  endloop
endfacet
facet normal 0 -0 -1
  outer loop
    vertex 8.850000000000001 4.26 0.25
    vertex 8.850000000000001 3.766666666666667 0.25
    vertex 8.488854934932689 4.12781173173398 0.25
  endloop
endfacet
facet normal 0 0 -1
  outer loop
    vertex 8.356666666666667 6.233333333333333 0.25
    vertex 8.850000000000001 6.233333333333333 0.25
    vertex 8.488854934932689 5.87218826826602 0.25
  endloop
endfacet
facet normal 0 0 -1
  outer loop
    vertex 8.850000000000001 3.766666666666667 0.25
    vertex 8.356666666666667 3.766666666666667 0.25
    vertex 8.488854934932689 4.12781173173398 0.25
  endloop
endfacet
facet normal 0 -0 -1
  outer loop
    vertex 7.371175630195328 5.405048488663686 0.25
    vertex 7.568282402399032 4.999999999999999 0.25
    vertex 7.189427467466344 4.924884325211979 0.25
  endloop
endfacet
facet normal 0 0 -1
  outer loop
    vertex 7.10937936418382 5.761559630922539 0.25
    vertex 7.592819166446018 5.831870614756195 0.25
    vertex 7.371175630195328 5.405048488663686 0.25
  endloop
endfacet
facet normal -0 0 -1
  outer loop
    vertex 7.592819166446018 4.168129385243805 0.25
    vertex 7.138602491359286 4.166191272860771 0.25
    vertex 7.344174029162781 4.557069621338925 0.25
  endloop
endfacet
facet normal -0 0 -1
  outer loop
    vertex 8.042834498059793 5.254332885411773 0.25
    vertex 7.568282402399032 4.999999999999999 0.25
    vertex 7.719962700265968 5.468050553062978 0.25
  endloop
endfacet
facet normal 0 0 -1
  outer loop
    vertex 7.568282402399032 4.999999999999999 0.25
    vertex 8.037432416228222 4.744551957941585 0.25
    vertex 7.719962700265969 4.531949446937022 0.25
  endloop
endfacet
facet normal 0 0 -1
  outer loop
    vertex 7.371175630195328 5.405048488663686 0.25
    vertex 7.189427467466344 4.924884325211979 0.25
    vertex 7.056136127426146 5.269438794063742 0.25
  endloop
endfacet
facet normal -0 0 -1
  outer loop
    vertex 8.070189763187432 4.230647565338327 0.25
    vertex 7.592819166446018 4.168129385243805 0.25
    vertex 7.719962700265969 4.531949446937022 0.25
  endloop
endfacet
facet normal 0 0 -1
  outer loop
    vertex 7.592819166446018 5.831870614756195 0.25
    vertex 8.075135847272715 5.783821822515564 0.25
    vertex 7.719962700265968 5.468050553062978 0.25
  endloop
endfacet
facet normal 0 0 -1
  outer loop
    vertex 7.568282402399032 4.999999999999999 0.25
    vertex 7.371175630195328 5.405048488663686 0.25
    vertex 7.719962700265968 5.468050553062978 0.25
  endloop
endfacet
facet normal 0 0 -1
  outer loop
    vertex 7.344174029162781 4.557069621338925 0.25
    vertex 7.568282402399032 4.999999999999999 0.25
    vertex 7.719962700265969 4.531949446937022 0.25
  endloop
endfacet
facet normal 0 0 -1
  outer loop
    vertex 8.075135847272715 5.783821822515564 0.25
    vertex 8.356666666666667 6.233333333333333 0.25
    vertex 8.488854934932689 5.87218826826602 0.25
  endloop
endfacet
facet normal 0 -0 -1
  outer loop
    vertex 6.876666666666667 6.233333333333333 0.25
    vertex 7.10937936418382 5.761559630922539 0.25
    vertex 6.744478398400647 5.87218826826602 0.25
  endloop
endfacet
facet normal 0 0 -1
  outer loop
    vertex 7.138602491359286 4.166191272860771 0.25
    vertex 6.876666666666667 3.766666666666667 0.25
    vertex 6.744478398400647 4.12781173173398 0.25
  endloop
endfacet
facet normal 0 0 -1
  outer loop
    vertex 8.356666666666667 3.766666666666667 0.25
    vertex 8.070189763187432 4.230647565338327 0.25
    vertex 8.488854934932689 4.12781173173398 0.25
  endloop
endfacet
facet normal -0 0 -1
  outer loop
    vertex 8.850000000000001 5.74 0.25
    vertex 8.43159797354282 5.492172761717218 0.25
    vertex 8.488854934932689 5.87218826826602 0.25
  endloop
endfacet
facet normal 0 0 -1
  outer loop
    vertex 6.383333333333334 4.26 0.25
    vertex 6.855949947040038 4.551263297779978 0.25
    vertex 6.744478398400647 4.12781173173398 0.25
  endloop
endfacet
facet normal 0 0 -1
  outer loop
    vertex 8.432259124439124 4.508757102178565 0.25
    vertex 8.850000000000001 4.26 0.25
    vertex 8.488854934932689 4.12781173173398 0.25
  endloop
endfacet
facet normal 0 0 -1
  outer loop
    vertex 6.749048888014341 5.493140490306802 0.25
    vertex 6.383333333333334 5.74 0.25
    vertex 6.744478398400647 5.87218826826602 0.25
  endloop
endfacet
facet normal 0 0 -1
  outer loop
    vertex 6.773265999535987 5.029258694855337 0.25
    vertex 6.749048888014341 5.493140490306802 0.25
    vertex 7.056136127426146 5.269438794063742 0.25
  endloop
endfacet
facet normal 0 0 -1
  outer loop
    vertex 8.43159797354282 5.492172761717218 0.25
    vertex 8.075135847272715 5.783821822515564 0.25
    vertex 8.488854934932689 5.87218826826602 0.25
  endloop
endfacet
facet normal 0 -0 -1
  outer loop
    vertex 6.855949947040038 4.551263297779978 0.25
    vertex 7.138602491359286 4.166191272860771 0.25
    vertex 6.744478398400647 4.12781173173398 0.25
  endloop
endfacet
facet normal 0 0 -1
  outer loop
    vertex 8.070189763187432 4.230647565338327 0.25
    vertex 8.432259124439124 4.508757102178565 0.25
    vertex 8.488854934932689 4.12781173173398 0.25
  endloop
endfacet
facet normal -0 0 -1
  outer loop
    vertex 7.10937936418382 5.761559630922539 0.25
    vertex 6.749048888014341 5.493140490306802 0.25
    vertex 6.744478398400647 5.87218826826602 0.25
  endloop
endfacet
facet normal 0 0 -1
  outer loop
    vertex 7.568282402399032 4.999999999999999 0.25
    vertex 7.344174029162781 4.557069621338925 0.25
    vertex 7.189427467466344 4.924884325211979 0.25
  endloop
endfacet
facet normal 0 0 -1
  outer loop
    vertex 7.371175630195328 5.405048488663686 0.25
    vertex 7.592819166446018 5.831870614756195 0.25
    vertex 7.719962700265968 5.468050553062978 0.25
  endloop
endfacet
facet normal 0 0 -1
  outer loop
    vertex 7.592819166446018 4.168129385243805 0.25
    vertex 7.344174029162781 4.557069621338925 0.25
    vertex 7.719962700265969 4.531949446937022 0.25
  endloop
endfacet
facet normal 0 0 -1
  outer loop
    vertex 7.189427467466344 4.924884325211979 0.25
    vertex 6.773265999535987 5.029258694855337 0.25
    vertex 7.056136127426146 5.269438794063742 0.25
  endloop
endfacet
facet normal 0 0 1
  outer loop
    vertex 6.813816985539066 5.454137765833909 0.9
    vertex 7.166953118295595 4.942251600003154 0.9
    vertex 7.33393604838265 5.41533150385462 0.9
  endloop
endfacet
facet normal -0 0 1
  outer loop
    vertex 6.712654373040118 4.980138438615633 0.9
    vertex 7.166953118295595 4.942251600003154 0.9
    vertex 6.813816985539066 5.454137765833909 0.9
  endloop
endfacet
facet normal 0 0 1
  outer loop
    vertex 8.431596571017916 5.492171811900644 0.9
    vertex 8.074693025748033 5.78356660572611 0.9
    vertex 8.042802170421783 5.254310992519651 0.9
  endloop
endfacet
facet normal 0 0 1
  outer loop
    vertex 8.037432416228224 4.744551957941585 0.9
    vertex 8.070189763187432 4.230647565338327 0.9
    vertex 8.432259124439124 4.508757102178565 0.9
  endloop
endfacet
facet normal 0 0 1
  outer loop
    vertex 7.342559093536191 4.555760861677211 0.9
    vertex 7.166953118295595 4.942251600003154 0.9
    vertex 6.847291143254914 4.544246118317163 0.9
  endloop
endfacet
facet normal -0 0 1
  outer loop
    vertex 6.813816985539066 5.454137765833909 0.9
    vertex 7.33393604838265 5.41533150385462 0.9
    vertex 7.123613488958437 5.815524046090625 0.9
  endloop
endfacet
facet normal 0 -0 1
  outer loop
    vertex 7.137571681384866 4.165355894353293 0.9
    vertex 7.342559093536191 4.555760861677211 0.9
    vertex 6.847291143254914 4.544246118317163 0.9
  endloop
endfacet
facet normal 0 0 1
  outer loop
    vertex 8.074693025748033 5.78356660572611 0.9
    vertex 7.7197687344379 5.467919195710246 0.9
    vertex 8.042802170421783 5.254310992519651 0.9
  endloop
endfacet
facet normal 0 0 1
  outer loop
    vertex 8.037432416228224 4.744551957941585 0.9
    vertex 7.719962700265968 4.531949446937022 0.9
    vertex 8.070189763187432 4.230647565338327 0.9
  endloop
endfacet
facet normal 0 -0 1
  outer loop
    vertex 6.847291143254914 4.544246118317163 0.9
    vertex 7.166953118295595 4.942251600003154 0.9
    vertex 6.712654373040118 4.980138438615633 0.9
  endloop
endfacet
facet normal -0 0 1
  outer loop
    vertex 6.383333333333334 4.753333333333333 0.9
    vertex 6.847291143254914 4.544246118317163 0.9
    vertex 6.712654373040118 4.980138438615633 0.9
  endloop
endfacet
facet normal 0 0 1
  outer loop
    vertex 7.370000000000001 6.233333333333333 0.9
    vertex 7.123613488958437 5.815524046090625 0.9
    vertex 7.588707211495126 5.829523690280966 0.9
  endloop
endfacet
facet normal 0 0 1
  outer loop
    vertex 8.422760800799679 5 0.9
    vertex 8.042802170421783 5.254310992519651 0.9
    vertex 8.037432416228224 4.744551957941585 0.9
  endloop
endfacet
facet normal 0 0 1
  outer loop
    vertex 6.383333333333334 4.26 0.9
    vertex 6.847291143254914 4.544246118317163 0.9
    vertex 6.383333333333334 4.753333333333333 0.9
  endloop
endfacet
facet normal 0 0 1
  outer loop
    vertex 8.850000000000001 4.753333333333333 0.9
    vertex 8.432259124439124 4.508757102178565 0.9
    vertex 8.850000000000001 4.26 0.9
  endloop
endfacet
facet normal 0 0 1
  outer loop
    vertex 8.850000000000001 5.74 0.9
    vertex 8.431596571017916 5.492171811900644 0.9
    vertex 8.850000000000001 5.246666666666667 0.9
  endloop
endfacet
facet normal -0 0 1
  outer loop
    vertex 7.370000000000001 6.233333333333333 0.9
    vertex 7.588707211495126 5.829523690280966 0.9
    vertex 7.863333333333334 6.233333333333333 0.9
  endloop
endfacet
facet normal 0 -0 1
  outer loop
    vertex 8.422760800799679 5 0.9
    vertex 8.431596571017916 5.492171811900644 0.9
    vertex 8.042802170421783 5.254310992519651 0.9
  endloop
endfacet
facet normal 0 0 1
  outer loop
    vertex 8.042802170421783 5.254310992519651 0.9
    vertex 7.568282402399032 4.999999999999999 0.9
    vertex 8.037432416228224 4.744551957941585 0.9
  endloop
endfacet
facet normal 0 0 1
  outer loop
    vertex 7.863333333333334 3.766666666666667 0.9
    vertex 7.592819166446018 4.168129385243805 0.9
    vertex 7.370000000000001 3.766666666666667 0.9
  endloop
endfacet
facet normal 0 0 1
  outer loop
    vertex 6.383333333333334 4.753333333333333 0.9
    vertex 6.712654373040118 4.980138438615633 0.9
    vertex 6.383333333333334 5.246666666666667 0.9
  endloop
endfacet
facet normal -0 0 1
  outer loop
    vertex 6.876666666666667 6.233333333333333 0.9
    vertex 7.123613488958437 5.815524046090625 0.9
    vertex 7.370000000000001 6.233333333333333 0.9
  endloop
endfacet
facet normal 0 0 1
  outer loop
    vertex 8.422760800799679 5 0.9
    vertex 8.432259124439124 4.508757102178565 0.9
    vertex 8.850000000000001 4.753333333333333 0.9
  endloop
endfacet
facet normal 0 0 1
  outer loop
    vertex 8.422760800799679 5 0.9
    vertex 8.037432416228224 4.744551957941585 0.9
    vertex 8.432259124439124 4.508757102178565 0.9
  endloop
endfacet
facet normal 0 0 1
  outer loop
    vertex 8.850000000000001 5.246666666666667 0.9
    vertex 8.422760800799679 5 0.9
    vertex 8.850000000000001 4.753333333333333 0.9
  endloop
endfacet
facet normal 0 0 1
  outer loop
    vertex 8.850000000000001 5.246666666666667 0.9
    vertex 8.431596571017916 5.492171811900644 0.9
    vertex 8.422760800799679 5 0.9
  endloop
endfacet
facet normal 0 0 1
  outer loop
    vertex 7.370000000000001 3.766666666666667 0.9
    vertex 7.137571681384866 4.165355894353293 0.9
    vertex 6.876666666666667 3.766666666666667 0.9
  endloop
endfacet
facet normal 0 0 1
  outer loop
    vertex 6.383333333333334 5.246666666666667 0.9
    vertex 6.813816985539066 5.454137765833909 0.9
    vertex 6.383333333333334 5.74 0.9
  endloop
endfacet
facet normal -0 0 1
  outer loop
    vertex 7.863333333333334 6.233333333333333 0.9
    vertex 8.074693025748033 5.78356660572611 0.9
    vertex 8.356666666666667 6.233333333333333 0.9
  endloop
endfacet
facet normal 0 0 1
  outer loop
    vertex 8.356666666666667 3.766666666666667 0.9
    vertex 8.070189763187432 4.230647565338327 0.9
    vertex 7.863333333333334 3.766666666666667 0.9
  endloop
endfacet
facet normal 0 -0 1
  outer loop
    vertex 7.863333333333334 3.766666666666667 0.9
    vertex 8.070189763187432 4.230647565338327 0.9
    vertex 7.592819166446018 4.168129385243805 0.9
  endloop
endfacet
facet normal -0 0 1
  outer loop
    vertex 7.588707211495126 5.829523690280966 0.9
    vertex 8.074693025748033 5.78356660572611 0.9
    vertex 7.863333333333334 6.233333333333333 0.9
  endloop
endfacet
facet normal 0 -0 1
  outer loop
    vertex 6.712654373040118 4.980138438615633 0.9
    vertex 6.813816985539066 5.454137765833909 0.9
    vertex 6.383333333333334 5.246666666666667 0.9
  endloop
endfacet
facet normal 0 0 1
  outer loop
    vertex 7.592819166446018 4.168129385243805 0.9
    vertex 7.137571681384866 4.165355894353293 0.9
    vertex 7.370000000000001 3.766666666666667 0.9
  endloop
endfacet
facet normal -0 0 1
  outer loop
    vertex 7.123613488958437 5.815524046090625 0.9
    vertex 7.33393604838265 5.41533150385462 0.9
    vertex 7.588707211495126 5.829523690280966 0.9
  endloop
endfacet
facet normal 0 0 1
  outer loop
    vertex 6.876666666666667 3.766666666666667 0.9
    vertex 6.744478398400647 4.12781173173398 0.9
    vertex 6.383333333333334 3.766666666666667 0.9
  endloop
endfacet
facet normal 0 0 1
  outer loop
    vertex 6.383333333333334 3.766666666666667 0.9
    vertex 6.744478398400647 4.12781173173398 0.9
    vertex 6.383333333333334 4.26 0.9
  endloop
endfacet
facet normal 0 0 1
  outer loop
    vertex 6.383333333333334 5.74 0.9
    vertex 6.744478398400647 5.87218826826602 0.9
    vertex 6.383333333333334 6.233333333333333 0.9
  endloop
endfacet
facet normal -0 0 1
  outer loop
    vertex 6.383333333333334 6.233333333333333 0.9
    vertex 6.744478398400647 5.87218826826602 0.9
    vertex 6.876666666666667 6.233333333333333 0.9
  endloop
endfacet
facet normal 0 0 1
  outer loop
    vertex 8.850000000000001 6.233333333333333 0.9
    vertex 8.488854934932689 5.87218826826602 0.9
    vertex 8.850000000000001 5.74 0.9
  endloop
endfacet
facet normal 0 0 1
  outer loop
    vertex 8.850000000000001 4.26 0.9
    vertex 8.488854934932689 4.12781173173398 0.9
    vertex 8.850000000000001 3.766666666666667 0.9
  endloop
endfacet
facet normal -0 0 1
  outer loop
    vertex 8.356666666666667 6.233333333333333 0.9
    vertex 8.488854934932689 5.87218826826602 0.9
    vertex 8.850000000000001 6.233333333333333 0.9
  endloop
endfacet
facet normal 0 0 1
  outer loop
    vertex 8.850000000000001 3.766666666666667 0.9
    vertex 8.488854934932689 4.12781173173398 0.9
    vertex 8.356666666666667 3.766666666666667 0.9
  endloop
endfacet
facet normal 0 0 1
  outer loop
    vertex 7.33393604838265 5.41533150385462 0.9
    vertex 7.166953118295595 4.942251600003154 0.9
    vertex 7.568282402399032 4.999999999999999 0.9
  endloop
endfacet
facet normal 0 0 1
  outer loop
    vertex 7.592819166446018 4.168129385243805 0.9
    vertex 7.342559093536191 4.555760861677211 0.9
    vertex 7.137571681384866 4.165355894353293 0.9
  endloop
endfacet
facet normal 0 0 1
  outer loop
    vertex 7.568282402399032 4.999999999999999 0.9
    vertex 7.719962700265968 4.531949446937022 0.9
    vertex 8.037432416228224 4.744551957941585 0.9
  endloop
endfacet
facet normal 0 0 1
  outer loop
    vertex 8.042802170421783 5.254310992519651 0.9
    vertex 7.7197687344379 5.467919195710246 0.9
    vertex 7.568282402399032 4.999999999999999 0.9
  endloop
endfacet
facet normal 0 0 1
  outer loop
    vertex 7.588707211495126 5.829523690280966 0.9
    vertex 7.7197687344379 5.467919195710246 0.9
    vertex 8.074693025748033 5.78356660572611 0.9
  endloop
endfacet
facet normal 0 0 1
  outer loop
    vertex 8.070189763187432 4.230647565338327 0.9
    vertex 7.719962700265968 4.531949446937022 0.9
    vertex 7.592819166446018 4.168129385243805 0.9
  endloop
endfacet
facet normal -0 0 1
  outer loop
    vertex 7.342559093536191 4.555760861677211 0.9
    vertex 7.719962700265968 4.531949446937022 0.9
    vertex 7.568282402399032 4.999999999999999 0.9
  endloop
endfacet
facet normal 0 -0 1
  outer loop
    vertex 7.568282402399032 4.999999999999999 0.9
    vertex 7.7197687344379 5.467919195710246 0.9
    vertex 7.33393604838265 5.41533150385462 0.9
  endloop
endfacet
facet normal 0 0 1
  outer loop
    vertex 6.813816985539066 5.454137765833909 0.9
    vertex 6.744478398400647 5.87218826826602 0.9
    vertex 6.383333333333334 5.74 0.9
  endloop
endfacet
facet normal 0 0 1
  outer loop
    vertex 7.137571681384866 4.165355894353293 0.9
    vertex 6.744478398400647 4.12781173173398 0.9
    vertex 6.876666666666667 3.766666666666667 0.9
  endloop
endfacet
facet normal 0 -0 1
  outer loop
    vertex 8.356666666666667 3.766666666666667 0.9
    vertex 8.488854934932689 4.12781173173398 0.9
    vertex 8.070189763187432 4.230647565338327 0.9
  endloop
endfacet
facet normal 0 0 1
  outer loop
    vertex 8.074693025748033 5.78356660572611 0.9
    vertex 8.488854934932689 5.87218826826602 0.9
    vertex 8.356666666666667 6.233333333333333 0.9
  endloop
endfacet
facet normal 0 0 1
  outer loop
    vertex 8.850000000000001 5.74 0.9
    vertex 8.488854934932689 5.87218826826602 0.9
    vertex 8.431596571017916 5.492171811900644 0.9
  endloop
endfacet
facet normal -0 0 1
  outer loop
    vertex 6.383333333333334 4.26 0.9
    vertex 6.744478398400647 4.12781173173398 0.9
    vertex 6.847291143254914 4.544246118317163 0.9
  endloop
endfacet
facet normal 0 0 1
  outer loop
    vertex 6.876666666666667 6.233333333333333 0.9
    vertex 6.744478398400647 5.87218826826602 0.9
    vertex 7.123613488958437 5.815524046090625 0.9
  endloop
endfacet
facet normal 0 0 1
  outer loop
    vertex 8.432259124439124 4.508757102178565 0.9
    vertex 8.488854934932689 4.12781173173398 0.9
    vertex 8.850000000000001 4.26 0.9
  endloop
endfacet
facet normal 0 -0 1
  outer loop
    vertex 8.431596571017916 5.492171811900644 0.9
    vertex 8.488854934932689 5.87218826826602 0.9
    vertex 8.074693025748033 5.78356660572611 0.9
  endloop
endfacet
facet normal 0 0 1
  outer loop
    vertex 7.123613488958437 5.815524046090625 0.9
    vertex 6.744478398400647 5.87218826826602 0.9
    vertex 6.813816985539066 5.454137765833909 0.9
  endloop
endfacet
facet normal 0 0 1
  outer loop
    vertex 6.847291143254914 4.544246118317163 0.9
    vertex 6.744478398400647 4.12781173173398 0.9
    vertex 7.137571681384866 4.165355894353293 0.9
  endloop
endfacet
facet normal -0 0 1
  outer loop
    vertex 8.070189763187432 4.230647565338327 0.9
    vertex 8.488854934932689 4.12781173173398 0.9
    vertex 8.432259124439124 4.508757102178565 0.9
  endloop
endfacet
facet normal 0 0 1
  outer loop
    vertex 7.568282402399032 4.999999999999999 0.9
    vertex 7.166953118295595 4.942251600003154 0.9
    vertex 7.342559093536191 4.555760861677211 0.9
  endloop
endfacet
facet normal 0 0 1
  outer loop
    vertex 7.33393604838265 5.41533150385462 0.9
    vertex 7.7197687344379 5.467919195710246 0.9
    vertex 7.588707211495126 5.829523690280966 0.9
  endloop
endfacet
facet normal 0 -0 1
  outer loop
    vertex 7.592819166446018 4.168129385243805 0.9
    vertex 7.719962700265968 4.531949446937022 0.9
    vertex 7.342559093536191 4.555760861677211 0.9
  endloop
endfacet
endsolid Created by Gmsh
